<?xml version="1.0" encoding="UTF-8"?><svg id="a" xmlns="http://www.w3.org/2000/svg" xmlns:xlink="http://www.w3.org/1999/xlink" viewBox="0 0 524.6432 1189.5911"><defs><style>.c{fill:#64554f;}.d{fill:#1f0f0f;}.e{fill:#453d3e;}.f{fill:#a2928e;}.g{fill:#ff869f;}.h{fill:#f9d5e4;}.i{fill:#5b4649;}.j{fill:#a1918e;}.k{fill:#231213;}.l{fill:#322a37;}.m{fill:#442b2f;}.n{fill:#e69f97;}.o{fill:#fd9a90;}.p{fill:#bac7ce;}.q{fill:#c24264;}.r{clip-path:url(#b);}.s{fill:#ff859f;}.t{fill:#c44768;}.u{fill:#f7f6f8;}.v{fill:#832944;}.w{fill:#f7f6f9;}.x{fill:#ff859e;}.y{fill:#ab95a6;}.z{fill:#382d2e;}.aa{fill:#a1928e;}.ab{fill:#f7fafc;}.ac{fill:#c54b6a;}.ad{fill:#2f2328;}.ae{fill:lime;}.af{fill:#2e2327;}.ag{fill:#f7fbfc;}.ah{fill:#feeadb;}.ai{fill:#552e37;}.aj{fill:#b7c5cb;}.ak{fill:none;}.al{fill:#413643;}.am{fill:#322937;}.an{fill:#4e3439;}.ao{fill:#604c4f;}.ap{fill:#523c3f;}.aq{fill:#5b4547;}.ar{fill:#312937;}.as{fill:#bac8ce;}.at{fill:#483f40;}.au{fill:#b9c7cd;}.av{fill:#5b4548;}.aw{fill:#c34766;}.ax{fill:#f9839d;}.ay{fill:#dcdad7;}.az{fill:#ff809a;}.ba{fill:#32262a;}.bb{fill:#2f2529;}.bc{fill:#f7f8fa;}.bd{fill:#f4869f;}.be{fill:#ffd9f3;}.bf{fill:#32272b;}</style><clipPath id="b"><rect class="ak" width="350.7214" height="1189.5911"/></clipPath></defs><g class="r"><path class="be" d="M50.6721,780.5682c1.0033-3.3288-2.4217-4.7208-5.0928-4.8389,5.4521-.6455,11.9775-1.7236,16.4531-3.459,10.6635-2.1157,12.3723-29.3574,1.9886-19.7991-.0139,.1224-6.0427,13.4106-15.1556,13.3811-47.729-17.9256-18.3803-97.3363,5.2432-125.4443-6.9774,35.3711,6.3192,118.5142,39.415,133.8027,3.4729,.2546,5.181-4.3501,2.2948-6.3515-6.6444-3.3249-16.1742-25.0968-15.9921-39.3583,8.2798,36.6225,50.9617,54.3284,65.1824,18.7352,1.0067-3.5456-3.9627-5.996-6.1532-3.0153-5.5169,7.6783-24.2965,10.1295-34.4687,5.9848-35.1497-23.2506,6.3199-81.1234-.4189-118.1921,4.4534,.3253,10.2565,.1357,13.8447-.8311-.5306,35.8541-6.4285,95.5827,33.9502,110.0645-12.6055,14.8945-26.5664,36.8262-28.9707,62.7568-.3364,4.1613,5.489,5.2922,6.8008,1.4442,.1367-.3905,3.0976-8.4931,14.6133-14.4814-.9199,4.3164-1.2783,8.2275-1.417,10.7334-16.7153,4.2616-9.7697,25.4687-14.5083,36.4098-.7358,1.9574-1.3286,2.5716-1.4702,2.6966-3.8304,2.0858-2.3106,9.6282-5.9754,12.2485-1.5554,.8748-3.4709,1.2623-3.7031,3.3797-1.8926,9.7659-37.5434,45.021-38.0025,57.6294-.6623,13.297,12.776,35.2573,28.43,46.1282-1.3169,51.9009,21.8077,152.8663,32.1855,190.9404,4.0394,19.6341,2.9757,24.142,3.5405,37.9976h110.3333c-13.0468-48.0347,4.9357-149.7673,5.3069-202.2446,22.9796-11.3926,15.5676-10.5555,12.5195-29.4219,1.6543-4.8945,6.793-20.1846,8.9277-27.5557,1.9873,.5127,4.2266,1.041,6.0225,1.3369,1.8945,4.1123,5.4707,11.6709,8.0615,15.9004-.7725,5.1475-2.4766,17.4795-1.8535,22.1406,1.6604,4.1087,4.6676,4.2722,13.459,9.6885,7.7764,56.1854,62.0169,144.7243,65.8064,210.1558h109.4444c-2.0038-43.1013-10.2801-183.5042-19.5732-238.6187,20.8291-17.8711,26.4033-36.1572,26.46-36.3496-1.1214-14.646-28.189-40.2636-32.9268-45.2256-.9688-16.7886-14.515-11.8839-11.3049-28.1461,1.4738-10.5939-4.1987-24.6075-5.7645-27.8373,.4904-20.6826-3.3339-30.7686-4.913-34.0176,2.0465-18.1348,2.4086-11.914-9.1443-27.0102-1.1067-1.2525-5.1447-7.2564-19.7033-33.106,43.7321-21.3035,22.8336-103.5642,19.1484-132.6553,10.224,23.9491,51.2163,114.7643,27.3413,140.4854-1.4229,2.2349,.3557,5.3798,3.0005,5.3056,31.4361-24.7085,12.5545-85.7655-2.6134-123.2343,13.0073,13.8189,34.0424,29.6511,53.248,20.5361,18.4353,36.0595,9.7755,81.4075-21.931,101.5823-1.4635,1.1882-1.7291,3.3035-.5905,4.8289,3.2365,2.8243,4.2486,1.1725,8.2625-1.8904,73.5435-34.3872,11.7035-150.365-25.9891-198.1511,10.4503-9.7263,25.4837-19.34,24.0095-44.8217-1.7351-20.9884-4.6365-52.2491-5.6375-59.5884-2.1302-14.457,6.1047-14.0826,5.4805-25.9912,1.0049-9.3726-.0596-12.5664-1.0068-13.9028,1.6648-19.8324,3.4477-42.0632-19.6631-40.5762-1.6795-9.2959-8.6413-16.9865-18.7021-15.2822-2.5406-7.7978-7.6577-10.1006-15.7754-8.8613-2.665-2.5-7.4326-6.2817-11.9209-6.3335-5.6241-13.7946-4.994-37.8345-6.2901-53.5925,.254-27.0003-9.7247-24.4738-16.7348-13.7233-11.2671,24.6102-10.8172,67.6411,2.7339,88.5906-5.0366,11.7661-7.388,29.9742-17.6328,34.6196-.0723-.0298-.1445-.0591-.2168-.0879-1.0261-2.2633-4.7203-10.8848-4.0213-11.2095-2.3201-25.9631-25.5872-85.0486-37.0754-125.935-17.9699-74.0432-72.6151-187.8596-184.5898-156.3575,31.8007-7.2784,83.9177-32.0255,50.7957-70.0609-26.4894-27.8229-79.15-4.856-87.2444,26.0679-5.8023,15.39-7.4468,31.577-7.898,40.6659C23.1909,13.5356-41.49,139.1085,31.6839,151.1021c26.6092,.0575,47.9266-26.8866,68.8808-39.5808-53.05,48.3464-52.5796,114.6779-37.1987,184.8375,12.6715,57.0493,36.8391,102.4898,28.5366,173.8529-3.7903-5.0597-3.929-17.1996-4.8666-28.3675-.6344-14.8245-9.3279-36.9223-21.5035-51.8878l.0205-.0356-3.2988-3.7637-.0732,.0635c-6.3267-6.8556-22.159-14.4592-21.1054,.8505,3.1116,13.6686,7.3848,19.1149,11.702,28.7296l.0459-.3945c6.8613,11.7143,10.3101,21.1581,9.1855,30.7539-.6475,.8228-1.165,1.8857-1.5498,3.1821-11.2553-.1702-14.0532,11.6439-17.566,19.8161-14.9603,9.7366-20.6631,7.9252-19.8666,29.8221-17.1899,12.2103-9.1377,21.7611-3.8682,37.5049l-.167,.1533,.3965,.8311-.1182,.1309c.5585,.8003,1.5195,2.7632,1.9229,3.667l.2148-.1074,.4766,.7979,.2598-.1562c.5584,.6254,1.1954,1.261,1.8691,1.873-.001,.3657,.0518,.7769,.1973,1.2188-2.9323,5.8126,9.5577,10.0777,13.6729,10.5146,9.7897,10.8614,11.1714,11.5803,15.3789,27.541-23.7017,55.8648-69.8279,158.8366-13.5209,199.9857,4.7018,1.4485,9.8332,1.2968,10.9311-2.3666Zm394.4277-228.4888c.9876-.0081,1.9921-.0723,2.9639-.2886,7.6518,7.0316,12.1806,13.6632,21.5496,27.3946,9.3079,14.9655,21.8799,28.476,31.1007,42.6493-28.6575,11.4243-51.0652-39.3726-62.7324-71.356,2.1328,.9771,4.501,1.6006,7.1182,1.6006Zm-33.085-144.2441c.86,.3501,9.8306,2.7597,14.4619,3.856,1.0731,4.5653-1.4079,19.3101-2.3398,24.605-.8267-.638-1.4664-.8482-2.3291-1.0796-4.6698-8.0881-10.9582-19.6901-16.3975-29.1123,3.3887,.9404,6.0986,1.6069,6.6045,1.731Zm-2.0371,255.2495c3.9551-10.5664,5.6895-24.623,6.4248-36.3682,5.264,36.1951,10.57,62.1444-20.7812,76.3135-.3662-.6602-.7236-1.3037-1.0713-1.9316,3.7715-8.791,10.2812-24.2598,15.4277-38.0137Zm-19.7529,6.9854c.4248-1.6611,.8242-3.21,1.2002-4.6494-.4538,8.3873-1.3603,17.6032-2.8604,24.8271-.0645-.1172-.125-.2275-.1816-.3311,.4004-2.9541,1.4707-11.4141,1.8418-19.8467Zm-225.5859-4.585c7.5177,11.4841,17.8504,31.588,19.085,44.708-.3154,.2646-.6377,.5342-.9648,.8076-20.1644-6.6858-22.9703-31.9395-26.3184-60.2295,1.8369,4.2207,4.8232,9.1465,8.1982,14.7139Zm5.1133,51.6182c1.4658,.5928,2.8242,1.1055,4.085,1.541-10.0343,9.5573-7.8057,7.6306-16.6338,16.4883-5.517-7.1475-8.1235-29.1571-7.9746-40.3867,4.8447,8.8535,11.9434,18.8838,20.5234,22.3574Z"/><path class="k" d="M176.7957,736.7856s-44.5957,33.5319-49.0213,81.2766c23.0935-37.8888,59.1548-1.5387,49.0213-81.2766Z"/><path class="ah" d="M152.6423,797.9627s4.1877,4.1063,11.7133,9.8485c-.7639-11.7717-1.7816-27.2028-2.2673-33.4776-3.2584,6.9068-6.5132,14.7925-9.446,23.6291Z"/><path class="n" d="M376.7084,699.0669s-49.2245,14.5265-49.6696,12.8676l-143.9919,28.2554s-10.4978,11.97-20.9585,34.1437c.4857,6.2748,1.5034,21.7059,2.2673,33.4776,14.7554,11.2587,42.3812,28.8255,76.7017,34.194,16.2391-12.5728,18.012-23.2682,38.3004-26.0275,12.7679-2.5532,9.8743-10.9787,16.1722-8.9362,18.8825,5.3007,6.6039-7.3014,16.2962-10.6033,.7251-.886,10.1718,7.0289,21.4059,13.4118,11.234,6.383,9.5528,7.8818,15.5745,15.3192,4.1893,5.1741,.5737,15.4994-2.0154,21.3076,41.8286-8.4923,85.9802-33.4542,85.7601-34.2136-.2552-.8812-55.8428-113.1963-55.8428-113.1963Z"/><path class="ah" d="M348.8065,825.1692c-6.0217-7.4374-4.3405-8.9362-15.5745-15.3192-11.2341-6.383-20.8056-14.4641-21.5304-13.5782-.7247,.8859-5.3752,1.2456-4.6354,6.9896s-5.2384,5.8227-11.5363,3.7801c-6.2979-2.0425-3.4042,6.383-16.1719,8.9362-20.2868,2.7577-22.0665,13.4575-38.3006,26.0275,50.3071,7.514,87.387,7.2411,85.9802,7.1207,6.3971-.3468,13.0456-1.2872,19.7535-2.6491,2.5891-5.8082,6.2047-16.1335,2.0154-21.3076Z"/><path class="n" d="M375.0192,1015.1267c29.472-13.0084,63.066-32.8105,85.3569-46.6583-1.6139-10.5346-3.224-18.1013-4.676-19.6729-4.766-5.1583-146.7234,32.4943-146.7234,32.4943,0,0,2.8409,18.0385,9.4571,41.2621,11.6835,3.3263,30.315,4.1699,56.5854-7.4253Z"/><path class="ah" d="M476.8938,1160.385c-4.5239-76.4-7.0689-122.9798-16.5177-191.9166-32.1812,18.6835-103.4869,67.4692-141.9423,54.0836,13.6665,49.1565,57.7107,124.8465,56.5854,166.0427,33.7528,2.1826,82.7083-2.1573,101.8746-28.2097Z"/><path class="ag" d="M476.8938,1160.385c-17.0568,16.6264-35.1239,23.0847-64.2701,28.7097h65.86s-.6226-12.1046-1.5899-28.7097Z"/><path class="k" d="M474.5481,1121.1337c-3.7427,4.0322-.6353,15.6951-.6353,15.6951-3.4196-1.2107-2.1417,8.7832-2.2128,9.0214-1.8723-.6809-4.0851,2.8936-4.0851,2.8936-1.7021-1.7021-3.5745-2.7234-3.5745-2.7234,.8972-.122-5.2669-8.4456-6.1277-4.0852-2.9519-.741-5.9765,.4248-4.9362,4.2554-3.1978-1.7568-9.2448-.2275-7.4105,5.1064-4.6629-3.4252-8.1882,11.0339-8.5895,11.9148-.9084-.7391-8.563-8.323-10.5532-2.8267-.1395-2.5343-4.1112-6.666-6.9786-6.0811-.3949-2.497-8.8705-2.1641-9.1915,.2269-4.414-1.3839-6.6775,2.0251-5.7872,5.8541-4.3844,.0698-6.5539,5.4197-5.7874,8.614l-2.3828-.5107c-1.8813-1.9081-3.5743-2.4587-4.9363,.5107,.397-1.1465,.5048-7.5816-3.4043-5.9575-.0348-3.15-6.2839-6.8338-9.1914-4.4255-3.121-3.4585-6.45-3.0532-9.0154-1.7659,3.4368,12.3124,5.4555,23.8053,5.2483,32.2446,33.579,2.3497,82.925-3.0672,101.8971-28.7097-.6658-11.4288-1.4834-25.23-2.3457-39.2513Zm-98.2948,43.7377c-2.3571-.0598-2.3568-3.5152,0-3.5745,2.3572,.0596,2.3565,3.5151,0,3.5745Zm6,2.5532c-2.8623-.0725-2.8618-4.2685,0-4.3406,2.8621,.0725,2.8616,4.2685,0,4.3406Zm7.6595,9.2576c-2.8913-.0732-2.8907-4.3117,0-4.3845,2.8912,.0732,2.8907,4.3117,0,4.3845Zm15.9575-3.832c-2.2654-.0386-2.2649-3.4087,0-3.4469,2.2651,.0386,2.2649,3.4085,0,3.4469Zm6-9.064c-1.9298-.0328-1.9295-2.9035,0-2.936,1.9296,.0328,1.9293,2.9035,0,2.936Zm9.9574,1.5958c-3.0307-.0768-3.0302-4.5195,0-4.5958,3.0306,.0768,3.0299,4.5195,0,4.5958Zm7.1489,6.702c-3.5357-.0896-3.535-5.2725,0-5.3616,3.5356,.0896,3.5349,5.2725,0,5.3616Zm14.6808-5.3041c-2.517-.0638-2.5164-3.7539,0-3.8173,2.5172,.0637,2.5168,3.7539,0,3.8173Zm7.1489-11.0363c-1.9297-.0328-1.9293-2.9036,0-2.9362,1.9297,.0329,1.9295,2.9036,0,2.9362Zm6.8937-5.0425c-2.1814-.0372-2.1811-3.2824,0-3.3192,2.1814,.0371,2.181,3.2824,0,3.3192Zm7.4042,5.8616c-2.2327-.0381-2.2321-3.3595,0-3.3972,2.2327,.038,2.2326,3.3595,0,3.3972Zm9.4438-7.6489c-1.0016-.0044-1.0014-1.5277,0-1.5319,1.0015,.0043,1.0015,1.5276,0,1.5319Z"/><path class="at" d="M374.3384,941.7217c-2.8098,5.9445-25.6993,44.133-22.1277,50.256-1.3698,3.6569,49.6745-7.5743,62.0028-13.348-8.5289-22.2152-27.1489-34.3224-39.8751-36.908Z"/><path class="ba" d="M387.2745,903.4238l-31.1915,23.4894c.6686,1.3058-1.8309,37.0782-3.1321,55.0118l21.3875-40.2034c12.7104,2.5204,31.4875,14.9057,39.8751,36.908,12.6104-4.5278,18.3376-7.7584,18.3376-7.7584l-45.2766-67.4474Z"/><path class="bc" d="M148.0158,1189.0947h11.7825l-12.6684-10.1766c.6017,5.3701,.8859,10.1766,.8859,10.1766Z"/><path class="ah" d="M255.6983,1030.2324c.1151-.9944,.2175-2.0146,.3143-3.0453-40.3293-7.5411-114.6454-35.0683-143.0632-45.8972,.7917,56.5541,16.2721,120.6118,29.4927,173.7762,2.9068-1.4662,4.8068-1.323,6.5161,1.8292-2.5121,.606-3.9407,.9966-3.9407,.9966,.1277,.6383,2.5532,15.1488,7.0213,19.0638,4.468,3.9148,48,10.2979,66.3831,8.7659,18.3828-1.5319,24.8142,2.7053,27.4468-2.0719,3.3468-8.3425-.9127-9.5161,.2-15.9003l.7681-.6678c-2.2683-37.2657,6.2458-100.7708,8.8617-136.8492Z"/><path class="n" d="M255.6983,969.977l-143.7446-8.9362s.332,8.298,.9957,20.249c28.4178,10.8289,102.7339,38.3561,143.0632,45.8972,2.2653-24.1075-.3143-57.2101-.3143-57.2101Z"/><path class="k" d="M246.8366,1167.0816l-3.8191,3.3209c-2.9403-2.6452-5.9268,2.3243-6.2129,4-1.8631-.7653-5.8575,.9249-5.2765,3.6597h-2.1277c-.4255-1.7874-1.8723-1.2766-1.8723-1.2766,0-2.8086-2.2128-3.8298-2.2128-3.8298,2.0531-3.6954-2.337-4.9307-4-2.2128-1.6171-6.2128-9.9575-5.7021-11.4043-2.2128-1.4468,3.4894-1.9574,3.234-1.9574,3.234-4.6118-4.0684-6.3111,4.7469-9.2766,3.3192-.5106-4.4255-4.1703-3.3192-4.1703-3.3192,.4814-2.4792,.9853-6.1321-3.4042-4.6808,.5957-2.5532-.5958-2.3831-.5958-2.3831,.6667-.9477-1.0468-5.4637-2.7234-2.9265-1.6414-4.7553-7.0808-5.019-9.3616-.733-2.9777-2.2313-5.0172-1.7447-5.532,2.2128-2.9438-4.1184-7.4391,.5623-4.766,3.2341,0,0-1.9574,.936-2.6383,2.3828-1.0764,2.48-4.2888-6.0314-6.468-2.3828-1.5388-2.2553-2.682-4.3845-6.6385-3.8292-2.0784-1.5834-4.4319-11.8496-9.937-7.5925,2.4107,9.7009,3.7615,14.9788,4.6878,23.8521l12.6684,10.1766h90.9195s-2.5608-9.2388-3.8812-22.0131Zm-98.1178-2.097c-2.0886-.0355-2.0883-3.1425,0-3.1777,2.0885,.0356,2.0882,3.1425,0,3.1777Zm6.7242,6.8647c-2.4694-.0624-2.4689-3.6825,0-3.7446,2.4693,.0626,2.4688,3.6825,0,3.7446Zm5.0212,5.9149c-1.0575-.0047-1.0573-1.6125,0-1.6171,1.0573,.0047,1.0573,1.6125,0,1.6171Zm9.1914-3.4042c-1.1745-.02-1.1743-1.7675,0-1.7874,1.1746,.0199,1.1745,1.7676,0,1.7874Zm8.8511-4.8086c-1.9017-.0323-1.9014-2.8615,0-2.8936,1.9018,.0323,1.9015,2.8615,0,2.8936Zm6.7234-2.0425c-2.0135-.0343-2.0133-3.0298,0-3.0638,2.0137,.0343,2.0133,3.0299,0,3.0638Zm6.3831,9.5319c-2.3571-.0597-2.3567-3.5151,0-3.5745,2.3571,.0597,2.3566,3.5151,0,3.5745Zm12.9362,5.5319c-2.1256-.0361-2.1252-3.198,0-3.2339,2.1255,.0361,2.1252,3.198,0,3.2339Zm6.2128-4.085c-2.0137-.0344-2.0134-3.0299,0-3.064,2.0136,.0343,2.0133,3.03,0,3.064Zm9.4468-2.1703c-1.3982-.0238-1.398-2.1041,0-2.1277,1.3985,.0237,1.3983,2.1041,0,2.1277Zm5.1064,7.1915c-2.2374-.0381-2.2371-3.3665,0-3.4043,2.2373,.0381,2.237,3.3665,0,3.4043Zm13.3617-1.7021c-1.1187-.019-1.1185-1.6833,0-1.7021,1.1186,.019,1.1185,1.6833,0,1.7021Zm6.2979-4.766c-1.1746-.0199-1.1746-1.7674,0-1.7872,1.1747,.02,1.1744,1.7675,0,1.7872Z"/><path class="ba" d="M214.7646,995.7909c8.6553,.4028,14.3806,.4841,14.3806,.4841l-31.4043-83.7447s-28.0852-.5106-37.2766,10.9787c-14.3121,16.5057-50.4435,57.7927-9.1353,64.4517l35.1777-53.9836,28.2578,61.8138Z"/><path class="at" d="M186.5068,933.977l-35.1777,53.9836c18.4584,5.0294,46.5332,7.0437,63.4355,7.8303l-28.2578-61.8138Z"/><path class="ab" d="M326.9276,995.4298c-12.0638-.9096-29.468-13.2181-29.468-13.2181-.6809-5.1064,2.0425-22.4681,2.0425-22.4681-2.795-4.1191-7.7484-14.8427-9.0425-17.6797,4.2979-3.5704,14.2619-4.2455,19.7657-8.9615,3.7448-3.3214-.17-2.1248-5.1063-.7631-22.5355,9.8186-67.9245-12.3213-84.2552-20.1736,9.84,9.1177,40.6808,26.812,43.7448,27.1523,3.0637,.3405,6.9786,4.2553,3.234,5.2766-3.7448,1.0212-6.9788,9.4451-6.9788,9.4451l-4.9623-6.0408s6.041,20.6695,11.2603,28.9048c1.9877,3.4381,5.6201,7.2152,5.9573,11.6058-16.4089,12.3714-34.2724,17.0927-55.1489,13.2766,0,0-25.0212-77.9575-26.7234-78.6383-6.0246-1.3557-51.342,65.54-53.4468,69.1064-4.2752-.6924-3.9547-3.5118-13.4473-10.3821-15.8167-12.048-41.0757-33.5034-40.3381-54.2998,.1439-3.7861,8.0201-16.2988,18.502-29.2166,13.4786,2.5414,46.4415,.596,48.7014-1.0802,2.5244-1.8724,29.1053-43.2341,29.1053-43.2341l-4.5658-6.9787c-22.4442,32.2394-14.5817,46.6205-66.4621,43.2806,11.8777-13.9207,12.6748-19.9615,12.6748-19.9615,.9673-.1935,1.592-1.5317,2.5624-1.3227,28.9919,6.2439,11.4826-18.0241,8.4095-16.345,5.4815-12.5439-2.7589-31.9586,14.6451-35.0131,86.864,58.366,217.5798,55.0463,288.5425,9.49,11.9785,22.5308-1.1125,35.1607,10.9476,43.0557,6.469,5.2848,6.1287,13.6035,6.1287,13.6035,0,0,28.5957,26.9991,33.0212,42.7019,0,0-10.2128,34.4973-57.8723,54.3766-.5647-5.2794-55.8649-54.6886-58.5532-59.483,0,0-12.3405,52.259-13.8298,63.2575-1.4894,10.9985-3.8724,11.2106-3.8724,11.2106,0,0-9.3886,1.9455-25.1719-.4841Z"/><path class="p" d="M192.8898,846.213s-9.0213,10.913-7.6596,22.3173c1.3617,11.4043,3.7447,18.0426,10.2128,13.4468,6.4681-4.5957,10.5532-9.1915,15.3191-3.234s14.8085,12.5957,11.234,8c-3.5745-4.5957-8.6809-13.0595-8.6809-13.0595,0,0,18.2128-7.7064,17.8723-12.8128-.3404-5.1064-38.2979-14.6577-38.2979-14.6577Z"/><path class="p" d="M212.8047,904.4451s-28.5957-17.7021-35.9149-22.9787c-7.3191-5.2766-8.4594-3.7795-10.8031-5.0431-.6225-.3356-8.8347,13.2158-8.8347,13.2158,0,0,12.1485,4.5933,24.0633,7.9975,11.9149,3.4043,18.8936,7.8298,20.4255,5.9574s12.6275,1.8212,11.0638,.8511Z"/><path class="s" d="M151.329,897.6366c2.5244-1.8724,29.1053-43.2341,29.1053-43.2341l-4.5658-6.9787c-23.0107,31.6153-14.6929,46.2595-66.5732,42.9195-2.2799,2.6311-4.6259,5.3387-6.7789,8.0123,13.4786,2.5414,46.5526,.9571,48.8125-.7191Z"/><path class="p" d="M151.1078,884.0392l8.5833-10.3333c-9.3571-4.9623-13.8566,2.8086-8.5833,10.3333Z"/><polygon class="t" points="166.0867 876.4233 159.6912 873.7059 151.1078 884.0392 157.252 889.6391 166.0867 876.4233"/><path class="p" d="M294.8646,951.3244l4.1877,8.6037-1.6397,17.3367c.4076-.6043,23.3314-32.1363,9.6931-33.6702-7.4899-2.3835-12.241,7.7298-12.241,7.7298Z"/><path class="p" d="M143.5281,868.1898c10.3829-5.9574,15.3404-13.9418,12.7872-19.0482-2.6936-7.6876-15.81,.9428-23.3733,3.5726-.9391,2.5031-1.9921,4.6153-3.3714,5.0927,0,0-1.1878,7.8763-5.0381,11.2524,4.8427,2.2214,11.4842,3.4404,18.9956-.8694Z"/><path class="p" d="M310.3366,933.4638c3.7446-3.3217-.2813-2.4862-5.2176-1.1245-22.5287,9.8223-67.8183-11.9628-84.1441-19.8126,9.84,9.1177,40.6808,26.812,43.7448,27.1523,3.0637,.3405,6.5811,3.9881,2.8365,5.0094-3.7448,1.0212-6.6923,9.3512-6.6923,9.3512l-4.9572-5.9172c.2732,2.4757,9.5202,29.5222,16.4898,36.9418l-3.0811-14.066s9.532-28.0851,10.0425-31.6595c0,0,8.3405,2.3829,10.8937,2.3829,0,0,.1161,.2578,.3192,.7033,4.2765-3.5818,14.2773-4.2372,19.7659-8.9612Z"/><path class="p" d="M316.1239,912.5268l60.2571-43.4427c-12.2089-14.0878-9.1502-16.4426,9.6148-15.765-.0007-.0001,24.2385,15.8715,19.4395,17.7331s-4.799,1.2489-4.2883,6.4063-12.7708-1.7362-16.4705-2.7574c-3.6997-1.0213-13.1465,9.7021-22.338,17.3617-9.1915,7.6596-46.2145,20.464-46.2145,20.464Z"/><path class="p" d="M430.761,854.4653c-4.789,4.3854,7.4794,10.4912-10.689,8.1967-6.6059-.8044-3.6059,7.954-3.4358,11.0201-18.1277,15.9789-29.761,2.1165-53.5319,37.0278,0,0,44.4255-17.8811,51.1092-25.2853,6.6837-7.4042,8.6355-3.8298,10.6781-6.383,2.0425-2.5532,2.2979,3.0638,12.5106,1.7615,5.3519-.6824,8.177-5.6901,9.6564-10.303-5.5549-5.0719-5.3466-6.301-5.4233-14.6427-3.6797,1.3566-6.7863,2.2482-6.7863,2.2482,0,0-4.8511-2.5532-4.088-3.6401Z"/><path class="s" d="M402.3079,850.698l-9.927,5.1095s8.5259,9.1165,17.8005,18.9004c1.7729-1.6907,4.2257-3.8494,6.9213-5.5508-7.3693-9.1811-14.7948-18.459-14.7948-18.459Z"/><path class="s" d="M462.0242,892.9774c-.3672-.3874-8.5369-3.4678-18.0688-1.255-12.0389,2.5999-9.7714-3.2559-15.9961-9.0727-2.5181,.5076-4.7695,2.0627-6.5903,3.7816,5.1591,5.3576,9.4521,9.722,11.1823,11.2486,7.6949,6.4394,30.9449,3.4231,37.2952,3.9149l-7.8221-8.6174Z"/><path class="t" d="M417.1027,869.1571c-2.6956,1.7015-5.1483,3.8602-6.9213,5.5508,3.783,3.9906,7.6829,8.0837,11.1875,11.7233,1.8208-1.7189,4.0723-3.274,6.5903-3.7816-2.7739-3.431-6.8032-8.4428-10.8566-13.4926Z"/><path class="at" d="M327.0387,868.8707c-37.9236,8.521-129.7602-5.7293-156.6151-35.5805-.0019,.006-22.2999-9.3557-22.7254-15.228,0,0-.0103-17.3416,7.4611-27.2542,15.2108,7.4454,59.836,41.395,102.0684,47.4275,74.5234,5.417,139.4578-8.3036,173.9637-44.8762,7.1356,44.7354,31.7322,46.1272-104.1528,75.5114Z"/><path class="bf" d="M244.9137,835.7453c-21.8142-5.5305-46.8319-19.7308-63.239-29.6771-.8219,8.8917-1.623,22.9923-.0986,35.263,8.5203,5.5695,21.0873,13.5969,37.8651,17.958,4.7075-5.3166,14.6579-15.7349,25.4726-23.5439Z"/><path class="aq" d="M521.8141,679.8926c-4.5408-31.8318-25.9913-105.8048-66.4975-117.3796,0,0-9.1206-21.0034-16.8859-29.1736-3.9314-4.1363-3.8805-13.011-2.8735-20.7684-23.3523-48.6794-53.8611-118.5123-58.6208-132.7217h0c-14.4315-39.9724-32.6132-123.3816-50.7209-166.9197,14.8283,65.348,15.7489,125.4679,30.9168,184.5799,6.3841,21.4469,33.4479,57.9575,40.915,80.8202,7.4673,22.8627,13.7244,66.499,20.498,82.9625,3.5359,8.5941,6.0547,22.3946,7.6567,33.6295,9.8734,19.7485,54.8195,119.9002,29.2292,147.2687,34.2322-35.3536-6.3264-116.0714-13.7872-140.3404,5.1294,9.8527,33.1343,42.9357,52.8513,40.254,11.9996-.7646,10.7231-3.7866,10.7231-3.7866-42.6633,23.1478-77.2633-95.8729-82.7235-110.5532,39.7816,52.8137,149.6273,148.5048,67.3479,216.8439,24.0189-13.7891,36.1372-26.7422,31.9713-64.7155Z"/><path class="l" d="M398.0472,478.3297c-7.467-22.8627-34.5309-59.3733-40.9139-80.8201-15.2092-59.3139-16.0421-119.0095-30.919-184.5799-8.2942-21.5882-9.3001-16.1366-9.6365-16.8669,0,0-9.2317,267.5745,11.331,323.2943,20.5627,55.7198,55.5225,183.5142,55.5225,183.5142,.345-.107,11.3011-50.8428,13.5134-44.8071,1.3937-7.0303,2.5117-13.696,2.8269-18.2651,1.0214-14.8,2.6544-22.2043,4.0081-16.332,1.1389,4.9408,1.2117,39.2754,.2356,59.0176,9.8571-19.6061,11.1835-62.8612,10.8203-64.0016,5.7839,7.2254,12.5945,51.8091,9.4717,72.9453,1.0919,1.4736,2.4185,2.6691,4.0243,3.2562,4.2623-25.3885-2.1339-68.6829-4.8152-81.338-3.0745-14.4974-2.8011-25.1683,2.6857-18.4249-1.6021-11.2349-4.1208-25.0355-7.6567-33.6295-6.7737-16.4634-13.0308-60.0998-20.498-82.9625Z"/><path class="bd" d="M345.6459,288.338c14.0051,52.0658,21.2988,105.9968,39.3556,156.8652,13.809,40.4404,30.6938,80.1419,40.2234,121.9197,11.9273,45.4765,38.3295,87.2506,41.1869,135.0752-4.8185-45.3278-29.5093-84.8143-42.8812-127.6435-12.5089-52.6186-34.7492-102.198-50.4685-153.8624-10.5237-43.7381-18.2383-88.2375-27.4162-132.3542Z"/><path class="aa" d="M376.9363,379.8494h0c-.6218-18.155-8.6046-29.6158-21.3166-72.4095,2.8327,20.9654,17.6142,64.2581,21.3166,72.4095Z"/><path class="aa" d="M438.4307,533.3394c7.7654,8.1702,16.877,29.2935,16.877,29.2935-.4697-1.146,23.7455,13.3996,28.6363,20.8815-23.3207-40.953-30.1428-31.4659-48.3867-70.9434-1.007,7.7573-1.0579,16.6321,2.8735,20.7684Z"/><path class="aq" d="M424.3072,691.4284c-.4658,18.1893-33.7006,32.7347-34.99,33.1254l5.8586,9.6192c4.927-1.4419,29.7861-14.3422,33.1556-39.4884-1.6058-.5872-2.9324-1.7826-4.0243-3.2562Z"/><path class="aq" d="M403.7796,623.4671c-3.3107-13.4556-4.454,26.983-7.0753,34.1874,2.832,3.9279-5.3029,65.5441-7.3871,63.8984,19.3079-36.7551,23.8365-59.9862,14.4624-98.0858Z"/><path class="ac" d="M313.9128,707.0415l-18.383,48.9552s2.3854,3.0341,6.5115,8.1287l17.266-48.1631-5.3945-8.9208Z"/><path class="x" d="M420.7328,877.4586l-101.4255-161.4963-17.266,48.1631c20.5446,25.3668,88.5707,102.6314,118.6915,113.3332Z"/><path class="as" d="M378.4235,619.382s.4686,22.9343,7.9907,37.9475c-.6453-3.9509,2.9973-54.5392,2.903-55.4794,0,0,9.873-6.9575,13.3157-32.6628-13.0623,30.6357-32.7157,4.9764-40.2944-2.9117-3.5732,16.3089-13.5209,41.6605-43.2519,38.8046-.7529,22.7911-2.5821,49.6867-4.1884,70.5138,26.38-6.0577,55.4169-44.1415,63.5254-56.212Z"/><path class="ab" d="M432.5511,780.233c-8.8916-7.9598-43.2289-69.4626-46.2979-75.9149,1.8157-4.2005,2.573-39.7631,.159-46.9887-7.5202-15.0131-7.9888-37.9474-7.9888-37.9474-8.2518,12.2111-37.0104,50.0293-63.5254,56.212-1.5301,19.8393-2.8575,34.171-2.8575,34.171,6.7382,8.6263,17.2088,13.1392,12.2541,29.2766,8.9633,28.5587,66.1637,107.6821,87.8301,131.0637,10.2137,10.2129,8.5115,6.8086,8.5115,6.8086-4.8053-4.8614,14.2358-96.5802,11.9149-96.6808Z"/><path class="as" d="M377.4022,693.4245s-14.2979,27.5745-30.6383,33.7021c-16.3404,6.1277-21.5204,8.9309-17.617,19.4043,3.9034,10.4733,26.8085-7.4043,37.0213-20.9362,10.2128-13.5319,11.234-32.1702,11.234-32.1702Z"/><path class="as" d="M359.8578,508.067c7.6851-33.8517,11.7539-38.2116,11.9096-39.9086,.2407,.8249,5.2259,12.4929,14.9152,21.9958-5.7329-18.0364-8.5996-62.9424-8.5996-62.9424l-56.851,92.2553s-4.4104,12.1461-3.0568,39.6489c12.0882-7.3319,35.6171-24.3312,41.6826-51.049Z"/><path class="ab" d="M386.6826,490.1542c-9.468-9.5118-14.0795-19.6915-14.9152-21.9958-16.7281,32.1151-5.8419,61.5338-53.5922,90.9576,1.1447,14.9356,1.6819,26.0065,.9113,45.9642,29.7486,2.8788,39.7096-22.5921,43.2519-38.8046,7.652,7.9381,27.2043,33.5334,40.2933,2.9109,5.4556-38.2216-7.806-58.0774-15.9491-79.0323Z"/><path class="am" d="M62.5559,638.9457c-4.9274,25.0621-5.9857,39.8687-5.8636,38.4824,1.6265-18.462,23.749-78.4077,27.2067-80.4168-9.6573,26.8567-19.0301,110.7039-6.3079,151.4451-1.7216-13.5165-.3969-30.4645-.3969-38.3619,0-12.0851,1.7021-12.4255,2.5532-1.7021,.8466,16.1724,5.6731,39.8959,18.5274,56.3746,.6494,.7906,2.6851,.6822,4.4581,.7306-.972-.6796,.2969-1.5135-2.2501-3.1738-10.5759-7.4427-10.621-34.5338-7.2205-57.5312,2.1943-14.84,5.3788-37.4996,8.9491-67.7183-.847-10.8947,16.0041-26.5542,19.7488-16.1712,2.9772,22.2523,3.0473,49.2007,6.6391,73.6864,.5399-6.6754,2.249-15.1027,1.531-22.2822,0,0,1.3618,13.4468,1.3618,18.7234,0,5.2628-1.809,15.3308,4.7691,26.0233-.3751-2.4926-.3583-5.7791-.2068-10.1934,.3738-10.8936,.7621-15.899,.7621-15.899-.8716,.7322,6.4225,22.0968,11.3473,27.0228-.8807-13.0965,.1793-25.0813,.1793-25.0813,0,0,10.7234,28.4255,25.0213,34.2128,14.2979,5.7872,14.1277,1.8723,14.1277,1.8723-31.3749-4.9124-34.0886-68.4927-32.3405-86.6383,2.4919,18.5646,24.5296,45.4613,32.2033,70.2773-1.9853-31.3751-41.9781-72.0602-32.8752-101.7017,.8514,30.6957,15.1144,47.6265,33.2333,65.6897,0,0-14.4672-29.0514-14.8503-34.6684,19.7682,14.4745,36.0751,71.4269,35.3912,101.8411,25.4343,12.9908,81.8943,38.0934,91.6543,10.562,14.6387-175.2221,51.1962-374.2426,2.3073-541.2765,0,0-181.0213,9.3617-185.8724-7.7447-4.851-17.1064-32.6808-48.5107-48-12.766-12.1536,35.7003-3.3058,81.5199,10.7301,131.0437,21.7923,60.9362,29.0207,96.6354,29.0207,101.5716s-3.9385-.9131-3.9385,6.9167c14.035,137.9163-34.178,99.2445-45.5534,210.9975"/><path class="av" d="M72.9872,662.743c2.2128-35.4042,11.2341-64.8511,11.2341-64.8511-4.5849,2.5462-26.2177,60.3153-27.544,79.7436,1.0053,28.2798,12.1506,93.4648,38.6078,106.8097-25.3609-24.923-23.6439-83.6699-22.2979-121.7021Z"/><path class="aq" d="M99.5404,548.5302c14.8557-25.5135,5.9932-93.6893,5.4464-115.2341,.0005-7.8297,3.2183-2.7097,3.2183-7.6458s-7.3029-40.5243-29.0901-101.4605c-14.6569-40.9933-16.9885-88.7637-16.9449-115.6421-15.9568,83.9433,28.0817,133.397,35.7548,234.1954-2.3162,162.9624-96.4802,172.716-79.4293,312.6958,1.978,16.2386,17.755,40.0199,30.3215,37.8573,8.4291-1.4506-11.7447-6.4681-11.7447-6.4681,7.9537-1.3051,35.6694,1.0099,31.6596-19.234-11.6297,28.8437-42.0709,12.7573-46.9787-21.9591-5.9764-33.9404,18.3974-78.4177,36.8488-102.5428,5.2275-31.3409,26.8213-63.6145,40.9383-94.562Z"/><path class="av" d="M121.1574,776.4451c17.8723-.1702,21.9575-16.3405,21.9575-16.3405-9.5492,12.3184-34.743,3.5137-48.9147-1.2107,.4843,.6274,3.2694,5.5422,4.2163,6.5597,2.0893,2.2449,10.174,11.1112,22.7409,10.9915Z"/><path class="ap" d="M187.9533,661.7976c-8.6809-17.4894-15.0905-19.8507-15.0905-19.8507,.3831,5.617,14.8503,34.6684,14.8503,34.6684-18.41-18.312-32.327-35.4658-33.1707-65.8817-7.2191,20.808,10.6614,49.8083,22.753,73.0278,7.533,13.7583,12.2169,41.3243,12.1174,49.2794,6.8837,5.6544,18.8904-3.1684,18.0385,11.2253,1.49-25.1714-8.1449-64.3869-19.4979-82.4685Z"/><path class="ap" d="M136.8395,690.1193c-.0787-1.5755-1.9025,22.6299-.5783,26.9347,6.2024,10.012,8.3374,17.4729,3.3766,15.4117,.5716,3.2106,1.6808,8.3809,3.6871,13.2885,7.191,4.7952,15.1573,7.8736,15.1573,7.8736-4.9299-2.7512-9.7502-21.6874-10.3183-35.6435-4.9246-4.952-12.3125-27.122-11.3244-27.8651Z"/><path class="ap" d="M128.2766,706.0897c1.6509-14.3866-1.6265-30.4853-2.6063-43.6617-.7544-10.1922,.207-17.1315-2.5347-25.25-.3837,25.1887-3.5116,47.0227,5.141,68.9117Z"/><path class="am" d="M138.6894,732.0196c-6.9614-3.4098-10.3163-15.9157-10.4127-25.9299-2.063-7.2036-3.6322-16.962-5.4791-24.1865,1.7236,20.1384,4.3266,54.9909,20.5274,63.8511-2.0063-4.9077-3.1155-10.0779-3.6871-13.2885-.2911-.1193-.6044-.2646-.9484-.4462Z"/><path class="bd" d="M98.0085,403.6792c-.16-.4849,3.1456,39.3685,1.0213,59.7447-2.1243,20.3762-4.5834,36.6427-4.5834,36.6427,7.8419-17.2339,12.1097-73.0035,3.5621-96.3874Z"/><path class="j" d="M38.434,653.7217c.1702,.6809,4.0349-20.6447,14.2979-23.8298s20.2553-51.7447,27.0638-67.234,1.8395-16.6931,1.8395-16.6931c-1.3473,2.2631-48.8539,107.567-43.2012,107.7569Z"/><path class="bd" d="M61.1024,714.1414c-.4112-7.9356,2.3626-78.8872,11.5708-86.7963,2.629-.6532,.6232,6.2928-1.7598,15.9949-2.383,9.7021-7.9689,43.7203-5.1064,70.4681,2.8624,26.7479,3.4993,31.9222,3.4993,31.9222-4.5943-12.6564-5.3096-17.4411-8.2039-31.5889Z"/><path class="bd" d="M163.1303,663.7489c5.7602,2.5912,34.2787,57.5854,35.6442,56.6962l-3.5745,3.0638c-3.2892-13.9753-25.2901-44.3069-32.033-59.743l-.0368-.0171Z"/><path class="n" d="M224.129,460.0196c.3406-23.3192-1.1914-30.2979,.5107-32.5107,4.321-2.1532,3.6861-15.1906,3.4043-16.8511,34.3229,20.5806,49.9214-11.2249,65.8055-44.8458l-2.4865-23.7499-78.9788,45.1064c5.5564,5.0598,22.9828,23.2462,8.1699,34.3829-4.255,3.7447-11.4039,1.1915-11.4039,1.1915,.3498,3.7627-2.0645,62.2429,19.7965,73.6384-2.0422-7.3443-5.0439-20.8729-4.8179-36.3618Z"/><path class="n" d="M312.9801,396.0196s-9.2645-1.7572-16.0334-6.3544c-1.4777,8.124,1.4445,20.4165,9.3959,15.7155,7.1371-3.1074,5.8179,70.9485,7.4491,79.1139,16.4858-21.6164,.3846-87.2186-.8115-88.475Z"/><path class="ah" d="M110.3097,290.2214c11.4565,37.4348,32.3654,65.1774,65.2249,93.7381,10.001,6.7211,18.3018,8.8015,32.0461,8.4071,60.5809,.0448,60.1369-5.6762,91.656-55.5984,7.9917-13.2537,5.4254-35.7934,4.5378-50.5901-2.9517-22.1956-7.3372-34.5882-20-53.4167-8.1692-15.49-12.6137-19.3059-12.6137-19.3059-8.274-5.3585-17.7203-12.559-26.346-20.2866-2.1034-1.9091-52.0103-29.7659-53.9945-31.7985"/><path class="ah" d="M306.3419,405.3813c-8.8129,4.2546-9.6457-7.3066-9.3953-15.7161-.2185-.1484-.4343-.2997-.6473-.4541l-2.4497-23.399c-15.9102,33.7079-31.5304,65.3996-65.8055,44.8458,.3,1.7518,.6807,14.7348-3.6029,16.8535-2.2632,2.1932-.8952,60.8776,3.5833,68.25,18.7031,15.4818,52.7854,32.0028,52.7854,32.0028,0,0,21.4746-20.8494,32.9817-43.2697-1.609-7.9287-.3394-82.3795-7.4497-79.1133Z"/><path class="n" d="M265.3088,464.7005c-11.9247-7.8731,8.084-25.4524,10.353-17.913-.0008,4.3811-2.6817,1.4449-2.1711,6.679,1.9967,11.3037-3.5911,7.3315-8.182,11.234Z"/><path class="n" d="M155.3631,264.6153c1.2302-2.4898,15.216-42.6092,14.2979-42.5532,0,0-.6809,14.8085,8.1702-5.7872,8.8511-20.5958,13.1064-54.2979,13.1064-54.2979,22.463,17.7754,45.516,40.8611,48.8511,73.7021,4.9362-4.9362-1.0212-34.2128-1.0212-34.2128,8.8511,10.0425,12.2552,28.2553,12.2552,28.2553,0,0,1.0214-2.5532-1.0212-14.1276-2.0426-11.5745-11.234-27.7447-11.234-27.7447,13.9574,14.2979,32.5106,26.2128,32.5106,26.2128,26.8575,42.6095,25.5985,57.0774,32.3302,110.6715,1.7122-9.0922,1.7124-18.4162,1.7124-18.4162,31.886-.9428,11.6034-61.8091-2.7235-65.5319,0,0,7.8298-24.8511-15.6595-41.1915-23.4894-16.3405-44.2554-48.3405-56.1702-65.3617-70.4213-69.8557-156.3371,91.2177-137.1885,150.4706,11.231,37.7847,34.8906,61.1039,34.8906,61.1039-15.9553,8.5211-7.4902,39.4946,19.064,40.1697,19.2339,1.192,21.1062-6.2974,21.1062-6.2974,0,0,2.7875,1.6683,6.892,4.2822-32.7572-30.2832-55.5251-61.8959-65.0388-93.267,2.3829-2.8936,6.0617-12.2918,6.0617-12.2918,1.0204,1.0178,31.7805,10.7238,33.0213-.3404"/><path class="o" d="M273.3634,292.0839c-2.5636-1.0501,1.4454-6.8308,1.1894-8.1053,3.8858-12.9487,4.0309,.656,4.5928,3.9066,5.1029-2.4029-2.1235,9.9809-2.4951-3.9175-1.0664,1.8285-.9017,6.3528-3.2871,8.1162Z"/><path class="o" d="M285.714,289.0034c-1.4297-.2221-1.4916-1.0341-1.2208-5.6508,.0382-.5499,.502-.9649,1.0684-.9263,1.787,.2451,.4453,4.1985,.8193,4.4272,1.2781,.5977,.302,2.2033-.667,2.1499Zm.7393-1.5527h0Z"/><path class="o" d="M291.4903,286.7133c-.5527,0-1-.4478-1-1,.3724-.8949-.9643-8.1029,.9995-7.8853,.5532,0,1.0005,.4478,1.0005,1-.3724,.8949,.9643,8.1029-1,7.8853Z"/><path class="o" d="M153.3106,355.8344c-1.2807-.1454-1.5194-.0442-1.586-12.666,.0001-.5523,.4474-1,1.0001-1,2.2418,1.1917,.4736,5.9198,1.1006,7.9424,2.349-7.1335,7.05-17.1753,7.4189-4.2705,2.217,1.5961-2.6426,5.3118-2.2314-3.0146-2.3799,3.4649-3.2754,11.0733-5.7021,13.0088Zm.8203-1.4702h0Z"/><path class="o" d="M164.5841,347.4502c-1.659,.0606-2.1558-4.0361-2.4834-5.3892-3.6395,.4093,1.5256-8.1722,2.5059,2.0435,2.6697-2.3169,1.946,3.3088-.0225,3.3457Z"/><path class="ab" d="M265.4463,686.3101c-10.7426-5.7247-32.4135-44.1916-30.5362-42.631l-13.5326,.766-13.2487,14.7586c2.6628,5.8878,4.8269,10.6088,5.3345,11.5392,1.532,2.8085-8.9362,2.8085-7.9148,7.9149,1.0212,5.1064,4.085,17.3618,4.085,17.3618-7.4919,3.2288-17.337,15.891-16.085,24.9186,0,0-20.1703,16.4431-22.2129,19.5069-6.1557-1.4292,2.7858,126.9397,1.7874,126.8936,19.1588-14.114,63.2244-63.5764,67.1504-74.8075,5.68-13.3093,13.5242-17.3726,10.9773-14.2989,18.2738-22.0543,.5091-43.7411,9.1897-61.0218,4.726-6.1044,6.8447-15.2495,5.0059-30.9005Z"/><path class="ay" d="M52.1868,417.2962c.235,.7171-13.9493-28.278,.0004-20.7066,2.2124,1.6428-.0004,20.7066-.0004,20.7066Z"/><path class="ab" d="M234.6548,506.1616c31.3808-67.2033,33.9274-50.7254,85.3562-15.3127-17.8031,54.2002-47.9936,71.1419-85.3562,15.3127Z"/><path class="az" d="M296.78,480.0713c-32.647-27.8554-29.7217-18.8408-46.8809,7.1729,.7201,1.9307,1.5105,4.0454,2.3492,6.2833,18.3714-33.2577,16.0295-31.6314,47.8055-3.6682,.3298-2.0587,.6104-4.0933,.8271-6.0671-1.3347-1.2327-2.7058-2.4804-4.1011-3.7209Z"/><path class="aj" d="M292.357,522.2368s8.8309-11.9807,14.1666-26.1339c-1.8574-1.8339-4.0667-3.9777-6.4697-6.2437-2.4946,15.5715-7.6969,32.3776-7.6969,32.3776Z"/><path class="aj" d="M309.9964,483.4091c-2.5892-1.876-5.5317-3.9732-8.652-6.1337-.0474,2.0444-.2133,4.24-.4634,6.5168,2.6997,2.4933,5.2268,4.9108,7.4171,7.0482,.7286-2.4652,1.3175-4.9577,1.6982-7.4313Z"/><path class="q" d="M300.881,483.7921c-.2168,1.9738-.4973,4.0084-.8271,6.0671,2.4031,2.266,4.6123,4.4099,6.4697,6.2437,.6514-1.7281,1.2498-3.4875,1.7745-5.2626-2.1903-2.1374-4.7174-4.5549-7.4171-7.0482Z"/><path class="aj" d="M247.6866,481.2999c-2.3126,3.9955-4.5048,8.0331-6.4093,11.6612,.8257,1.7583,1.7798,3.5939,2.8193,5.4683,1.7019-3.4471,3.6794-7.309,5.8025-11.1854-.8517-2.283-1.6055-4.3096-2.2125-5.9442Z"/><path class="aj" d="M267.5778,532.7503c-2.0593-4.0887-9.7285-24.2793-15.3295-39.2228-1.7721,3.3531-3.5018,6.7768-5.1149,10.1024,7.7966,12.7613,18.0985,25.9018,20.4443,29.1204Z"/><path class="q" d="M244.0966,498.4295c.948,1.7092,1.9677,3.4504,3.0369,5.2004,1.613-3.3256,3.3428-6.7493,5.1149-10.1024-.8387-2.2379-1.6292-4.3526-2.3492-6.2833-2.123,3.8763-4.1006,7.7382-5.8025,11.1854Z"/><path class="az" d="M269.362,497.2797c-1.9824,0-4.1113-3.2988-5.5527-6.0762-1.1758-2.8448,2.3536-4.9264,5.834-6.5625-.6208-10.1714-1.9774-16.502,5.6074-1.9775,6.2755-2.4909,9.5746,.4308,1.1562,1.7573,1.2798,2.4194,6.4678,6.9287,6.251,6.0185,.309-.3932,.6534-1.6173,1.5479-1.2532,.5311,.1512,.8387,.7049,.6874,1.2361-2.0638,5.6272-8.0251-1.7606-10.5098-5.417-.96,.3008-1.8525,.6152-2.6719,.9365,.0016,4.7981,.8659,11.216-2.3496,11.3379Zm.373-10.4834c-2.3803,1.2579-4.0211,2.1318-4.1506,3.4862,1.5939,3.0709,3.1408,4.8199,3.718,4.9855,.6343-1.1275,.5372-4.2829,.4326-8.4717Zm1.6396-6.7905c.084,1.1914,.168,2.4961,.2383,3.834,.5312-.1978,1.082-.3896,1.6523-.5757-.6875-1.1147-1.3281-2.2324-1.8906-3.2583Z"/><path class="az" d="M280.2722,486.8759c-2.2206-.3445,.1541-3.0986-.0645-4.3032-.0986-.1411-.5166-.2729-1.8936-.2729-1.3134-.0211-1.315-1.9784,0-2,1.2636,0,3.8935,0,3.8935,2.2729-.3461,2.0086-.5654,4.0451-1.9355,4.3032Z"/><path class="ah" d="M172.6671,462.7232c-.9005-9.3563-2.4762-15.7756-5.076-16.3207-26.3003-3.617-40.6206,63.1657-47.6046,83.0071,.7252-.2462,1.5034-.3481,2.0726,.0142,.355-1.1999,3.5721-4.0156,3.9575-.6383,0,0,1.2766-1.7872,2.6808,0,3.0178-1.4743,3.0072,4.0457,2.6808,4.7234,1.9777,.3852,7.5-6.1404,9.8296-1.1486,.7594,1.4387,4.5693-1.3884,6.5534,2.638,3.0159-.7788,3.5278,5.3131,3.3192,6.2979,0,0,1.8723-.5957,1.5319,1.5319,4.9013,3.947-6.3732,7.4455,2.2852,7.2062,8.6983-31.4924,6.2565-57.8669,17.7697-87.3111Z"/><path class="n" d="M163.2624,500.7005c-1.4105,13.4012-4.2156,32.9986-8.365,49.3339,4.6396-.7858,7.1646-.8779,6.9915,3.7725,0,0,2.2128-.3405,1.0212,3.5745-1.1914,3.9149-2.1276,5.4468-2.1276,5.4468l.8353,7.9074c5.5073-12.272,10.2285-23.2266,10.2285-23.2266,0,0,3.5756-56.1631,.8207-84.7857-4.0045,11.7291-8.2357,26.8716-9.4047,37.9772Z"/><path class="k" d="M161.8889,553.8068c.8076-7.3532-8.073-2.225-10.3833-4.2552-.0358-2.02,4.6647-3.2416,1.1067-6.7236,.3405-2.1276-1.5319-1.5319-1.5319-1.5319,.2051-1.0307-.3051-7.0625-3.3192-6.2979-1.9927-4.0307-5.7786-1.1959-6.5533-2.6379-2.3163-4.9916-7.878,1.5416-9.8297,1.1485,.3266-.6995,.3346-6.1894-2.6808-4.7234-1.4042-1.7872-2.6808,0-2.6808,0-.3843-3.3848-3.6115-.5491-3.9575,.6383-.5693-.3622-1.3474-.2603-2.0726-.0142-1.3595,4.3438-2.3435,7.5966-3.5807,11.059,24.3555-11.1606,36.0115,12.361,38.1367,45.7383,2.303-4.9131,4.7583-10.3081,7.0754-15.4716l-.8353-7.9074s.9362-1.5319,2.1276-5.4468c1.1915-3.9149-1.0212-3.5745-1.0212-3.5745Zm-40.3404-21.7341c-.7095-.0031-.7094-1.0821,0-1.0851,.7094,.0031,.7094,1.0821,0,1.0851Zm6.5106,1.0532c-1.2585-.0214-1.2583-1.8937,0-1.9149,1.2585,.0213,1.2583,1.8937,0,1.9149Zm9.8298,2.4255c-1.1746-.0199-1.1745-1.7675,0-1.7873,1.1746,.0199,1.1743,1.7675,0,1.7873Zm4.4042,.7021c-1.4264-.0242-1.4261-2.1462,0-2.1702,1.4262,.0242,1.426,2.1462,0,2.1702Zm4.0336,3.6898c-1.3262-.0225-1.3261-1.9956,0-2.0179,1.3261,.0225,1.3259,1.9955,0,2.0179Zm2.4131,5.2783c-1.3004-.0221-1.3002-1.9568,0-1.9787,1.3004,.022,1.3003,1.9568,0,1.9787Zm7.2128,9.0319c-1.3424-.0227-1.3421-2.02,0-2.0425,1.3424,.0228,1.3423,2.0199,0,2.0425Zm3,14.1064c-1.0017-.0044-1.0016-1.5276,0-1.5319,1.0016,.0045,1.0016,1.5276,0,1.5319Zm.5745-6.8298c-1.4263-.0243-1.426-2.1462,0-2.1702,1.4262,.0242,1.426,2.1462,0,2.1702Zm0-5.8085c-1.5941-.0271-1.5939-2.3987,0-2.4255,1.5941,.0271,1.5938,2.3987,0,2.4255Z"/><path class="ab" d="M114.9412,576.3725c6.8936,1.7872,13.4859,14.6231,13.4859,14.6231,9.8609-7.4579,18.3507-14.4338,21.7431-30.7092-4.5343-19.342-20.3571-27.3676-33.7644-19.8177-4.1865,11.3163-12.5361,21.3676-13.5616,22.5778,2.2409,4.93,6.9685,11.9964,12.0971,13.326Z"/><path class="ab" d="M99.6761,540.5302c-1.4992,.2399-3.2236,.338-5.0881,.3665,.6199,1.8749,1.0328,3.6175,1.3008,5.0712,2.738-2.7695,3.7872-5.4377,3.7872-5.4377Z"/><path class="ab" d="M70.8676,600.4025s-12.2553-22.5957-19.4042-30.2553c-3.4526-3.6992-4.8777-9.6367-5.4313-14.7901-3.5244,2.7128-5.9305,4.7476-5.9305,4.7476-2.7783,3.2935,12.7568,19.0286,12.9371,19.0637,2.349,5.098,11.8867,52.4896,29.2461,56.056-7.9373-11.6713-15.5123-24.792-11.4171-34.8218Z"/><path class="as" d="M150.1702,560.2864c-3.4513,16.4099-11.8668,23.2013-21.7431,30.7092-6.7276-18.1654-18.3975-12.8315-25.5829-27.9491-.0682,.0805-.1042,.122-.1042,.122l-10.2128-14.4681c1.3286-.8572,2.4404-1.8005,3.3618-2.7325-.2681-1.4537-.6809-3.1963-1.3008-5.0712-24.7856-.6214-28.1745-1.1572-48.556,14.4604,.5535,5.1534,1.9786,11.0909,5.4313,14.7901,7.1489,7.6596,19.4042,30.2553,19.4042,30.2553-4.0959,10.016,3.4805,23.1581,11.4172,34.8219,14.9076,6.6679,25.4213,9.9904,39.6893,4.8816,6.3244-4.576,25.154-37.3439,32.5682-53.899-.5866-9.8094-2.0916-18.6101-4.3722-25.9206Z"/><path class="k" d="M52.2506,563.1685c-.0261-1.5382-2.3145-1.5379-2.3404,0,.0261,1.5381,2.3145,1.5379,2.3404,0Z"/><path class="n" d="M40.357,563.1685s-14.2979-7.39-16.0851-13.0992-3.0638-10.4327-5.4894-14.5178c-4.9714-7.7554,3.6488-19.0196,9.4468-20.6809,0,0-1.7872-14.1702,3.3191-19.9149,5.1064-5.7447,13.1489-4.9787,15.9574-10.4681,2.6567-7.5575,8.443-21.9896,17.234-17.1064,0,0,.2553-4.2128,1.7872-5.617s-.6383-17.8723-.6383-17.8723c-1.8187-4.8501-18.3701-30.7136-16.8513-40.4672,1.9472-24.2105,30.5858,24.0419,31.6584,32.0415,7.8905,24.297,1.708,24.469,8.171,47.7445,7.9256,13.5121,15.9765,17.321,34.7237,17.1072,7.6598-1.0217,10.8513-7.277,18.7024-4.2132,7.8511,3.0638,1.8511,18.0806-4.4042,20.0828s-18.1277,.0874-22.8511,4.4278c-14.8052,9.1059-8.1926,16.4223-17.9048,19.3292-5.8732,.8287-20.1377-1.3292-21.0313,.5857s-.5106,6.5106-6.1277,11.6808c-5.617,5.1702-9.9574,4.4611-10.5957-2.1418h-2.4255s-.766,2.8186-2.4255,6.5972c-1.9838,5.0905-15.6098-.4988-14.1702,6.502Z"/><path class="k" d="M106.0676,528.2166c-.7745-.5374-.7745,5.2498-3.9234,4.3987-3.149-.8511-5.3617-3.7872-6.1277-1.0851-.7659,2.7021-5.7872,4.5734-7.234,3.2548-1.4468-1.3186-2.0426-2.9357-3.4894-1.0208-1.4468,1.9149-3.9149-.7234-4.2553,.8936-.0342,4.317-5.4382-.8575-5.1064,6.3096,0,0,21.9882,.9479,24.3558,0,2.3676-.9479,6.5548-12.2135,5.7803-12.7509Zm-18.3489,8.5157c-.626-.0027-.6259-.9548,0-.9574,.6259,.0027,.6259,.9547,0,.9574Zm5.1702,0c-1.2585-.0214-1.2583-1.8937,0-1.9149,1.2583,.0213,1.2582,1.8937,0,1.9149Zm4.0149,1.0092c-1.4344,.1975-1.7643-1.931-.3375-2.1769,1.4345-.1975,1.7643,1.931,.3375,2.1769Z"/><path class="k" d="M47.7614,559.1778c-5.7179,2.732-8.7244,1.9152-10.4682-4.4773-1.7234-1.4681-2.1244,3.7021-5.1064,2.4893s-4.5958-.3192-3.1277,1.2766-2.8085,.8085,.4468,3.5319,11.5609,5.2766,12.1315,3.7447c2.304-2.6221,6.9976-1.5608,6.124-6.5652Zm-14.1703,2.8206c-1.4681-.4894-.9165-2.9233,.7288-2.3606,1.5585,.533,.7393,2.85-.7288,2.3606Zm3.5106-2.9575c-1.2127-.1915-1.0212-1.9149,.3192-2.0425,0,0,.8936,2.2341-.3192,2.0425Z"/><path class="ah" d="M59.3782,400.743c-8.0425-6.766-9.9575-4.8511-10.3404,2.6808-1.4746,9.8132,14.9566,35.4968,16.8506,40.4686,.0005-.0005,2.1707,16.4676,.6387,17.8718-1.5319,1.4043-1.7872,5.6171-1.7872,5.6171-8.8543-4.8485-14.5401,9.5176-17.233,17.1073-2.8095,5.4884-10.8521,4.7225-15.9584,10.4671s-3.3192,19.9149-3.3192,19.9149c-5.8243,1.6672-14.4129,12.9694-9.4466,20.6809,3.6791,4.969,3.319,13.3734,8.391,18.6182,.8854-1.7061,2.1436-3.6481,3.9067-5.4693,4.6047-4.7565,3.5745-.8511,7.8298,3.5106s2.0425,1.5958,7.1219-3.5106,12.4525-.1702,12.1555-1.8635-19.9583-23.6685-23.0262-26.2217c-3.068-2.5532-1.3576-5.1064,2.8511-3.0638,4.2087,2.0425,24.5573,20.4255,26.4296,21.3829,1.8723,.9575,2.7234-1.1276,3.9149-7.4042,1.1915-6.2766,5.4468-.7021,9.9422-3.349,4.4955-2.6469,5.3344-22.3744,5.3344-22.3744,3.9303,4.9377,13.1266,5.8197,10.2123-6.1281-1.0634-4.2549-18.3399-17.191-21.2336-22.8081-2.8936-5.617,.1702-14.1276,.1702-19.7446s-2.383-4.766-5.4468-10.9579c-3.0638-6.192-.6808-13.2123-4.0851-20.3612-2.245-4.7144-.3435-13.1268,3.5542-16.6521-2.4757-3.4299-5.0141-6.3822-7.4266-8.4117Z"/><path class="ah" d="M142.2932,496.1047c-9.6117-3.2311-16.1313,7.2351-26.4027,4.1143,2.0236,5.3075,2.5939,8.0795,6.2006,6.9495,8.4839-4.6364,16.3637,2.3768,10.8549,9.8873,9.4423,1.4875,18.4509-16.2993,9.3473-20.9511Z"/><path class="n" d="M68.5272,511.4239s-4.1425-20.4255-9.4755-22.2979c-14.6627-2.1859,8.634,23.4158,9.4755,22.2979Z"/><path class="ab" d="M196.8676,618.4831c8.7399-14.7588,32.9096-17.2243,56.8594-13.762-4.2917-17.0215-11.8678-30.8796-14.8811-42.6695-11.473-6.3534-26.2996-18.9405-33.1371-28.5759-22.9708-8.9619-39.9528-47.5999-39.9528-47.5999,0,0,2.3267,56.1226,4.5916,65.0906-5.5486,13.9801-4.1024,41.9338,12.3467,64.4444,4.5707-.0327,9.4766,.747,14.1733,3.0723Z"/><path class="p" d="M165.8417,487.8757c.4387,10.0679,2.4965,55.1343,4.5059,63.0907,0,0-.9023,1.9779-1.6806,5.5992,9.1822-11.4318,3.4697-51.7078-2.8252-68.6899Z"/><path class="p" d="M225.7187,553.2962c4.6719,3.4352,9.1178,6.3389,13.1272,8.7554-1.9595-7.2693-2.5006-15.3839-2.5923-22.8996-11.3016-1.4348-21.0795-2.6172-30.5448-5.6763,4.7709,6.0919,11.5734,13.6172,20.0099,19.8205Z"/><path class="as" d="M234.9101,643.6792c-1.8608-1.5343,19.7823,36.8879,30.5362,42.631-1.6708-18.4677-6.7154-61.1505-11.7194-81.5891-24.0606-3.4748-48.1347-.9614-56.8594,13.762-4.6968-2.3253-9.6027-3.1049-14.1733-3.0723,17.7745,22.3629,11.9242,14.047,25.4346,43.793l13.2487-14.7586,13.5326-.766Z"/><path class="as" d="M253.727,708.6953c-5.2849-6.0374-16.519-10.3779-24.4338-18.8034-7.9149-8.4255-7.6596-9.9574-10.4681-7.4043-8.9777,13.0635,31.3609,27.0454,34.9019,26.2076Z"/><path class="as" d="M227.5059,715.6792s8.1702,21.7021,16.3404,30.8936c8.1702,9.1915,13.8849,12.8795,14.1176,8.6385,.2327-4.241,2.4782-19.6172-6.458-24.9789-8.9362-5.3617-24-14.5532-24-14.5532Z"/><path class="as" d="M208.357,700.6154c2.1559,.8247,10.0034,86.9943,29.6148,82.2143,7.3885-1.1345,4.9724-9.4484,4.9724-9.4484,0,0,.1983-8.3278-7.237-16.4192-9.101-8.3046-17.2222-60.2068-27.3502-56.3467Z"/><path class="ac" d="M273.9741,755.5089c-2.0564-9.1602-11.3246-18.685-17.1045-21.3359-.563,7.9776,2.2919,14.6328,.8759,22.7017,7.5826,3.3737,18.0504,6.7494,16.2286-1.3658Z"/><path class="g" d="M286.2293,598.9983l15.5745-14.9716c10.5012,19.5067,13.2428,12.5657,29.8905-1.432,0-42.2101-4.2522-81.3837-4.2522-81.3837-24.1318,33.6589-36.2849,43.585-91.1885,37.9409-.5698,22.0725,7.0817,34.0917,15.1903,57.6646l16.462-7.0097,18.3234,9.1915Z"/><path class="x" d="M294.6548,706.1047c-14.5532,3.9575-9.7021-3.4468-9.7021-3.4468,13.7872-2.5532,21.4469-20.4255,21.0902-22.7234,.245-4.6272-34.2424,6.2186-41.6503-1.7631,5.9527,39.4898-6.0777,29.32-7.5231,56.0016,10.2786,5.4285,32.3979,36.6698,.8759,22.7017-1.5416,10.2136-6.4948,21.3577-6.4948,21.3577-3.1048-2.5076-5.3132,1.0084-10.9793,14.2975-3.7614,11.1943-48.0857,60.5079-66.9633,74.7958,40.4942-5.27,92.4981-56.6787,124.6183-108.313,20.6874-33.2556,32.6871-66.1848,29.5158-88.3403-9.9255,14.4929-24.0625,33.0599-32.7872,35.4324Z"/><path class="ac" d="M314.5698,596.1662c-4.8511,3.0403-12.766-12.1395-12.766-12.1395l-15.5745,14.9716-18.3234-9.1915-16.462,7.0097c6.0269,18.0214,10.2768,56.3725,12.9487,81.3549,7.3917,7.9828,41.9142-2.8666,41.6502,1.7639,.3568,2.297-7.3029,20.1693-21.0901,22.7225,0,0-4.8511,7.4043,9.7021,3.4468,42.9392-25.1478,36.7071-64.3368,37.0394-123.51-5.2551,5.2685-14.9216,12.1909-17.1245,13.5715Z"/><path class="c" d="M277.5485,644.325c0,6.196-3.8473,11.2188-8.5933,11.2188-11.3933-.5689-11.3887-21.8719,0-22.4377,4.7459,0,8.5932,5.0229,8.5932,11.2188Z"/><path class="z" d="M326.6974,638.3175c0,6.5569-3.9443,11.8723-8.8098,11.8723-11.6789-.5964-11.6739-23.1517,0-23.7447,4.8654,0,8.8097,5.3154,8.8097,11.8724Z"/><path class="z" d="M269.5485,646.3175c-2.2128-2.2979-2.383-1.1372-1.0213-3.9303,1.3617-2.7931,.4418-7.1969-1.617-7.559-6.1563-.787-7.6016,16.8602,.6815,13.7874,1.7015-.8512,1.9568-2.298,1.9568-2.298Z"/><path class="z" d="M271.6761,634.4026c-1.5319-.2553-2.6383,.2553-.5957,1.9574,2.0426,1.7021-.5106,1.1915,2.383,3.1489,2.8936,1.9574,2.4681,.4255,1.2766-1.7021-1.1915-2.1277-3.0638-3.4043-3.0638-3.4043Z"/><path class="au" d="M296.1458,387.7453c.211,1.6631,4.3813-1.7683,7.9558,.4445,2.1139,1.3085,4.5848,3.6914,7.2018,10.9446,4.7067,.06,10.6509-1.0968,13.8579-6.5015-2.1809-1.8586-5.6523-4.2062-9.2114-4.1027-5.8539,.1702-19.1608-6.3625-20.3524-6.0221"/><path class="h" d="M272.8082,640.4111c.1077,1.5831-.9619,2.7423-.3662,4.4094,.5957,1.6671,2.4681-.7105,2.8085-2.934,.3404-2.2235-2.5225-2.6534-2.4424-1.4755Z"/><path class="h" d="M269.5485,636.4451c-.8654-.1644-1.1915,2.4681,0,2.2128s1.0454-2.0142,0-2.2128Z"/><path class="v" d="M272.2604,646.5728c-2.8752,.2313-3.9886,4.766-1.2652,4.2553,2.7234-.5106,3.3814-4.4255,1.2652-4.2553Z"/><path class="ai" d="M267.8463,647.6792c-6.1507,2.0975-.3553,5.9285,3.1489,2.5106-2.8026,.5619-1.393-2.7001-3.1489-2.5106Z"/><path class="u" d="M309.6237,588.2124c-2.6938-2.6897-5.5648-5.738-8.2325-8.6508,2.5217,19.0574,6.2862,42.3997,11.8477,57.4908l1.937-5.7556,7.0937,3.9991c-2.4965-9.4784-7.6749-29.0178-12.6458-47.0836Z"/><path class="y" d="M297.3035,550.7862s1.908,13.7505,4.0877,28.7754c2.6677,2.9127,5.5386,5.9611,8.2325,8.6508-6.9084-25.113-10.4479-36.5751-10.4479-36.5751l-1.8723-.8511Z"/><path class="bb" d="M297.3035,550.7862l1.8723,.8511s3.5394,11.4621,10.4479,36.5751c5.9378,5.9115,9.1942,8.8466,15.1733,9.6929-11.137-22.2365-26.1318-51.5446-26.1318-51.5446l-5.4468,1.8724s.4803,10.4144,1.302,23.6553c1.8578,2.1183,4.2637,4.8267,6.8708,7.6732-2.1797-15.0248-4.0877-28.7754-4.0877-28.7754Z"/><path class="e" d="M301.3912,579.5616c-2.6071-2.8465-5.0129-5.5549-6.8708-7.6732,2.0363,32.2103,3.2171,57.5445,14.698,77.1106l4.0204-11.9466c-5.5681-15.1217-9.3199-38.4039-11.8477-57.4908Z"/><path class="e" d="M333.7291,615.9777c-2.1564-4.4788-5.3447-10.9097-8.9321-18.0724-5.9832-.8474-9.2322-3.7811-15.1733-9.6929,4.9713,18.0675,10.1488,37.6032,12.6458,47.0836l18.2681,10.2988s2.0425-11.2341-6.8085-29.6171Z"/><path class="d" d="M359.1428,557.9829c-13.447-12.4616-44.3254-16.8491-61.0766-16.5087,13.4662,3.7407,49.2639,16.8428,61.0766,16.5087Z"/><path class="at" d="M359.1428,557.9829c-15.596,.401-54.6439-19.8297-71.201-16.5583l.768,2.112c1.8964,.3977,4.1243,.9924,6.5207,1.7384,6.508-1.8666,39.9162,4.1193,27.0493,13.7194,8.5355,6.8152,25.155,19.134,33.6213,25.3727,9.4145-15.911,16.345-14.6958,3.2416-26.3842Z"/><path class="at" d="M306.2454,554.6448c-5.8418-3.8544-10.1562-7.8227-16.5933-8.5168,7.3804,8.1222,44.1922,54.5373,52.0769,56.5736,.8623-.6163,4.4019-5.0711,8.5482-10.6274-11.0612-7.506-33.2784-27.6697-44.0318-37.4294Z"/><path class="bb" d="M293.8993,546.1279c.1286-.379,.6076-.6573,1.3312-.853-2.3964-.746-4.6243-1.3407-6.5207-1.7384l.9423,2.5914,6.4533,1.5694c-1.3478-.9528-2.2062-1.5694-2.2062-1.5694Z"/><path class="u" d="M311.8304,557.9829c-1.1597-.525-3.2418-1.8057-5.585-3.3381,10.7588,9.7643,32.9649,29.9186,44.0318,37.4294,1.817-2.4349,3.7464-5.0762,5.624-7.7072-8.4664-6.2387-25.0859-18.5574-33.6213-25.3727-3.1257,1.2047-7.9788,.1069-10.4495-1.0115Z"/><path class="bb" d="M322.2798,558.9943c12.8647-9.601-20.5384-15.5849-27.0493-13.7194,9.0742,2.834,19.9634,7.6228,27.0493,13.7194Z"/><path class="at" d="M294.739,547.2963c.329,1.9384,7.9713,5.0366,11.5064,7.3484-4.0054-3.7078-6.4366-6.0469-6.4366-6.0469l-5.0697-1.3016Z"/><path class="y" d="M293.8993,546.1279s.8584,.6166,2.2062,1.5694l3.7033,.9006c3.0282,4.2468,15.0106,13.8323,22.4711,10.3964-7.0831-6.0952-17.9784-10.8871-27.0493-13.7194-.7236,.1957-1.2026,.4741-1.3312,.853Z"/><path class="c" d="M310.223,640.8707c4.4739,9.1193,14.4599,4.6898,13.0267-6.8938-.0842-4.0849,2.3839-1.9472,2.9796,3.5797-.0125,15.443-13.9054,14.9401-16.0063,3.3141Z"/><path class="v" d="M316.7825,646.5674c.766,.8565,4.4255,.5009,5.5319-1.7468,2.0786-2.6405-.0635,6.5021-5.5319,1.7468Z"/><path class="h" d="M320.4421,640.7514c-2.3402-1.9545-4.9283-.6476-2.5545,1.6358,2.3738,2.2834,5.3416,2.9165,5.1821,.1894-.1595-2.7271-1.8-1.1339-2.6276-1.8251Z"/><path class="at" d="M278.8251,554.3175l-18.4632,117.9574-24.6547-27.9016-10.3715,13.7314s12-42.1277,12.5106-45.8298c.5106-3.7021,18.2553-35.9787,26.1702-50.2234,7.9149-14.2447,14.8085-7.7341,14.8085-7.7341Z"/><path class="bb" d="M271.4748,564.3751s-20.1391,62.1589-18.437,69.9655c4.3256,15.0356,11.6943-10.4134,12.824-10.7465l1.0142,7.0638,11.9491-76.3404-7.3502,10.0576Z"/><path class="w" d="M233.4634,642.5765c3.8768-5.3256,30.9284-51.6181,32.3984-53.3654-1.5182,1.519-21.8071,53.1301-25.526,60.4004l-4.6286-5.2381-2.2438,2.9707v-4.7675Z"/><path class="d" d="M218.5662,584.0267c5.7106-3.5607,32.5563-22.2537,50.3152-37.924-11.5216,7.5251-52.7345,33.1379-60.1346,39.1557,1.8174,.9683,6.233,1.0046,9.8194-1.2317Z"/><path class="e" d="M279.4633,543.3431c-1.1296-1.7604-6.1381-1.0489-10.5818,2.7605-23.4289,17.7844-45.7975,39.1265-60.1347,39.1548-10.6476,9.574,30.8971,34.8477,34.8427,36.8473,9.6304-3.3846,27.3342-45.754,31.6895-55.2772,5.2712-8.4006,7.1489-16.4446,4.1844-23.4854Z"/><path class="w" d="M261.0803,568.0645c-8.3061,10.9942-37.1338,35.9131-43.0212,32.9763,0,0,3.0486,5.3804,5.8762,6,2.8274,.6196,21.3154-8.2979,31.6558-19.7872,6.0649-6.7388,13.9255-18.3914,18.4399-26.6797-6.7053,8.7833-20.304,23.4528-20.304,23.4528,0,0,3.3521-7.8889,7.3533-15.9622Z"/><path class="ae" d="M277.8006,553.5552c-.2445-.9719-.5282-2.2298-1.0879-3.0615,1.4997,.1752,1.1657,1.9284,1.0879,3.0615Z"/><path class="ad" d="M277.6376,551.9447c-.0826,1.5303-1.4646,4.6961-3.6067,8.6292,2.8819-4.0685,4.2804-5.1269,3.6067-8.6292Z"/><path class="ad" d="M276.7825,550.9664c.2067-.0433,.361-.0178,.4921,.038-4.7925-6.6716-13.4187,11.6267-16.1943,17.0602,7.2302-8.6839,12.6597-16.4609,15.7023-17.0981Z"/><path class="y" d="M277.2746,551.0044c-5.1584-1.0649-23.3192,28.6107-23.5476,33.0223-.4038-.768,25.0913-23.7538,23.5476-33.0223Z"/><path class="af" d="M282.3502,541.4741c-7.2911,.9928-8.3484,17.6807,.4513,19.4776-.9266-6.0913-.7212-14.4738-.4513-19.4776Z"/><path class="af" d="M286.5767,540.6635c1.1407,4.1783,2.642,11.6686,2.9939,19.8383,8.0809-3.0934,7.5778-20.3301-2.9939-19.8383Z"/><path class="w" d="M286.5767,540.6635c-1.2903,.017-2.9618,.3522-4.2266,.8107-.2216,4.108-.3984,10.4915,.0577,16.0166l6.6235-3.6665c-.6318-5.4441-1.6353-10.1592-2.4547-13.1608Z"/><path class="y" d="M282.4079,557.4907c.0994,1.2048,.2277,2.3705,.3936,3.461,2.2076,.5859,4.6777,.4229,6.7692-.45-.0991-2.3007-.2915-4.5433-.5392-6.6775l-6.6235,3.6665Z"/><path class="ae" d="M268.0779,533.7622c-.3528-.0949-.3273-.1913-.7236-.8994l.4258-.2593c.5993,.8388,.7613,1.0009,.2979,1.1587Z"/><path class="au" d="M207.812,435.1953c2.1787-.5099,4.5208-.849,6.8503-.7883-3.2112-19.8734,3.1517-17.3619,11.7196-23.3818-.1828-3.5646,.8867-4.5403-5.3442-3.6009-8.0448,1.041-18.3194,17.0558-28.4725,22.9969l1.7989,12.7533s5.4479-6.1069,13.4479-7.9792Z"/><path class="ab" d="M177.8874,448.6235c-7.6458,23.6688,4.7556,54.1192,26.7482,70.3046,12.4789,8.6502,42.6113,11.7895,64.1536,9.9053-25.1267-23.3352-49.2776-63.5642-54.127-94.4264-9.7226-.7797-17.9667,5.808-20.1777,8.4211l-1.8385-12.437c-4.5034,2.4174-9.6004,4.604-13.5803,6.0366,.1053,3.7747-.3509,7.7216-1.1783,12.1958Z"/><path class="ab" d="M288.6885,531.8906c-3.8976,4.6392-6.5656,6.866-6.5656,6.866-2.0347-.6548-4.5487-2.2482-7.3918-4.5551-22.54,2.3515-57.7232-.3117-72.7637-10.7802-28.4913-21.8859-36.8599-52.0219-28.0467-85.4336-7.5774,.6886-13.174,17.9329-10.6587,34.6276,8.061,88.209,108.193,80.3075,164.18,58.0426v-11.3007c-17.0688,6.9036-35.1805,11.6285-38.7535,12.5334Z"/><path class="az" d="M169.6667,467.8247c4.9013,52.7712,42.58,72.8145,105.0645,66.3769-2.3741,.2446-3.849-3.3168-5.9419-5.3682-48.987,3.7701-87.661-15.0486-92.8697-60.9515-.118-12.1814,3.2856-20.9235,3.4374-31.5584-2.3848,.8584-4.5282,1.454-6.0714,1.7615-2.702,9.3704-3.6198,17.7696-3.6188,29.7397Z"/><path class="az" d="M288.6885,531.8906c3.573-.905,21.6847-5.6299,38.7535-12.5334v-6.4968c-11.8496,4.9523-24.7125,9.4313-32.7683,11.7164"/><path class="n" d="M379.0823,439.56c-.2125,18.9586,6.3905,54.4486,12.6099,62.7503,0,0,3.3397-6.7451,8.0454-17.3575-9.6344-9.9235-14.8265-37.677-20.6553-45.3928Z"/><path class="ah" d="M424.8916,457.765c-5.9381-7.3606-28.9653-53.4802-38.2088-62.5533-7.0602-6.1276-15.4798,.3406-15.4798,.3406,2.3239,11.6878,7.5798,30.5747,7.8794,44.0078,5.8395,7.7401,11.0108,35.4469,20.6553,45.3928,4.8678-17.0324,18.6141-27.3106,25.1541-27.1878Z"/><path class="as" d="M478.1682,483.6617c-3.064-20.316-12.4255-49.301-12.4255-49.301,0,0,7.9032-5.8633,10.5596-12.0704-7.8624-4.2448-20.2552-8.1268-26.6455-11.5024-4.8503-3.5761-5.8716,.509-13.2758-.257-17.4317-5.0422-10.5422-3.8981-21.9574,7.6595,12.9358,5.5422,20.2333-2.5383,16.34,21.3691-3.4494,21.5194-8.594,50.8702-11.1485,63.5672-7.9325-5.351-22.5026-13.9188-27.0995-29.1086-5.6449,24.1151,.7963,40.416,14.6665,58.2159,7.3265,6.297,20.6031,17.3608,25.3691,22.297s9.7021,8.5106,15.8297,7.6595c8.9926-1.7301,10.8035-22.5613,19.7462-29.616,8.339-9.3627,13.1049-28.5968,10.0411-48.9127Z"/><path class="ab" d="M403.6495,492.2614c6.6438,4.766,15.9655,10.8653,15.9655,10.8653,0,0,7.8048-36.5182,8.0601-44.8586-7.1373-3.649-30.2736-2.875-35.5881,15.9308,2.6984,6.1411,7.3575,15.0461,11.5625,18.0625Z"/><path class="ab" d="M480.7214,445.4245c-2.1858-12.322,4.6687-16.9749,5.7598-25.0213,0,0-4.8783,2.8962-10.179,1.8871-2.6564,6.207-10.5596,12.0704-10.5596,12.0704,5.8438,20.217,25.0473,71.5467,2.3826,98.2127-5.1043,5.7296-11.3224,14.769-13.4279,24.1665,4.2866-4.9678,9.323-11.7801,13.258-14.2941,30.997-16.9587,12.8756-75.1274,12.7661-97.0213Z"/><path class="k" d="M384.9326,478.7011s.4126,.3292,.5795,.3087c-.2687-.2468-.5795-.3087-.5795-.3087Z"/><path class="k" d="M423.1042,452.0203c-2.572-.8823-4.5957,0-4.5957,0,0,0-2.2979-4.4681-5.234-3.1915-.3363-3.9289-7.4946-1.4586-7.1489,1.1489,0,0-5.8723,1.6596-4.8511,4.7234-.1115,2.7983-5.3733,.6072-6.1276,2.2979-2.1952-2.5547-4.8345,.7959-3.7021,3.0638-.6211,.7651-4.5186,4.5671-2.0349,6.3784-.2185-.0236-2.716,2.3135-2.178,3.7067-2.0862,.7376-2.8284,3.2205-.5493,4.3799-1.202,.9281-2.3226,2.1179-1.1705,4.4821,.4409,.405,.7682,1.3093-.5795,3.2657-2.1687,3.1487,1.75,7.8786,1.75,7.8786,.0097,.0236,1.1142,4.362,2.2169,7.0378,1.3622,3.3054,2.7776,5.0818,2.7926,5.1184-3.0287-17.3041-.5356-33.7133,11.0303-41.2951,5.3778-3.5253,13.2362-5.3612,22.749-3.5891,0,0,.2051-4.5235-2.3672-5.4058Zm-35.2268,34.8439c-1.221-.0208-1.2209-1.8374,0-1.858,1.221,.0206,1.2208,1.8375,0,1.858Zm.929-5.2766c-1.221-.0208-1.2208-1.8373,0-1.858,1.221,.0207,1.2209,1.8375,0,1.858Zm.6035-5.3205c-1.2753-.0216-1.2751-1.919,0-1.9404,1.2752,.0216,1.2751,1.919,0,1.9404Zm.9711-8.5234c-.9181-.004-.918-1.4003,0-1.4042,.918,.004,.918,1.4003,0,1.4042Zm2.851-4.8297c-.9459-.0042-.9459-1.4427,0-1.4468,.946,.0041,.9459,1.4428,0,1.4468Zm4.0852-2.3405c-1.2307-.0209-1.2305-1.8516,0-1.8723,1.2304,.0209,1.2303,1.8516,0,1.8723Zm5.4468-1.963c-1.3351-.0226-1.3349-2.009,0-2.0315,1.3351,.0226,1.3349,2.009,0,2.0315Zm3.9148-4.2924c-.946-.0042-.9459-1.4428,0-1.4468,.9461,.0041,.9461,1.4428,0,1.4468Zm3.1738-2.906c-1.3822-.0234-1.382-2.0797,0-2.1029,1.3819,.0235,1.3817,2.0796,0,2.1029Zm6.0178,1.4716c-.9623-.0042-.9622-1.4675,0-1.4716,.962,.0043,.962,1.4674,0,1.4716Z"/><path class="az" d="M327.9087,519.3571c43.586-21.9338,48.0324-83.9291,39.4719-127.7386-1.4498,.4086-2.9956,1.5211-4.7341,1.0041,6.5446,55.7222-3.123,121.2053-67.9727,131.9542-1.7548,2.544-4.0154,4.984-5.9853,7.3139,.12,.0211,22.5704-4.8012,39.2202-12.5335Z"/><path class="ab" d="M364.6362,446.7452c1.8373-14.5859-.2951-38.9886-1.9897-54.1226-4.3668-3.589-12.7311-6.063-18.6914-2.8571-4.8508,2.6378-18.3271,2.8675-18.3271,2.8675,0,0-3.6163,5.8284-14.3246,6.5015,10.4606,30.8287,13.5083,81.4052-16.6296,125.4423,41.0836-7.4286,63.7606-35.3602,69.9624-77.8315Z"/><path class="ab" d="M369.7426,392.0239c-.769-.6409-1.551-.634-2.362-.4055,10.2089,66.9542-6.3597,132.0858-78.2998,140.2721-2.0486,2.423-4.2014,4.732-6.4911,6.866l-.1818,3.5145c73.5038,4.1234,115.3238-90.3219,87.3347-150.2472Z"/><path class="ay" d="M402.5232,268.5996c11.1435-17.4417,9.8007,8.6854,10.2875,12.0032,0,0-8.4857-15.3689-10.2875-12.0032Z"/><path class="ay" d="M354.9341,408.8288s-9.155-9.0599,3.9331-11.6789c0,0-5.8055,6.2321-3.9331,11.6789Z"/><path class="ah" d="M372.2958,412.233c1.8723-9.5319,14.3868-14.4681,14.3868-14.4681,0,0,1.4089-2.5405,2.494-6.1497-8.3422,5.1189-25.2018,4.2032-28.1992,4.7879-17.3489,5.4067-1.1072,21.2578,11.0757,21.6538-.2314-1.5736-.2156-3.4911,.2427-5.824Z"/><path class="ae" d="M473.532,412.6533c-.3125-.0658-.2826-.2996-.7247-1.0205,.0233-1.2136,1.5339,1.1593,.7247,1.0205Z"/><path class="ah" d="M482.7639,372.233c-3.7446-4.766-16.531-4.2554-16.531-4.2554-1.9321-9.9387-5.8247-17.5838-18.5328-14.9787-1.0064-7.8852-6.9304-11.13-14.2979-8.8511,0,0-8.6808-9.1915-13.1063-5.9575,0,0-4.9363-13.7872-5.8724-26.0425-.9362-12.2553-.4255-34.3829-3.4894-39.6595-7.3465-12.8425-11.0971-.2242-13.0432,10.2504,11.851-1.9341,16.5954,63.4062,20.5349,67.0254,1.8702,5.2774-10.0449,25.3625-9.7043,29.4476,0,0,18.287,.4955,18.468,15.4894,6.3368-4.1074,22.6444,6.6027,22.8936,12.7098,3.9889-8.0746,19.5155-4.0872,22.9437,4.1032-1.5896-2.9402-5.9344-12.2371,2.0775-13.2385,12.7789-1.251,4.9775,17.8529,.8199,24.2057,7.2058,.0994,6.4696,.8615,8.7121-13.6553,2.0425-13.2738,1.8723-31.827-1.8723-36.593Z"/><path class="n" d="M475.1042,398.2756c-8.4127,1.2388-3.3604,10.9563-1.5725,14.1276-3.299-8.7697-19.0332-13.4337-23.4487-4.9923-.2925-6.1896-16.6083-16.7965-22.8936-12.7098-.181-14.9939-18.468-15.4894-18.468-15.4894-.3406-4.0851,11.5745-24.1702,9.702-29.4468-4.0431-4.0196-8.6212-68.8009-20.5326-67.0262-4.5002,22.3664-3.7309,56.9145,8.2773,71.9624-.8226,.6374-8.227,30.8874-16.9916,36.9142-1.0851,3.6091-2.494,6.1497-2.494,6.1497-3.112,1.1858-16.6531,7.9493-14.6295,20.2921,2.6411,.17,5.1028-.3243,7.0291-1.7389,8.9439-8.046,28.855,.5656,35.3412,1.8723l7.7448-8.1702s5.7618,.1641,7.9873-1.1946c0,0,8.7139,7.2104,17.4696,.7983,1.7849,2.3812,14.3621,9.0018,18.6078,8.1048,0,0,5.0243,3.8053,9.6913,4.7525,4.1507-6.3395,11.9633-25.4602-.8199-24.2057Z"/><path class="n" d="M432.2429,377.1692s-1.7022-16.8511,3.234-20.4255,7.149,8-3.234,20.4255Z"/><path class="n" d="M454.3384,389.765s2.5532-13.4468,4.5957-19.7447,8.8511-4.0851-4.5957,19.7447Z"/><path class="k" d="M416.6061,402.9893c-2.9486,.0096-4.3954,3.3652-2.7783,5.8364-.491-.3046-8.1972,3.803-6.4255,5.9605l-2.7609,.6265,3.9568,1.2066c-1.1457-2.9199,4.0232-1.5536,1.5713,.4238l4.254,1.1473,9.8286-8.1965s-4.6974-7.0142-7.646-7.0046Zm-4.0763,11.8862c-1.558-.0265-1.5578-2.3443,0-2.3706,1.558,.0265,1.5577,2.3443,0,2.3706Zm3.7722-4.2856c-1.558-.0265-1.5578-2.3443,0-2.3706,1.558,.0265,1.5577,2.3444,0,2.3706Zm3.1277-2.5612c-1.558-.0265-1.5578-2.3444,0-2.3706,1.5579,.0265,1.5577,2.3443,0,2.3706Z"/><path class="k" d="M485.9387,406.5096c-2.618-3.2977-3.9303,9.8234-5.196,9.8298-3.5822-10.6463-11.526-4.0694-14.5098,1.3894,2.3113,3.7653,15.7586,10.3045,20.2488,2.6738-.0005,.0006,1.6013-11.9781-.543-13.893Zm-10.8131,9.383c-1.4542-.0247-1.454-2.1882,0-2.2128,1.4541,.0247,1.4539,2.1882,0,2.2128Zm7.2128,4.8085c-1.5102-.0257-1.51-2.2724,0-2.2978,1.5101,.0256,1.5099,2.2724,0,2.2978Zm3.6003-6.0259c-1.3081-.0222-1.308-1.9686,0-1.9907,1.3083,.0222,1.3081,1.9687,0,1.9907Z"/><path class="ao" d="M326.3011,211.8068C269.1852,7.9768-13.8473,105.5076,77.2627,319.0877c20.7618,57.1872,43.5704,101.1021,53.7831,139.9106,10.1501,38.5706,32.4055,86.3765,52.7302,66.9094,19.4279,3.3541,16.4261-21.596,14.2485-27.2498,0,0,4.8511,19.6596-11.4893,20.9362-52.3704-18.4918-46.8661-120.5967-52.2665-165.0389,20.0694,4.8009,30.2279-7.7289,31.841-11.642-15.9135,12.8167-48.7572-17.3625-51.3192-25.5319l5.617,1.7872c-12.7609-12.7193-17.059-33.633-15.8298-48.2553,1.0856,9.0345,16.7703,23.3069,27.3192,23.234,0,0-16.8511-9.4468-17.3617-32.9362,0,0,11.234,21.4468,27.8298,19.9149l-1.7872-2.2979s11.7446,5.8724,19.4043,5.3617c-19.5512-11.4538,3.1843-65.1089,5.6169-71.234-.2412,17.6509,1.3168,37.8793,19.1489,53.1064,0,0-11.234-20.4255-9.7021-33.1915,3.6598-13.6886,9.1627-82.9842,7.6597-91.4042,6.9271,27.9744,72.6725,59.7293,59.234,98.8085,11.4979-15.7571-5.9805-47.9797-11.4894-55.9149,5.6947,6.6646,27.5843,33.4266,24.3405,48.9362,8.5862-7.2531-13.2536-47.3568-13.9574-49.0212,0,0,22.468,14.4681,37.1063,33.3617,16.143,21.324,18.4355,52.2822,3.234,56.6808,10.1715,.5527,18.7888-8.9473,24.1702-17.0213l11.2341,44.9362-2.7234,2.3829c5.2734,21.3282,21.5864,212.2859-33.3618,201.0213,25.9232,18.3611,53.1003-69.5062,51.8331-75.1908,2.6026,6.9025,6.8304,78.5116-17.5319,76.2553,45.0879,3.2886,20.7255-252.9512,11.5075-294.8943Zm-153.0425,309.6595c2.0699,1.3427,4.0876,2.3808,6.0271,3.1432-9.6357,6.9785-23.952-8.1121-30.0272-23.739,0,0,11.4042,12.4255,24.0001,20.5958Zm-42.9287-167.9252l4.6307,57.0316-20.1702-67.6595s3.8367,6.9962,15.5394,10.628Z"/><path class="an" d="M219.5565,166.743c13.6493-10.6202,55.4511,33.7933,44.9364,5.7882-6.6385-17.1924-18.7237-34.2137-8.5109-21.8733,10.2126,12.3405,19.7449,16.0851,18.9788,3.6596s24.2552,9.8723,36.1702,40.5958c11.9148,30.7234,13.2766,34.8412,13.2766,34.8412-5.4985-110.4488-129.4906-172.5775-216.2573-100.2858-105.4933,83.9427-5.1786,235.0922,22.9014,329.5304,10.1443,38.5698,32.3996,86.3757,52.7243,66.9086,19.4279,3.3541,16.4261-21.596,14.2485-27.2498,0,0,4.8511,19.6596-11.4893,20.9362-52.3704-18.4918-46.8661-120.5967-52.2665-165.0389,20.0694,4.8009,30.2279-7.7289,31.841-11.642-15.9135,12.8167-48.7572-17.3625-51.3192-25.5319l5.617,1.7872c-12.7609-12.7193-17.059-33.633-15.8298-48.2553,1.0856,9.0345,16.7703,23.3069,27.3192,23.234,0,0-16.8511-9.4468-17.3617-32.9362,0,0,11.234,21.4468,27.8298,19.9149l-1.7872-2.2979s11.7446,5.8724,19.4043,5.3617c-19.5512-11.4538,3.1843-65.1089,5.6169-71.234-.2412,17.6509,1.3168,37.8793,19.1489,53.1064,0,0-11.234-20.4255-9.7021-33.1915,3.6598-13.6886,9.1627-82.9842,7.6597-91.4042,0,0,8.6143,21.0185,28.3579,37.0792,.3943-5.2896,2.4272-10.4377,8.4932-11.8026Zm-46.2979,354.7234c2.0699,1.3427,4.0876,2.3808,6.0271,3.1432-9.6357,6.9785-23.952-8.1121-30.0272-23.739,0,0,11.4042,12.4255,24.0001,20.5958Zm-42.9287-167.9252l4.6307,57.0316-20.1702-67.6595s3.8367,6.9962,15.5394,10.628Z"/><path class="ao" d="M173.4931,187.7417s4.0851-20.4255-7.6595-21.9575c-13.8401-1.1328-31.6097,40.5869-46.5958,39.4468,0,0,2.2979,20.0127,.5106,20.3467-1.7872,.3341-8.4255-24.0489-8.4255-24.0489,.7237,10.6033-13.3308,16.3318-17.7447,4.9788l-7.7872,13.1489s-.2553-18.766-3.5745-25.4043c-3.3192-6.6382-5.234-8.5532-7.1489,1.5319-1.9149,10.0851-8.8085,24.8936-9.1915,24.8936-.2107,0-2.0422-5.2589-3.139-12.6428-16.1998,17.437,37.5433,235.2501,75.5474,205.7986-1.0748-16.797-2.3622-43.403-4.0365-59.2159,20.0694,4.8009,30.2279-7.7289,31.841-11.642-15.9135,12.8167-48.7572-17.3625-51.3192-25.5319l5.617,1.7872c-12.7609-12.7193-17.059-33.633-15.8298-48.2553,1.0856,9.0345,16.7703,23.3069,27.3192,23.234,0,0-16.8511-9.4468-17.3617-32.9362,0,0,11.234,21.4468,27.8298,19.9149l-1.7872-2.2979s11.7446,5.8724,19.4043,5.3617c-19.5512-11.4538,3.1843-65.1089,5.6169-71.234-.2412,17.6509,1.3168,37.8793,19.1489,53.1064-17.4016-24.5364-3.9529-55.609-2.9629-89.8312-2.9724,1.2311-8.2711,11.4482-8.2711,11.4482Zm-43.184,165.8621l4.6307,57.0316-20.1702-67.6595s3.8367,6.9962,15.5394,10.628Z"/><path class="i" d="M183.7233,135.5941c1.1143-13.0552,23.0312,6.4484,31.6625,3.3298,9.4473-1.2644-8.4251-10.7341-11.7442-15.3298-3.3192-4.5958,18.8937,11.4893,25.1832,13.1873s-2.2942-13.4662,2.6465-11.4c4.9407,2.0662,1.7874-9.9575-11.7446-17.3617-40.0565-24.1455-94.4907,.642-124.1736,33.0765-.1234,8.456-12.3305,45.9028-2.9765,27.9442,7.0131-12.1718,20.6567-27.4088,16.9798-11.7442,0,0,2.0425,.383,2.1702,4.8511,.1276,4.4681,3.7021-12.5106,4.5958-6.2553s1.1489,14.1702,6.2553,16.9787c5.1064,2.8085,26.1702,1.6596,34.5957-14.8085,12.8967-24.1409,20.3527-37.6891,25.5002-11.7757,.0315-3.0251,.0317-4.8201,.0317-4.8201,0,0,.7373,1.794,2.2629,4.7225-.8938-4.579-1.5554-8.9325-1.2451-10.5948Z"/><path class="an" d="M200.6936,176.3076c14.8588,.9401,45.9459,30.4792,24.0004-13.6187-6.6387-11.5729,1.191-4.4239,12.7655,.8527,11.5745,5.2766,5.9575-4.4255,5.9575-4.4255,19.088,7.1461,47.8298,63.5395,49.1914,70.6383-3.3169-32.0098-18.7178-65.7054-42.681-87.8299-37.0136-40.3748,4.5963-33.1394-63.0572-43.7339,28.627,22.69,67.9519,26.8172,9.3979,47.3063-5.7874,3.5767-13.0982-6.7424-20.077-6.5722-24.9879,1.6808-1.983,19.8183-22.8872,14.7309,1.5205,2.9534,3.9109,7.1884,7.2345,11.9698,9.422-14.2541,35.8698,28.5893,43.9547,36.0901-2.978-5.6769-5.5017-9.493-5.5017-9.493,0,0,5.8198,6.7783,11.7649,15.3909-.9185-4.4065-2.001-9.9225-2.9138-15.476-2.0425-12.4255-11.4043-14.9788-7.1489-15.8298Z"/><path class="an" d="M148.748,161.977c-13.4468,11.7447-19.7447,9.5319-25.1915,3.9149-7.8393-9.2762,8.1343-39.6947-7.6595-21.1064-1.0213-4.7659-8.3367,4.415-18.7234,24.1702-4.3404,8.2553-17.9674,19.5294-19.9149,10.5237-.5373-2.4846-1.3227-5.4799-2.1778-8.5147-16.9252,39.1231-20.8022,66.9034-4.3554,128.2474,4.976-17.9792,1.8708-45.1924,1.257-66.5968-.9006-18.6562,3.1377,16.4273,10.5528,9.7021,0,0,1.3617-22.1277,13.1064-25.5319,11.7446-3.4042,12.7659,6.4681,16.5106,22.2979,3.7447,15.8298,10.8936,20.2554,8.6808,12.0851s-3.0638-27.9149,.1702-26.383c3.234,1.5319,21.1064-25.3617,21.1064-25.3617l-.8511,17.5319s9.1915-18.2128,14.1276-29.617c4.9362-11.4043,6.6383-10.5532,8.4777,3.5745,1.2185,9.3577,.24,21.1745-.5596,28.0908,1.3715-3.7157,2.2947-6.0483,2.2947-6.0483,0,0-.1276,3.8908,.158,9.3254,9.4287-28.419,19.2587-46.2863,16.9269-77.0422-19.3462-9.1145-12.4295-2.6008-33.9359,16.738Z"/><path class="j" d="M126.7905,416.1898c-4.8751-1.2935-9.9597-5.3089-14.2973-9.6453,1.9083,4.6643,3.748,9.2384,5.4988,13.7247,9.8995,5.2958,20.4295,24.3667,26.2919,34.363-3.0245-15.77-4.9062-29.702-5.9787-40.861-2.7237,2.2324-6.5098,3.7466-11.5147,2.4186Z"/><path class="m" d="M117.992,420.2692c4.2272,10.8318,7.9475,21.174,10.923,31.1548,7.0716,7.8734,13.9524,17.8197,21.2835,25.049-5.169-20.1556-14.6015-44.6086-32.2065-56.2038Z"/><path class="ao" d="M146.4501,472.1047c-5.1849-6.2485-12.0969-14.2929-17.535-20.6807,8.6608,35.9977,32.8012,96.2588,54.861,74.4837,19.4279,3.3541,16.4261-21.596,14.2485-27.2498,0,0,4.8511,19.6596-11.4893,20.9362-15.6539,2.2622-27.9022-29.3012-40.0852-47.4894Zm26.8086,49.3617c2.0699,1.3427,4.0876,2.3808,6.0271,3.1432-9.6357,6.9785-23.952-8.1121-30.0272-23.739,0,0,11.4042,12.4255,24.0001,20.5958Z"/><path class="f" d="M213.3436,160.0152c17.6171-5.0169,40.3406,6.7278,37.2766,1.8767-3.0637-4.8511-12-16.0989-12-16.0989,0,0,5.3618,1.5685,6.3831-6.8684,1.0212-8.437,24.5106,10.2014,21.9574,3.563-2.5531-6.6383-19.9149-22.7234-5.8723-12.766,13.2374,8.9793,29.8348,23.8235,37.0336,22.8678-27.2623-37.4761-68.2199-54.8895-111.2518-54.3989,11.8245,2.4775,25.823,5.9806,32.8564,9.829,13.532,7.4042,16.6853,19.4279,11.7446,17.3617-4.9407-2.0662,3.6431,13.098-2.6465,11.4s-28.5024-17.783-25.1832-13.1873c3.3191,4.5957,21.1915,14.0654,11.7446,15.3306-9.4468,1.2651-15.3192-5.4501-23.4894-7.0712-8.1702-1.6211-7.4111-.3445-8.1736,3.7406-.686,11.4334,6.1803,20.1663,16.229,32.2836,2.1477-2.797,6.109-5.7886,13.3914-7.8625Z"/><path class="f" d="M177.0884,132.4025c-15.4872,.4069-18.3138,50.6945-54.5116,40.4662-5.1054-2.8066-5.3607-10.7215-6.2543-16.9768s-4.4681,10.7234-4.5958,6.2553c-.1277-4.4681-2.1702-4.8511-2.1702-4.8511,3.6748-15.6657-9.9675-.4266-16.9778,11.745-9.3572,17.9659,2.8533-19.5046,2.9744-27.945-18.2341,21.4389-37.7564,53.1212-29.6599,79.5188,.3867,.0003,7.2803-14.8082,9.1952-24.8933,1.9149-10.0851,3.8298-8.1702,7.1489-1.5319,3.3192,6.6383,3.5745,25.4043,3.5745,25.4043l7.7872-13.1489c4.6315,11.3906,18.3214,5.7101,17.7447-4.9788,0,0,6.6383,24.383,8.4255,24.0489,1.7872-.334-.5106-20.3467-.5106-20.3467,15.0924,1.0686,32.6565-40.5107,46.5948-39.4486,11.7456,1.5337,7.6605,21.9592,7.6605,21.9592,0,0,5.2987-10.2171,8.2711-11.4482,.1662-17.3935,3.8265-33.8606-4.6967-43.8284Z"/><path class="al" d="M181.8045,142.5424s-8.3633-24.8644-2.9289-25.6718c1.1294-.1678,5.2975,16.1876,5.2975,16.1876l.0809,9.4572-2.2961-1.7993-.1534,1.8263Z"/><path class="ar" d="M260.4075,172.5302c21.7872,29.2766,19.8118,48.2458,19.8118,48.2458l9.2945,14.0521c.202-14.5351-11.652-53.7179-29.1064-62.2979Z"/><path class="ar" d="M305.5139,253.5515c3.234-11.0638-1.1915-45.617-1.1915-45.617,0,0,6.6383,15.4894,8.8511,38.9787,2.2128,23.4894,0,36.4255,0,36.4255l-7.6596-29.7872Z"/><path class="ax" d="M258.5351,132.0535c16.1052,9.123,30.1187,31.4482,37.1064,48.3066-11.838-16.4822-22.2106-34.3201-37.1064-48.3066Z"/><path class="ax" d="M178.7937,157.7217c5.3047,24.4711-2.7908,49.8256-4.5138,74.383-3.8212-24.9951,4.2669-49.393,4.5138-74.383Z"/><path class="ax" d="M122.5962,154.3175c-6.053,38.6651-5.2878,99.1012,28.1943,125.1064-37.8423-21.6955-40.0719-87.7261-28.1943-125.1064Z"/><path class="ar" d="M109.4592,227.7503c3.6758,11.6742,5.8228,50.0973,32.1307,53.4309-4.6211-3.7521-25.4589-28.4549-23.7343-39.2041,0,0-.6703,11.0822-2.6325,6.4341-2.0465-4.8478,.433-15.9872-2.7305-19.8809-.4938-.6077-3.2686-1.5269-3.0335-.78Z"/><path class="ax" d="M63.6416,237.0409c10.3583,89.6389,61.5716,166.5046,80,253.8705-23.7377-85.7224-75.0461-163.21-80-253.8705Z"/><path class="ar" d="M71.982,276.8707c-3.0434-5.9893,44.2948,115.2044,47.4894,116.766-9.0134-29.3376-31.5405-90.9007-47.4894-116.766Z"/><path class="f" d="M335.1341,304.8287c-10.5503,22.4572-10.7914,32.9173-10.7693,71.6728,16.9059-34.7948,11.569-46.94,10.7693-71.6728Z"/><path class="an" d="M324.3648,376.5015c-.2476,25.6199-1.4892,65.4336-1.4892,65.4336,3.1997-7.8572,17.9319-71.8364,13.8326-96.8877-3.7108,9.8491-8.4269,21.7275-12.3434,31.4541Z"/><path class="ax" d="M306.5816,206.2756c30.3094,58.5256,31.226,128.4264,30.3254,193.0213-4.7019-64.6361-5.2002-132.3934-30.3254-193.0213Z"/><path class="x" d="M103.6851,129.0891c-31.5019,26.2732-42.7277,72.1723-43.7027,89.7341,0,0,7.2352-35.3311,32.1931-68.7061-.2373-6.9388,6.3756-13.0561,11.5096-21.0279Z"/><path class="x" d="M114.8756,107.8494c-.5106-.3405-12.5446-14.1277-12.5446-14.1277l5.5133-.8531C-4.656,24.0983-32.6951,212.0033,68.3329,146.9159c2.5928-22.7701,41.3121-37.557,46.5427-39.0665Z"/><path class="x" d="M145.8543,88.4452c7.5025-.917,15.5798,.7737,24.7853,.4836,17.3444-5.5364,41.0289-16.0812,45.002-31.973,4.5957-18.383-13.7872-43.7447-40.6809-39.3192-26.8936,4.4255-41.0212,13.7872-49.3617,35.9149-7.2386,19.6541-7.9572,28.9562-.6808,44.548,0,0,5.6171-7.782,20.9362-9.6544Z"/><path class="x" d="M279.2495,131.6202s-50.7694-59.6529-131.8976-27.7312c-.0869,.6591-.1685,1.4044-.2402,2.259,53.362-21.1674,111.7584,6.9022,132.1378,25.4722Z"/><path class="aw" d="M134.9607,109.3813c-.5637-1.632,20.6246-18.6791,35.679-20.4525-7.6986-.5957-16.2288-1.3279-23.8886-.5808-9.6099,.9372-17.8851,3.9607-21.8329,9.7515,0,0-2.5404-11.1826-5.0939-18.5453-1.3748,10.7025-2.055,20.1249-2.055,20.1249,0,0-3.7638-3.0094-9.9249-6.8106l-5.5133,.8531s12.034,13.7872,12.5446,14.1277c-5.2034,1.406-44.1594,16.5862-46.5427,39.0665,18.5757-13.3668,30.2728-30.0809,49.4363-28.0027-5.8266,1.3843-26.9933,19.2122-25.5938,31.2039,12.5281-17.1196,33.1384-35.5623,54.9363-43.9691,.0717-.8546,.1533-1.5999,.2402-2.259-4.0552,1.5956-8.1857,3.4178-12.3912,5.4922Z"/><path class="aw" d="M136.8653,65.538c-2.2971-8.1204,21.8045-24.1412,28.4076-16.7705,3.8862,3.8186-5.143,8.455-8.2126,8.3554s-20.1949,8.4151-20.1949,8.4151Z"/><path class="aw" d="M83.0458,96.6154c-21.0389-8.2698-52.0946,17.4904-30.1279,17.3634,7.4896-.8527,12.2555-7.1506,12.2555-7.1506l-2.4156-2.1306s11.4369-7.2311,20.288-8.0822Z"/></g></svg>