<svg xmlns="http://www.w3.org/2000/svg" viewBox="0 0 779 1200.4"><defs><clipPath id="a"><path fill="none" d="M0 0h618.7v1199.9H0z"/></clipPath></defs><g clip-path="url(#a)" transform="translate(160.5519 .691)"><path fill="#ffd9f3" d="M352.4 832.3c.9-3-2.2-4.2-4.6-4.4 4.9-.6 10.8-1.6 14.8-3.1 9.6-1.9 11.1-26.4 1.8-17.8 0 .1-5.4 12.1-13.6 12-43-16.1-16.5-87.6 4.7-112.9-6.3 31.8 5.7 106.7 35.5 120.4 3.1.2 4.7-3.9 2.1-5.7-6-3-14.6-22.6-14.4-35.4 7.5 33 45.9 48.9 58.7 16.9.9-3.2-3.6-5.4-5.5-2.7-5 6.9-21.9 9.1-31 5.4-31.6-20.9 5.7-73-.4-106.4 4 .3 9.2.1 12.5-.7-.5 32.3-5.8 86 30.6 99.1-11.3 13.4-23.9 33.1-26.1 56.5-.3 3.7 4.9 4.8 6.1 1.3.1-.4 2.8-7.6 13.2-13-.8 3.9-1.2 7.4-1.3 9.7-15 3.8-8.8 22.9-13.1 32.8-.7 1.8-1.2 2.3-1.3 2.4-3.4 1.9-2.1 8.7-5.4 11-1.4.8-3.1 1.1-3.3 3-1.7 8.8-33.8 40.5-34.2 51.9-.6 12 11.5 31.7 25.6 41.5-1.2 46.7 19.6 137.6 29 171.8 3.6 17.7 2.7 21.7 3.2 34.2h99.3c-11.7-43.2 4.4-134.8 4.8-182 20.7-10.3 14-9.5 11.3-26.5 1.5-4.4 6.1-18.2 8-24.8 1.8.5 3.8.9 5.4 1.2 1.7 3.7 4.9 10.5 7.3 14.3-.7 4.6-2.2 15.7-1.7 19.9 1.5 3.7 4.2 3.8 12.1 8.7 7 50.6 55.8 130.3 59.2 189.1h98.5c-1.8-38.8-9.3-165.2-17.6-214.8 18.7-16.1 23.8-32.5 23.8-32.7-1-13.2-25.4-36.2-29.6-40.7-.9-15.1-13.1-10.7-10.2-25.3 1.3-9.5-3.8-22.1-5.2-25.1.4-18.6-3-27.7-4.4-30.6 1.8-16.3 2.2-10.7-8.2-24.3-1-1.1-4.6-6.5-17.7-29.8 39.4-19.2 20.6-93.2 17.2-119.4 9.2 21.6 46.1 103.3 24.6 126.4-1.3 2 .3 4.8 2.7 4.8 28.3-22.2 11.3-77.2-2.4-110.9 11.7 12.4 30.6 26.7 47.9 18.5 16.6 32.5 8.8 73.3-19.7 91.4-1.3 1.1-1.6 3-.5 4.3 2.9 2.5 3.8 1.1 7.4-1.7 66.2-30.9 10.5-135.3-23.4-178.3 9.4-8.8 22.9-17.4 21.6-40.3-1.6-18.9-4.2-47-5.1-53.6-1.9-13 5.5-12.7 4.9-23.4.9-8.4 0-11.3-.9-12.5 1.5-17.8 3.1-37.9-17.7-36.5-1.5-8.4-7.8-15.3-16.8-13.8-2.3-7-6.9-9.1-14.2-8-2.4-2.2-6.7-5.7-10.7-5.7-5.1-12.4-4.5-34.1-5.7-48.2.2-24.3-8.8-22-15.1-12.4-10.1 22.1-9.7 60.9 2.5 79.7-4.5 10.6-6.6 27-15.9 31.2h-.2c-.9-2-4.2-9.8-3.6-10.1-2.1-23.4-23-76.5-33.4-113.3-16.2-66.6-65.4-169.1-166.1-140.7 28.6-6.6 75.5-28.8 45.7-63.1-23.8-25-71.2-4.4-78.5 23.5-5.2 13.9-6.7 28.4-7.1 36.6-80.8-59.1-139 53.9-73.1 64.7 23.9 0 43.1-24.2 62-35.6-47.7 43.5-47.3 103.2-33.5 166.4 11.4 51.3 33.2 92.2 25.7 156.5-3.4-4.6-3.5-15.5-4.4-25.5-.6-13.3-8.4-33.2-19.4-46.7l-3-3.4c-5.7-6.1-19.9-13-19 .8 2.8 12.3 6.6 17.2 10.5 25.9v-.4c6.2 10.5 9.3 19 8.3 27.7-.6.7-1 1.7-1.4 2.9-10.1-.2-12.6 10.5-15.8 17.8-13.5 8.8-18.6 7.1-17.9 26.8-15.5 11-8.2 19.6-3.5 33.8h-.2c0 .1.4.9.4.9h-.1c.5.8 1.4 2.6 1.7 3.4h.2l.4.6h.2c.5.4 1.1 1 1.7 1.5 0 .3 0 .7.2 1.1-2.6 5.2 8.6 9.1 12.3 9.5 8.8 9.8 10.1 10.4 13.8 24.8-21.3 50.3-62.8 143-12.2 180 4.2 1.3 8.8 1.2 9.8-2.1zm355-205.6c.9 0 1.8 0 2.7-.3 6.9 6.3 11 12.3 19.4 24.7 8.4 13.5 19.7 25.6 28 38.4-25.8 10.3-46-35.4-56.5-64.2 1.9.9 4.1 1.4 6.4 1.4zm-29.8-129.8c.8.3 8.8 2.5 13 3.5 1 4.1-1.3 17.4-2.1 22.1-.7-.6-1.3-.8-2.1-1-4.2-7.3-9.9-17.7-14.8-26.2 3 .8 5.5 1.4 5.9 1.6zm-1.8 229.7c3.6-9.5 5.1-22.2 5.8-32.7 4.7 32.6 9.5 55.9-18.7 68.7-.3-.6-.7-1.2-1-1.7 3.4-7.9 9.3-21.8 13.9-34.2zm-17.8 6.3c.4-1.5.7-2.9 1.1-4.2-.4 7.5-1.2 15.8-2.6 22.3 0-.1-.1-.2-.2-.3.4-2.7 1.3-10.3 1.7-17.9zm-203-4.1c6.8 10.3 16.1 28.4 17.2 40.2-.3.2-.6.5-.9.7-18.1-6-20.7-28.7-23.7-54.2 1.7 3.8 4.3 8.2 7.4 13.2zm4.6 46.5c1.3.5 2.5 1 3.7 1.4-9 8.6-7 6.9-15 14.8-5-6.4-7.3-26.2-7.2-36.3 4.4 8 10.7 17 18.5 20.1z"/><path fill="#231213" d="M465.9 792.8s-40.1 30.2-44.1 73.1c20.8-34.1 53.2-1.4 44.1-73.1z"/><path fill="#feeadb" d="M444.2 847.9s3.8 3.7 10.5 8.9c-.7-10.6-1.6-24.5-2-30.1-2.9 6.2-5.9 13.3-8.5 21.3z"/><path fill="#e69f97" d="M645.8 758.9s-44.3 13.1-44.7 11.6l-129.6 25.4s-9.4 10.8-18.9 30.7c.4 5.6 1.4 19.5 2 30.1 13.3 10.1 38.1 25.9 69 30.8 14.6-11.3 16.2-20.9 34.5-23.4 11.5-2.3 8.9-9.9 14.6-8 17 4.8 5.9-6.6 14.7-9.5.7-.8 9.2 6.3 19.3 12.1 10.1 5.7 8.6 7.1 14 13.8 3.8 4.7.5 13.9-1.8 19.2 37.6-7.6 77.4-30.1 77.2-30.8-.2-.8-50.3-101.9-50.3-101.9Z"/><path fill="#feeadb" d="M620.7 872.4c-5.4-6.7-3.9-8-14-13.8-10.1-5.7-18.7-13-19.4-12.2-.7.8-4.8 1.1-4.2 6.3.6 5.2-4.7 5.2-10.4 3.4-5.7-1.8-3.1 5.7-14.6 8-18.3 2.5-19.9 12.1-34.5 23.4 45.3 6.8 78.6 6.5 77.4 6.4 5.8-.3 11.7-1.2 17.8-2.4 2.3-5.2 5.6-14.5 1.8-19.2z"/><path fill="#e69f97" d="M644.3 1043.4c26.5-11.7 56.8-29.5 76.8-42-1.5-9.5-2.9-16.3-4.2-17.7-4.3-4.6-132.1 29.2-132.1 29.2s2.6 16.2 8.5 37.1c10.5 3 27.3 3.8 50.9-6.7z"/><path fill="#feeadb" d="M736 1174.1c-4.1-68.8-6.4-110.7-14.9-172.7-29 16.8-93.1 60.7-127.7 48.7 12.3 44.2 51.9 112.4 50.9 149.4 30.4 2 74.4-1.9 91.7-25.4z"/><path fill="#f7fbfc" d="M736 1174.1c-15.4 15-31.6 20.8-57.8 25.8h59.3s-.6-10.9-1.4-25.8z"/><path fill="#231213" d="M733.9 1138.8c-3.4 3.6-.6 14.1-.6 14.1-3.1-1.1-1.9 7.9-2 8.1-1.7-.6-3.7 2.6-3.7 2.6-1.5-1.5-3.2-2.5-3.2-2.5.8-.1-4.7-7.6-5.5-3.7-2.7-.7-5.4.4-4.4 3.8-2.9-1.6-8.3-.2-6.7 4.6-4.2-3.1-7.4 9.9-7.7 10.7-.8-.7-7.7-7.5-9.5-2.5-.1-2.3-3.7-6-6.3-5.5-.4-2.2-8-1.9-8.3.2-4-1.2-6 1.8-5.2 5.3-3.9 0-5.9 4.9-5.2 7.8l-2.1-.5c-1.7-1.7-3.2-2.2-4.4.5.4-1 .5-6.8-3.1-5.4 0-2.8-5.7-6.2-8.3-4-2.8-3.1-5.8-2.7-8.1-1.6 3.1 11.1 4.9 21.4 4.7 29 30.2 2.1 74.6-2.8 91.7-25.8-.6-10.3-1.3-22.7-2.1-35.3zm-88.5 39.4c-2.1 0-2.1-3.2 0-3.2s2.1 3.2 0 3.2zm5.4 2.3c-2.6 0-2.6-3.8 0-3.9 2.6 0 2.6 3.8 0 3.9zm6.9 8.3c-2.6 0-2.6-3.9 0-3.9s2.6 3.9 0 3.9zm14.4-3.4c-2 0-2-3.1 0-3.1s2 3.1 0 3.1zm5.4-8.2c-1.7 0-1.7-2.6 0-2.6s1.7 2.6 0 2.6zm9 1.4c-2.7 0-2.7-4.1 0-4.1s2.7 4.1 0 4.1zm6.4 6c-3.2 0-3.2-4.7 0-4.8 3.2 0 3.2 4.7 0 4.8zm13.2-4.8c-2.3 0-2.3-3.4 0-3.4s2.3 3.4 0 3.4zm6.4-9.9c-1.7 0-1.7-2.6 0-2.6s1.7 2.6 0 2.6zm6.2-4.5c-2 0-2-3 0-3s2 3 0 3zm6.7 5.3c-2 0-2-3 0-3.1 2 0 2 3 0 3.1zm8.5-6.9c-.9 0-.9-1.4 0-1.4s.9 1.4 0 1.4z"/><path fill="#483f40" d="M643.7 977.3c-2.5 5.4-23.1 39.7-19.9 45.2-1.2 3.3 44.7-6.8 55.8-12-7.7-20-24.4-30.9-35.9-33.2z"/><path fill="#32262a" d="m655.3 942.8-28.1 21.1c.6 1.2-1.6 33.4-2.8 49.5l19.2-36.2c11.4 2.3 28.3 13.4 35.9 33.2 11.3-4.1 16.5-7 16.5-7l-40.7-60.7z"/><path fill="#f7f8fa" d="M440 1199.9h10.6l-11.4-9.2c.5 4.8.8 9.2.8 9.2z"/><path fill="#feeadb" d="m536.9 1057 .3-2.7c-36.3-6.8-103.2-31.6-128.8-41.3.7 50.9 14.6 108.6 26.5 156.4 2.6-1.3 4.3-1.2 5.9 1.6-2.3.5-3.5.9-3.5.9.1.6 2.3 13.6 6.3 17.2 4 3.5 43.2 9.3 59.7 7.9 16.5-1.4 22.3 2.4 24.7-1.9 3-7.5-.8-8.6.2-14.3l.7-.6c-2-33.5 5.6-90.7 8-123.2z"/><path fill="#e69f97" d="m536.9 1002.7-129.4-8s.3 7.5.9 18.2c25.6 9.7 92.5 34.5 128.8 41.3 2-21.7-.3-51.5-.3-51.5z"/><path fill="#231213" d="m528.9 1180.1-3.4 3c-2.6-2.4-5.3 2.1-5.6 3.6-1.7-.7-5.3.8-4.7 3.3h-1.9c-.4-1.6-1.7-1.1-1.7-1.1 0-2.5-2-3.4-2-3.4 1.8-3.3-2.1-4.4-3.6-2-1.5-5.6-9-5.1-10.3-2-1.3 3.1-1.8 2.9-1.8 2.9-4.2-3.7-5.7 4.3-8.3 3-.5-4-3.8-3-3.8-3 .4-2.2.9-5.5-3.1-4.2.5-2.3-.5-2.1-.5-2.1.6-.9-.9-4.9-2.5-2.6-1.5-4.3-6.4-4.5-8.4-.7-2.7-2-4.5-1.6-5 2-2.6-3.7-6.7.5-4.3 2.9 0 0-1.8.8-2.4 2.1-1 2.2-3.9-5.4-5.8-2.1-1.4-2-2.4-3.9-6-3.4-1.9-1.4-4-10.7-8.9-6.8 2.2 8.7 3.4 13.5 4.2 21.5l11.4 9.2h81.8s-2.3-8.3-3.5-19.8zm-88.3-1.9c-1.9 0-1.9-2.8 0-2.9 1.9 0 1.9 2.8 0 2.9zm6.1 6.2c-2.2 0-2.2-3.3 0-3.4 2.2 0 2.2 3.3 0 3.4zm4.5 5.3c-1 0-1-1.5 0-1.5s1 1.5 0 1.5zm8.3-3.1c-1.1 0-1.1-1.6 0-1.6s1.1 1.6 0 1.6zm8-4.3c-1.7 0-1.7-2.6 0-2.6s1.7 2.6 0 2.6zm6.1-1.8c-1.8 0-1.8-2.7 0-2.8 1.8 0 1.8 2.7 0 2.8zm5.7 8.6c-2.1 0-2.1-3.2 0-3.2s2.1 3.2 0 3.2zm11.6 5c-1.9 0-1.9-2.9 0-2.9s1.9 2.9 0 2.9zm5.6-3.7c-1.8 0-1.8-2.7 0-2.8 1.8 0 1.8 2.7 0 2.8zm8.5-2c-1.3 0-1.3-1.9 0-1.9s1.3 1.9 0 1.9zm4.6 6.5c-2 0-2-3 0-3.1 2 0 2 3 0 3.1zm12-1.5c-1 0-1-1.5 0-1.5s1 1.5 0 1.5zm5.7-4.3c-1.1 0-1.1-1.6 0-1.6s1.1 1.6 0 1.6z"/><path fill="#32262a" d="M500.1 1026c7.8.4 12.9.4 12.9.4L484.7 951s-25.3-.5-33.5 9.9c-12.9 14.9-45.4 52-8.2 58l31.7-48.6 25.4 55.6z"/><path fill="#483f40" d="m474.6 970.3-31.7 48.6c16.6 4.5 41.9 6.3 57.1 7z"/><path fill="#f7fafc" d="M601 1025.6c-10.9-.8-26.5-11.9-26.5-11.9-.6-4.6 1.8-20.2 1.8-20.2-2.5-3.7-7-13.4-8.1-15.9 3.9-3.2 12.8-3.8 17.8-8.1 3.4-3-.2-1.9-4.6-.7-20.3 8.8-61.1-11.1-75.8-18.2 8.9 8.2 36.6 24.1 39.4 24.4 2.8.3 6.3 3.8 2.9 4.7-3.4.9-6.3 8.5-6.3 8.5l-4.5-5.4s5.4 18.6 10.1 26c1.8 3.1 5.1 6.5 5.4 10.4-14.8 11.1-30.8 15.4-49.6 11.9 0 0-22.5-70.2-24.1-70.8-5.4-1.2-46.2 59-48.1 62.2-3.8-.6-3.6-3.2-12.1-9.3-14.2-10.8-37-30.2-36.3-48.9.1-3.4 7.2-14.7 16.7-26.3 12.1 2.3 41.8.5 43.8-1 2.3-1.7 26.2-38.9 26.2-38.9l-4.1-6.3c-20.2 29-13.1 42-59.8 39 10.7-12.5 11.4-18 11.4-18 .9-.2 1.4-1.4 2.3-1.2 26.1 5.6 10.3-16.2 7.6-14.7 4.9-11.3-2.5-28.8 13.2-31.5 78.2 52.5 195.8 49.5 259.7 8.5 10.8 20.3-1 31.6 9.9 38.8 5.8 4.8 5.5 12.2 5.5 12.2s25.7 24.3 29.7 38.4c0 0-9.2 31-52.1 48.9-.5-4.8-50.3-49.2-52.7-53.5 0 0-11.1 47-12.4 56.9-1.3 9.9-3.5 10.1-3.5 10.1s-8.4 1.8-22.7-.4z"/><path fill="#bac7ce" d="M480.4 891.3s-8.1 9.8-6.9 20.1c1.2 10.3 3.4 16.2 9.2 12.1 5.8-4.1 9.5-8.3 13.8-2.9 4.3 5.4 13.3 11.3 10.1 7.2-3.2-4.1-7.8-11.8-7.8-11.8s16.4-6.9 16.1-11.5c-.3-4.6-34.5-13.2-34.5-13.2zm17.9 52.4S472.6 927.8 466 923c-6.6-4.7-7.6-3.4-9.7-4.5-2.1-1.1-8 11.9-8 11.9s10.9 4.1 21.7 7.2c10.7 3.1 17 7 18.4 5.4 1.4-1.6 11.4 1.6 10 .8z"/><path fill="#ff859f" d="M443 937.6c2.3-1.7 26.2-38.9 26.2-38.9l-4.1-6.3c-20.7 28.5-13.2 41.6-59.9 38.6-2.1 2.4-4.2 4.8-6.1 7.2 12.1 2.3 41.9.9 43.9-.6z"/><path fill="#bac7ce" d="m442.8 925.4 7.7-9.3c-8.4-4.5-12.5 2.5-7.7 9.3z"/><path fill="#c44768" d="m442.8 925.4 5.5 5 8-11.9-5.8-2.4z"/><path fill="#bac7ce" d="m572.2 985.9 3.8 7.7-1.5 15.6c.4-.5 21-28.9 8.7-30.3-6.7-2.1-11 7-11 7zm-136.3-74.8c9.3-5.4 13.8-12.5 11.5-17.1-2.4-6.9-14.2.8-21 3.2-.8 2.3-1.8 4.2-3 4.6 0 0-1.1 7.1-4.5 10.1 4.4 2 10.3 3.1 17.1-.8z"/><path fill="#bac7ce" d="M586.1 969.9c3.4-3-.3-2.2-4.7-1-20.3 8.8-61-10.8-75.7-17.8 8.9 8.2 36.6 24.1 39.4 24.4 2.8.3 5.9 3.6 2.6 4.5-3.4.9-6 8.4-6 8.4l-4.5-5.3c.2 2.2 8.6 26.6 14.8 33.2l-2.8-12.7s8.6-25.3 9-28.5c0 0 7.5 2.1 9.8 2.1l.3.6c3.8-3.2 12.8-3.8 17.8-8.1zm5.2-18.9 54.2-39.1c-11-12.7-8.2-14.8 8.7-14.2 0 0 21.8 14.3 17.5 16-4.3 1.7-4.3 1.1-3.9 5.8.5 4.6-11.5-1.6-14.8-2.5-3.3-.9-11.8 8.7-20.1 15.6S591.3 951 591.3 951z"/><path fill="#bac7ce" d="M694.5 898.8c-4.3 3.9 6.7 9.4-9.6 7.4-5.9-.7-3.2 7.2-3.1 9.9-16.3 14.4-26.8 1.9-48.2 33.3 0 0 40-16.1 46-22.8 6-6.7 7.8-3.4 9.6-5.7 1.8-2.3 2.1 2.8 11.3 1.6 4.8-.6 7.4-5.1 8.7-9.3-5-4.6-4.8-5.7-4.9-13.2-3.3 1.2-6.1 2-6.1 2s-4.4-2.3-3.7-3.3z"/><path fill="#ff859f" d="M668.9 895.4 660 900s7.7 8.2 16 17c1.6-1.5 3.8-3.5 6.2-5-6.6-8.3-13.3-16.6-13.3-16.6zm53.7 38c-.3-.3-7.7-3.1-16.3-1.1-10.8 2.3-8.8-2.9-14.4-8.2-2.3.5-4.3 1.9-5.9 3.4 4.6 4.8 8.5 8.7 10.1 10.1 6.9 5.8 27.9 3.1 33.6 3.5l-7-7.8z"/><path fill="#c44768" d="M682.2 912c-2.4 1.5-4.6 3.5-6.2 5 3.4 3.6 6.9 7.3 10.1 10.6 1.6-1.5 3.7-2.9 5.9-3.4-2.5-3.1-6.1-7.6-9.8-12.1z"/><path fill="#483f40" d="M601.1 911.7c-34.1 7.7-116.8-5.2-141-32 0 0-20.1-8.4-20.5-13.7 0 0 0-15.6 6.7-24.5 13.7 6.7 53.9 37.3 91.9 42.7 67.1 4.9 125.5-7.5 156.6-40.4 6.4 40.3 28.6 41.5-93.7 68z"/><path fill="#32272b" d="M527.2 881.9c-19.6-5-42.1-17.8-56.9-26.7-.7 8-1.5 20.7 0 31.7 7.7 5 19 12.2 34.1 16.2 4.2-4.8 13.2-14.2 22.9-21.2z"/><path fill="#5b4547" d="M776.4 741.6C772.3 713 753 646.4 716.6 636c0 0-8.2-18.9-15.2-26.3-3.5-3.7-3.5-11.7-2.6-18.7-21-43.8-48.5-106.7-52.8-119.4-13-36-29.4-111-45.6-150.2 13.3 58.8 14.2 112.9 27.8 166.1 5.7 19.3 30.1 52.2 36.8 72.7 6.7 20.6 12.4 59.8 18.4 74.7 3.2 7.7 5.4 20.2 6.9 30.3 8.9 17.8 49.3 107.9 26.3 132.5 30.8-31.8-5.7-104.5-12.4-126.3 4.6 8.9 29.8 38.6 47.6 36.2 10.8-.7 9.7-3.4 9.7-3.4-38.4 20.8-69.5-86.3-74.5-99.5 35.8 47.5 134.7 133.7 60.6 195.2 21.6-12.4 32.5-24.1 28.8-58.2z"/><path fill="#322a37" d="M665 560.2c-6.7-20.6-31.1-53.4-36.8-72.7-13.7-53.4-14.4-107.1-27.8-166.1-7.5-19.4-8.4-14.5-8.7-15.2 0 0-8.3 240.8 10.2 291 18.5 50.1 50 165.2 50 165.2.3 0 10.2-45.8 12.2-40.3 1.3-6.3 2.3-12.3 2.5-16.4.9-13.3 2.4-20 3.6-14.7 1 4.4 1.1 35.3.2 53.1 8.9-17.6 10.1-56.6 9.7-57.6 5.2 6.5 11.3 46.6 8.5 65.7 1 1.3 2.2 2.4 3.6 2.9 3.8-22.8-1.9-61.8-4.3-73.2-2.8-13-2.5-22.7 2.4-16.6-1.4-10.1-3.7-22.5-6.9-30.3-6.1-14.8-11.7-54.1-18.4-74.7z"/><path fill="#f4869f" d="M617.9 389.2c12.6 46.9 19.2 95.4 35.4 141.2 12.4 36.4 27.6 72.1 36.2 109.7 10.7 40.9 34.5 78.5 37.1 121.6-4.3-40.8-26.6-76.3-38.6-114.9-11.3-47.4-31.3-92-45.4-138.5-9.5-39.4-16.4-79.4-24.7-119.1Z"/><path fill="#a1928e" d="M646 471.6c-.6-16.3-7.7-26.7-19.2-65.2 2.5 18.9 15.9 57.8 19.2 65.2zm55.4 138.1c7 7.4 15.2 26.4 15.2 26.4-.4-1 21.4 12.1 25.8 18.8-21-36.9-27.1-28.3-43.5-63.8-.9 7-1 15 2.6 18.7z"/><path fill="#5b4547" d="M688.7 752c-.4 16.4-30.3 29.5-31.5 29.8l5.3 8.7c4.4-1.3 26.8-12.9 29.8-35.5-1.4-.5-2.6-1.6-3.6-2.9zm-18.5-61.1c-3-12.1-4 24.3-6.4 30.8 2.5 3.5-4.8 59-6.6 57.5 17.4-33.1 21.5-54 13-88.3z"/><path fill="#c54b6a" d="m589.3 766.1-16.5 44.1s2.1 2.7 5.9 7.3l15.5-43.3-4.9-8z"/><path fill="#ff859e" d="m685.4 919.5-91.3-145.3-15.5 43.3c18.5 22.8 79.7 92.4 106.8 102z"/><path fill="#bac8ce" d="M647.4 687.2s.4 20.6 7.2 34.2c-.6-3.6 2.7-49.1 2.6-49.9 0 0 8.9-6.3 12-29.4-11.8 27.6-29.4 4.5-36.3-2.6-3.2 14.7-12.2 37.5-38.9 34.9-.7 20.5-2.3 44.7-3.8 63.5 23.7-5.5 49.9-39.7 57.2-50.6z"/><path fill="#f7fafc" d="M696.1 832c-8-7.2-38.9-62.5-41.7-68.3 1.6-3.8 2.3-35.8.1-42.3-6.8-13.5-7.2-34.2-7.2-34.2-7.4 11-33.3 45-57.2 50.6-1.4 17.9-2.6 30.8-2.6 30.8 6.1 7.8 15.5 11.8 11 26.3 8.1 25.7 59.5 96.9 79 118 9.2 9.2 7.7 6.1 7.7 6.1-4.3-4.4 12.8-86.9 10.7-87z"/><path fill="#bac8ce" d="M646.4 753.8s-12.9 24.8-27.6 30.3c-14.7 5.5-19.4 8-15.9 17.5 3.5 9.4 24.1-6.7 33.3-18.8 9.2-12.2 10.1-29 10.1-29zM630.6 587c6.9-30.5 10.6-34.4 10.7-35.9.2.7 4.7 11.2 13.4 19.8-5.2-16.2-7.7-56.6-7.7-56.6l-51.2 83s-4 10.9-2.8 35.7c10.9-6.6 32.1-21.9 37.5-45.9z"/><path fill="#f7fafc" d="M654.8 570.9c-8.5-8.6-12.7-17.7-13.4-19.8-15.1 28.9-5.3 55.4-48.2 81.9 1 13.4 1.5 23.4.8 41.4 26.8 2.6 35.7-20.3 38.9-34.9 6.9 7.1 24.5 30.2 36.3 2.6 4.9-34.4-7-52.3-14.4-71.1z"/><path fill="#322937" d="M363.1 704.8c-4.4 22.6-5.4 35.9-5.3 34.6 1.5-16.6 21.4-70.6 24.5-72.4-8.7 24.2-17.1 99.6-5.7 136.3-1.5-12.2-.4-27.4-.4-34.5 0-10.9 1.5-11.2 2.3-1.5.8 14.6 5.1 35.9 16.7 50.7.6.7 2.4.6 4 .7-.9-.6.3-1.4-2-2.9-9.5-6.7-9.6-31.1-6.5-51.8 2-13.4 4.8-33.7 8.1-60.9-.8-9.8 14.4-23.9 17.8-14.6 2.7 20 2.7 44.3 6 66.3.5-6 2-13.6 1.4-20.1 0 0 1.2 12.1 1.2 16.9 0 4.8-1.6 13.8 4.3 23.4-.3-2.2-.3-5.2-.2-9.2.3-9.8.7-14.3.7-14.3-.8.7 5.8 19.9 10.2 24.3-.8-11.8.2-22.6.2-22.6s9.7 25.6 22.5 30.8c12.9 5.2 12.7 1.7 12.7 1.7-28.2-4.4-30.7-61.6-29.1-78 2.2 16.7 22.1 40.9 29 63.2-1.8-28.2-37.8-64.9-29.6-91.5.8 27.6 13.6 42.9 29.9 59.1 0 0-13-26.1-13.4-31.2 17.8 13 32.5 64.3 31.9 91.7 22.9 11.7 73.7 34.3 82.5 9.5 13.2-157.7 46.1-336.8 2.1-487.1 0 0-162.9 8.4-167.3-7-4.4-15.4-29.4-43.7-43.2-11.5-10.9 32.1-3 73.4 9.7 117.9 19.6 54.8 26.1 87 26.1 91.4 0 4.4-3.5-.8-3.5 6.2 12.6 124.1-30.8 89.3-41 189.9"/><path fill="#5b4548" d="M372.5 726.2c2-31.9 10.1-58.4 10.1-58.4-4.1 2.3-23.6 54.3-24.8 71.8.9 25.5 10.9 84.1 34.7 96.1-22.8-22.4-21.3-75.3-20.1-109.5z"/><path fill="#5b4547" d="M396.4 623.4c13.4-23 5.4-84.3 4.9-103.7 0-7 2.9-2.4 2.9-6.9s-6.6-36.5-26.2-91.3c-13.2-36.9-15.3-79.9-15.3-104.1-14.4 75.5 25.3 120.1 32.2 210.8-2.1 146.7-86.8 155.4-71.5 281.4 1.8 14.6 16 36 27.3 34.1 7.6-1.3-10.6-5.8-10.6-5.8 7.2-1.2 32.1.9 28.5-17.3-10.5 26-37.9 11.5-42.3-19.8-5.4-30.5 16.6-70.6 33.2-92.3 4.7-28.2 24.1-57.3 36.8-85.1z"/><path fill="#5b4548" d="M415.8 828.5c16.1-.2 19.8-14.7 19.8-14.7-8.6 11.1-31.4 3.4-44.1-.8.4.6 3.1 4.7 3.9 5.6 1.9 2 9.2 10 20.5 9.9z"/><path fill="#523c3f" d="M475.9 725.4c-7.8-15.7-13.6-17.9-13.6-17.9.3 5.1 13.4 31.2 13.4 31.2-16.6-16.5-29.1-31.9-29.9-59.3-6.5 18.7 9.6 44.8 20.5 65.7 6.8 12.4 11 37.2 10.9 44.4 6.2 5.1 17-2.9 16.2 10.1 1.3-22.7-7.3-57.9-17.5-74.2zm-46 25.5c0-1.4-1.7 20.4-.5 24.2 5.6 9 7.5 15.7 3 13.9.5 2.9 1.5 7.5 3.3 12 6.5 4.3 13.6 7.1 13.6 7.1-4.4-2.5-8.8-19.5-9.3-32.1-4.4-4.5-11.1-24.4-10.2-25.1zm-7.7 14.3c1.5-12.9-1.5-27.4-2.3-39.3-.7-9.2.2-15.4-2.3-22.7-.3 22.7-3.2 42.3 4.6 62z"/><path fill="#322937" d="M431.6 788.6c-6.3-3.1-9.3-14.3-9.4-23.3-1.9-6.5-3.3-15.3-4.9-21.8 1.6 18.1 3.9 49.5 18.5 57.5-1.8-4.4-2.8-9.1-3.3-12-.3-.1-.5-.2-.9-.4z"/><path fill="#f4869f" d="M395 493.1c-.1-.4 2.8 35.4.9 53.8-1.9 18.3-4.1 33-4.1 33 7.1-15.5 10.9-65.7 3.2-86.7z"/><path fill="#a1918e" d="M341.4 718.1c.2.6 3.6-18.6 12.9-21.4 9.2-2.9 18.2-46.6 24.4-60.5 6.1-13.9 1.7-15 1.7-15-1.2 2-44 96.8-38.9 97z"/><path fill="#f4869f" d="M361.8 772.5c-.4-7.1 2.1-71 10.4-78.1 2.4-.6.6 5.7-1.6 14.4-2.1 8.7-7.2 39.3-4.6 63.4 2.6 24.1 3.1 28.7 3.1 28.7-4.1-11.4-4.8-15.7-7.4-28.4zm91.8-45.4c5.2 2.3 30.9 51.8 32.1 51l-3.2 2.8c-3-12.6-22.8-39.9-28.8-53.8z"/><path fill="#e69f97" d="M508.5 543.8c.3-21-1.1-27.3.5-29.3 3.9-1.9 3.3-13.7 3.1-15.2 30.9 18.5 44.9-10.1 59.2-40.4l-2.2-21.4-71.1 40.6c5 4.6 20.7 20.9 7.4 30.9-3.8 3.4-10.3 1.1-10.3 1.1.3 3.4-1.9 56 17.8 66.3-1.8-6.6-4.5-18.8-4.3-32.7zm80-57.6s-8.3-1.6-14.4-5.7c-1.3 7.3 1.3 18.4 8.5 14.1 6.4-2.8 5.2 63.9 6.7 71.2 14.8-19.5.3-78.5-.7-79.6z"/><path fill="#feeadb" d="M406.1 390.9c10.3 33.7 29.1 58.7 58.7 84.4 9 6 16.5 7.9 28.8 7.6 54.5 0 54.1-5.1 82.5-50 7.2-11.9 4.9-32.2 4.1-45.5-2.7-20-6.6-31.1-18-48.1-7.4-13.9-11.4-17.4-11.4-17.4-7.4-4.8-15.9-11.3-23.7-18.3-1.9-1.7-46.8-26.8-48.6-28.6"/><path fill="#feeadb" d="M582.5 494.6c-7.9 3.8-8.7-6.6-8.5-14.1-.2-.1-.4-.3-.6-.4l-2.2-21.1c-14.3 30.3-28.4 58.9-59.2 40.4.3 1.6.6 13.3-3.2 15.2-2 2-.8 54.8 3.2 61.4 16.8 13.9 47.5 28.8 47.5 28.8s19.3-18.8 29.7-38.9c-1.4-7.1-.3-74.1-6.7-71.2z"/><path fill="#e69f97" d="M545.6 548c-10.7-7.1 7.3-22.9 9.3-16.1 0 3.9-2.4 1.3-2 6 1.8 10.2-3.2 6.6-7.4 10.1zm-99-180.1c1.1-2.2 13.7-38.3 12.9-38.3 0 0-.6 13.3 7.4-5.2s11.8-48.9 11.8-48.9c20.2 16 41 36.8 44 66.3 4.4-4.4-.9-30.8-.9-30.8 8 9 11 25.4 11 25.4s.9-2.3-.9-12.7c-1.8-10.4-10.1-25-10.1-25 12.6 12.9 29.3 23.6 29.3 23.6 24.2 38.3 23 51.4 29.1 99.6 1.5-8.2 1.5-16.6 1.5-16.6 28.7-.8 10.4-55.6-2.5-59 0 0 7-22.4-14.1-37.1-21.1-14.7-39.8-43.5-50.6-58.8-63.4-62.9-140.7 82.1-123.5 135.4 10.1 34 31.4 55 31.4 55-14.4 7.7-6.7 35.5 17.2 36.2 17.3 1.1 19-5.7 19-5.7s2.5 1.5 6.2 3.9c-29.5-27.3-50-55.7-58.5-83.9 2.1-2.6 5.5-11.1 5.5-11.1.9.9 28.6 9.7 29.7-.3"/><path fill="#fd9a90" d="M552.8 392.6c-2.3-.9 1.3-6.1 1.1-7.3 3.5-11.7 3.6.6 4.1 3.5 4.6-2.2-1.9 9-2.2-3.5-1 1.6-.8 5.7-3 7.3zm11.1-2.8c-1.3-.2-1.3-.9-1.1-5.1 0-.5.5-.9 1-.8 1.6.2.4 3.8.7 4 1.2.5.3 2-.6 1.9zm.7-1.4zm4.5-.6c-.5 0-.9-.4-.9-.9.3-.8-.9-7.3.9-7.1.5 0 .9.4.9.9-.3.8.9 7.3-.9 7.1zM444.8 450c-1.2-.1-1.4 0-1.4-11.4 0-.5.4-.9.9-.9 2 1.1.4 5.3 1 7.1 2.1-6.4 6.3-15.5 6.7-3.8 2 1.4-2.4 4.8-2-2.7-2.1 3.1-2.9 10-5.1 11.7zm.7-1.3z"/><path fill="#fd9a90" d="M454.9 442.4c-1.5 0-1.9-3.6-2.2-4.9-3.3.4 1.4-7.4 2.3 1.8 2.4-2.1 1.8 3 0 3z"/><path fill="#f7fafc" d="M545.7 747.4c-9.7-5.2-29.2-39.8-27.5-38.4l-12.2.7-11.9 13.3c2.4 5.3 4.3 9.5 4.8 10.4 1.4 2.5-8 2.5-7.1 7.1.9 4.6 3.7 15.6 3.7 15.6-6.7 2.9-15.6 14.3-14.5 22.4 0 0-18.2 14.8-20 17.6-5.5-1.3 2.5 114.2 1.6 114.2 17.2-12.7 56.9-57.2 60.4-67.3 5.1-12 12.2-15.6 9.9-12.9 16.4-19.8.5-39.4 8.3-54.9 4.3-5.5 6.2-13.7 4.5-27.8z"/><path fill="#dcdad7" d="M353.7 505.3c.2.6-12.6-25.5 0-18.6 2 1.5 0 18.6 0 18.6z"/><path fill="#f7fafc" d="M518 585.3c28.2-60.5 30.5-45.7 76.8-13.8-16 48.8-43.2 64-76.8 13.8z"/><path fill="#ff809a" d="M573.9 561.8c-29.4-25.1-26.7-17-42.2 6.5.6 1.7 1.4 3.6 2.1 5.7 16.5-29.9 14.4-28.5 43-3.3.3-1.9.5-3.7.7-5.5-1.2-1.1-2.4-2.2-3.7-3.3z"/><path fill="#b7c5cb" d="M569.9 599.8s7.9-10.8 12.7-23.5c-1.7-1.7-3.7-3.6-5.8-5.6-2.2 14-6.9 29.1-6.9 29.1zm15.9-35c-2.3-1.7-5-3.6-7.8-5.5 0 1.8-.2 3.8-.4 5.9 2.4 2.2 4.7 4.4 6.7 6.3.7-2.2 1.2-4.5 1.5-6.7z"/><path fill="#c24264" d="M577.6 565.2c-.2 1.8-.4 3.6-.7 5.5 2.2 2 4.2 4 5.8 5.6.6-1.6 1.1-3.1 1.6-4.7-2-1.9-4.2-4.1-6.7-6.3z"/><path fill="#b7c5cb" d="M529.7 562.9c-2.1 3.6-4.1 7.2-5.8 10.5.7 1.6 1.6 3.2 2.5 4.9 1.5-3.1 3.3-6.6 5.2-10.1-.8-2.1-1.4-3.9-2-5.3zm17.9 46.3c-1.9-3.7-8.8-21.9-13.8-35.3-1.6 3-3.2 6.1-4.6 9.1 7 11.5 16.3 23.3 18.4 26.2z"/><path fill="#c24264" d="M526.5 578.3c.9 1.5 1.8 3.1 2.7 4.7 1.5-3 3-6.1 4.6-9.1-.8-2-1.5-3.9-2.1-5.7-1.9 3.5-3.7 7-5.2 10.1z"/><path fill="#ff809a" d="M549.2 577.3c-1.8 0-3.7-3-5-5.5-1.1-2.6 2.1-4.4 5.3-5.9-.6-9.2-1.8-14.9 5-1.8 5.6-2.2 8.6.4 1 1.6 1.2 2.2 5.8 6.2 5.6 5.4.3-.4.6-1.5 1.4-1.1.5.1.8.6.6 1.1-1.9 5.1-7.2-1.6-9.5-4.9-.9.3-1.7.6-2.4.8 0 4.3.8 10.1-2.1 10.2zm.3-9.4c-2.1 1.1-3.6 1.9-3.7 3.1 1.4 2.8 2.8 4.3 3.3 4.5.6-1 .5-3.9.4-7.6zm1.5-6.1c0 1.1.2 2.2.2 3.5.5-.2 1-.4 1.5-.5-.6-1-1.2-2-1.7-2.9z"/><path fill="#ff809a" d="M559 567.9c-2-.3.1-2.8 0-3.9 0-.1-.5-.2-1.7-.2s-1.2-1.8 0-1.8c1.1 0 3.5 0 3.5 2-.3 1.8-.5 3.6-1.7 3.9z"/><path fill="#feeadb" d="M462.2 546.2c-.8-8.4-2.2-14.2-4.6-14.7-23.7-3.3-36.6 56.8-42.8 74.7.7-.2 1.4-.3 1.9 0 .3-1.1 3.2-3.6 3.6-.6 0 0 1.1-1.6 2.4 0 2.7-1.3 2.7 3.6 2.4 4.3 1.8.3 6.7-5.5 8.8-1 .7 1.3 4.1-1.2 5.9 2.4 2.7-.7 3.2 4.8 3 5.7 0 0 1.7-.5 1.4 1.4 4.4 3.6-5.7 6.7 2.1 6.5 7.8-28.3 5.6-52.1 16-78.6z"/><path fill="#e69f97" d="M453.7 580.4c-.8 12.2-3.8 29.7-7.5 44.4 4.2-.7 6.4-.8 6.3 3.4 0 0 2-.3.9 3.2s-1.9 4.9-1.9 4.9l.8 7.1c5-11 9.2-20.9 9.2-20.9s3.2-50.5.7-76.3c-3.6 10.6-7.8 24.2-8.5 34.2z"/><path fill="#231213" d="M452.5 628.2c.7-6.6-7.3-2-9.3-3.8 0-1.8 4.2-2.9 1-6.1.3-1.9-1.4-1.4-1.4-1.4.2-.9-.3-6.4-3-5.7-1.8-3.6-5.2-1.1-5.9-2.4-2.1-4.5-7.1 1.4-8.8 1 .3-.6.3-5.6-2.4-4.3-1.3-1.6-2.4 0-2.4 0-.3-3-3.3-.5-3.6.6-.5-.3-1.2-.2-1.9 0-1.2 3.9-2.1 6.8-3.2 10 21.9-10 32.4 11.1 34.3 41.2 2.1-4.4 4.3-9.3 6.4-13.9l-.8-7.1s.8-1.4 1.9-4.9c1.1-3.5-.9-3.2-.9-3.2zm-36.3-19.6c-.6 0-.6-1 0-1s.6 1 0 1zm5.9.9c-1.1 0-1.1-1.7 0-1.7s1.1 1.7 0 1.7zm8.8 2.2c-1.1 0-1.1-1.6 0-1.6s1.1 1.6 0 1.6zm4 .6c-1.3 0-1.3-1.9 0-2 1.3 0 1.3 1.9 0 2zm3.6 3.3c-1.2 0-1.2-1.8 0-1.8s1.2 1.8 0 1.8zm2.2 4.8c-1.2 0-1.2-1.8 0-1.8s1.2 1.8 0 1.8zm6.5 8.1c-1.2 0-1.2-1.8 0-1.8s1.2 1.8 0 1.8zm2.7 12.7c-.9 0-.9-1.4 0-1.4s.9 1.4 0 1.4zm.5-6.1c-1.3 0-1.3-1.9 0-2 1.3 0 1.3 1.9 0 2zm0-5.2c-1.4 0-1.4-2.2 0-2.2s1.4 2.2 0 2.2z"/><path fill="#f7fafc" d="M410.2 648.5c6.2 1.6 12.1 13.2 12.1 13.2 8.9-6.7 16.5-13 19.6-27.6-4.1-17.4-18.3-24.6-30.4-17.8-3.8 10.2-11.3 19.2-12.2 20.3 2 4.4 6.3 10.8 10.9 12zm-13.7-32.3c-1.3.2-2.9.3-4.6.3.6 1.7.9 3.3 1.2 4.6 2.5-2.5 3.4-4.9 3.4-4.9zm-25.9 53.9s-11-20.3-17.5-27.2c-3.1-3.3-4.4-8.7-4.9-13.3-3.2 2.4-5.3 4.3-5.3 4.3-2.5 3 11.5 17.1 11.6 17.2 2.1 4.6 10.7 47.2 26.3 50.5-7.1-10.5-14-22.3-10.3-31.3z"/><path fill="#bac8ce" d="M441.9 634c-3.1 14.8-10.7 20.9-19.6 27.6-6.1-16.3-16.6-11.5-23-25.2v.1l-9.2-13c1.2-.8 2.2-1.6 3-2.5-.2-1.3-.6-2.9-1.2-4.6-22.3-.6-25.4-1-43.7 13 .5 4.6 1.8 10 4.9 13.3 6.4 6.9 17.5 27.2 17.5 27.2-3.7 9 3.1 20.8 10.3 31.3 13.4 6 22.9 9 35.7 4.4 5.7-4.1 22.6-33.6 29.3-48.5-.5-8.8-1.9-16.7-3.9-23.3z"/><path fill="#231213" d="M353.8 636.6c0-1.4-2.1-1.4-2.1 0s2.1 1.4 2.1 0z"/><path fill="#e69f97" d="M343.1 636.6s-12.9-6.7-14.5-11.8c-1.6-5.1-2.8-9.4-4.9-13.1-4.5-7 3.3-17.1 8.5-18.6 0 0-1.6-12.8 3-17.9 4.6-5.2 11.8-4.5 14.4-9.4 2.4-6.8 7.6-19.8 15.5-15.4 0 0 .2-3.8 1.6-5.1 1.4-1.3-.6-16.1-.6-16.1-1.6-4.4-16.5-27.6-15.2-36.4 1.8-21.8 27.5 21.6 28.5 28.8 7.1 21.9 1.5 22 7.4 43 7.1 12.2 14.4 15.6 31.3 15.4 6.9-.9 9.8-6.5 16.8-3.8 7.1 2.8 1.7 16.3-4 18.1-5.7 1.8-16.3 0-20.6 4-13.3 8.2-7.4 14.8-16.1 17.4-5.3.7-18.1-1.2-18.9.5-.8 1.7-.5 5.9-5.5 10.5-5.1 4.7-9 4-9.5-1.9h-2.2s-.7 2.5-2.2 5.9c-1.8 4.6-14-.4-12.8 5.9z"/><path fill="#231213" d="M402.2 605.1c-.7-.5-.7 4.7-3.5 4-2.8-.8-4.8-3.4-5.5-1-.7 2.4-5.2 4.1-6.5 2.9-1.3-1.2-1.8-2.6-3.1-.9-1.3 1.7-3.5-.7-3.8.8 0 3.9-4.9-.8-4.6 5.7 0 0 19.8.9 21.9 0 2.1-.9 5.9-11 5.2-11.5zm-16.5 7.7c-.6 0-.6-.9 0-.9s.6.9 0 .9zm4.7 0c-1.1 0-1.1-1.7 0-1.7s1.1 1.7 0 1.7zm3.6.9c-1.3.2-1.6-1.7-.3-2 1.3-.2 1.6 1.7.3 2zM349.8 633c-5.1 2.5-7.9 1.7-9.4-4-1.6-1.3-1.9 3.3-4.6 2.2-2.7-1.1-4.1-.3-2.8 1.1 1.3 1.4-2.5.7.4 3.2s10.4 4.7 10.9 3.4c2.1-2.4 6.3-1.4 5.5-5.9zm-12.8 2.5c-1.3-.4-.8-2.6.7-2.1 1.4.5.7 2.6-.7 2.1zm3.2-2.7c-1.1-.2-.9-1.7.3-1.8 0 0 .8 2-.3 1.8z"/><path fill="#feeadb" d="M360.2 490.4c-7.2-6.1-9-4.4-9.3 2.4-1.3 8.8 13.5 31.9 15.2 36.4 0 0 2 14.8.6 16.1-1.4 1.3-1.6 5.1-1.6 5.1-8-4.4-13.1 8.6-15.5 15.4-2.5 4.9-9.8 4.3-14.4 9.4-4.6 5.1-3 17.9-3 17.9-5.2 1.5-13 11.7-8.5 18.6 3.3 4.5 3 12 7.6 16.8.8-1.5 1.9-3.3 3.5-4.9 4.1-4.3 3.2-.8 7 3.2s1.8 1.4 6.4-3.2c4.6-4.6 11.2-.2 10.9-1.7-.3-1.5-18-21.3-20.7-23.6-2.8-2.3-1.2-4.6 2.6-2.8 3.8 1.8 22.1 18.4 23.8 19.2 1.7.9 2.5-1 3.5-6.7 1.1-5.6 4.9-.6 8.9-3s4.8-20.1 4.8-20.1c3.5 4.4 11.8 5.2 9.2-5.5-1-3.8-16.5-15.5-19.1-20.5-2.6-5.1.2-12.7.2-17.8 0-5.1-2.1-4.3-4.9-9.9-2.8-5.6-.6-11.9-3.7-18.3-2-4.2-.3-11.8 3.2-15-2.2-3.1-4.5-5.7-6.7-7.6zm74.6 85.8c-8.7-2.9-14.5 6.5-23.8 3.7 1.8 4.8 2.3 7.3 5.6 6.3 7.6-4.2 14.7 2.1 9.8 8.9 8.5 1.3 16.6-14.7 8.4-18.9z"/><path fill="#e69f97" d="M368.4 590s-3.7-18.4-8.5-20.1c-13.2-2 7.8 21.1 8.5 20.1z"/><path fill="#f7fafc" d="M484 686.4c7.9-13.3 29.6-15.5 51.2-12.4-3.9-15.3-10.7-27.8-13.4-38.4-10.3-5.7-23.7-17-29.8-25.7-20.7-8.1-36-42.8-36-42.8s2.1 50.5 4.1 58.6c-5 12.6-3.7 37.7 11.1 58 4.1 0 8.5.7 12.8 2.8z"/><path fill="#bac7ce" d="M456 568.8c.4 9.1 2.2 49.6 4.1 56.8 0 0-.8 1.8-1.5 5 8.3-10.3 3.1-46.5-2.5-61.8zm53.9 58.9c4.2 3.1 8.2 5.7 11.8 7.9-1.8-6.5-2.3-13.8-2.3-20.6-10.2-1.3-19-2.4-27.5-5.1 4.3 5.5 10.4 12.3 18 17.8z"/><path fill="#bac8ce" d="M518.2 709.1c-1.7-1.4 17.8 33.2 27.5 38.4-1.5-16.6-6-55-10.5-73.4-21.7-3.1-43.3-.9-51.2 12.4-4.2-2.1-8.6-2.8-12.8-2.8 16 20.1 10.7 12.6 22.9 39.4l11.9-13.3Zm16.9 58.5c-4.8-5.4-14.9-9.3-22-16.9-7.1-7.6-6.9-9-9.4-6.7-8.1 11.8 28.2 24.3 31.4 23.6zm-23.6 6.3s7.4 19.5 14.7 27.8c7.4 8.3 12.5 11.6 12.7 7.8.2-3.8 2.2-17.7-5.8-22.5-8-4.8-21.6-13.1-21.6-13.1zm-17.2-13.6c1.9.7 9 78.3 26.7 74 6.6-1 4.5-8.5 4.5-8.5s.2-7.5-6.5-14.8c-8.2-7.5-15.5-54.2-24.6-50.7z"/><path fill="#c54b6a" d="M553.4 809.7c-1.9-8.2-10.2-16.8-15.4-19.2-.5 7.2 2.1 13.2.8 20.4 6.8 3 16.2 6.1 14.6-1.2z"/><path fill="#ff869f" d="m564.4 668.8 14-13.5c9.5 17.6 11.9 11.3 26.9-1.3 0-38-3.8-73.2-3.8-73.2-21.7 30.3-32.7 39.2-82.1 34.1-.5 19.9 6.4 30.7 13.7 51.9l14.8-6.3z"/><path fill="#ff859e" d="M572 765.2c-13.1 3.6-8.7-3.1-8.7-3.1 12.4-2.3 19.3-18.4 19-20.5.2-4.2-30.8 5.6-37.5-1.6 5.4 35.5-5.5 26.4-6.8 50.4 9.3 4.9 29.2 33 .8 20.4-1.4 9.2-5.8 19.2-5.8 19.2-2.8-2.3-4.8.9-9.9 12.9-3.4 10.1-43.3 54.5-60.3 67.3 36.4-4.7 83.2-51 112.2-97.5 18.6-29.9 29.4-59.6 26.6-79.5-8.9 13-21.7 29.8-29.5 31.9z"/><path fill="#c54b6a" d="M589.9 666.3c-4.4 2.7-11.5-10.9-11.5-10.9l-14 13.5-16.5-8.3-14.8 6.3c5.4 16.2 9.2 50.7 11.7 73.2 6.7 7.2 37.7-2.6 37.5 1.6.3 2.1-6.6 18.2-19 20.5 0 0-4.4 6.7 8.7 3.1 38.6-22.6 33-57.9 33.3-111.2-4.7 4.7-13.4 11-15.4 12.2z"/><path fill="#64554f" d="M556.6 709.6c0 5.6-3.5 10.1-7.7 10.1-10.3-.5-10.2-19.7 0-20.2 4.3 0 7.7 4.5 7.7 10.1z"/><path fill="#382d2e" d="M600.8 704.2c0 5.9-3.5 10.7-7.9 10.7-10.5-.5-10.5-20.8 0-21.4 4.4 0 7.9 4.8 7.9 10.7zm-51.4 7.2c-2-2.1-2.1-1-.9-3.5 1.2-2.5.4-6.5-1.5-6.8-5.5-.7-6.8 15.2.6 12.4 1.5-.8 1.8-2.1 1.8-2.1zm1.9-10.7c-1.4-.2-2.4.2-.5 1.8 1.8 1.5-.5 1.1 2.1 2.8 2.6 1.8 2.2.4 1.1-1.5s-2.8-3.1-2.8-3.1z"/><path fill="#b9c7cd" d="M573.3 478.7c.2 1.5 3.9-1.6 7.2.4 1.9 1.2 4.1 3.3 6.5 9.9 4.2 0 9.6-1 12.5-5.9-2-1.7-5.1-3.8-8.3-3.7-5.3.2-17.2-5.7-18.3-5.4"/><path fill="#f9d5e4" d="M552.3 706.1c0 1.4-.9 2.5-.3 4 .5 1.5 2.2-.6 2.5-2.6.3-2-2.3-2.4-2.2-1.3zm-2.9-3.6c-.8-.1-1.1 2.2 0 2 1.1-.2.9-1.8 0-2z"/><path fill="#832944" d="M551.8 711.7c-2.6.2-3.6 4.3-1.1 3.8s3-4 1.1-3.8z"/><path fill="#552e37" d="M547.8 712.7c-5.5 1.9-.3 5.3 2.8 2.3-2.5.5-1.3-2.4-2.8-2.3z"/><path fill="#f7f6f8" d="M585.4 659.1c-2.4-2.4-5-5.2-7.4-7.8 2.3 17.2 5.7 38.2 10.7 51.7l1.7-5.2 6.4 3.6c-2.2-8.5-6.9-26.1-11.4-42.4z"/><path fill="#ab95a6" d="M574.3 625.5s1.7 12.4 3.7 25.9c2.4 2.6 5 5.4 7.4 7.8-6.2-22.6-9.4-32.9-9.4-32.9z"/><path fill="#2f2529" d="m574.3 625.5 1.7.8s3.2 10.3 9.4 32.9c5.3 5.3 8.3 8 13.7 8.7-10-20-23.5-46.4-23.5-46.4l-4.9 1.7s.4 9.4 1.2 21.3c1.7 1.9 3.8 4.3 6.2 6.9-2-13.5-3.7-25.9-3.7-25.9z"/><path fill="#453d3e" d="M578 651.3c-2.3-2.6-4.5-5-6.2-6.9 1.8 29 2.9 51.8 13.2 69.4l3.6-10.8c-5-13.6-8.4-34.6-10.7-51.7zm29.1 32.8c-1.9-4-4.8-9.8-8-16.3-5.4-.8-8.3-3.4-13.7-8.7 4.5 16.3 9.1 33.8 11.4 42.4l16.4 9.3s1.8-10.1-6.1-26.7z"/><path fill="#1f0f0f" d="M630 631.9c-12.1-11.2-39.9-15.2-55-14.9 12.1 3.4 44.3 15.2 55 14.9z"/><path fill="#483f40" d="M630 631.9c-14 .4-49.2-17.8-64.1-14.9l.7 1.9c1.7.4 3.7.9 5.9 1.6 5.9-1.7 35.9 3.7 24.3 12.3 7.7 6.1 22.6 17.2 30.3 22.8 8.5-14.3 14.7-13.2 2.9-23.7z"/><path fill="#483f40" d="M582.4 628.9c-5.3-3.5-9.1-7-14.9-7.7 6.6 7.3 39.8 49.1 46.9 50.9.8-.6 4-4.6 7.7-9.6-10-6.8-30-24.9-39.6-33.7z"/><path fill="#2f2529" d="M571.3 621.3c.1-.3.5-.6 1.2-.8-2.2-.7-4.2-1.2-5.9-1.6l.8 2.3 5.8 1.4c-1.2-.9-2-1.4-2-1.4z"/><path fill="#f7f6f8" d="M587.4 631.9c-1-.5-2.9-1.6-5-3 9.7 8.8 29.7 26.9 39.6 33.7 1.6-2.2 3.4-4.6 5.1-6.9-7.6-5.6-22.6-16.7-30.3-22.8-2.8 1.1-7.2 0-9.4-.9z"/><path fill="#2f2529" d="M596.8 632.8c11.6-8.6-18.5-14-24.3-12.3 8.2 2.6 18 6.9 24.3 12.3z"/><path fill="#483f40" d="M572 622.3c.3 1.7 7.2 4.5 10.4 6.6-3.6-3.3-5.8-5.4-5.8-5.4z"/><path fill="#ab95a6" d="M571.3 621.3s.8.6 2 1.4l3.3.8c2.7 3.8 13.5 12.4 20.2 9.4-6.4-5.5-16.2-9.8-24.3-12.3-.7.2-1.1.4-1.2.8z"/><path fill="#64554f" d="M586 706.5c4 8.2 13 4.2 11.7-6.2 0-3.7 2.1-1.8 2.7 3.2 0 13.9-12.5 13.4-14.4 3z"/><path fill="#832944" d="M591.9 711.7c.7.8 4 .5 5-1.6 1.9-2.4 0 5.9-5 1.6z"/><path fill="#f9d5e4" d="M595.2 706.4c-2.1-1.8-4.4-.6-2.3 1.5 2.1 2.1 4.8 2.6 4.7.2-.1-2.5-1.6-1-2.4-1.6z"/><path fill="#483f40" d="m557.7 628.6-16.6 106.2-22.2-25.1-9.3 12.4s10.8-37.9 11.3-41.2c.5-3.3 16.4-32.4 23.6-45.2 7.1-12.8 13.3-7 13.3-7z"/><path fill="#2f2529" d="M551.1 637.7s-18.1 55.9-16.6 63c3.9 13.5 10.5-9.4 11.5-9.7l.9 6.4 10.8-68.7-6.6 9.1z"/><path fill="#f7f6f9" d="M516.9 708.1c3.5-4.8 27.8-46.5 29.2-48-1.4 1.4-19.6 47.8-23 54.4l-4.2-4.7-2 2.7v-4.3z"/><path fill="#1f0f0f" d="M503.5 655.4c5.1-3.2 29.3-20 45.3-34.1-10.4 6.8-47.5 29.8-54.1 35.2 1.6.9 5.6.9 8.8-1.1z"/><path fill="#453d3e" d="M558.3 618.8c-1-1.6-5.5-.9-9.5 2.5-21.1 16-41.2 35.2-54.1 35.2-9.6 8.6 27.8 31.4 31.4 33.2 8.7-3 24.6-41.2 28.5-49.7 4.7-7.6 6.4-14.8 3.8-21.1z"/><path fill="#f7f6f9" d="M541.7 641c-7.5 9.9-33.4 32.3-38.7 29.7 0 0 2.7 4.8 5.3 5.4 2.5.6 19.2-7.5 28.5-17.8 5.5-6.1 12.5-16.6 16.6-24-6 7.9-18.3 21.1-18.3 21.1s3-7.1 6.6-14.4z"/><path fill="#0f0" d="M556.8 627.9c-.2-.9-.5-2-1-2.8 1.3.2 1 1.7 1 2.8z"/><path fill="#2f2328" d="M556.6 626.5c0 1.4-1.3 4.2-3.2 7.8 2.6-3.7 3.9-4.6 3.2-7.8zm-.7-.9h.4c-4.3-6-12.1 10.5-14.6 15.4 6.5-7.8 11.4-14.8 14.1-15.4z"/><path fill="#ab95a6" d="M556.3 625.6c-4.6-1-21 25.7-21.2 29.7-.4-.7 22.6-21.4 21.2-29.7z"/><path fill="#2e2327" d="M560.9 617.1c-6.6.9-7.5 15.9.4 17.5-.8-5.5-.6-13-.4-17.5zm3.8-.8c1 3.8 2.4 10.5 2.7 17.9 7.3-2.8 6.8-18.3-2.7-17.9z"/><path fill="#f7f6f9" d="M564.7 616.3c-1.2 0-2.7.3-3.8.7-.2 3.7-.4 9.4 0 14.4l6-3.3c-.6-4.9-1.5-9.1-2.2-11.8z"/><path fill="#ab95a6" d="M560.9 631.5c0 1.1.2 2.1.4 3.1 2 .5 4.2.4 6.1-.4 0-2.1-.3-4.1-.5-6z"/><path fill="#0f0" d="M548 610.1c-.3 0-.3-.2-.7-.8l.4-.2c.5.8.7.9.3 1z"/><path fill="#b9c7cd" d="M493.8 521.2c2-.5 4.1-.6 6.2-.5-2.9-17.9 2.8-15.6 10.5-21-.2-3.2.8-4.1-4.8-3.2-7.2.9-15.2 16.8-25.6 20.7l1.7 11.2s4.7-5.4 11.9-7z"/><path fill="#f7fafc" d="M466.9 533.5c-6.9 21.3 4.3 48.7 24.1 63.3 11.2 7.8 38.4 10.6 57.7 8.9-22.6-21-44.3-57.2-48.7-85-8.8-.7-16.2 5.2-18.2 7.6l-1.7-11.2c-4.1 2.2-8.4 4.1-12 5.4 0 3.4-.6 7-1.3 11.1z"/><path fill="#f7fafc" d="M566.6 608.4c-3.5 4.2-5.9 6.2-5.9 6.2-1.8-.6-4.1-2-6.7-4.1-20.3 2.1-52-.3-65.5-9.7-25.6-19.7-33.7-46.7-25.8-76.8-6.8.6-11.3 16-9.1 31.1 7.3 79.4 97.4 72.3 147.8 52.2v-10.2c-15.4 6.2-31.7 10.5-34.9 11.3z"/><path fill="#ff809a" d="M459.5 550.8c4.4 47.5 38.3 65.5 94.6 59.7-2.1.2-3.5-3-5.3-4.8-44.1 3.4-78.9-13.5-83.6-54.9-.1-11 3-18.8 3.1-28.4-2.1.8-4 1.3-5.4 1.6-2.4 8.4-3.3 16-3.3 26.7zm107.1 57.6c3.2-.8 19.5-5.1 34.9-11.3v-5.8c-10.7 4.5-22.2 8.5-29.5 10.5"/><path fill="#e69f97" d="M647.9 525.3c-.2 17.1 5.8 49 11.3 56.5 0 0 3-6.1 7.2-15.6-8.7-8.9-13.3-33.9-18.6-40.9z"/><path fill="#feeadb" d="M689.2 541.7c-5.3-6.6-26.1-48.1-34.4-56.3-6.4-5.5-13.9.3-13.9.3 2.1 10.5 6.8 27.5 7.1 39.6 5.3 7 9.9 31.9 18.6 40.9 4.4-15.3 16.8-24.6 22.6-24.5z"/><path fill="#bac8ce" d="M737.1 565c-2.8-18.3-11.2-44.4-11.2-44.4s7.1-5.3 9.5-10.9c-7.1-3.8-18.2-7.3-24-10.4-4.4-3.2-5.3.5-11.9-.2-15.7-4.5-9.5-3.5-19.8 6.9 11.6 5 18.2-2.3 14.7 19.2-3.1 19.4-7.7 45.8-10 57.2-7.1-4.8-20.3-12.5-24.4-26.2-5.1 21.7.7 36.4 13.2 52.4 6.6 5.7 18.5 15.6 22.8 20.1 4.3 4.4 8.7 7.7 14.2 6.9 8.1-1.6 9.7-20.3 17.8-26.7 7.5-8.4 11.8-25.7 9-44z"/><path fill="#f7fafc" d="M670.1 572.8c6 4.3 14.4 9.8 14.4 9.8s7-32.9 7.3-40.4c-6.4-3.3-27.2-2.6-32 14.3 2.4 5.5 6.6 13.5 10.4 16.3zm69.3-42.2c-2-11.1 4.2-15.3 5.2-22.5 0 0-4.4 2.6-9.2 1.7-2.4 5.6-9.5 10.9-9.5 10.9 5.3 18.2 22.5 64.4 2.1 88.4-4.6 5.2-10.2 13.3-12.1 21.7 3.9-4.5 8.4-10.6 11.9-12.9 27.9-15.3 11.6-67.6 11.5-87.3z"/><path fill="#231213" d="M653.2 560.6s.4.3.5.3c-.2-.2-.5-.3-.5-.3z"/><path fill="#231213" d="M687.6 536.6c-2.3-.8-4.1 0-4.1 0s-2.1-4-4.7-2.9c-.3-3.5-6.7-1.3-6.4 1 0 0-5.3 1.5-4.4 4.3-.1 2.5-4.8.5-5.5 2.1-2-2.3-4.4.7-3.3 2.8-.6.7-4.1 4.1-1.8 5.7-.2 0-2.4 2.1-2 3.3-1.9.7-2.5 2.9-.5 3.9-1.1.8-2.1 1.9-1.1 4 .4.4.7 1.2-.5 2.9-2 2.8 1.6 7.1 1.6 7.1s1 3.9 2 6.3c1.2 3 2.5 4.6 2.5 4.6-2.7-15.6-.5-30.3 9.9-37.2 4.8-3.2 11.9-4.8 20.5-3.2 0 0 .2-4.1-2.1-4.9zM655.9 568c-1.1 0-1.1-1.7 0-1.7s1.1 1.7 0 1.7zm.8-4.7c-1.1 0-1.1-1.7 0-1.7s1.1 1.7 0 1.7zm.5-4.8c-1.1 0-1.1-1.7 0-1.7s1.1 1.7 0 1.7zm.9-7.7c-.8 0-.8-1.3 0-1.3s.8 1.3 0 1.3zm2.6-4.3c-.9 0-.9-1.3 0-1.3s.9 1.3 0 1.3zm3.7-2.1c-1.1 0-1.1-1.7 0-1.7s1.1 1.7 0 1.7zm4.9-1.8c-1.2 0-1.2-1.8 0-1.8s1.2 1.8 0 1.8zm3.5-3.9c-.9 0-.9-1.3 0-1.3s.9 1.3 0 1.3zm2.9-2.6c-1.2 0-1.2-1.9 0-1.9s1.2 1.9 0 1.9zm5.4 1.3c-.9 0-.9-1.3 0-1.3s.9 1.3 0 1.3z"/><path fill="#ff809a" d="M601.9 597.2c39.2-19.7 43.2-75.5 35.5-115-1.3.4-2.7 1.4-4.3.9 5.9 50.1-2.8 109.1-61.2 118.8-1.6 2.3-3.6 4.5-5.4 6.6.1 0 20.3-4.3 35.3-11.3z"/><path fill="#f7fafc" d="M634.9 531.8c1.7-13.1-.3-35.1-1.8-48.7-3.9-3.2-11.5-5.5-16.8-2.6-4.4 2.4-16.5 2.6-16.5 2.6s-3.3 5.2-12.9 5.9c9.4 27.7 12.2 73.3-15 112.9 37-6.7 57.4-31.8 63-70z"/><path fill="#f7fafc" d="M639.5 482.6c-.7-.6-1.4-.6-2.1-.4 9.2 60.3-5.7 118.9-70.5 126.2-1.8 2.2-3.8 4.3-5.8 6.2l-.2 3.2c66.2 3.7 103.8-81.3 78.6-135.2z"/><path fill="#dcdad7" d="M669 371.5c10-15.7 8.8 7.8 9.3 10.8 0 0-7.6-13.8-9.3-10.8zm-42.8 126.2s-8.2-8.2 3.5-10.5c0 0-5.2 5.6-3.5 10.5z"/><path fill="#feeadb" d="M641.8 500.8c1.7-8.6 12.9-13 12.9-13s1.3-2.3 2.2-5.5c-7.5 4.6-22.7 3.8-25.4 4.3-15.6 4.9-1 19.1 10 19.5-.2-1.4-.2-3.1.2-5.2z"/><path fill="#0f0" d="M733 501.1c-.3 0-.3-.3-.7-.9 0-1.1 1.4 1 .7.9z"/><path fill="#feeadb" d="M741.3 464.8c-3.4-4.3-14.9-3.8-14.9-3.8-1.7-8.9-5.2-15.8-16.7-13.5-.9-7.1-6.2-10-12.9-8 0 0-7.8-8.3-11.8-5.4 0 0-4.4-12.4-5.3-23.4-.8-11-.4-30.9-3.1-35.7-6.6-11.6-10-.2-11.7 9.2 10.7-1.7 14.9 57.1 18.5 60.3 1.7 4.7-9 22.8-8.7 26.5 0 0 16.5.4 16.6 13.9 5.7-3.7 20.4 5.9 20.6 11.4 3.6-7.3 17.6-3.7 20.6 3.7-1.4-2.6-5.3-11 1.9-11.9 11.5-1.1 4.5 16.1.7 21.8 6.5 0 5.8.8 7.8-12.3 1.8-11.9 1.7-28.6-1.7-32.9z"/><path fill="#e69f97" d="M734.4 488.2c-7.6 1.1-3 9.9-1.4 12.7-3-7.9-17.1-12.1-21.1-4.5-.3-5.6-14.9-15.1-20.6-11.4-.2-13.5-16.6-13.9-16.6-13.9-.3-3.7 10.4-21.8 8.7-26.5-3.6-3.6-7.8-61.9-18.5-60.3-4.1 20.1-3.4 51.2 7.4 64.8-.7.6-7.4 27.8-15.3 33.2-1 3.2-2.2 5.5-2.2 5.5-2.8 1.1-15 7.2-13.2 18.3 2.4.2 4.6-.3 6.3-1.6 8-7.2 26 .5 31.8 1.7l7-7.4s5.2.1 7.2-1.1c0 0 7.8 6.5 15.7.7 1.6 2.1 12.9 8.1 16.7 7.3 0 0 4.5 3.4 8.7 4.3 3.7-5.7 10.8-22.9-.7-21.8z"/><path fill="#e69f97" d="M695.8 469.2s-1.5-15.2 2.9-18.4c4.4-3.2 6.4 7.2-2.9 18.4zm19.9 11.3s2.3-12.1 4.1-17.8c1.8-5.7 8-3.7-4.1 17.8z"/><path fill="#231213" d="M681.7 492.4c-2.7 0-4 3-2.5 5.3-.4-.3-7.4 3.4-5.8 5.4l-2.5.6 3.6 1.1c-1-2.6 3.6-1.4 1.4.4l3.8 1 8.8-7.4s-4.2-6.3-6.9-6.3zm-3.7 10.7c-1.4 0-1.4-2.1 0-2.1s1.4 2.1 0 2.1zm3.4-3.9c-1.4 0-1.4-2.1 0-2.1s1.4 2.1 0 2.1zm2.8-2.3c-1.4 0-1.4-2.1 0-2.1s1.4 2.1 0 2.1zm59.9-1.3c-2.4-3-3.5 8.8-4.7 8.8-3.2-9.6-10.4-3.7-13.1 1.3 2.1 3.4 14.2 9.3 18.2 2.4 0 0 1.4-10.8-.5-12.5zm-9.7 8.4c-1.3 0-1.3-2 0-2s1.3 2 0 2zm6.5 4.3c-1.4 0-1.4-2 0-2.1 1.4 0 1.4 2 0 2.1zm3.2-5.4c-1.2 0-1.2-1.8 0-1.8s1.2 1.8 0 1.8z"/><path fill="#604c4f" d="M600.4 320.4C549 137 294.3 224.7 376.3 417c18.7 51.5 39.2 91 48.4 125.9 9.1 34.7 29.2 77.7 47.5 60.2 17.5 3 14.8-19.4 12.8-24.5 0 0 4.4 17.7-10.3 18.8-47.1-16.6-42.2-108.5-47-148.5 18.1 4.3 27.2-7 28.7-10.5-14.3 11.5-43.9-15.6-46.2-23l5.1 1.6c-11.5-11.4-15.4-30.3-14.2-43.4 1 8.1 15.1 21 24.6 20.9 0 0-15.2-8.5-15.6-29.6 0 0 10.1 19.3 25 17.9l-1.6-2.1s10.6 5.3 17.5 4.8c-17.6-10.3 2.9-58.6 5.1-64.1-.2 15.9 1.2 34.1 17.2 47.8 0 0-10.1-18.4-8.7-29.9 3.3-12.3 8.2-74.7 6.9-82.3 6.2 25.2 65.4 53.8 53.3 88.9 10.3-14.2-5.4-43.2-10.3-50.3 5.1 6 24.8 30.1 21.9 44 7.7-6.5-11.9-42.6-12.6-44.1 0 0 20.2 13 33.4 30 14.5 19.2 16.6 47.1 2.9 51 9.2.5 16.9-8.1 21.8-15.3l10.1 40.4-2.5 2.1c4.7 19.2 19.4 191.1-30 180.9 23.3 16.5 47.8-62.6 46.6-67.7 2.3 6.2 6.1 70.7-15.8 68.6 40.6 3 18.7-227.7 10.4-265.4zM462.7 599.1c1.9 1.2 3.7 2.1 5.4 2.8-8.7 6.3-21.6-7.3-27-21.4 0 0 10.3 11.2 21.6 18.5zM424.1 448l4.2 51.3-18.2-60.9s3.5 6.3 14 9.6z"/><path fill="#4e3439" d="M504.4 279.8c12.3-9.6 49.9 30.4 40.4 5.2-6-15.5-16.9-30.8-7.7-19.7 9.2 11.1 17.8 14.5 17.1 3.3-.7-11.2 21.8 8.9 32.6 36.5 10.7 27.7 11.9 31.4 11.9 31.4-4.9-99.4-116.5-155.3-194.6-90.3-94.9 75.5-4.7 211.6 20.6 296.6 9.1 34.7 29.2 77.7 47.5 60.2 17.5 3 14.8-19.4 12.8-24.5 0 0 4.4 17.7-10.3 18.8-47.1-16.6-42.2-108.5-47-148.5 18.1 4.3 27.2-7 28.7-10.5-14.3 11.5-43.9-15.6-46.2-23l5.1 1.6c-11.5-11.4-15.4-30.3-14.2-43.4 1 8.1 15.1 21 24.6 20.9 0 0-15.2-8.5-15.6-29.6 0 0 10.1 19.3 25 17.9l-1.6-2.1s10.6 5.3 17.5 4.8c-17.6-10.3 2.9-58.6 5.1-64.1-.2 15.9 1.2 34.1 17.2 47.8 0 0-10.1-18.4-8.7-29.9 3.3-12.3 8.2-74.7 6.9-82.3 0 0 7.8 18.9 25.5 33.4.4-4.8 2.2-9.4 7.6-10.6zm-41.7 319.3c1.9 1.2 3.7 2.1 5.4 2.8-8.7 6.3-21.6-7.3-27-21.4 0 0 10.3 11.2 21.6 18.5zM424.1 448l4.2 51.3-18.2-60.9s3.5 6.3 14 9.6z"/><path fill="#604c4f" d="M462.9 298.7s3.7-18.4-6.9-19.8c-12.5-1-28.4 36.5-41.9 35.5 0 0 2.1 18 .5 18.3-1.6.3-7.6-21.6-7.6-21.6.7 9.5-12 14.7-16 4.5l-7 11.8s-.2-16.9-3.2-22.9-4.7-7.7-6.4 1.4c-1.7 9.1-7.9 22.4-8.3 22.4-.4 0-1.8-4.7-2.8-11.4-14.6 15.7 33.8 211.7 68 185.2-1-15.1-2.1-39.1-3.6-53.3 18.1 4.3 27.2-7 28.7-10.5-14.3 11.5-43.9-15.6-46.2-23l5.1 1.6c-11.5-11.4-15.4-30.3-14.2-43.4 1 8.1 15.1 21 24.6 20.9 0 0-15.2-8.5-15.6-29.6 0 0 10.1 19.3 25 17.9l-1.6-2.1s10.6 5.3 17.5 4.8c-17.6-10.3 2.9-58.6 5.1-64.1-.2 15.9 1.2 34.1 17.2 47.8-15.7-22.1-3.6-50-2.7-80.8-2.7 1.1-7.4 10.3-7.4 10.3zM424 448l4.2 51.3-18.2-60.9s3.5 6.3 14 9.6z"/><path fill="#5b4649" d="M472.1 251.8c1-11.7 20.7 5.8 28.5 3 8.5-1.1-7.6-9.7-10.6-13.8-3-4.1 17 10.3 22.7 11.9 5.7 1.6-2.1-12.1 2.4-10.3 4.4 1.9 1.6-9-10.6-15.6-36.1-21.7-85 .6-111.8 29.8-.1 7.6-11.1 41.3-2.7 25.1 6.3-11 18.6-24.7 15.3-10.6 0 0 1.8.3 2 4.4.1 4 3.3-11.3 4.1-5.6.8 5.6 1 12.8 5.6 15.3s23.6 1.5 31.1-13.3c11.6-21.7 18.3-33.9 23-10.6v-4.3s.7 1.6 2 4.3c-.8-4.1-1.4-8-1.1-9.5z"/><path fill="#4e3439" d="M487.4 288.4c13.4.8 41.4 27.4 21.6-12.3-6-10.4 1.1-4 11.5.8 10.4 4.7 5.4-4 5.4-4 17.2 6.4 43 57.2 44.3 63.6-3-28.8-16.8-59.1-38.4-79-33.3-36.3 4.1-29.8-56.8-39.4 25.8 20.4 61.2 24.1 8.5 42.6-5.2 3.2-11.8-6.1-18.1-5.9-22.5 1.5-1.8 17.8-20.6 13.3 1.4 2.7 3.5 6.5 6.5 10.8 8.5-12.8 32.3 25.7 39.6 32.5-2.7-5.1-5-8.5-5-8.5s5.2 6.1 10.6 13.9c-.8-4-1.8-8.9-2.6-13.9-1.8-11.2-10.3-13.5-6.4-14.2z"/><path fill="#4e3439" d="M440.6 275.5c-12.1 10.6-17.8 8.6-22.7 3.5-7.1-8.3 7.3-35.7-6.9-19-.9-4.3-7.5 4-16.9 21.8-3.9 7.4-16.2 17.6-17.9 9.5-.5-2.2-1.2-4.9-2-7.7-15.2 35.2-18.7 60.2-3.9 115.4 4.5-16.2 1.7-40.7 1.1-59.9-.8-16.8 2.8 14.8 9.5 8.7 0 0 1.2-19.9 11.8-23 10.6-3.1 11.5 5.8 14.9 20.1 3.4 14.2 9.8 18.2 7.8 10.9-2-7.3-2.8-25.1.2-23.7 2.9 1.4 19-22.8 19-22.8l-.8 15.8s8.3-16.4 12.7-26.7c4.4-10.3 6-9.5 7.6 3.2 1.1 8.4.2 19.1-.5 25.3 1.2-3.3 2.1-5.4 2.1-5.4s-.1 3.5.1 8.4c8.5-25.6 17.3-41.7 15.2-69.3-17.4-8.2-11.2-2.3-30.5 15.1z"/><path fill="#a1918e" d="M420.9 504.3c-4.4-1.2-9-4.8-12.9-8.7 1.7 4.2 3.4 8.3 4.9 12.4 8.9 4.8 18.6 21.7 23.9 30.7-2.7-14.2-4.6-26.5-5.6-36.6-2.5 2-5.9 3.4-10.4 2.2z"/><path fill="#442b2f" d="M413 508c3.8 9.7 7.2 19.1 9.8 28 6.4 7.1 12.8 15.8 19.4 22.4-4.7-18.1-13.4-40-29.3-50.4z"/><path fill="#604c4f" d="M438.6 554.6c-4.7-5.6-10.9-12.9-15.8-18.6 7.8 32.4 29.5 86.6 49.4 67 17.5 3 14.8-19.4 12.8-24.5 0 0 4.4 17.7-10.3 18.8-14.1 2-25.1-26.4-36.1-42.7zm24.1 44.4c1.9 1.2 3.7 2.1 5.4 2.8-8.7 6.3-21.6-7.3-27-21.4 0 0 10.3 11.2 21.6 18.5z"/><path fill="#a2928e" d="M498.8 273.8c15.9-4.5 36.3 6.1 33.5 1.7-2.8-4.4-10.8-14.5-10.8-14.5s4.8 1.4 5.7-6.2c.9-7.6 22.1 9.2 19.8 3.2-2.3-6-17.9-20.5-5.3-11.5 11.9 8.1 26.9 21.4 33.3 20.6-24.5-33.7-61.4-49.4-100.1-49 10.6 2.2 23.2 5.4 29.6 8.8 12.2 6.7 15 17.5 10.6 15.6-4.4-1.9 3.3 11.8-2.4 10.3-5.7-1.5-25.7-16-22.7-11.9s19.1 12.7 10.6 13.8c-8.5 1.1-13.8-4.9-21.1-6.4-7.4-1.5-6.7-.3-7.4 3.4-.6 10.3 5.6 18.1 14.6 29.1 1.9-2.5 5.5-5.2 12.1-7.1zm-32.6-24.9c-13.9.4-16.5 45.6-49.1 36.4-4.6-2.5-4.8-9.6-5.6-15.3-.8-5.6-4 9.7-4.1 5.6-.1-4-2-4.4-2-4.4 3.3-14.1-9-.4-15.3 10.6-8.4 16.2 2.6-17.6 2.7-25.2-16.4 19.3-34 47.8-26.7 71.6.3 0 6.6-13.3 8.3-22.4 1.7-9.1 3.4-7.4 6.4-1.4 3 6 3.2 22.9 3.2 22.9l7-11.8c4.2 10.3 16.5 5.1 16-4.5 0 0 6 21.9 7.6 21.6 1.6-.3-.5-18.3-.5-18.3 13.6 1 29.4-36.5 41.9-35.5 10.6 1.4 6.9 19.8 6.9 19.8s4.8-9.2 7.4-10.3c.1-15.7 3.4-30.5-4.2-39.4z"/><path fill="#413643" d="M470.4 258.1s-7.5-22.4-2.6-23.1c4.9-.7 4.8 14.6 4.8 14.6v8.5c.1 0-2-2.2-2-2.2l-.2 2.3z"/><path fill="#312937" d="M541.1 285c19.6 26.3 17.8 43.4 17.8 43.4l8.4 12.6c.2-13.1-10.5-48.3-26.2-56.1zm40.6 72.9c2.9-10-1.1-41.1-1.1-41.1s6 13.9 8 35.1c2 21.1 0 32.8 0 32.8z"/><path fill="#f9839d" d="M539.5 248.6c14.5 8.2 27.1 28.3 33.4 43.5-10.7-14.8-20-30.9-33.4-43.5zm-71.8 23.1c4.8 22-2.5 44.8-4.1 66.9-3.4-22.5 3.8-44.5 4.1-66.9zm-50.6-3.1c-5.4 34.8-4.8 89.2 25.4 112.6-34.1-19.5-36.1-79-25.4-112.6z"/><path fill="#312937" d="M405.3 334.7c.4 13.7 5.2 45.1 28.9 48.1-4.2-3.4-22.9-25.6-21.4-35.3 0 0 .8 9-2.4 5.8s-2.5-17.9-2.5-17.9l-2.7-.7z"/><path fill="#f9839d" d="M364.1 343.1c9.3 80.7 55.4 149.9 72 228.5-21.4-77.2-67.5-146.9-72-228.5z"/><path fill="#312937" d="M371.6 378.9c-2.7-5.4 39.9 103.7 42.7 105.1-8.1-26.4-28.4-81.8-42.7-105.1z"/><path fill="#a2928e" d="M608.4 404.1c-9.5 20.2-9.7 29.6-9.7 64.5 15.2-31.3 10.4-42.2 9.7-64.5z"/><path fill="#4e3439" d="M598.7 468.6c-.2 23.1-1.3 58.9-1.3 58.9 2.9-7.1 16.1-64.7 12.4-87.2-3.3 8.9-7.6 19.6-11.1 28.3z"/><path fill="#f9839d" d="M582.7 315.4C610 368.1 610.8 431 610 489.1c-4.2-58.2-4.7-119.2-27.3-173.7Z"/><path fill="#ff859e" d="M400.1 245.9c-28.4 23.6-38.5 65-39.3 80.8 0 0 6.5-31.8 29-61.8-.2-6.2 5.7-11.8 10.4-18.9zm10.1-19.1c-.5-.3-11.3-12.7-11.3-12.7l5-.8c-101.3-61.9-126.5 107.2-35.6 48.6 2.3-20.5 37.2-33.8 41.9-35.2zm27.8-17.5c6.8-.8 14 .7 22.3.4 15.6-5 36.9-14.5 40.5-28.8 4.1-16.5-12.4-39.4-36.6-35.4-24.2 4-36.9 12.4-44.4 32.3-6.5 17.7-7.2 26.1-.6 40.1 0 0 5.1-7 18.8-8.7zm120.1 38.9s-45.7-53.7-118.7-25c0 .6-.2 1.3-.2 2 48-19.1 100.6 6.2 118.9 22.9z"/><path fill="#c34766" d="M428.2 228.2c-.5-1.5 18.6-16.8 32.1-18.4-6.9-.5-14.6-1.2-21.5-.5s-16.1 3.6-19.6 8.8c0 0-2.3-10.1-4.6-16.7-1.2 9.6-1.8 18.1-1.8 18.1s-3.4-2.7-8.9-6.1l-5 .8s10.8 12.4 11.3 12.7c-4.7 1.3-39.7 14.9-41.9 35.2 16.7-12 27.2-27.1 44.5-25.2-5.2 1.2-24.3 17.3-23 28.1 11.3-15.4 29.8-32 49.4-39.6 0-.8.1-1.4.2-2-3.6 1.4-7.4 3.1-11.2 4.9zm1.8-39.5c-2.1-7.3 19.6-21.7 25.6-15.1 3.5 3.4-4.6 7.6-7.4 7.5-2.8-.1-18.2 7.6-18.2 7.6zm-48.5 28c-18.9-7.4-46.9 15.7-27.1 15.6 6.7-.8 11-6.4 11-6.4l-2.2-1.9s10.3-6.5 18.3-7.3z"/></g></svg>