<?xml version="1.0" encoding="UTF-8"?>
<svg width="201px" height="200px" viewBox="0 0 201 200" version="1.1" xmlns="http://www.w3.org/2000/svg" xmlns:xlink="http://www.w3.org/1999/xlink">
    <!-- Generator: Sketch 46.2 (44496) - http://www.bohemiancoding.com/sketch -->
    <title>BTC</title>
    <desc>Created with Sketch.</desc>
    <defs></defs>
    <g id="Page-1" stroke="none" stroke-width="1" fill="none" fill-rule="evenodd">
        <g id="Artboard" transform="translate(-422.000000, -1254.000000)">
            <g id="BTC" transform="translate(422.000000, 1253.000000)">
                <path d="M200.1463,100.9964 C200.1463,156.2254 155.3753,200.9964 100.1463,200.9964 C44.9173,200.9964 0.1463,156.2254 0.1463,100.9964 C0.1463,45.7674 44.9173,0.9964 100.1463,0.9964 C155.3753,0.9964 200.1463,45.7674 200.1463,100.9964" id="Fill-504" fill="#F7931A"></path>
                <path d="M124.426,130.222 C123.589,133.035 121.706,135.353 119.124,136.749 C116.542,138.147 113.572,138.455 110.759,137.617 L82.598,129.23 L88.872,108.167 L117.031,116.555 L117.032,116.555 C122.838,118.284 126.156,124.415 124.426,130.222 M133.924,87.057 C135.32,89.639 135.628,92.609 134.791,95.423 C133.061,101.228 126.927,104.544 121.124,102.818 L121.123,102.818 L92.963,94.431 L99.235,73.368 L127.396,81.755 C130.209,82.593 132.527,84.475 133.924,87.057 M146.53,80.237 C143.311,74.288 137.968,69.948 131.487,68.018 L127.761,66.909 L132.977,49.395 L119.594,45.409 L114.378,62.923 L102.952,59.52 L108.169,42.006 L104.963,41.051 L91.975,37.183 L86.947,54.065 L71.119,49.351 L66.652,64.351 L82.48,69.066 L66.219,123.664 L50.391,118.95 L45.924,133.951 L61.751,138.664 L57.508,152.913 L60.713,153.868 L73.701,157.736 L78.133,142.855 L89.586,146.266 L85.154,161.148 L98.483,165.118 L102.915,150.236 L106.667,151.353 C109.059,152.065 111.502,152.418 113.93,152.418 C118.08,152.418 122.191,151.387 125.944,149.356 C131.893,146.137 136.232,140.795 138.163,134.312 C140.193,127.493 139.191,120.488 135.962,114.722 C141.824,111.663 146.495,106.336 148.527,99.514 C150.458,93.031 149.748,86.185 146.53,80.237" id="Fill-505" fill="#FFFFFF"></path>
            </g>
        </g>
    </g>
</svg>