<svg xmlns="http://www.w3.org/2000/svg" id="a" version="1.1" viewBox="0 0 350.72 1189.59"><defs id="defs7"><clipPath id="b"><path id="rect4" fill="none" d="M0 0h350.72v1189.6H0z"/></clipPath><style id="style2">.c{fill:#64554f}.d{fill:#1f0f0f}.e{fill:#453d3e}.f{fill:#a2928e}.h{fill:#f9d5e4}.j{fill:#a1918e}.k{fill:#231213}.n{fill:#e69f97}.o{fill:#fd9a90}.p{fill:#bac7ce}.q{fill:#c24264}.u{fill:#f7f6f8}.v{fill:#832944}.w{fill:#f7f6f9}.x{fill:#ff859e}.y{fill:#ab95a6}.z{fill:#382d2e}.ab{fill:#f7fafc}.ac{fill:#c54b6a}.ad{fill:#2f2328}.ae{fill:#0f0}.af{fill:#2e2327}.ah{fill:#feeadb}.aj{fill:#b7c5cb}.am{fill:#322937}.an{fill:#4e3439}.ao{fill:#604c4f}.ap{fill:#523c3f}.aq{fill:#5b4547}.ar{fill:#312937}.as{fill:#bac8ce}.at{fill:#483f40}.au{fill:#b9c7cd}.av{fill:#5b4548}.aw{fill:#c34766}.ax{fill:#f9839d}.ay{fill:#dcdad7}.az{fill:#ff809a}.bb{fill:#2f2529}.bd{fill:#f4869f}</style></defs><g id="g413" clip-path="url(#b)"><path id="path9" fill="#ffd9f3" d="M50.67 780.57c1-3.33-2.42-4.72-5.1-4.84 5.46-.65 11.99-1.72 16.46-3.46 10.67-2.12 12.37-29.36 2-19.8-.02.12-6.05 13.41-15.16 13.38-47.73-17.92-18.38-97.33 5.24-125.44-6.98 35.37 6.32 118.51 39.41 133.8 3.48.26 5.18-4.35 2.3-6.35-6.65-3.33-16.18-25.1-16-39.36 8.29 36.62 50.97 54.33 65.19 18.74 1-3.55-3.96-6-6.15-3.02-5.52 7.68-24.3 10.13-34.47 5.99-35.15-23.26 6.32-81.13-.42-118.2 4.45.33 10.25.14 13.84-.83-.53 35.86-6.43 95.59 33.95 110.07-12.6 14.9-26.56 36.82-28.97 62.75-.33 4.16 5.5 5.3 6.8 1.45.14-.4 3.1-8.5 14.62-14.48a71.54 71.54 0 0 0-1.42 10.73c-16.72 4.26-9.77 25.47-14.5 36.41-.74 1.96-1.34 2.57-1.48 2.7-3.83 2.08-2.31 9.62-5.97 12.24-1.56.88-3.48 1.27-3.7 3.38-1.9 9.77-37.55 45.03-38.01 57.63-.66 13.3 12.78 35.26 28.43 46.13-1.32 51.9 21.8 152.87 32.19 190.94 4.03 19.64 2.97 24.14 3.54 38h110.33c-13.05-48.03 4.93-149.77 5.3-202.24 22.99-11.4 15.57-10.56 12.53-29.43 1.65-4.9 6.79-20.18 8.92-27.55 1.99.51 4.23 1.04 6.03 1.33 1.89 4.12 5.47 11.68 8.06 15.9-.78 5.15-2.48 17.48-1.86 22.15 1.66 4.1 4.67 4.27 13.46 9.68 7.78 56.19 62.02 144.73 65.8 210.16h109.45c-2-43.1-10.28-183.5-19.57-238.62 20.83-17.87 26.4-36.16 26.46-36.35-1.12-14.64-28.19-40.26-32.93-45.22-.97-16.8-14.51-11.89-11.3-28.15 1.47-10.6-4.2-24.6-5.77-27.84.5-20.68-3.33-30.77-4.9-34.01 2.04-18.14 2.4-11.92-9.15-27.02-1.11-1.25-5.15-7.25-19.7-33.1 43.73-21.3 22.83-103.57 19.14-132.66 10.23 23.95 51.22 114.77 27.34 140.49-1.42 2.23.36 5.38 3 5.3 31.44-24.7 12.56-85.76-2.61-123.23 13 13.82 34.04 29.65 53.25 20.54 18.43 36.06 9.77 81.4-21.93 101.58a3.5 3.5 0 0 0-.6 4.83c3.24 2.82 4.26 1.17 8.27-1.9 73.54-34.38 11.7-150.36-25.99-198.14 10.45-9.73 25.48-19.34 24.01-44.83-1.74-20.98-4.64-52.24-5.64-59.58-2.13-14.46 6.1-14.09 5.48-26 1-9.37-.06-12.56-1-13.9 1.66-19.83 3.44-42.06-19.67-40.57-1.68-9.3-8.64-17-18.7-15.29-2.54-7.8-7.66-10.1-15.77-8.86-2.67-2.5-7.44-6.28-11.93-6.33-5.62-13.8-4.99-37.84-6.29-53.6.26-27-9.72-24.47-16.73-13.72-11.27 24.61-10.82 67.64 2.73 88.6-5.03 11.76-7.38 29.97-17.63 34.61a19.69 19.69 0 0 0-.22-.08c-1.02-2.27-4.72-10.89-4.02-11.21-2.32-25.97-25.58-85.05-37.07-125.94-17.97-74.04-72.62-187.86-184.6-156.36 31.8-7.28 83.92-32.02 50.8-70.06-26.49-27.82-79.15-4.85-87.24 26.07-5.8 15.39-7.45 31.58-7.9 40.67C23.19 13.54-41.49 139.1 31.68 151.1c26.61.06 47.93-26.88 68.88-39.58C47.51 159.87 48 226.2 63.36 296.36 76.05 353.4 100.22 398.85 91.9 470.2c-3.79-5.06-3.93-17.2-4.86-28.37-.64-14.82-9.33-36.92-21.5-51.88l.01-.04-3.3-3.76-.07.06c-6.33-6.86-22.16-14.46-21.1.85 3.1 13.67 7.38 19.12 11.7 28.73l.04-.4c6.86 11.72 10.31 21.16 9.19 30.76a9.46 9.46 0 0 0-1.55 3.18C49.2 449.17 46.4 461 42.89 469.16c-14.96 9.73-20.66 7.92-19.86 29.82-17.2 12.21-9.14 21.76-3.87 37.5l-.17.16.4.83-.12.13c.56.8 1.52 2.76 1.92 3.67l.22-.11.47.8.26-.16c.56.63 1.2 1.26 1.87 1.87 0 .37.05.78.2 1.22-2.93 5.82 9.56 10.08 13.67 10.52 9.8 10.86 11.17 11.58 15.38 27.54-23.7 55.86-69.83 158.84-13.52 199.98 4.7 1.45 9.83 1.3 10.93-2.36zm394.43-228.5c.99 0 2-.06 2.96-.28 7.66 7.03 12.18 13.66 21.55 27.4 9.31 14.96 21.88 28.47 31.1 42.64-28.65 11.43-51.06-39.37-62.73-71.35 2.13.98 4.5 1.6 7.12 1.6zm-33.09-144.23c.86.35 9.84 2.76 14.47 3.85 1.07 4.57-1.41 19.31-2.34 24.6a5.78 5.78 0 0 0-2.33-1.07c-4.67-8.1-10.96-19.7-16.4-29.12 3.39.94 6.1 1.61 6.6 1.74zm-2.03 255.24c3.95-10.56 5.69-24.62 6.42-36.36 5.27 36.2 10.57 62.14-20.78 76.31l-1.07-1.93a939.09 939.09 0 0 0 15.43-38.02zm-19.76 6.99 1.2-4.65c-.45 8.39-1.36 17.6-2.86 24.83a122.89 122.89 0 0 1-.18-.33c.4-2.96 1.47-11.42 1.84-19.85zm-225.58-4.58c7.52 11.48 17.85 31.58 19.08 44.7l-.96.81c-20.17-6.68-22.97-31.94-26.32-60.23 1.84 4.22 4.82 9.15 8.2 14.72zm5.11 51.61c1.47.6 2.83 1.1 4.09 1.54-10.04 9.56-7.8 7.64-16.64 16.5-5.51-7.15-8.12-29.16-7.97-40.4 4.84 8.86 11.94 18.89 20.52 22.36z"/><path id="path11" d="M176.8 736.79s-44.6 33.53-49.03 81.27c23.1-37.89 59.16-1.54 49.03-81.27z" class="k"/><path id="path13" d="M152.64 797.96s4.19 4.1 11.72 9.85c-.77-11.77-1.79-27.2-2.27-33.48a213.42 213.42 0 0 0-9.45 23.63z" class="ah"/><path id="path15" d="M376.7 699.07s-49.22 14.52-49.66 12.86l-144 28.26s-10.5 11.97-20.95 34.14c.48 6.28 1.5 21.71 2.27 33.48 14.75 11.26 42.38 28.83 76.7 34.2 16.24-12.58 18-23.27 38.3-26.03 12.77-2.56 9.87-10.98 16.17-8.94 18.88 5.3 6.6-7.3 16.3-10.6.72-.89 10.17 7.03 21.4 13.41 11.24 6.38 9.55 7.88 15.58 15.32 4.19 5.17.57 15.5-2.02 21.3 41.83-8.49 85.98-33.45 85.76-34.2-.25-.89-55.84-113.2-55.84-113.2z" class="n"/><path id="path17" d="M348.8 825.17c-6.02-7.44-4.33-8.94-15.57-15.32-11.23-6.38-20.8-14.46-21.53-13.58-.72.89-5.37 1.25-4.63 7 .74 5.74-5.24 5.81-11.54 3.77-6.3-2.04-3.4 6.38-16.17 8.94-20.29 2.76-22.07 13.46-38.3 26.03 50.3 7.5 87.38 7.24 85.98 7.12 6.4-.35 13.04-1.3 19.75-2.65 2.59-5.81 6.2-16.14 2.02-21.31z" class="ah"/><path id="path19" d="M375.02 1015.13c29.47-13.01 63.07-32.81 85.36-46.66-1.62-10.54-3.23-18.1-4.68-19.67-4.77-5.16-146.72 32.49-146.72 32.49s2.84 18.04 9.45 41.26c11.69 3.33 30.32 4.17 56.59-7.42z" class="n"/><path id="path21" d="M476.9 1160.38c-4.53-76.4-7.08-122.97-16.52-191.91-32.19 18.68-103.5 67.47-141.95 54.08 13.67 49.16 57.71 124.85 56.59 166.04 33.75 2.19 82.7-2.15 101.87-28.2z" class="ah"/><path id="path27" d="M374.34 941.72c-2.81 5.95-25.7 44.13-22.13 50.26-1.37 3.65 49.68-7.58 62-13.35-8.53-22.22-27.15-34.32-39.87-36.9z" class="at"/><path id="path31" fill="#f7f8fa" d="M148.02 1189.1h11.78l-12.67-10.18c.6 5.37.89 10.17.89 10.17z"/><path id="path33" d="M255.7 1030.23c.11-1 .22-2.01.31-3.04-40.33-7.54-114.64-35.07-143.06-45.9.8 56.55 16.27 120.61 29.5 173.78 2.9-1.47 4.8-1.33 6.5 1.83-2.5.6-3.93 1-3.93 1 .13.63 2.55 15.14 7.02 19.06 4.47 3.91 48 10.3 66.38 8.76 18.38-1.53 24.82 2.7 27.45-2.07 3.35-8.34-.91-9.52.2-15.9l.77-.67c-2.27-37.26 6.24-100.77 8.86-136.85z" class="ah"/><path id="path35" d="m255.7 969.98-143.75-8.94s.34 8.3 1 20.25c28.42 10.83 102.73 38.36 143.06 45.9 2.27-24.11-.31-57.21-.31-57.21z" class="n"/><path id="path37" d="m246.84 1167.08-3.82 3.32c-2.94-2.64-5.93 2.33-6.22 4-1.86-.76-5.85.93-5.27 3.66h-2.13c-.43-1.79-1.87-1.27-1.87-1.27 0-2.81-2.21-3.83-2.21-3.83 2.05-3.7-2.34-4.93-4-2.22-1.62-6.21-9.96-5.7-11.4-2.21-1.46 3.49-1.97 3.23-1.97 3.23-4.6-4.06-6.3 4.75-9.27 3.32-.51-4.42-4.17-3.32-4.17-3.32.48-2.48.98-6.13-3.4-4.68.59-2.55-.6-2.38-.6-2.38.66-.95-1.05-5.46-2.73-2.93-1.64-4.75-7.08-5.02-9.36-.73-2.98-2.23-5.02-1.74-5.53 2.21-2.94-4.11-7.44.57-4.77 3.24 0 0-1.95.93-2.63 2.38-1.08 2.48-4.3-6.03-6.47-2.38-1.54-2.26-2.68-4.39-6.64-3.83-2.08-1.58-4.43-11.85-9.94-7.6 2.41 9.7 3.76 14.98 4.69 23.86l12.67 10.17h90.92s-2.56-9.23-3.88-22zm-98.12-2.1c-2.09-.03-2.09-3.14 0-3.17 2.09.03 2.09 3.14 0 3.17zm6.72 6.87c-2.47-.06-2.47-3.68 0-3.75 2.47.07 2.47 3.69 0 3.75zm5.02 5.91c-1.05 0-1.05-1.6 0-1.61 1.06 0 1.06 1.61 0 1.61zm9.2-3.4c-1.18-.02-1.18-1.77 0-1.79 1.17.02 1.17 1.77 0 1.79zm8.85-4.8c-1.9-.04-1.9-2.87 0-2.9 1.9.03 1.9 2.86 0 2.9zm6.72-2.05c-2.01-.04-2.01-3.03 0-3.06 2.01.03 2.01 3.03 0 3.06zm6.38 9.53c-2.35-.06-2.35-3.51 0-3.57 2.36.06 2.36 3.51 0 3.57zm12.94 5.53c-2.13-.03-2.13-3.2 0-3.23 2.12.03 2.12 3.2 0 3.23zm6.21-4.08c-2.01-.04-2.01-3.03 0-3.07 2.02.04 2.02 3.03 0 3.07zm9.45-2.17c-1.4-.03-1.4-2.1 0-2.13 1.4.02 1.4 2.1 0 2.13zm5.1 7.19c-2.23-.04-2.23-3.37 0-3.4 2.24.03 2.24 3.36 0 3.4zm13.37-1.7c-1.12-.02-1.12-1.69 0-1.7 1.12.01 1.12 1.68 0 1.7zm6.3-4.77c-1.18-.02-1.18-1.77 0-1.79 1.17.02 1.17 1.77 0 1.8z" class="k"/><path id="path39" d="M214.76 995.8c8.66.4 14.39.48 14.39.48l-31.4-83.75s-28.1-.51-37.29 10.98c-14.3 16.5-50.44 57.8-9.13 64.45l35.18-53.98 28.25 61.81z" style="fill:#32262a"/><path id="path41" d="m186.5 933.98-35.17 53.98c18.46 5.03 46.53 7.04 63.43 7.83l-28.25-61.81z" class="at"/><path id="path43" d="M326.93 995.43c-12.07-.91-29.47-13.22-29.47-13.22-.68-5.1 2.04-22.47 2.04-22.47-2.8-4.12-7.75-14.84-9.04-17.68 4.3-3.57 14.26-4.24 19.77-8.96 3.74-3.32-.17-2.12-5.11-.76-22.54 9.82-67.93-12.32-84.26-20.17 9.84 9.11 40.68 26.8 43.75 27.15 3.06.34 6.98 4.25 3.23 5.27-3.74 1.03-6.98 9.45-6.98 9.45L255.9 948s6.04 20.67 11.26 28.9c1.99 3.44 5.62 7.22 5.96 11.6-16.41 12.38-34.27 17.1-55.15 13.29 0 0-25.02-77.96-26.72-78.64-6.03-1.36-51.35 65.54-53.45 69.1-4.28-.69-3.95-3.5-13.45-10.38-15.81-12.05-41.07-33.5-40.34-54.3.15-3.78 8.02-16.3 18.5-29.21 13.49 2.54 46.45.6 48.7-1.08 2.53-1.88 29.11-43.24 29.11-43.24l-4.56-6.98c-22.45 32.24-14.58 46.62-66.46 43.28 11.87-13.92 12.67-19.96 12.67-19.96.97-.2 1.6-1.53 2.56-1.32 29 6.24 11.49-18.02 8.41-16.35 5.48-12.54-2.76-31.95 14.65-35 86.86 58.36 217.58 55.04 288.54 9.48 11.98 22.53-1.11 35.16 10.95 43.06 6.47 5.28 6.13 13.6 6.13 13.6s28.6 27 33.02 42.7c0 0-10.22 34.5-57.88 54.38-.56-5.28-55.86-54.69-58.55-59.48 0 0-12.34 52.25-13.83 63.25-1.49 11-3.87 11.21-3.87 11.21s-9.39 1.95-25.17-.48z" class="ab"/><path id="path45" d="M192.89 846.21s-9.02 10.92-7.66 22.32 3.74 18.04 10.21 13.45c6.47-4.6 10.56-9.2 15.32-3.24s14.81 12.6 11.24 8c-3.58-4.6-8.68-13.06-8.68-13.06s18.2-7.7 17.87-12.8c-.34-5.12-38.3-14.67-38.3-14.67z" class="p"/><path id="path47" d="M212.8 904.45s-28.6-17.7-35.91-22.98c-7.32-5.28-8.46-3.78-10.8-5.05-.63-.33-8.84 13.22-8.84 13.22s12.15 4.6 24.07 8c11.91 3.4 18.89 7.83 20.42 5.95 1.53-1.87 12.63 1.83 11.06.86z" class="p"/><path id="path49" d="M151.33 897.64c2.52-1.88 29.1-43.24 29.1-43.24l-4.56-6.98c-23.01 31.62-14.7 46.26-66.57 42.92a295.34 295.34 0 0 0-6.78 8.02c13.48 2.54 46.55.95 48.8-.72z" style="fill:#ff859f"/><path id="path51" d="m151.1 884.04 8.6-10.33c-9.37-4.97-13.87 2.8-8.6 10.33z" class="p"/><path id="polygon53" d="m151.1 884.04 6.15 5.6 8.84-13.22-6.4-2.71z" style="fill:#c44768"/><path id="path55" d="m294.86 951.32 4.2 8.6-1.65 17.34c.41-.6 23.33-32.13 9.7-33.67-7.5-2.38-12.25 7.73-12.25 7.73z" class="p"/><path id="path57" d="M143.53 868.19c10.38-5.96 15.34-13.94 12.79-19.05-2.7-7.69-15.81.94-23.38 3.57-.94 2.5-1.99 4.62-3.37 5.1 0 0-1.19 7.87-5.04 11.25 4.85 2.22 11.49 3.44 19-.87z" class="p"/><path id="path59" d="M310.34 933.46c3.74-3.32-.28-2.48-5.22-1.12-22.53 9.82-67.82-11.96-84.15-19.81 9.84 9.11 40.69 26.8 43.75 27.15 3.06.34 6.58 3.99 2.84 5-3.75 1.03-6.7 9.36-6.7 9.36l-4.95-5.92c.27 2.48 9.52 29.52 16.49 36.94L269.32 971s9.53-28.09 10.04-31.66c0 0 8.34 2.38 10.9 2.38 0 0 .1.26.31.7 4.28-3.58 14.28-4.23 19.77-8.96z" class="p"/><path id="path61" d="m316.12 912.53 60.26-43.45c-12.2-14.08-9.15-16.44 9.62-15.76 0 0 24.23 15.87 19.44 17.73-4.8 1.86-4.8 1.25-4.3 6.4.52 5.17-12.76-1.73-16.46-2.75-3.7-1.02-13.15 9.7-22.34 17.36-9.2 7.66-46.22 20.47-46.22 20.47z" class="p"/><path id="path71" d="M327.04 868.87c-37.92 8.52-129.76-5.73-156.62-35.58 0 0-22.3-9.36-22.72-15.23 0 0-.01-17.34 7.46-27.25 15.21 7.44 59.84 41.4 102.07 47.43 74.52 5.41 139.46-8.3 173.96-44.88 7.14 44.73 31.73 46.13-104.15 75.51z" class="at"/><path id="path73" fill="#32272b" d="M244.91 835.75c-21.81-5.54-46.83-19.74-63.24-29.68-.82 8.89-1.62 22.99-.1 35.26 8.53 5.57 21.1 13.6 37.87 17.96 4.7-5.32 14.66-15.74 25.47-23.54z"/><path id="path75" d="M521.81 679.9c-4.54-31.84-25.99-105.81-66.5-117.39 0 0-9.11-21-16.88-29.17-3.93-4.14-3.88-13.01-2.87-20.77-23.36-48.68-53.86-118.51-58.62-132.72-14.44-39.97-32.62-123.38-50.72-166.92 14.82 65.35 15.74 125.47 30.91 184.58 6.39 21.45 33.45 57.96 40.92 80.82 7.46 22.86 13.72 66.5 20.5 82.96 3.53 8.6 6.05 22.4 7.65 33.63 9.88 19.75 54.82 119.9 29.23 147.27 34.23-35.35-6.33-116.07-13.79-140.34 5.13 9.85 33.14 42.94 52.86 40.25 12-.76 10.72-3.78 10.72-3.78-42.66 23.15-77.26-95.88-82.73-110.56 39.79 52.82 149.63 148.5 67.35 216.85 24.02-13.8 36.14-26.74 31.97-64.72z" class="aq"/><path id="path77" fill="#322a37" d="M398.05 478.33c-7.47-22.86-34.53-59.37-40.92-80.82-15.2-59.31-16.04-119.01-30.92-184.58-8.29-21.59-9.3-16.14-9.63-16.87 0 0-9.23 267.58 11.33 323.3 20.56 55.72 55.52 183.51 55.52 183.51.35-.1 11.3-50.84 13.51-44.8 1.4-7.04 2.52-13.7 2.83-18.27 1.02-14.8 2.66-22.2 4.01-16.33 1.14 4.94 1.21 39.27.24 59.01 9.85-19.6 11.18-62.86 10.82-64 5.78 7.23 12.59 51.81 9.47 72.95a9 9 0 0 0 4.02 3.25c4.26-25.38-2.13-68.68-4.81-81.33-3.08-14.5-2.8-25.17 2.68-18.43-1.6-11.23-4.12-25.03-7.65-33.63-6.78-16.46-13.04-60.1-20.5-82.96z"/><path id="path79" d="M345.65 288.34c14 52.06 21.3 106 39.35 156.86 13.81 40.44 30.7 80.15 40.22 121.92 11.93 45.48 38.33 87.25 41.2 135.08-4.83-45.33-29.52-84.82-42.89-127.65-12.5-52.61-34.75-102.2-50.47-153.86-10.52-43.74-18.24-88.24-27.41-132.35Z" class="bd"/><path id="path89" d="M313.91 707.04 295.53 756s2.39 3.03 6.51 8.13l17.27-48.17z" class="ac"/><path id="path91" d="m420.73 877.46-101.42-161.5-17.27 48.17c20.55 25.36 88.57 102.63 118.7 113.33z" class="x"/><path id="path93" d="M378.42 619.38s.47 22.94 8 37.95c-.65-3.95 3-54.54 2.9-55.48 0 0 9.87-6.96 13.31-32.66-13.06 30.63-32.71 4.97-40.3-2.91-3.56 16.3-13.51 41.66-43.24 38.8-.76 22.8-2.59 49.69-4.2 70.51 26.39-6.05 55.43-44.14 63.53-56.2z" class="as"/><path id="path95" d="M432.55 780.23c-8.89-7.96-43.23-69.46-46.3-75.91 1.82-4.2 2.58-39.77.16-47-7.52-15-7.99-37.94-7.99-37.94-8.25 12.21-37 50.03-63.52 56.21-1.53 19.84-2.86 34.17-2.86 34.17 6.74 8.63 17.2 13.14 12.25 29.28 8.97 28.56 66.17 107.68 87.83 131.07 10.22 10.2 8.52 6.8 8.52 6.8-4.8-4.86 14.23-96.58 11.91-96.68z" class="ab"/><path id="path97" d="M377.4 693.42s-14.3 27.58-30.64 33.7c-16.34 6.13-21.52 8.94-17.61 19.41 3.9 10.47 26.8-7.4 37.02-20.94 10.21-13.53 11.23-32.17 11.23-32.17z" class="as"/><path id="path99" d="M359.86 508.07c7.68-33.85 11.75-38.21 11.9-39.91.25.82 5.23 12.5 14.92 22-5.73-18.04-8.6-62.95-8.6-62.95l-56.85 92.26s-4.4 12.14-3.05 39.65c12.08-7.34 35.61-24.34 41.68-51.05z" class="as"/><path id="path101" d="M386.68 490.15c-9.47-9.5-14.08-19.69-14.91-22-16.73 32.12-5.84 61.54-53.6 90.97a347.8 347.8 0 0 1 .92 45.96c29.75 2.88 39.7-22.6 43.25-38.8 7.65 7.93 27.2 33.53 40.3 2.9 5.45-38.22-7.81-58.07-15.96-79.03z" class="ab"/><path id="path103" d="M62.56 638.95c-4.93 25.06-5.99 39.86-5.87 38.48 1.63-18.46 23.75-78.41 27.2-80.42-9.65 26.86-19.02 110.7-6.3 151.45-1.72-13.52-.4-30.47-.4-38.37 0-12.08 1.7-12.42 2.56-1.7.84 16.17 5.67 39.9 18.52 56.38.65.79 2.69.68 4.46.73-.97-.68.3-1.52-2.25-3.18-10.57-7.44-10.62-34.53-7.22-57.53 2.2-14.84 5.38-37.5 8.95-67.72-.85-10.89 16-26.55 19.75-16.17 2.98 22.26 3.05 49.2 6.64 73.69.54-6.68 2.25-15.1 1.53-22.28 0 0 1.36 13.44 1.36 18.72 0 5.26-1.8 15.33 4.77 26.02-.37-2.49-.36-5.78-.2-10.19.37-10.9.76-15.9.76-15.9-.88.73 6.42 22.1 11.34 27.02-.88-13.1.18-25.08.18-25.08s10.73 28.43 25.02 34.22c14.3 5.78 14.13 1.87 14.13 1.87-31.37-4.91-34.09-68.5-32.34-86.64 2.5 18.56 24.53 45.46 32.2 70.28-1.98-31.38-41.97-72.06-32.87-101.7.85 30.7 15.11 47.62 33.23 65.69 0 0-14.46-29.06-14.85-34.67 19.77 14.47 36.08 71.42 35.4 101.84 25.43 12.99 81.89 38.1 91.65 10.56 14.64-175.22 51.2-374.24 2.3-541.28 0 0-181.02 9.37-185.87-7.74-4.85-17.1-32.68-48.51-48-12.77-12.15 35.7-3.3 81.52 10.73 131.05 21.8 60.93 29.02 96.63 29.02 101.57 0 4.93-3.93-.92-3.93 6.91 14.03 137.92-34.18 99.25-45.56 211" class="am"/><path id="path105" d="M72.99 662.74c2.21-35.4 11.23-64.85 11.23-64.85-4.58 2.55-26.22 60.32-27.54 79.75 1 28.28 12.15 93.46 38.6 106.8-25.36-24.92-23.64-83.66-22.3-121.7Z" class="av"/><path id="path107" d="M99.54 548.53c14.86-25.51 6-93.69 5.45-115.23 0-7.83 3.22-2.71 3.22-7.65s-7.3-40.52-29.1-101.46c-14.65-41-16.98-88.76-16.94-115.64-15.96 83.94 28.08 133.4 35.75 234.2C95.61 605.7 1.44 615.44 18.5 755.43c1.97 16.24 17.75 40.02 30.32 37.86 8.43-1.45-11.75-6.47-11.75-6.47 7.96-1.3 35.67 1 31.66-19.24-11.63 28.85-42.07 12.76-46.98-21.96-5.97-33.94 18.4-78.41 36.85-102.54 5.23-31.34 26.82-63.61 40.94-94.56z" class="aq"/><path id="path109" d="M121.16 776.45c17.87-.18 21.95-16.35 21.95-16.35-9.54 12.32-34.74 3.52-48.91-1.2.48.62 3.27 5.54 4.22 6.55 2.09 2.25 10.17 11.11 22.74 11z" class="av"/><path id="path111" d="M187.95 661.8c-8.68-17.5-15.09-19.85-15.09-19.85.39 5.61 14.85 34.67 14.85 34.67-18.4-18.32-32.32-35.47-33.17-65.89-7.22 20.81 10.66 49.81 22.76 73.03 7.53 13.76 12.21 41.33 12.11 49.28 6.89 5.66 18.9-3.17 18.04 11.23 1.5-25.18-8.14-64.4-19.5-82.47z" class="ap"/><path id="path113" d="M136.84 690.12c-.08-1.58-1.9 22.63-.58 26.93 6.2 10.02 8.34 17.48 3.38 15.42a67.61 67.61 0 0 0 3.68 13.28 89.15 89.15 0 0 0 15.16 7.88c-4.93-2.75-9.75-21.69-10.32-35.65-4.92-4.95-12.3-27.12-11.32-27.86z" class="ap"/><path id="path115" d="M128.28 706.09c1.65-14.39-1.63-30.49-2.61-43.66-.75-10.2.2-17.13-2.53-25.25-.39 25.19-3.52 47.02 5.14 68.91z" class="ap"/><path id="path117" d="M138.69 732.02c-6.96-3.41-10.32-15.92-10.41-25.93-2.07-7.2-3.64-16.96-5.48-24.19 1.72 20.14 4.32 55 20.53 63.85a67.92 67.92 0 0 1-3.7-13.28c-.28-.12-.6-.27-.94-.45z" class="am"/><path id="path119" d="M98 403.68c-.15-.49 3.15 39.37 1.03 59.74-2.12 20.38-4.58 36.65-4.58 36.65 7.84-17.24 12.1-73 3.56-96.4z" class="bd"/><path id="path121" d="M38.43 653.72c.17.68 4.04-20.64 14.3-23.83C63 626.71 73 578.15 79.8 562.66c6.8-15.5 1.84-16.7 1.84-16.7-1.35 2.27-48.86 107.57-43.2 107.76z" class="j"/><path id="path123" d="M61.1 714.14c-.4-7.93 2.37-78.89 11.57-86.8 2.63-.65.63 6.3-1.76 16s-7.97 43.72-5.1 70.47c2.86 26.75 3.5 31.92 3.5 31.92-4.6-12.66-5.31-17.44-8.2-31.59z" class="bd"/><path id="path125" d="M163.13 663.75c5.76 2.59 34.28 57.58 35.64 56.7l-3.57 3.06c-3.29-13.98-25.29-44.3-32.03-59.74l-.04-.02z" class="bd"/><path id="path127" d="M224.13 460.02c.34-23.32-1.2-30.3.51-32.51 4.32-2.15 3.69-15.2 3.4-16.85 34.33 20.58 49.93-11.23 65.81-44.85l-2.49-23.75-78.98 45.1c5.56 5.07 22.99 23.25 8.17 34.4-4.25 3.74-11.4 1.18-11.4 1.18.35 3.77-2.06 62.25 19.8 73.64a132.38 132.38 0 0 1-4.82-36.36z" class="n"/><path id="path129" d="M312.98 396.02s-9.26-1.76-16.03-6.35c-1.48 8.12 1.44 20.41 9.4 15.71 7.13-3.1 5.81 70.95 7.44 79.11 16.49-21.61.39-87.21-.81-88.47z" class="n"/><path id="path131" d="M110.31 290.22c11.46 37.44 32.37 65.18 65.22 93.74 10 6.72 18.3 8.8 32.05 8.4 60.58.05 60.14-5.67 91.66-55.6 7.99-13.25 5.42-35.79 4.53-50.58-2.95-22.2-7.33-34.59-20-53.42-8.16-15.49-12.6-19.3-12.6-19.3a221.66 221.66 0 0 1-26.36-20.3c-2.1-1.9-52-29.76-53.99-31.79" class="ah"/><path id="path133" d="M306.34 405.38c-8.81 4.26-9.64-7.3-9.4-15.71a25.82 25.82 0 0 1-.64-.46l-2.45-23.4c-15.91 33.71-31.53 65.4-65.8 44.85.3 1.75.67 14.73-3.6 16.85-2.27 2.2-.9 60.88 3.57 68.25 18.7 15.48 52.79 32 52.79 32s21.47-20.85 32.98-43.27c-1.6-7.92-.34-82.37-7.45-79.1z" class="ah"/><path id="path135" d="M265.3 464.7c-11.92-7.87 8.1-25.45 10.36-17.91 0 4.38-2.68 1.44-2.17 6.68 2 11.3-3.59 7.33-8.18 11.23z" class="n"/><path id="path137" d="M155.36 264.62c1.23-2.5 15.22-42.61 14.3-42.56 0 0-.68 14.81 8.17-5.79s13.1-54.3 13.1-54.3c22.47 17.78 45.52 40.87 48.86 73.7 4.93-4.93-1.02-34.2-1.02-34.2 8.85 10.04 12.25 28.25 12.25 28.25s1.02-2.55-1.02-14.13c-2.04-11.57-11.23-27.74-11.23-27.74 13.95 14.3 32.5 26.21 32.5 26.21 26.87 42.61 25.6 57.08 32.34 110.67a113.9 113.9 0 0 0 1.71-18.41c31.89-.95 11.6-61.81-2.72-65.53 0 0 7.83-24.86-15.66-41.2-23.5-16.34-44.26-48.34-56.17-65.36-70.42-69.85-156.34 91.22-137.2 150.47 11.24 37.79 34.9 61.1 34.9 61.1-15.96 8.53-7.5 39.5 19.06 40.18 19.24 1.19 21.11-6.3 21.11-6.3s2.79 1.67 6.9 4.28c-32.77-30.28-55.53-61.9-65.05-93.27 2.39-2.89 6.06-12.29 6.06-12.29 1.03 1.02 31.79 10.73 33.03-.34" class="n"/><path id="path139" d="M273.36 292.08c-2.56-1.05 1.45-6.83 1.2-8.1 3.88-12.95 4.02.65 4.59 3.9 5.1-2.4-2.13 9.99-2.5-3.91-1.07 1.83-.9 6.35-3.29 8.11z" class="o"/><path id="path141" d="M285.71 289c-1.43-.22-1.49-1.03-1.22-5.65a1 1 0 0 1 1.07-.92c1.79.24.45 4.2.82 4.42 1.28.6.3 2.2-.67 2.15zm.74-1.55z" class="o"/><path id="path143" d="M291.49 286.71a1 1 0 0 1-1-1c.37-.9-.96-8.1 1-7.88a1 1 0 0 1 1 1c-.37.9.96 8.1-1 7.88z" class="o"/><path id="path145" d="M153.31 355.83c-1.28-.14-1.52-.04-1.59-12.66a1 1 0 0 1 1-1c2.25 1.19.48 5.92 1.1 7.94 2.35-7.13 7.06-17.17 7.42-4.27 2.22 1.6-2.64 5.31-2.23-3.01-2.38 3.46-3.27 11.07-5.7 13zm.82-1.47z" class="o"/><path id="path147" d="M164.58 347.45c-1.65.06-2.15-4.04-2.48-5.39-3.64.41 1.53-8.17 2.5 2.04 2.68-2.31 1.95 3.31-.02 3.35z" class="o"/><path id="path149" d="M265.45 686.31c-10.75-5.72-32.42-44.2-30.54-42.63l-13.53.77-13.25 14.75a390.4 390.4 0 0 0 5.33 11.54c1.54 2.81-8.93 2.81-7.91 7.92 1.02 5.1 4.08 17.36 4.08 17.36-7.49 3.23-17.33 15.9-16.08 24.92 0 0-20.17 16.44-22.21 19.5-6.16-1.42 2.78 126.94 1.78 126.9 19.16-14.12 63.23-63.58 67.15-74.8 5.68-13.32 13.53-17.38 10.98-14.3 18.27-22.06.51-43.75 9.19-61.03 4.73-6.1 6.85-15.25 5-30.9z" class="ab"/><path id="path151" d="M52.19 417.3c.23.71-13.95-28.28 0-20.71 2.21 1.64 0 20.7 0 20.7z" class="ay"/><path id="path153" d="M234.65 506.16c31.39-67.2 33.93-50.72 85.36-15.31-17.8 54.2-48 71.14-85.36 15.31z" class="ab"/><path id="path155" d="M296.78 480.07c-32.65-27.85-29.72-18.84-46.88 7.17a4271.26 4271.26 0 0 0 2.35 6.29c18.37-33.26 16.03-31.63 47.8-3.67.33-2.06.61-4.1.83-6.07a292.5 292.5 0 0 0-4.1-3.72z" class="az"/><path id="path157" d="M292.36 522.24s8.83-11.98 14.16-26.14a395.22 395.22 0 0 0-6.47-6.24c-2.5 15.57-7.7 32.38-7.7 32.38z" class="aj"/><path id="path159" d="M310 483.4a498.6 498.6 0 0 0-8.66-6.12 76.59 76.59 0 0 1-.46 6.51c2.7 2.5 5.23 4.91 7.42 7.05a56.86 56.86 0 0 0 1.7-7.43z" class="aj"/><path id="path161" d="M300.88 483.8c-.22 1.97-.5 4-.83 6.06a395.24 395.24 0 0 1 6.47 6.24 76.14 76.14 0 0 0 1.78-5.26 374.87 374.87 0 0 0-7.42-7.05z" class="q"/><path id="path163" d="M247.69 481.3c-2.32 4-4.5 8.03-6.41 11.66.82 1.76 1.78 3.6 2.82 5.47 1.7-3.45 3.68-7.31 5.8-11.19a4232.33 4232.33 0 0 1-2.21-5.94z" class="aj"/><path id="path165" d="M267.58 532.75c-2.06-4.09-9.73-24.28-15.33-39.22-1.77 3.35-3.5 6.77-5.12 10.1 7.8 12.76 18.1 25.9 20.45 29.12z" class="aj"/><path id="path167" d="M244.1 498.43c.94 1.7 1.96 3.45 3.03 5.2a330 330 0 0 1 5.12-10.1 4160.15 4160.15 0 0 1-2.35-6.29c-2.12 3.88-4.1 7.74-5.8 11.19z" class="q"/><path id="path169" d="M269.36 497.28c-1.98 0-4.1-3.3-5.55-6.08-1.18-2.84 2.35-4.92 5.83-6.56-.62-10.17-1.97-16.5 5.61-1.98 6.28-2.49 9.58.43 1.16 1.76 1.28 2.42 6.46 6.93 6.25 6.02.3-.4.65-1.62 1.55-1.25a1 1 0 0 1 .68 1.23c-2.06 5.63-8.02-1.76-10.5-5.41-.97.3-1.86.61-2.68.93 0 4.8.87 11.22-2.35 11.34zm.38-10.48c-2.39 1.25-4.03 2.13-4.16 3.48 1.6 3.07 3.15 4.82 3.72 4.99.64-1.13.54-4.28.44-8.47zm1.63-6.8c.09 1.2.17 2.5.24 3.84a42.67 42.67 0 0 1 1.66-.58 74.39 74.39 0 0 1-1.9-3.25z" class="az"/><path id="path171" d="M280.27 486.88c-2.22-.35.16-3.1-.06-4.3-.1-.15-.52-.28-1.9-.28-1.3-.02-1.31-1.98 0-2 1.27 0 3.9 0 3.9 2.27-.35 2.01-.57 4.05-1.94 4.3z" class="az"/><path id="path173" d="M172.67 462.72c-.9-9.35-2.48-15.77-5.08-16.32-26.3-3.61-40.62 63.17-47.6 83.01.72-.25 1.5-.35 2.07.01.35-1.2 3.57-4.01 3.96-.63 0 0 1.27-1.8 2.68 0 3.02-1.48 3 4.04 2.68 4.72 1.98.38 7.5-6.14 9.83-1.15.76 1.44 4.57-1.39 6.55 2.64 3.02-.78 3.53 5.31 3.32 6.3 0 0 1.87-.6 1.53 1.53 4.9 3.95-6.37 7.44 2.29 7.2 8.7-31.49 6.25-57.86 17.77-87.3z" class="ah"/><path id="path175" d="M163.26 500.7c-1.4 13.4-4.21 33-8.36 49.33 4.64-.78 7.16-.87 6.99 3.78 0 0 2.21-.34 1.02 3.57-1.2 3.92-2.13 5.45-2.13 5.45l.84 7.9c5.5-12.27 10.23-23.22 10.23-23.22s3.57-56.16.82-84.79c-4 11.73-8.24 26.87-9.4 37.98z" class="n"/><path id="path177" d="M161.89 553.8c.8-7.35-8.07-2.22-10.38-4.25-.04-2.02 4.66-3.24 1.1-6.72.34-2.13-1.53-1.53-1.53-1.53.2-1.03-.3-7.07-3.32-6.3-2-4.03-5.78-1.2-6.55-2.64-2.32-5-7.88 1.54-9.83 1.15.32-.7.33-6.2-2.68-4.72-1.4-1.8-2.68 0-2.68 0-.39-3.39-3.61-.55-3.96.63-.57-.36-1.35-.26-2.07-.01-1.36 4.34-2.35 7.6-3.58 11.06 24.35-11.16 36 12.36 38.13 45.74 2.3-4.92 4.76-10.31 7.08-15.47l-.84-7.91s.94-1.53 2.13-5.45c1.2-3.91-1.02-3.57-1.02-3.57zm-40.34-21.73c-.71 0-.71-1.08 0-1.08.7 0 .7 1.08 0 1.08zm6.5 1.06c-1.25-.03-1.25-1.9 0-1.92 1.27.02 1.27 1.9 0 1.92zm9.84 2.42c-1.18-.02-1.18-1.77 0-1.79 1.17.02 1.17 1.77 0 1.8zm4.4.7c-1.42-.02-1.42-2.14 0-2.17 1.43.03 1.43 2.15 0 2.17zm4.04 3.7c-1.33-.03-1.33-2 0-2.02 1.32.02 1.32 2 0 2.01zm2.41 5.27c-1.3-.02-1.3-1.96 0-1.98 1.3.02 1.3 1.96 0 1.98zm7.21 9.03c-1.34-.02-1.34-2.02 0-2.04 1.35.02 1.34 2.02 0 2.04zm3 14.11c-1 0-1-1.53 0-1.53s1 1.53 0 1.53zm.58-6.83c-1.43-.02-1.43-2.15 0-2.17 1.42.02 1.42 2.15 0 2.17zm0-5.8c-1.6-.04-1.6-2.4 0-2.43 1.6.02 1.6 2.4 0 2.42z" class="k"/><path id="path179" d="M114.94 576.37c6.9 1.79 13.49 14.63 13.49 14.63 9.86-7.46 18.35-14.44 21.74-30.71-4.53-19.35-20.36-27.37-33.76-19.82-4.2 11.31-12.54 21.37-13.57 22.58 2.25 4.93 6.97 12 12.1 13.32z" class="ab"/><path id="path181" d="M99.68 540.53c-1.5.24-3.23.34-5.1.37a38.53 38.53 0 0 1 1.3 5.07c2.75-2.77 3.8-5.44 3.8-5.44z" class="ab"/><path id="path183" d="M70.87 600.4s-12.26-22.6-19.4-30.25c-3.46-3.7-4.88-9.64-5.44-14.8a199.92 199.92 0 0 0-5.93 4.75c-2.78 3.3 12.76 19.03 12.94 19.07 2.35 5.1 11.89 52.49 29.24 56.05-7.93-11.67-15.5-24.79-11.41-34.82z" class="ab"/><path id="path185" d="M150.17 560.29c-3.45 16.4-11.87 23.2-21.74 30.7-6.73-18.16-18.4-12.83-25.59-27.94l-.1.12-10.21-14.47a19.88 19.88 0 0 0 3.36-2.73 38.54 38.54 0 0 0-1.3-5.07c-24.79-.62-28.18-1.16-48.56 14.46.56 5.15 1.98 11.09 5.43 14.79 7.15 7.66 19.4 30.25 19.4 30.25-4.09 10.02 3.49 23.16 11.42 34.82 14.91 6.67 25.43 10 39.7 4.89 6.32-4.58 25.15-37.35 32.56-53.9-.58-9.81-2.09-18.61-4.37-25.92z" class="as"/><path id="path187" d="M52.25 563.17c-.03-1.54-2.31-1.54-2.34 0 .03 1.54 2.31 1.54 2.34 0z" class="k"/><path id="path189" d="M40.36 563.17s-14.3-7.4-16.09-13.1c-1.79-5.71-3.06-10.43-5.49-14.52-4.97-7.75 3.65-19.02 9.45-20.68 0 0-1.79-14.17 3.32-19.91 5.1-5.75 13.15-4.98 15.96-10.47 2.65-7.56 8.44-22 17.23-17.1 0 0 .26-4.22 1.79-5.63 1.53-1.4-.64-17.87-.64-17.87-1.82-4.85-18.37-30.71-16.85-40.47 1.94-24.2 30.58 24.05 31.66 32.05 7.89 24.3 1.7 24.47 8.17 47.74 7.92 13.51 15.97 17.32 34.72 17.1 7.66-1.01 10.85-7.27 18.7-4.2 7.85 3.06 1.85 18.08-4.4 20.08-6.26 2-18.13.08-22.85 4.43-14.8 9.1-8.2 16.42-17.9 19.32-5.88.83-20.14-1.32-21.04.59-.9 1.92-.5 6.51-6.13 11.68-5.61 5.17-9.95 4.46-10.6-2.14h-2.42s-.76 2.82-2.42 6.6c-1.99 5.09-15.61-.5-14.17 6.5z" class="n"/><path id="path191" d="M106.07 528.22c-.78-.54-.78 5.25-3.93 4.4-3.14-.86-5.36-3.8-6.12-1.09-.77 2.7-5.8 4.57-7.24 3.25-1.44-1.31-2.04-2.93-3.49-1.02-1.44 1.92-3.91-.72-4.25.9-.04 4.31-5.44-.86-5.1 6.3 0 0 21.98.96 24.35 0 2.36-.94 6.55-12.2 5.78-12.74zm-18.35 8.51c-.63 0-.63-.95 0-.96.62 0 .62.96 0 .96zm5.17 0c-1.26-.02-1.26-1.9 0-1.91 1.26.02 1.26 1.9 0 1.91zm4.01 1.01c-1.43.2-1.76-1.93-.33-2.18 1.43-.2 1.76 1.94.33 2.18z" class="k"/><path id="path193" d="M47.76 559.18c-5.72 2.73-8.72 1.91-10.47-4.48-1.72-1.47-2.12 3.7-5.1 2.49-2.99-1.21-4.6-.32-3.13 1.28 1.47 1.6-2.8.8.45 3.53s11.56 5.27 12.13 3.74c2.3-2.62 7-1.56 6.12-6.56zM33.6 562c-1.47-.5-.92-2.92.73-2.36 1.56.53.74 2.85-.73 2.36zm3.51-2.96c-1.21-.2-1.02-1.91.32-2.04 0 0 .9 2.23-.32 2.04z" class="k"/><path id="path195" d="M59.38 400.74c-8.04-6.76-9.96-4.85-10.34 2.68-1.48 9.82 14.95 35.5 16.85 40.47 0 0 2.17 16.47.64 17.87-1.53 1.4-1.79 5.62-1.79 5.62-8.85-4.85-14.54 9.52-17.23 17.1-2.81 5.5-10.86 4.73-15.96 10.48-5.1 5.74-3.32 19.91-3.32 19.91-5.83 1.67-14.41 12.97-9.45 20.68 3.68 4.97 3.32 13.37 8.4 18.62.88-1.7 2.14-3.65 3.9-5.47 4.6-4.76 3.57-.85 7.83 3.51s2.04 1.6 7.12-3.51c5.08-5.1 12.45-.17 12.16-1.86-.3-1.7-19.96-23.67-23.03-26.22-3.07-2.56-1.36-5.11 2.85-3.07 4.21 2.04 24.56 20.43 26.43 21.38 1.87.96 2.73-1.12 3.92-7.4s5.44-.7 9.94-3.35c4.5-2.65 5.33-22.37 5.33-22.37 3.93 4.93 13.13 5.82 10.22-6.13-1.07-4.26-18.34-17.2-21.24-22.81-2.9-5.62.17-14.13.17-19.74 0-5.62-2.38-4.77-5.44-10.96-3.07-6.2-.69-13.21-4.09-20.36-2.24-4.72-.34-13.13 3.55-16.66-2.47-3.43-5-6.38-7.42-8.4z" class="ah"/><path id="path197" d="M142.3 496.1c-9.62-3.23-16.14 7.24-26.4 4.12 2.01 5.3 2.58 8.08 6.2 6.95 8.48-4.64 16.35 2.38 10.85 9.89 9.44 1.48 18.45-16.3 9.34-20.96z" class="ah"/><path id="path199" d="M68.53 511.42s-4.15-20.42-9.48-22.3c-14.66-2.18 8.64 23.42 9.48 22.3z" class="n"/><path id="path201" d="M196.87 618.48c8.74-14.76 32.9-17.22 56.86-13.76-4.3-17.02-11.87-30.88-14.88-42.67-11.48-6.35-26.3-18.94-33.14-28.57-22.97-8.97-39.95-47.6-39.95-47.6s2.32 56.12 4.59 65.09c-5.55 13.98-4.1 41.93 12.34 64.44 4.58-.03 9.48.75 14.18 3.07z" class="ab"/><path id="path203" d="M165.84 487.88c.44 10.06 2.5 55.13 4.5 63.09 0 0-.9 1.97-1.67 5.6 9.18-11.44 3.47-51.71-2.83-68.7z" class="p"/><path id="path205" d="M225.72 553.3a172.55 172.55 0 0 0 13.13 8.75c-1.96-7.27-2.5-15.38-2.6-22.9-11.3-1.43-21.08-2.62-30.54-5.67 4.77 6.09 11.57 13.61 20 19.82z" class="p"/><path id="path207" d="M234.91 643.68c-1.86-1.54 19.78 36.89 30.54 42.63-1.67-18.47-6.72-61.15-11.72-81.59-24.06-3.47-48.14-.96-56.86 13.76-4.7-2.32-9.6-3.1-14.18-3.07 17.78 22.36 11.93 14.05 25.44 43.8l13.25-14.76z" class="as"/><path id="path209" d="M253.73 708.7c-5.29-6.04-16.52-10.38-24.44-18.8-7.91-8.43-7.66-9.97-10.46-7.41-8.98 13.06 31.36 27.04 34.9 26.2z" class="as"/><path id="path211" d="M227.5 715.68s8.18 21.7 16.35 30.9c8.17 9.18 13.88 12.87 14.11 8.63.24-4.24 2.48-19.62-6.45-24.98-8.94-5.36-24-14.55-24-14.55z" class="as"/><path id="path213" d="M208.36 700.62c2.15.82 10 86.99 29.61 82.21 7.39-1.13 4.97-9.45 4.97-9.45s.2-8.33-7.23-16.42c-9.1-8.3-17.23-60.2-27.35-56.34z" class="as"/><path id="path215" d="M273.97 755.5c-2.05-9.15-11.32-18.68-17.1-21.33-.56 7.98 2.3 14.64.88 22.7 7.58 3.38 18.05 6.75 16.22-1.36z" class="ac"/><path id="path217" fill="#ff869f" d="m286.23 599 15.57-14.97c10.5 19.5 13.25 12.56 29.9-1.44 0-42.2-4.26-81.38-4.26-81.38-24.13 33.66-36.28 43.59-91.19 37.94-.57 22.07 7.09 34.1 15.2 57.67l16.46-7.01z"/><path id="path219" d="M294.65 706.1c-14.55 3.96-9.7-3.44-9.7-3.44 13.79-2.56 21.45-20.43 21.1-22.73.24-4.62-34.25 6.22-41.66-1.76 5.96 39.5-6.08 29.32-7.52 56 10.28 5.43 32.4 36.67.88 22.7-1.55 10.22-6.5 21.36-6.5 21.36-3.1-2.5-5.31 1.01-10.98 14.3-3.76 11.2-48.08 60.5-66.96 74.8 40.5-5.27 92.5-56.68 124.62-108.32 20.68-33.25 32.68-66.18 29.51-88.34-9.92 14.5-24.06 33.06-32.79 35.43z" class="x"/><path id="path221" d="M314.57 596.17c-4.85 3.04-12.77-12.14-12.77-12.14L286.23 599l-18.32-9.2-16.47 7.02c6.03 18.02 10.28 56.37 12.95 81.35 7.4 7.98 41.92-2.87 41.65 1.77.36 2.3-7.3 20.16-21.09 22.72 0 0-4.85 7.4 9.7 3.44 42.94-25.14 36.71-64.33 37.04-123.5-5.25 5.26-14.92 12.19-17.12 13.57z" class="ac"/><path id="path223" d="M277.55 644.33c0 6.2-3.85 11.21-8.6 11.21-11.39-.57-11.38-21.87 0-22.43 4.75 0 8.6 5.02 8.6 11.21z" class="c"/><path id="path225" d="M326.7 638.32c0 6.55-3.95 11.87-8.81 11.87-11.68-.6-11.68-23.15 0-23.74 4.86 0 8.8 5.31 8.8 11.87z" class="z"/><path id="path227" d="M269.55 646.32c-2.21-2.3-2.38-1.14-1.02-3.93s.44-7.2-1.62-7.56c-6.16-.79-7.6 16.86.68 13.79a3.55 3.55 0 0 0 1.96-2.3z" class="z"/><path id="path229" d="M271.68 634.4c-1.54-.25-2.64.26-.6 1.96s-.51 1.2 2.38 3.15c2.9 1.96 2.47.42 1.28-1.7a11.22 11.22 0 0 0-3.06-3.4z" class="z"/><path id="path231" d="M296.15 387.75c.2 1.66 4.38-1.77 7.95.44 2.12 1.3 4.59 3.7 7.2 10.94 4.71.06 10.65-1.1 13.86-6.5-2.18-1.86-5.65-4.2-9.21-4.1-5.85.17-19.16-6.36-20.35-6.02" class="au"/><path id="path233" d="M272.8 640.41c.12 1.58-.95 2.74-.36 4.41.6 1.67 2.47-.71 2.81-2.93.34-2.23-2.52-2.66-2.44-1.48z" class="h"/><path id="path235" d="M269.55 636.45c-.87-.17-1.2 2.46 0 2.2 1.19-.25 1.04-2 0-2.2z" class="h"/><path id="path237" d="M272.26 646.57c-2.87.23-3.99 4.77-1.26 4.26 2.72-.51 3.38-4.43 1.26-4.26z" class="v"/><path id="path239" fill="#552e37" d="M267.85 647.68c-6.15 2.1-.36 5.93 3.15 2.51-2.8.56-1.4-2.7-3.15-2.51z"/><path id="path241" d="M309.62 588.21a286.03 286.03 0 0 1-8.23-8.65c2.52 19.06 6.29 42.4 11.85 57.5l1.94-5.76 7.09 4a4791.3 4791.3 0 0 0-12.65-47.09z" class="u"/><path id="path243" d="M297.3 550.79s1.91 13.75 4.1 28.77a273.9 273.9 0 0 0 8.22 8.65c-6.9-25.11-10.44-36.57-10.44-36.57z" class="y"/><path id="path245" d="m297.3 550.79 1.88.85s3.54 11.46 10.44 36.57c5.94 5.91 9.2 8.85 15.18 9.7a8200.99 8200.99 0 0 0-26.13-51.55l-5.45 1.87s.48 10.42 1.3 23.66a485.3 485.3 0 0 0 6.87 7.67c-2.18-15.02-4.09-28.77-4.09-28.77z" class="bb"/><path id="path247" d="M301.4 579.56a485.8 485.8 0 0 1-6.88-7.67c2.04 32.2 3.22 57.54 14.7 77.1l4.02-11.94c-5.57-15.12-9.32-38.4-11.85-57.49z" class="e"/><path id="path249" d="M333.73 615.98c-2.16-4.48-5.35-10.91-8.93-18.07-5.99-.85-9.24-3.79-15.18-9.7 4.98 18.07 10.15 37.6 12.65 47.09l18.27 10.3s2.04-11.24-6.81-29.62z" class="e"/><path id="path251" d="M359.14 557.98c-13.44-12.46-44.32-16.85-61.07-16.5 13.46 3.73 49.26 16.84 61.07 16.5z" class="d"/><path id="path253" d="M359.14 557.98c-15.6.4-54.64-19.83-71.2-16.56l.77 2.12c1.9.4 4.12.99 6.52 1.73 6.5-1.86 39.92 4.12 27.05 13.72 8.54 6.82 25.15 19.14 33.62 25.38 9.42-15.91 16.35-14.7 3.24-26.39z" class="at"/><path id="path255" d="M306.25 554.64c-5.85-3.85-10.16-7.82-16.6-8.51 7.38 8.12 44.2 54.54 52.08 56.57.86-.61 4.4-5.07 8.55-10.63-11.06-7.5-33.28-27.67-44.03-37.43z" class="at"/><path id="path257" d="M293.9 546.13c.13-.38.6-.66 1.33-.86a72.82 72.82 0 0 0-6.52-1.73l.94 2.59 6.46 1.57a397.3 397.3 0 0 1-2.21-1.57z" class="bb"/><path id="path259" d="M311.83 557.98a53.14 53.14 0 0 1-5.58-3.34c10.75 9.77 32.96 29.92 44.03 37.43a455.24 455.24 0 0 0 5.62-7.7c-8.47-6.24-25.08-18.56-33.62-25.38-3.13 1.2-7.98.11-10.45-1z" class="u"/><path id="path261" d="M322.28 559c12.86-9.6-20.54-15.6-27.05-13.73 9.07 2.84 19.96 7.63 27.05 13.72z" class="bb"/><path id="path263" d="M294.74 547.3c.33 1.93 7.97 5.03 11.5 7.34-4-3.7-6.43-6.04-6.43-6.04l-5.07-1.3z" class="at"/><path id="path265" d="m293.9 546.13 2.2 1.57 3.7.9c3.04 4.24 15.02 13.83 22.48 10.4-7.08-6.1-17.98-10.9-27.05-13.73-.72.2-1.2.48-1.33.86z" class="y"/><path id="path267" d="M310.22 640.87c4.48 9.12 14.46 4.7 13.03-6.9-.08-4.08 2.38-1.94 2.98 3.59-.01 15.44-13.9 14.94-16 3.31z" class="c"/><path id="path269" d="M316.78 646.57c.77.85 4.43.5 5.53-1.75 2.08-2.64-.06 6.5-5.53 1.75z" class="v"/><path id="path271" d="M320.44 640.75c-2.34-1.95-4.93-.65-2.55 1.64s5.34 2.91 5.18.19c-.16-2.73-1.8-1.14-2.63-1.83z" class="h"/><path id="path273" d="m278.83 554.32-18.47 117.95-24.65-27.9-10.37 13.73s12-42.12 12.5-45.83c.52-3.7 18.26-35.97 26.18-50.22 7.91-14.24 14.8-7.73 14.8-7.73z" class="at"/><path id="path275" d="M271.47 564.38s-20.13 62.15-18.43 69.96c4.32 15.04 11.7-10.41 12.82-10.75l1.02 7.07 11.95-76.34-7.36 10.06z" class="bb"/><path id="path277" d="M233.46 642.58c3.88-5.33 30.93-51.62 32.4-53.37-1.52 1.52-21.8 53.13-25.52 60.4l-4.63-5.24-2.25 2.97v-4.76z" class="w"/><path id="path279" d="M218.57 584.03c5.7-3.56 32.55-22.26 50.31-37.93-11.52 7.53-52.73 33.14-60.13 39.16 1.81.97 6.23 1 9.82-1.23z" class="d"/><path id="path281" d="M279.46 543.34c-1.13-1.76-6.13-1.05-10.58 2.76-23.43 17.79-45.8 39.13-60.13 39.16-10.65 9.57 30.9 34.85 34.84 36.85 9.63-3.39 27.33-45.76 31.69-55.28 5.27-8.4 7.15-16.45 4.18-23.49z" class="e"/><path id="path283" d="M261.08 568.06c-8.3 11-37.13 35.92-43.02 32.98 0 0 3.05 5.38 5.88 6 2.82.62 21.31-8.3 31.65-19.79 6.07-6.74 13.93-18.39 18.44-26.68-6.7 8.79-20.3 23.46-20.3 23.46s3.35-7.9 7.35-15.97z" class="w"/><path id="path285" d="M277.8 553.56c-.24-.98-.53-2.23-1.09-3.07 1.5.18 1.17 1.93 1.1 3.07z" class="ae"/><path id="path287" d="M277.64 551.94c-.08 1.53-1.47 4.7-3.6 8.63 2.87-4.06 4.27-5.12 3.6-8.63z" class="ad"/><path id="path289" d="M276.78 550.97c.2-.05.36-.02.5.03-4.8-6.67-13.42 11.63-16.2 17.06 7.23-8.68 12.66-16.46 15.7-17.1z" class="ad"/><path id="path291" d="M277.27 551c-5.15-1.06-23.31 28.62-23.54 33.03-.4-.77 25.09-23.76 23.54-33.03z" class="y"/><path id="path293" d="M282.35 541.47c-7.3 1-8.35 17.68.45 19.48-.93-6.09-.72-14.47-.45-19.48z" class="af"/><path id="path295" d="M286.58 540.66a95.81 95.81 0 0 1 3 19.84c8.07-3.1 7.57-20.33-3-19.84z" class="af"/><path id="path297" d="M286.58 540.66c-1.3.02-2.97.36-4.23.81-.22 4.11-.4 10.5.06 16.02l6.62-3.67a92.95 92.95 0 0 0-2.45-13.16z" class="w"/><path id="path299" d="M282.4 557.5c.1 1.2.24 2.36.4 3.45 2.2.59 4.68.42 6.77-.45-.1-2.3-.3-4.54-.54-6.68l-6.62 3.67z" class="y"/><path id="path301" d="M268.08 533.76c-.35-.1-.33-.19-.73-.9l.43-.26c.6.84.76 1 .3 1.16z" class="ae"/><path id="path303" d="M207.81 435.2c2.18-.51 4.52-.85 6.85-.8-3.2-19.87 3.15-17.35 11.72-23.37-.18-3.57.89-4.55-5.34-3.6-8.05 1.04-18.32 17.05-28.47 23l1.8 12.74s5.44-6.1 13.44-7.97z" class="au"/><path id="path305" d="M177.89 448.62c-7.65 23.67 4.75 54.12 26.75 70.3 12.47 8.66 42.6 11.8 64.15 9.91-25.13-23.33-49.28-63.56-54.13-94.42-9.72-.78-17.96 5.8-20.18 8.42l-1.83-12.44c-4.5 2.42-9.6 4.6-13.58 6.04.1 3.77-.36 7.72-1.18 12.2z" class="ab"/><path id="path307" d="M288.69 531.9c-3.9 4.63-6.57 6.86-6.57 6.86-2.03-.66-4.55-2.25-7.39-4.56-22.54 2.35-57.72-.31-72.76-10.78-28.5-21.88-36.86-52.02-28.05-85.43-7.58.69-13.17 17.93-10.66 34.63 8.06 88.2 108.2 80.3 164.18 58.04v-11.3c-17.07 6.9-35.18 11.63-38.75 12.53z" class="ab"/><path id="path309" d="M169.67 467.82c4.9 52.78 42.58 72.82 105.06 66.38-2.37.25-3.85-3.32-5.94-5.37-48.99 3.77-87.66-15.05-92.87-60.95-.12-12.18 3.29-20.92 3.44-31.56a44.7 44.7 0 0 1-6.07 1.76c-2.7 9.38-3.62 17.77-3.62 29.74z" class="az"/><path id="path311" d="M288.69 531.9c3.57-.91 21.68-5.64 38.75-12.54v-6.5c-11.85 4.95-24.71 9.43-32.77 11.72" class="az"/><path id="path327" d="M327.9 519.36c43.6-21.94 48.04-83.93 39.48-127.74-1.45.4-3 1.52-4.73 1 6.54 55.72-3.13 121.2-67.98 131.96-1.75 2.54-4.01 4.98-5.98 7.31.12.02 22.57-4.8 39.22-12.53z" class="az"/><path id="path329" d="M364.64 446.75c1.83-14.6-.3-39-2-54.13-4.36-3.59-12.72-6.06-18.68-2.85-4.86 2.63-18.33 2.86-18.33 2.86s-3.62 5.83-14.33 6.5c10.46 30.83 13.51 81.41-16.63 125.45 41.09-7.43 63.76-35.36 69.97-77.83z" class="ab"/><path id="path331" d="M369.74 392.02c-.77-.64-1.55-.63-2.36-.4 10.2 66.95-6.36 132.08-78.3 140.27a79.7 79.7 0 0 1-6.49 6.87l-.18 3.51c73.5 4.12 115.32-90.32 87.33-150.25z" class="ab"/><path id="path335" d="M354.93 408.83s-9.15-9.06 3.94-11.68c0 0-5.8 6.23-3.94 11.68z" class="ay"/><path id="path353" d="M326.3 211.8C269.2 7.99-13.85 105.5 77.26 319.1c20.76 57.18 43.57 101.1 53.79 139.9 10.15 38.58 32.4 86.38 52.73 66.92 19.42 3.35 16.42-21.6 14.24-27.25 0 0 4.86 19.66-11.48 20.93-52.38-18.49-46.87-120.6-52.27-165.03 20.07 4.8 30.23-7.73 31.84-11.65-15.91 12.82-48.76-17.36-51.32-25.53l5.62 1.79c-12.76-12.72-17.06-33.63-15.83-48.26 1.08 9.04 16.77 23.31 27.32 23.24 0 0-16.85-9.45-17.36-32.94 0 0 11.23 21.45 27.82 19.92l-1.78-2.3s11.74 5.87 19.4 5.36c-19.55-11.45 3.19-65.1 5.62-71.23-.24 17.65 1.32 37.87 19.15 53.1 0 0-11.24-20.42-9.7-33.19 3.66-13.69 9.16-82.98 7.66-91.4 6.92 27.97 72.67 59.73 59.23 98.8 11.5-15.75-5.98-47.97-11.49-55.91 5.7 6.66 27.58 33.43 24.34 48.94 8.59-7.26-13.25-47.36-13.96-49.03 0 0 22.47 14.47 37.1 33.37 16.15 21.32 18.44 52.28 3.24 56.68 10.17.55 18.8-8.95 24.17-17.02l11.24 44.93-2.73 2.39c5.28 21.32 21.6 212.28-33.36 201.02 25.93 18.36 53.1-69.51 51.84-75.2 2.6 6.9 6.83 78.52-17.54 76.26 45.1 3.29 20.73-252.95 11.51-294.9zM173.26 521.48a33.93 33.93 0 0 0 6.03 3.14c-9.64 6.98-23.96-8.11-30.03-23.74 0 0 11.4 12.43 24 20.6zm-42.93-167.93 4.63 57.03-20.17-67.66s3.84 7 15.54 10.63z" class="ao"/><path id="path355" d="M219.56 166.74c13.65-10.62 55.45 33.8 44.93 5.8-6.64-17.2-18.72-34.22-8.5-21.88 10.2 12.34 19.74 16.08 18.97 3.66-.77-12.43 24.26 9.87 36.17 40.6 11.92 30.72 13.28 34.83 13.28 34.83-5.5-110.44-129.5-172.57-216.26-100.28-105.5 83.94-5.18 235.1 22.9 329.53 10.15 38.57 32.4 86.37 52.73 66.9 19.42 3.36 16.42-21.59 14.24-27.24 0 0 4.86 19.66-11.48 20.93-52.38-18.49-46.87-120.6-52.27-165.03 20.07 4.8 30.23-7.73 31.84-11.65-15.91 12.82-48.76-17.36-51.32-25.53l5.62 1.79c-12.76-12.72-17.06-33.63-15.83-48.26 1.08 9.04 16.77 23.31 27.32 23.24 0 0-16.85-9.45-17.36-32.94 0 0 11.23 21.45 27.83 19.92l-1.8-2.3s11.75 5.87 19.41 5.36c-19.55-11.45 3.19-65.1 5.62-71.23-.24 17.65 1.32 37.87 19.15 53.1 0 0-11.24-20.42-9.7-33.19 3.66-13.69 9.16-82.98 7.66-91.4 0 0 8.61 21.01 28.35 37.08.4-5.3 2.43-10.44 8.5-11.8zm-46.3 354.73a33.93 33.93 0 0 0 6.03 3.14c-9.64 6.98-23.96-8.11-30.03-23.74 0 0 11.4 12.43 24 20.6zm-42.93-167.93 4.63 57.03-20.17-67.66s3.84 7 15.54 10.63z" class="an"/><path id="path357" d="M173.5 187.74s4.08-20.42-7.67-21.96c-13.84-1.13-31.6 40.6-46.6 39.45 0 0 2.3 20.01.52 20.35-1.79.33-8.43-24.05-8.43-24.05.73 10.6-13.33 16.33-17.74 4.98l-7.79 13.15s-.25-18.77-3.57-25.4c-3.32-6.65-5.24-8.56-7.15 1.52-1.92 10.09-8.81 24.9-9.2 24.9-.2 0-2.04-5.26-3.13-12.65-16.2 17.44 37.54 235.25 75.54 205.8-1.07-16.8-2.36-43.4-4.03-59.21 20.07 4.8 30.23-7.73 31.84-11.64-15.91 12.81-48.76-17.37-51.32-25.54l5.62 1.8c-12.76-12.73-17.06-33.64-15.83-48.26 1.08 9.03 16.77 23.3 27.32 23.23 0 0-16.85-9.45-17.37-32.94 0 0 11.24 21.45 27.83 19.92l-1.78-2.3s11.74 5.87 19.4 5.36c-19.55-11.45 3.19-65.1 5.62-71.23-.24 17.65 1.32 37.88 19.15 53.1-17.4-24.53-3.96-55.6-2.97-89.83-2.97 1.23-8.27 11.45-8.27 11.45zM130.3 353.6l4.64 57.04-20.17-67.66s3.84 7 15.54 10.62z" class="ao"/><path id="path359" fill="#5b4649" d="M183.72 135.6c1.12-13.06 23.03 6.44 31.67 3.32 9.44-1.26-8.43-10.73-11.75-15.33-3.32-4.6 18.9 11.5 25.18 13.2 6.3 1.69-2.29-13.47 2.65-11.4 4.94 2.06 1.79-9.97-11.74-17.37-40.06-24.15-94.5.64-124.18 33.08-.12 8.45-12.33 45.9-2.97 27.94 7.01-12.17 20.65-27.4 16.98-11.74 0 0 2.04.38 2.17 4.85.12 4.47 3.7-12.51 4.6-6.26.89 6.26 1.14 14.17 6.25 16.98 5.1 2.8 26.17 1.66 34.6-14.8 12.89-24.15 20.35-37.7 25.5-11.78.03-3.03.03-4.82.03-4.82s.73 1.79 2.26 4.72c-.9-4.58-1.56-8.93-1.25-10.6z"/><path id="path361" d="M200.7 176.3c14.85.95 45.94 30.49 24-13.61-6.64-11.57 1.19-4.42 12.76.85 11.57 5.28 5.96-4.42 5.96-4.42 19.09 7.14 47.83 63.54 49.19 70.63-3.32-32-18.72-65.7-42.68-87.83-37.02-40.37 4.6-33.13-63.06-43.73 28.63 22.7 67.95 26.82 9.4 47.3-5.79 3.58-13.1-6.74-20.08-6.57-24.99 1.69-1.98 19.82-22.89 14.74a107.5 107.5 0 0 0 7.24 11.97c9.42-14.26 35.87 28.58 43.95 36.09-2.97-5.68-5.5-9.5-5.5-9.5s5.82 6.78 11.77 15.4c-.92-4.41-2-9.93-2.92-15.48-2.04-12.43-11.4-14.98-7.15-15.83z" class="an"/><path id="path363" d="M148.75 161.98c-13.45 11.74-19.75 9.53-25.2 3.91-7.83-9.27 8.14-39.7-7.65-21.1-1.02-4.77-8.34 4.41-18.73 24.17-4.34 8.25-17.96 19.53-19.91 10.52a149.7 149.7 0 0 0-2.18-8.52c-16.92 39.13-20.8 66.9-4.35 128.25 4.97-17.98 1.87-45.19 1.25-66.6-.9-18.65 3.14 16.43 10.56 9.7 0 0 1.36-22.12 13.1-25.52 11.75-3.4 12.77 6.46 16.51 22.3 3.75 15.82 10.9 20.25 8.68 12.08-2.21-8.17-3.06-27.92.17-26.38 3.24 1.53 21.11-25.37 21.11-25.37l-.85 17.54s9.19-18.22 14.13-29.62c4.93-11.4 6.63-10.55 8.47 3.57 1.22 9.36.24 21.18-.56 28.1 1.38-3.72 2.3-6.05 2.3-6.05s-.13 3.89.16 9.32c9.43-28.42 19.26-46.29 16.92-77.04-19.34-9.12-12.43-2.6-33.93 16.74z" class="an"/><path id="path365" d="M126.79 416.19c-4.87-1.3-9.96-5.3-14.3-9.65 1.91 4.67 3.75 9.24 5.5 13.73 9.9 5.3 20.43 24.37 26.3 34.36a446.53 446.53 0 0 1-5.98-40.86 12.32 12.32 0 0 1-11.52 2.42z" class="j"/><path id="path367" fill="#442b2f" d="M118 420.27a403.7 403.7 0 0 1 10.92 31.15c7.07 7.88 13.95 17.82 21.28 25.05-5.17-20.15-14.6-44.6-32.2-56.2z"/><path id="path369" d="M146.45 472.1c-5.18-6.24-12.1-14.29-17.53-20.68 8.66 36 32.8 96.26 54.86 74.49 19.42 3.35 16.42-21.6 14.24-27.25 0 0 4.86 19.66-11.48 20.93-15.66 2.27-27.9-29.3-40.09-47.49zm26.8 49.37a33.93 33.93 0 0 0 6.04 3.14c-9.64 6.98-23.96-8.11-30.03-23.74 0 0 11.4 12.43 24 20.6z" class="ao"/><path id="path371" d="M213.34 160.02c17.62-5.02 40.34 6.72 37.28 1.87-3.06-4.85-12-16.1-12-16.1s5.36 1.57 6.38-6.87c1.02-8.43 24.51 10.2 21.96 3.57-2.55-6.64-19.91-22.73-5.87-12.77 13.24 8.98 29.83 23.83 37.03 22.87-27.26-37.48-68.22-54.89-111.25-54.4 11.82 2.48 25.82 5.98 32.86 9.83 13.53 7.4 16.68 19.43 11.74 17.36-4.94-2.07 3.64 13.1-2.65 11.4-6.28-1.7-28.5-17.78-25.18-13.19 3.32 4.6 21.2 14.07 11.75 15.33-9.45 1.27-15.32-5.45-23.5-7.07-8.16-1.62-7.4-.34-8.17 3.74-.68 11.44 6.18 20.17 16.23 32.29 2.15-2.8 6.11-5.8 13.4-7.86z" class="f"/><path id="path373" d="M177.09 132.4c-15.49.4-18.32 50.7-54.51 40.47-5.1-2.8-5.36-10.72-6.26-16.98-.9-6.25-4.47 10.73-4.6 6.26-.12-4.47-2.16-4.85-2.16-4.85 3.67-15.67-9.97-.43-16.98 11.74-9.36 17.97 2.85-19.5 2.97-27.94-18.23 21.44-37.75 53.12-29.66 79.51.39 0 7.28-14.8 9.2-24.89 1.91-10.08 3.83-8.17 7.15-1.53 3.32 6.64 3.57 25.4 3.57 25.4l7.79-13.14c4.63 11.39 18.32 5.7 17.74-4.98 0 0 6.64 24.38 8.43 24.05 1.79-.34-.51-20.35-.51-20.35 15.1 1.07 32.66-40.51 46.6-39.45 11.74 1.53 7.65 21.96 7.65 21.96s5.3-10.22 8.28-11.45c.16-17.4 3.82-33.86-4.7-43.83z" class="f"/><path id="path375" fill="#413643" d="M181.8 142.54s-8.36-24.86-2.92-25.67c1.12-.17 5.3 16.19 5.3 16.19l.07 9.46-2.3-1.8z"/><path id="path377" d="M260.4 172.53c21.8 29.28 19.82 48.25 19.82 48.25l9.3 14.05c.2-14.54-11.66-53.72-29.11-62.3z" class="ar"/><path id="path379" d="M305.51 253.55c3.24-11.06-1.19-45.62-1.19-45.62s6.64 15.5 8.85 38.98c2.22 23.5 0 36.43 0 36.43z" class="ar"/><path id="path381" d="M258.54 132.05c16.1 9.13 30.11 31.45 37.1 48.31-11.84-16.48-22.2-34.32-37.1-48.3z" class="ax"/><path id="path383" d="M178.8 157.72c5.3 24.47-2.8 49.83-4.52 74.38-3.82-24.99 4.27-49.39 4.51-74.38z" class="ax"/><path id="path385" d="M122.6 154.32c-6.06 38.66-5.3 99.1 28.2 125.1-37.85-21.7-40.08-87.72-28.2-125.1z" class="ax"/><path id="path387" d="M109.46 227.75c3.68 11.67 5.82 50.1 32.13 53.43-4.62-3.75-25.46-28.45-23.73-39.2 0 0-.67 11.08-2.64 6.43-2.04-4.85.44-15.99-2.73-19.88-.5-.6-3.27-1.53-3.03-.78z" class="ar"/><path id="path389" d="M63.64 237.04c10.36 89.64 61.57 166.5 80 253.87-23.74-85.72-75.04-163.2-80-253.87z" class="ax"/><path id="path391" d="M71.98 276.87c-3.04-5.99 44.3 115.2 47.5 116.77-9.02-29.34-31.55-90.9-47.5-116.77Z" class="ar"/><path id="path393" d="M335.13 304.83c-10.55 22.46-10.79 32.92-10.77 71.67 16.91-34.8 11.57-46.94 10.77-71.67z" class="f"/><path id="path395" d="M324.36 376.5c-.24 25.62-1.48 65.44-1.48 65.44 3.2-7.86 17.93-71.84 13.83-96.9-3.71 9.86-8.43 21.73-12.35 31.46z" class="an"/><path id="path397" d="M306.58 206.28c30.31 58.52 31.23 128.42 30.33 193.02-4.7-64.64-5.2-132.4-30.33-193.02z" class="ax"/><path id="path399" d="M103.69 129.09c-31.5 26.27-42.73 72.17-43.7 89.73 0 0 7.23-35.33 32.19-68.7-.24-6.94 6.37-13.06 11.5-21.03z" class="x"/><path id="path401" d="M114.88 107.85c-.51-.34-12.55-14.13-12.55-14.13l5.51-.85C-4.66 24.1-32.7 212 68.34 146.92c2.59-22.77 41.3-37.56 46.54-39.07z" class="x"/><path id="path403" d="M145.85 88.45c7.5-.92 15.58.77 24.79.48 17.34-5.54 41.03-16.08 45-31.97 4.6-18.39-13.79-43.75-40.68-39.32-26.9 4.42-41.02 13.78-49.36 35.91-7.24 19.66-7.96 28.96-.68 44.55 0 0 5.62-7.78 20.93-9.65z" class="x"/><path id="path405" d="M279.25 131.62s-50.77-59.65-131.9-27.73c-.08.66-.17 1.4-.24 2.26 53.36-21.17 111.76 6.9 132.14 25.47z" class="x"/><path id="path407" d="M134.96 109.38c-.56-1.63 20.63-18.68 35.68-20.45-7.7-.6-16.23-1.33-23.89-.58-9.6.94-17.88 3.96-21.83 9.75 0 0-2.54-11.18-5.1-18.55-1.37 10.7-2.05 20.13-2.05 20.13s-3.76-3.01-9.93-6.81l-5.5.85s12.03 13.79 12.54 14.13c-5.2 1.4-44.16 16.59-46.55 39.07 18.58-13.37 30.28-30.09 49.44-28-5.83 1.38-27 19.2-25.6 31.2 12.53-17.12 33.14-35.57 54.94-43.97.07-.86.16-1.6.24-2.26-4.05 1.6-8.18 3.42-12.39 5.5z" class="aw"/><path id="path409" d="M136.87 65.54c-2.3-8.12 21.8-24.14 28.4-16.77 3.89 3.82-5.14 8.45-8.21 8.35-3.07-.1-20.2 8.42-20.2 8.42z" class="aw"/><path id="path411" d="M83.05 96.62C62 88.35 30.95 114.1 52.92 113.98c7.49-.85 12.25-7.15 12.25-7.15l-2.41-2.13s11.43-7.23 20.29-8.08z" class="aw"/></g></svg>