<?xml version="1.0" encoding="UTF-8"?><svg xmlns="http://www.w3.org/2000/svg" viewBox="0 0 1655.7806 607.0006"><defs><style>.f{fill:#2e354a;}.g{fill:#dfdddd;}.h,.i{fill:#fff;}.j{fill:#1f2332;}.k{fill:#cbc8c1;}.l{fill:#303a52;}.m{fill:#222631;}.n{fill:#262b38;}.o{fill:#d8c4b8;}.p{fill:#202537;}.q{fill:#cf9c88;}.r{fill:#252a33;}.s{fill:#e9d2c4;}.t{fill:#2f313a;}.u{fill:#c7c6c4;}.v{fill:#353c5b;}.w{fill:#333b5a;}.x{fill:#232635;}.y{fill:#1f293f;}.z{fill:#343b59;}.aa{fill:#1f273b;}.ab{fill:#39445f;}.ac{fill:#a1a2a2;}.ad{fill:#30323d;}.ae{fill:#3b4a60;}.af{fill:#1e1e23;}.ag{fill:#27292f;}.ah{fill:#252c41;}.ai{fill:#273146;}.aj{fill:#202632;}.ak{fill:#2f2e35;}.al{fill:#202636;}.am{fill:#c18d7b;}.an{fill:#3c424f;}.ao{fill:#3f5e7e;}.ap{fill:#222430;}.i{stroke:#000;stroke-miterlimit:10;}.aq{fill:#353d5b;}.ar{fill:#848583;}.as{fill:#24252b;}.at{fill:#3d4b62;}.au{fill:#303133;}.av{fill:#34373e;}.aw{fill:#333943;}.ax{fill:#2c354c;}.ay{fill:#283045;}.az{fill:#e8d5c8;}.ba{fill:#633738;}.bb{fill:#d5a38e;}</style></defs><g id="a"><path class="ar" d="M683.3767,350.2694c1.6696,2.1089,3.0012,5.0682,3.0012,5.0683,.8663,1.9252,3.6241,8.054,1.5,11-2.1168,2.9359-8.3889,1.7495-9.8333,1.5-29.9017-5.1636-60.2945,6.9351-90.5,9.8333-25.3212,2.4296-43.9197,4.4238-69.5,7.1667-22.0655,2.366-30.1315,3.3193-37,4.1667-10.6051,1.3083-30.6782,3.8031-54.6667,7.6666-20.2922,3.2682-21.79,4.0377-48.6667,8.8334-34.4207,6.1418-40.0475,6.3223-69.8333,11.5-30.4329,5.2902-46.5009,8.0834-67,13-23.8947,5.731-24.1505,9.3688-92,28-56.75,15.5833-11.6508,2.0088-72.5,19.1666-10.4914,2.9583-33.2517,11.7401-57.3333,7.5-11.2313-1.9775-18.424-14.3425-19-16.6667-2.7309-11.0182,120.2268-39.9538,259.6667-65.6111,190.3153-35.0186,418.8459-58.2116,423.6654-52.1239Z"/><path class="u" d="M155.1359,351.5468c.2644-1.0421,2.7014-1.2274,7.5754-1.5981,9.8328-.7478,28.6021-2.1753,38.6667,10.2222,1.4805,1.8237,5.6782,6.9944,4.1111,9.4445-4.4278,6.9229-51.6631-12.9053-50.3532-18.0686Z"/><path class="k" d="M179.9335,361.5044c1.3696-.7592,2.6368,.2302,5.2222,.3333,10.4444,.4167,12.5202-.2886,16.6667,2.5555,3.2768,2.2476,6.0759,6.7241,5.3333,11.1111-.641,3.7866-3.6629,5.9847-4,6.2222-7.0888,4.9964-21.9625,.2462-25.2222-8.6667-1.4875-4.0673-.9024-9.9467,2-11.5555Z"/><path class="ac" d="M187.5169,414.6154c-.0755-.1112-31.4562-25.8965-32.5556-25.1944-20.5194,13.1027-34.2378,37.7921-55.4167,45.25-31.6964,11.1615-87.9261,40.5816-85.7141,43.2516,1.1389,1.3746,41.9166-2.3967,63.7141-10.4182,23.0977-8.5,43.3056-11.4459,68.5556-26.6944,17.0423-10.2919,41.5679-25.9718,41.4167-26.1945Z"/><path class="g" d="M180.8894,370.0452c-.8241,1.2769,.4549,2.8646,.9557,4.9077,1.709,6.9719-90.07,65.9614-89.177,65.7474,.8406-.2015,21.0451-4.025,32.6609-7.5986,25.5073-7.8474,30.2087-2.0984,47.8333-10.3334,1.6895-.7894,23.4049-11.1468,30.5906-31.514,2.712-7.6869,.6832-11.6747-.3194-13.75-4.3618-9.0286-20.2779-10.9704-22.5441-7.4591Z"/><path class="q" d="M503.1081,366.075c-3.8,3.283-34.2854,14.2696-32.7301,17.6794,2.4451,5.3605,48.408-5.7756,92-15.3611,35.2104-7.7425,52.8156-11.6138,71.3334-14.2222,57.8844-8.1537,72.7365,1.1083,82.2222-11.3333,17.5103-22.9664-8.6601-86.5795-42.2222-92.2222-8.3665-1.4066-15.1935,1.1252-25.5556,5.7778-59.9263,26.9066-80.6622,54.0568-145.0477,109.6818Z"/><path class="az" d="M646.1557,257.5043c3.4625-1.4478,8.7893,6.5844,13.8889,13,10.3333,13,26.0583,40.9914,14.3333,63.6666-6.1277,11.8506-19.3112,12.1068-64.2222,20-80.1713,14.0902-91.1854,22.5928-107.0477,11.904-23.4325-15.7901-33.4294-71.7373-16.5634-71.7373,12,0,27.2171,2.5261,66-1.6667,12.3333-1.3333,16.8017-6.5956,33.6667-13,26.3333-10,44-15.5,59.9444-22.1667Z"/><path class="ad" d="M483.4891,294.3932c1.3279,.7455,3.2294,1.9066,5.3333,3.5555,21.7744,17.0657,18.8268,50.0163,18.6667,51.5556-.8998,8.649-5.0077,25.6622-18.6667,32.6666-7.5966,3.8956-17.0437,3.4799-18.8881,3.5662-41.2917,1.9335-227.1952,14.4325-316.7786,51.4338-11.5125,4.7551,4.6683-6.129,19.2222-13,10.2377-4.8333,22-17.6666,30.3333-32,4.9947-8.591-2.409-16.4702,4-18.3333,28.6667-8.3333,47.1245-10.4865,101.3333-30.3333,31.6774-11.5977,29.7239-12.8748,71.6667-26.3334,41.041-13.1693,76.974-19.4913,103.7778-22.7778Z"/><path class="ba" d="M167.2946,351.2543c-2.9952-.7526-10.8789,.1248-12.1587,.2925-25.4444,3.3333-39.4245,21.9575-39.4246,21.9575-15.3045,10.42-22.9567,15.6299-31.6667,20.1666-24.116,12.5612-32.6061,10.1396-53.8333,23.5-18.1549,11.4266-22.2653,19.6938-23.3333,22-5.2881,11.4186-6.6581,29.2931,2.6667,36.5,8.3708,6.4696,21.7007,1.5145,32.5-2.5,11.1672-4.1512,14.6364-8.0541,36.3333-22.8333,11.923-8.1215,20.9421-14.265,32.8333-21.1667,16.9823-9.8566,20.3774-9.9735,37-20.1666,19.7204-12.0927,29.919-19.1884,32.9167-24.6667,1.3473-2.4622,3.5-8.5-2.6667-23.75-.5592-1.3828-5.3624-7.8748-11.1667-9.3333Z"/></g><g id="b"><path class="ar" d="M1458.5983,303.3368c-.7778-5.7639,.3864-11.1563,4.0019-10.388,13.1542,2.7952,36.4677,7.3333,40.2222,2.5556,2.5248-3.2128,30.9317-16.1747,37.3889-14.3333,3.925,1.1193,12.7888,1.2191,12.9444,4.4444,.1603,3.3223-7.4458,5.3801-6.8889,7.6667,.2262,.9288,1.6823,1.4153,7.2223,2.3333,5.3438,.8854,9.3997,1.3292,10.4445,1.4445,10.7382,1.1843,12.6827,1.7709,17.4445,1.3333,.0001,0,2.9832-.2741,5.6666-.8889,10.175-2.3309,19.4868-10.9338,23-17.1111,8.1595-14.3473-1.5989-39.1055-15-50.5555-42.655-36.4448-161.9216,28.0133-158,50.6667,1.2122,7.0023,21.7531,24.3099,21.5537,22.8325Z"/><path class="bb" d="M1412.378,172.3377c-1.869,1.2901,26.5088,51.1758,26.6667,58.2778,.0995,4.4773-.3813,8.1206-1.3334,15.3333-.7288,5.5214-1.2557,4.2956-1.7933,5.5597-.4226,.9936,.5536,2.6114,.7656,3.6069,.5865,2.7547,2.1307,5.1755,4.1944,10.3889,2.822,7.1289,2.9925,9.1878,5.7222,11.7778,1.6661,1.5808,3.2369,2.2245,6,3.3333,7.439,2.9853,10.5767,1.8714,20.6666,4.2222,5.7887,1.3487,5.5651,1.9038,9.5557,2.4445,6.6444,.9001,11.9008-.0108,14-.4445,4.1335-.8539,6.8771-2.099,11.5555-4.2222,4.3992-1.9965,7.3234-3.7422,12.2222-6.6667,6.8546-4.0921,10.2819-6.1381,11.7778-8,1.582-1.9691,2.6862-4.0805,5.5555-5.5556,2.0291-1.0431,3.8668-1.2158,5.5555-1.3333,9.6254-.67,11.4976,.6534,16.4445-.2222,5.1624-.9137,8.6466-3.3323,10.8889-4.8889,2.7781-1.9284,6.7198-4.7465,7.5555-9.3333,.1974-1.0836-.4445-3.7778-.4445-3.7778,0,0-105.8073-72.434-112.7778-73.8889-3.9467-.8238-51.8417,2.7428-52.7778,3.3889Z"/><path class="i" d="M1349.6002,149.8377c1.406-1.5926,5.567-1.5062,13.8889-1.3333,3.9219,.0815,11.8218,.3167,21.1111,4,1.9857,.7874,7.7859,3.2195,14.2223,8.2222,5.4458,4.2327,7.8524,2.9522,16.2222,19.8194,5.4583,11,6.3699,13.6352,8.5,17.0833,.7537,1.2201,4.1528,8.032,7.8333,15.7083,2.5424,5.3027,5.9143,10.3382,6.9583,15.3333,1.4247,6.8159,.5286,3.2453-1.0695,17.9444-.3641,3.3493-1.6492,4.7769-2.5555,5.3333-13.7524,8.4438-95.7567-90.053-85.1111-102.1111Z"/><path class="l" d="M1624.378,217.7266c3.2811,4.6699-2.1437,8.4143-2.5555,33.1111-.1272,7.6261,.3159,11.7137-.6667,20.2222-1.0739,9.2977-1.8726,15.5897-6.1111,21.7778-5.3354,7.7894-13.8169,12.139-14.4445,11.4445-.2474-.2739,.7931-1.257,2.7778-4.2222,.9897-1.4786,4.5388-6.923,6.7777-13.8889,.3579-1.1135,2.5488-7.93,1.4445-8.4445-1.1761-.5479-4.1272,6.9665-12.1111,13.3333-4.901,3.9084-10.8894,6.7392-11.7778,5.6667-.7067-.853,2.4469-3.4107,6.6667-10.5556,3.511-5.9448,5.0962-10.5547,6.7777-15.4445,1.2321-3.5829,2.1317-6.2399,1.5555-6.5555-1.0038-.55-4.285,7.2114-11.8888,13.5555-7.5739,6.3192-15.9056,8.2864-22.2223,9.7778-9.3907,2.2172-16.0854,1.7843-16.1111,1.5556-.0255-.2279,6.5541-.3765,13.1111-4.5556,.2949-.188,4.2941-2.7606,3.8889-3.6667-.4471-.9998-5.724,1.2222-11.2223,1.6667-8.1882,.6619-15.5638-9.992-22.2222-8.6128-32.5135,6.7349-45.6756,18.3776-7.5991-2.744,1.7274-.9582,3.9342-5.8138,6.9046-7.4487,25.9697-14.2935,81.2137-57.0937,89.0278-45.9722Z"/><path class="h" d="M1495.1557,254.7266c.7126,.054,1.7159,.17,2.8889,.4445,3.7083,.8676,6.2021,2.6366,7.7778,3.7778,2.6975,1.9536,4.0463,2.9304,4.7777,4.6667,1.0415,2.4722-.1731,3.5555,1,5.7778,1.2579,2.3831,3.8152,3.3362,5,3.7778,2.7568,1.0274,5.1753,.7658,6.1111,.5555,3.6804-.827,5.0481-1.6316,7.4396-4.233,.8214-.8935,1.614-2.8042,2.866-3.9059,3.4722-3.0556,4.5797-2.6993,4.4357-3.0709-.4291-1.1068-2.839-2.4354-6.2968-2.568-2.7206-.1043-4.6836,.0695-9.2222,.1111-2.8085,.0257-3.9705-.0233-5-.8889-1.5004-1.2613-1.6383-3.3475-1.6667-3.7778-.2286-3.4591,2.4485-5.3019,2-6.2222-.5564-1.142-5.6989-.3987-22.1111,5.5555Z"/><path class="ao" d="M1403.4891,121.6154c-1.369-.5446,1.2725-10.0989,1.5555-11.1111,.4188-1.4973,1.6775-5.8495,5-12.8889,1.4758-3.1268,3.7113-7.8554,7.4445-13.6667,3.5631-5.5465,6.5089-10.1322,11.6666-15.1111,3.1608-3.0512,5.5146-4.6694,5.1111-5.4445-.3815-.7325-2.9178-.1204-13.6666,2.6667-8.276,2.1459-10.0651,2.6367-10.3334,2.1111-.5865-1.1488,6.6324-6.0926,11.7778-9.2222,10.5563-6.4209,19.7061-9.6595,22.6666-10.6667,.0001,0,4.2806-1.4563,25.5555-6.4445-.5461-.8115-1.3744-1.9001-2.5555-3-7.6378-7.1126-19.5817-4.9633-19.6666-6.1111-.0519-.7015,4.3341-2.5141,10.6666-2.5556,13.4302-.0879,22.665,7.8757,24.7778,5.3333,.4822-.5802,.3265-1.3864,0-2.8889-1.7471-8.0383-3.371-12.9272-3.8889-15.1111-1.9884-8.3843,2.6752-17.5891,4.8889-17.5038,1.433,.0552,1.428,3.9875,4.4445,11.8371,2.6378,6.8643,4.8663,12.6635,10.1111,17.3333,2.0787,1.8508,6.3488,3.6783,14.8889,7.3333,5.8678,2.5113,8.4475,3.2243,10.3333,2,1.2571-.8162,1.7811-2.7404,2.7778-6.5555,1.5311-5.8605,1.0283-7.882,3.1111-10.6667,1.0656-1.4246,2.9354-3.2197,3.8889-2.7778,.5875,.2723,.6404,1.3074,.6666,1.7778,0,.0001,.2073,3.7158,1.4445,11.5556,.4645,2.9437,1.0641,6.7431,3.4445,7.6667,.9008,.3495,1.4158,.0386,2.7778,0,3.3441-.0949,5.7682,1.622,7.5555,2.6667,4.043,2.3632,6.3569,2.1812,11.7777,4,10.0731,3.3799,21.115,10.3945,24.8889,12.8889,14.1438,9.3482,22.9094,19.1219,24.6666,21.1111,.0001,0,18.9065,21.2018,25.1112,48.6667,3.4055,15.0745-1.1304,21.4226-1.7223,22-.0442,.0432-.4805,.4579-.3889,.6111,.1737,.2905,2.016-.7434,3.8334-1.1667,2.3951-.5578,4.4165,.0221,5.8889,.4444,.9344,.2681,5.9202,1.6983,8.3889,6.1111,.7947,1.4205,1.2241,2.9634,1.1111,9.7778-.0917,5.5243-.1375,8.2865-.6666,12-1.1711,8.2199-3.6553,15.8985-7.7778,26.8889-5.9802,15.9425-6.7267,15.7093-9.5555,24.8889-4.5524,14.7725-4.168,20.402-4,22.2222,.9004,9.7598,5.3907,16.4116,4.2222,17.1111-1.3241,.7926-6.4681-4.6938-9.5555-10-2.6545-4.5622-3.4086-8.3377-3.5555-9.1111-.5416-2.85-.4454-4.9613,0-10.2222,.9849-11.6308,1.7366-15.7344,.8889-16-1.0837-.3395-2.5367,6.2975-8.4445,11.3333-3.9324,3.352-8.0472,4.4593-10.4445,5.1111-26.1025,7.097-55.3333-.6666-55.3334-.6667-17.7369-4.7109-49.5946-13.1722-72.8888-40.6667-18.5588-21.9052-16.2097-37.6297-35.7778-54-3.2996-2.7603-12.0728-9.5968-15.7777-20.8889-3.2217-9.8192-2.4445-17.7777-2.4445-17.7778,.5305-5.4319,2.1061-8.9232,1.1111-9.4445-1.7438-.9135-8.6816,8.7104-11.3334,12.3889-5.5601,7.7127-7.6937,12.2204-8.6666,11.8333Z"/><path class="ai" d="M1445.0446,70.3377c-.3424-.3658-5.0651,3.1509-9.1666,7.1667-4.4629,4.3695-7.184,8.2938-9.6667,12-1.5535,2.319-4.5789,6.8812-7,12.3333-4.7098,10.6059-2.6815,14.5694-7.5,35.6667,0,0-.7463,3.2678-4,12.6667-2.0714,5.9837-3.1594,8.3589-5.5,10.3333-3.3815,2.8526-7.2631,3.0855-7.1666,3.5,.1019,.438,4.4951,.4294,9.1666-1.3333,3.1095-1.1733,5.6962-2.8801,9.6667-5.5,3.6282-2.394,4.9124-3.5301,5.3333-3.1667,.614,.5301-1.2988,3.6554-4.5,8.8333-3.3098,5.3538-4.9648,8.0307-7,10.1667-3.5868,3.7645-6.201,4.8033-5.8333,5.8333,.4487,1.2566,5.01,1.5868,8.8333,0,3.9762-1.6503,4.7124-4.3607,8.8334-5.1667,.3308-.0647,3.8783-.7309,4.5,.5,.7963,1.5766-3.5179,5.6508-7.3334,8.1667-5.344,3.5237-9.7963,4.0475-9.6666,5,.1383,1.0169,5.308,1.1158,8.6666,1.1667,7.0205,.1062,9.7007-.5397,16.1667-.6667,5.2839-.1038,12.6024,.1487,12.6666,1,.0402,.5319-2.799,.6699-7.3334,2.3333-4.0868,1.4992-7.0023,3.4439-12.8333,7.3333-5.0345,3.3582-5.443,4.0849-5.3334,4.6667,.2374,1.2595,2.8925,1.782,9.6666,2.5,10.3657,1.0987,16.1615,1.1485,24,2.1667,1.7909,.2326,10.8823,1.4135,10.8334,2.3333-.033,.6196-4.208,1.0171-7.5,1-6.308-.0327-6.8993-1.5746-10.6666-1-2.6648,.4065-5.1099,1.9932-10,5.1667-2.8225,1.8317-6.1837,4.013-5.8334,4.8333,.2676,.6267,3.6333-1.7148,7.1666-.8333,2.9536,.7368,4.8196,3.401,6.6667,6.8333,4.7858,8.8925,4.1337,13.0791,6.3333,17.1667,4.7864,8.895,19.119,9.872,35.6667,11,3.22,.2195,7.2585,.3127,33-1.6667,24.0676-1.8506,31.6007-2.8088,35.5-3.3333,1.1093-.1492,15.0839-2.0862,32-7.1667,4.1227-1.2382,12.9258-4.0163,18.8333-11.8333,1.2883-1.7047,3.1149-4.5436,2.5-5.1667-.9552-.9679-6.2399,4.9951-15,8.8333-7.8557,3.442-14.7543,3.5315-25.1666,3.6667-6.3323,.0822-16.1893,.2101-16.6666-2.1667-.3647-1.816,4.9912-3.8748,13.1666-8.1667,16.2181-8.5141,26.5814-16.918,26.3334-17.3333-.2671-.4473-11.9113,9.9268-29.3334,12-10.339,1.2303-18.7571-.9334-25.5-2.6667-12.0168-3.0888-25.4451-9.0625-24.8334-11.5,.8997-3.5845,31.8168,1.8512,32.1667-.1667,.2886-1.6637-20.5586-6.3342-42.1667-16.5-.0001,0-10.0776-4.7411-21.5-16.5-1.3832-1.4239-3.2391-3.442-2.8333-4,.7605-1.0455,8.3513,4.5582,18.8333,8.6667,10.2482,4.0168,18.8695,4.8836,25,5.5,5.0649,.5092,14.3062,1.3761,26-.5,10.0453-1.6116,18.9623-4.7759,18.8334-5.3333-.0955-.4128-5.0649,.9768-11.5,1.3333-13.7859,.7639-24.5341-3.7544-29.3334-5.8333-10.7798-4.6695-19.1912-8.313-22.3333-16.8333-2.6118-7.0824-.321-14.1126,1-18.1667,4.0485-12.4242,13.0808-19.2047,12.3333-20-1.0815-1.1505-17.9645,15.188-20.8333,12.8333-1.7495-1.436,1.9392-9.6383,6.5-16,9.3079-12.9831,20.86-16.3634,20-18.6667-.8588-2.3-13.6251-2.2681-24,4.5-9.6864,6.319-12.9224,15.6618-15.3334,14.6667-1.9753-.8153-1.2288-7.675,.1666-12.3333,2.2374-7.4691,7.0394-12.2721,10-15.1667,6.0417-5.9072,11.4684-8.2531,11.1667-8.8333-.3247-.6246-6.9164,1.5091-13.5,5.3333-4.9602,2.8813-13.8518,8.0461-19.1667,17.8333-5.9698,10.9932-4.3466,22.1449-6.1666,22.1667-1.1245,.0135-2.0172-4.2396-2.6666-7.3333-1.3439-6.4022-2.7468-13.0857-1-21.1667,.9504-4.3968,3.6892-9.3201,9.1666-19.1667,3.9318-7.0681,6.5815-10.6581,6.3334-10.8333-.4004-.2827-9.1036,7.7716-15.6667,20.3333-3.4272,6.5598-4.5409,11.0374-7.6666,11.3333-2.9795,.2821-6.3708-3.3696-7.1666-7-.6532-2.9796,.8423-5.7086,3.8333-11.1667,1.8013-3.287,3.807-6.8741,7.6667-10.3333,2.8295-2.5359,5.4664-3.9377,5.3333-4.1667-.1445-.2485-3.5198,.938-6.8333,3.1667-10.0813,6.7808-13.6521,19.2151-13.6285,20.2071,.0005,.0223,.004,.0876-.0382,.1263-.3594,.3293-2.5674-2.601-6.3333-4.3333-1.7819-.8197-2.3077-.633-2.5-1.1667-.5518-1.5314,3.5802-3.6178,8.8333-9.1667,1.5199-1.6054,4.1127-4.5349,3.8334-4.8333Z"/></g><g id="c"><path class="aw" d="M1315.6322,138.2359c89.2037,96.8666,113.9972,116.2121,118.0791,112.9351,1.6782-1.3473,.6344-7.1439,0-10.6667-1.8857-10.4719-7.4906-17.531-11.6666-22.6667-13.0471-16.0452-19.5708-24.0678-28.5-33-12.1462-12.1501-10.7872-9.2351-23.5-22-9.4943-9.5331-12.339-13.2543-19.8334-17.8333-11.4607-7.0025-20.1981-7.7036-23.1666-7.8333-4.7618-.2081-8.7181,.4408-11.4125,1.0649Z"/><path class="ar" d="M1453.0446,293.7266c4.4456,3.4013,5.3334,7.5555,5.3334,7.5556,.6643,3.1087-.3334,5.7336-.6667,6.6666-3.59,10.0466-2.3378,17.8145-6.2222,28.6667-4.257,11.8932-11.8617,19.381-23.1111,30.2222-15.2142,14.6622-29.0812,23.0032-42,30.6667-11.3729,6.7465-26.6508,15.6994-48.2223,23.1111-19.5734,6.7251-20.9714,4.1561-44.4445,11.1111-15.6318,4.6317-29.0784,10.4101-55.3333,21.7778-28.2307,12.2232-28.5109,13.2535-54.6667,24.6666-17.8685,7.7969-36.931,16.0746-62.6666,25.3334-18.6166,6.6976-41.212,14.0837-62,17.5555-13.3037,2.2219-19.9556,3.3328-25.3334,3.1111-6.4012-.2639-11.6385-1.3094-18.8888,.8889-3.4902,1.0582-4.6379,2.0165-11.5557,6-11.991,6.9048-19.4896,11.1721-29.1111,14.2222-6.5631,2.0806-9.8447,3.121-14.4445,2.8889-3.9424-.199-7.3458-1.2042-22.6666-9.5555-11.938-6.5073-13.6998-7.9838-19.7778-10.6667-9.1152-4.0236-12.9214-7.3029-17.7777-6-.8148,.2186-2.8591,.8685-7.7778,6-9.7687,10.1913-10.3654,16.6625-19.5556,24.4445-1.6157,1.3682-3.4358,2.9093-6.2222,4.4445-10.054,5.5392-23.3605,5.8607-26.2222,2.8889-7.9373-8.2424,35.7789-71.6146,90.4847-126.3522,43.4849-43.5103,138.8689-136.5003,290.8486-168.5367,.0001,0,152.2859-32.1009,232,28.8889Z"/><path class="ag" d="M1198.4057,125.3655c-5.1229-2.9035-10.764,.7051-26.125,7.5833-16.4749,7.3769-37.4323,13.9179-79.3472,27-53.2587,16.6226-74.549,12.0821-76.1111,21.1111-2.2727,13.1366,41.0566,32.7961,76.2222,41,30.8921,7.2069,60.8062,14.1857,84.4445-3,33.7317-24.5239,36.3672-84.9375,20.9166-93.6944Z"/><path class="au" d="M877.2965,187.9454c.326-2.2969,2.2399-3.8525,4.2482-5.4411,6.3537-5.0261,13.3693-5.9748,19-6.6667,13.6243-1.6741,20.0006-2.0016,26.8334-2.8333,9.7435-1.1861,15.1284-2.7539,22.3333-4.3333,27.4495-6.0172,34.8549-2.0164,66.1667-7,13.9421-2.2191,9.0774-2.4716,40.6666-9,29.6683-6.1314,29.3097-4.9476,47.6666-9.1667,14.5963-3.3547,27.7864-7.2365,54.1667-15,23.3632-6.8756,23.4856-7.3427,31.6666-9.1667,10.0522-2.2412,26.6396-5.838,48.1666-5.6667,14.3555,.1143,29.5681,.2354,47.6667,7,17.7858,6.6476,37.4854,19.3847,35.8333,23.6667-1.6876,4.374-36.7549-20.2591-84.5-16.1667-27.0856,2.3216-51.4567,13.2516-52.3507,10.8309-.7279-1.9709,15.3914-9.3192,14.8507-10.4976-.4539-.9892-12.2233,3.2883-22.1666,7.3333-16.7579,6.8172-21.4572,10.1786-33.8334,15-7.5345,2.9352-13.9119,4.679-26.6666,8.1667-27.6248,7.5536-36.098,7.7465-60.1666,15-7.9318,2.3904-12.9293,4.1528-18.8334,6.1667-61.8816,21.1076-114.8962,38.6705-144.6667,23.3333-3.3026-1.7014-17.0436-8.7805-16.0815-15.5589Z"/><path class="ak" d="M905.2946,188.0877c.0734-.173,.354-.0589,5.0071-1.2542,3.2635-.8383,5.6187-1.5403,6.3263-1.7458,8.7289-2.5347,8.896-3.4618,14.1666-4.5833,7.649-1.6277,9.4524-.3517,12.75-2.8333,1.0306-.7756,1.1533-1.1251,6.0834-6.5833,.9268-1.026,3.2654-3.6053,4.4166-4.8333,1.5227-1.6243,7.6207-7.9767,16.9166-13.4167,4.8147-2.8176,6.6438-3.1413,7.4167-3.25,4.9895-.7018,9.063,1.4926,10.8333,2.4167,11.1163,5.8027,3.5302-.8435,25.5834,10.4167,13.6962,6.9932,24.2667,13.4599,29.9166,17,17.5177,10.9763,17.338,12.3693,29.8334,19.5833,13.3472,7.7059,20.0208,11.5588,30.3334,14.5,13.4153,3.8261,12.5253,.3273,39.8333,5,6.0165,1.0295,13.0439,2.3944,13.8334,.5,.5255-1.2609-1.9614-3.369-6.4166-7.0833-11.7484-9.7948-17.6227-14.6922-18.1667-15-5.4941-3.1084-17.1267-8.4212-24.0833-11.25-1.1566-.4703-4.4808-1.806-4.4167-3.4167,.0427-1.0728,1.5692-1.7833,2.6667-2.3333,7.6246-3.8213,6.9138-6.1021,14.8333-9.5833,2.9225-1.2847,5.0864-1.8828,6.5834-2.3333,6.2234-1.8732,12.0797-4.5562,33.6666-16.8333,18.0232-10.2503,16.0404-9.5741,20-11.4167,9.8754-4.5953,17.7515-6.7274,27.25-9.25,10.0995-2.6822,20.7803-5.5189,35.0834-6.8333,10.5686-.9713,23.3646-2.1472,38.1666,.9444,7.2814,1.5208,17.5972,4.6067,38.4445,17.5556,22.0715,13.7093,36.4921,26.3894,57.3334,44.8889,24.698,21.9228,36.4257,35.3077,43.5555,44,2.9106,3.5485,10.371,7.7931,12,15.5555,.4219,2.0101,.6035,4.7121,2,9.2222,.3223,1.0406,1.3746,4.3268,3.5,8.6667,2.5861,5.2805,3.8218,6.1199,5.6666,9.6667,.6799,1.3072,1.9083,3.8777,4,14.1667,1.0912,5.3677,2.7393,14.0229,3,18.3333,1.1503,19.0167-20.4248,37.5793-27.5,43.6667-4.7343,4.0733-13.0952,10.6739-44,25.3333-20.9354,9.9305-22.901,9.6539-67.6666,28.5-27.3171,11.5004-33.5776,14.5472-47.5,18.3334-4.9792,1.3541-5.5393,1.3345-37.1666,8.1666-33.1564,7.1625-36.6552,8.0728-41.6667,9.8334-8.1095,2.8488-7.4319,3.4819-38.3333,20.3333-39.5856,21.5872-36.1018,18.1232-51.6667,27.6667-6.64,4.0713-11.5934,6.6031-21.5,11.6666-13.1404,6.7164-20.5861,9.776-29.1666,8.1667-.0001,0-4.8026-.9008-8.8889-3.3889-19.376-11.7982-5.6925-81.9274-4.1111-89.7778,20.8081-103.2925,35.2202-103.2221,29-125.6667-18.8561-68.0383-159.3313-97.6852-157.75-101.4167Z"/><path class="af" d="M966.8363,189.9627c.8969-.6133,4.5023,.6735,4.8334,.7917,1.9768,.7055,3.7561,1.6655,6.9584,4.0833,3.5685,2.6943,4.3496,2.1007,10.4583,5.375,7.6683,4.1103,7.2623,5.4746,14.8334,9.7083,2.8898,1.616,2.2142,1.0064,11.7916,5.5278,7.7965,3.6807,11.6947,5.521,15.3334,7.6667,2.9678,1.75,7.2617,4.3069,12.2222,8.4445,4.332,3.6134,3.9806,4.1019,8.5,7.9444,3.1545,2.6821,7.129,6.0613,12.7223,9.0556,7.7822,4.166,10.55,3.2249,13.5,7.0555,1.9979,2.5945,2.4392,5.248,3.1111,9.6111,1.1157,7.2453,.4702,12.9676,0,16.8889-1.573,13.1196-2.3595,19.6794-3.5555,25.2222-1.4602,6.7671-1.9124,7.085-7.3334,25.7778-5.4661,18.8482-4.8728,18.0642-7.6666,26.6667-4.743,14.6044-7.1145,21.9066-7.8889,23.1111-.7211,1.1217-2.2476,3.369-2.2777,6.4445-.0417,4.2473,2.7809,8.9878,7.1666,10.8889,2.4904,1.0795,4.7434,.9221,5.8334,.8333,5.7761-.4706,8.8125-4.2157,14.6666-8.2778,2.9771-2.0657,3.2413-1.8254,12.4445-6.5555,11.5066-5.9139,29.1692-15.5799,44.7222-24.6111,7.3081-4.2437,11.5321-6.8268,18.5555-9.2222,6.952-2.3711,12.8903-3.2769,17.7778-4,7.5955-1.1237,13.3053-1.2871,21.7222-1.5,7.1117-.1799,7.3428,.0545,20.7223,0,14.1776-.0578,17.7848-.3367,20.1111-.5555,9.7131-.9135,14.5698-1.3703,18.5555-3.8333,3.2382-2.001,6.3995-6.4266,12.7223-15.2778,4.5171-6.3234,4.3623-6.7039,8.2777-12,2.3085-3.1225,5.7982-7.8146,10.9445-13.3889,4.752-5.1472,8.704-8.6503,12-11.5555,6.2308-5.4922,9.3462-8.2382,14.1111-11.2222,5.0675-3.1736,6.2562-3.0705,13.2223-7.4445,4.6785-2.9376,4.0907-2.9517,9-6,3.3351-2.0708,4.0365-2.3315,13-7.4444,5.2936-3.0196,6.6666-3.6667,6.6666-3.6667,0,0-7.0775,5.1927-17.1111,13.1111-7.6448,6.0332-13.1918,10.9258-16.6666,14-7.3384,6.4923-11.0076,9.7385-15.1112,14.2222-1.1202,1.2241-4.8579,5.9642-12.3333,15.4445-13.8511,17.5661-10.2914,13.5073-12.7778,16.4445-2.9445,3.4782-3.9722,6.2361-3.9722,6.2361,0,0,5.4751-3.3693,8.9722-5.9028,8.2644-5.9872,13.5747-10.6002,17-13.4445,1.0405-.864,10.49-8.6601,22.4445-16.1111,10.2062-6.3613,18.5757-10.1884,23.5555-12.4445,5.946-2.6937,10.9364-4.6413,30.4445-11.3333,21.1687-7.2617,33.7778-11.2222,33.7778-11.2222l-65.7778,25.2222s17.001-.6021,35.5555-1.2222c1.2054-.0403,3,.6667,3,.6667,0,0-21.4722,17.625-43,29.8889-11.6725,6.6495-21.9858,9.0201-31.7777,12.2222-18.557,6.0684-27.7334,7.2943-46.4445,14.5555-10.3361,4.0112-23.2223,12.2222-23.2223,12.2222,0,0,14.4536,2.3427,31.4445,1.6667,7.851-.3124,17.3248-.6893,29.7778-2.2222,7.1171-.8761,13.2939-1.8943,23.4445-2.4445,6.1151-.3314,12.3072-.5188,14.3333-.8889,23.8716-4.3607,43-8.7778,43-8.7778,0,0-38.3528,9.9208-57.5555,14.7778-39.144,9.9006-48.4036,12.3455-66.1111,16-17.8135,3.6763-28.311,5.8146-43.4445,7.5556-21.7616,2.5035-24.2656,.8674-41.8889,3.5555-8.8486,1.3497-21.0472,4.6035-45.4445,11.1111-26.4711,7.0608-39.8192,10.6526-45.3333,13.6667-11.2859,6.1689-16.3127,11.7249-27.2223,12.4445-3.1959,.2108-9.0851,.1509-15.5555,3.4444-2.3334,1.1877-7.1858,3.7428-8.2222,8.4445,0,.0001-.0278,5.6111-.0278,5.6111,0,0,2.8671-3.394,48.1111,7.4167,9.5292,2.2769-34.6389-8.5278-37.0833-1.7083-.6611,1.8442,9.4746,2.8231,23.6666,9.8472,3.2554,1.6112,13.6071,9.0212,14.5555,17.7222,.0624,.5718,1.6768,3.347-.1111,4.6666-7,5.1667-33.3271,26.0317-37,27.1111-5.4727,1.6084-10.2333,2.3233-14.8889,2.4445-6.9099,.1798-17.5918-.1395-19.2222-1.9167-2.5753-2.8074-7.7679-6.265-6-18.75,1.3362-9.436,1.9402-34.5134,1.6667-36.8333-.1416-1.2006-.4716-3.9993,1-6.6667,2.8157-5.1038,9.1296-4.112,10.1666-8.1667,.5072-1.983-.4331-4.4487-1.6666-4.8333-1.2308-.3839-2.6844,1.326-2.8334,1.1667-.2546-.2723,4.9772-4.2214,7.6667-9.8334,1.5142-3.1594,1.5168-5.3732,2-10,.2903-2.7802,1.7491-10.3535,4.6666-25.5,1.4805-7.6861,2.683-13.1192,2.8334-13.8333,6.4512-30.6331-69.5939-178.8947-63.0417-183.375Z"/><path class="as" d="M954.4721,189.2345s7.8009-.0211,9.1559,.2486c5.0986,1.015,8.4587,4.2919,9.7778,5.6111,9.2026,9.2034,13.804,13.8051,16.2222,16.8889,8.9773,11.4484,9.4122,8.6979,20.8889,22.1111,9.2074,10.7611,14.9261,17.4448,20.1666,28.2778,3.0295,6.2627,7.5597,17.3444,8.3889,31.6667,.3896,6.7296,.804,12.0026,.804,12.0026l-85.4043-116.8068Z"/><path class="av" d="M930.1535,191.3047c.6792,.29,.8434,1.58,2.3078,2.2552,51.0575,23.5404,81.0109,125.4461,85.1806,140.9861,1.9442,7.2462,11.1277,9.3204,12.0417,16.8333,1.455,11.9594,1.4166,22.7535,2.6389,22.9583,1.303,.2184,3.9243-9.5455,4.2222-10.6667,2.958-11.1359,3.5131-20.4263,3.7778-28,.4794-13.714,.719-20.571,0-26.4444-2.5073-20.4812-11.0938-35.427-16-43.7778-5.0858-8.6565-9.9368-14.6624-16.2223-22.4445-6.3337-7.8417-5.7351-6.1627-20.4443-22.8889-.5312-.6041-8.8525-10.0677-20.2223-21.7778-5.9426-6.1205-7.4666-9.1341-10.6666-9.1111-9.6667,.0694-20.9578-.392-26.6134,2.0781Z"/></g><g id="d"><path class="af" d="M1012.0446,409.3377c-32.4456-16.386-89.6593,28.671-103.8334,39.8333-28.6542,22.5657-33.4022,35.6823-32.4999,45.3334,.1926,2.0598,.8068,8.6306,5.5,11.8333,7.5428,5.1475,18.8583-3.0204,40.6667-13.1667,24.5911-11.441,48.135-18.7032,54.5-20.6666,24.8785-7.674,30.7411-6.4752,38.1666-14.5,9.292-10.0419,14.6078-27.5854,7.8334-39.3334-.7898-1.3696-3.6436-5.9547-10.3334-9.3333Z"/><path class="am" d="M996.8363,456.7335c-.7027-2.7523,6.6805,3.8305,6.6806,3.8305,3.4541,2.9434,7.8611,6.6989,10.75,12.4166,2.736,5.415,2.949,10.2917,3.1111,14,.2263,5.1799,.5459,12.4925-3.3334,18.8889-2.5332,4.1769-4.8655,4.6796-24,15.1111-12.2802,6.6946-12.1982,6.9666-15.2222,8-5.7433,1.9626-11.6437,2.6788-23.4445,4.1111-5.4346,.6596-8.171,.983-9.1111,.6666-10.7615-3.6217-25.0026-52.5706-1.3612-58.0874,18.9444-4.4208,58.3037-9.6425,55.9306-18.9375Z"/><path class="j" d="M986.5446,428.2266s-8.5685,9.6067-15.6666,19.1255c-.7856,1.0536-1.4808,2.1156-1.1112,2.8889,1.3409,2.8052,15.7791-.1082,27.2778-6.0555,5.5902-2.8914,13.9611-9.4935,21.5-17.4032,7.3749-7.7377,6.155-24.2378,6.2778-27.9444,.1088-3.2835-16.9971,20.221-38.2778,29.3889Z"/><path class="af" d="M1028.1488,382.2127c-3.1121-1.7332-22.0911,38.6393-37.1597,50.2361-11.8713,9.1362-13.8333,10.4999-13.8334,10.5-3.0157,2.0963-5.9559,4.0168-5.7777,4.3334,.2135,.3793,4.7775-1.7744,6.6666-2.7222,12.5259-6.285,13.4376-12.7349,25.2778-21.2778,9.2931-6.7051,14.2271-6.697,18-13.7222,2.3051-4.2921,8.1857-26.5901,6.8263-27.3472Z"/><path class="p" d="M1010.4335,379.171c5.8154-3.8734,19.9938-17.0591,20.2242-17.0078,.5562,.1237-.5918,18.619-3.8353,29.7856-2.3075,7.9441-4.4261,10.0867-6.829,14-2.1351,3.4774-4.9004,5.2505-6.6667,6.4445-9.5294,6.441-6.155,6.9501-27.8888,25.2222-10.7943,9.075-13.538,10.5563-16.8889,11.4445-3.6464,.9664-9.9149,1.735-13.8889,2.2222-3.5117,.4305-5.2734,.6396-5.5555,.3333-4.7229-5.1271,58.1897-70.3535,61.329-72.4444Z"/><path class="t" d="M683.507,350.2377s.6707,1.4756,1.2595,2.7328c2.0338,4.3427,2.2275,4.4393,2.6217,5.4465,1.5129,3.8654,.6946,7.6415,.4897,8.5872-.7188,3.317-2.0186,3.8241-1.6863,4.7637,1.5413,4.358,33.3666,4.3847,42.3874-12.1011,.6185-1.1304,4.0283-7.3618,1.4656-11.996-2.2875-4.1367-8.2915-6.8155-13.5758-5.2706-29.968,8.7614-32.9619,7.8373-32.9619,7.8373Z"/><path class="an" d="M663.5541,236.6687c-1.9501,1.0485-.972,14.3876-.5068,14.2396,.8706-.2771,10.2682-1.2581,13.7604,.5837,2.1001,1.1076-10.0351-16.5536-13.2536-14.8232Z"/><path class="at" d="M844.6557,184.1154c-1.3993-1.066-19.9906-.1737-23.5767,.5513-10.6262,2.1483-21.5485,2.7745-32.0834,5.3333-29.7355,7.2224-24.5937,4.9178-37.75,8.6667-10.6885,3.0457-5.9719,2.2557-40.6666,14.3333-14.9252,5.1956-28.1899,14.3552-42.75,20.5-1.1129,.4697-4.9299,2.0644-5.0834,4.5-.0964,1.5293,1.2963,2.68,6.1667,6.9167,5.0687,4.4091,5.6373,4.9696,6,5.25,10.0671,7.7823,95.6151-19.2195,142.3889-53.3333,3.9488-2.88,29.4468-11.1241,27.3545-12.718Z"/><path class="ae" d="M808.2002,195.8273c-.2969-.6185-11.461,2.0993-21.9949,4.8993-8.9028,2.3664-10.7369,2.1927-20.7778,4.6667-7.0701,1.742-12.1487,3.3035-17.6667,5-10.3972,3.1967-18.0106,5.9845-25,8.5555-21.5826,7.9392-15.8738,7.1458-26.7778,10.6667-.0001,0-8.7036,2.8104-19,9.7778-1.7751,1.2012-4.73,3.3183-4.7778,6.2222-.0393,2.3911,1.9089,4.3098,2.6702,4.8893,5.319,4.0497,21.3539-4.9287,33.3914-12.0004,24.506-14.3967,28.4464-8.1784,63.494-24.4444,16.4552-7.6371,36.973-17.1207,36.4394-18.2326Z"/><path class="ay" d="M676.3502,250.9488c.0987,.8529,4.5121,13.7171,5.8194,15.2639,2.7868,3.2971,3.4304-2.3198,8.0833-2.25,4.6912,.0704,9.1718-8.8654,17.0725-13.0567,5.6627-3.004,8.8996-3.7114,13.5441-5.4662,17.3748-6.5645,17.8278-13.9507,35.1894-21.1682,10.3284-4.2937,19.0387-5.3672,31.6995-13.9429,4.5747-3.0986,4.8696-3.9285,4.728-4.2273-.7544-1.5914-17.1449,5.015-31.8391,10.4495-47.7833,17.672-85.1281,27.2193-84.2972,34.398Z"/><path class="ab" d="M829.8224,184.5043c.9642-.2084,2.8354-.5636,8-.6667,9.1835-.1833,16.5847,.6738,22.8334,1.5,13.6889,1.8099,11.9683,2.1648,20,3,5.2583,.5468,12.7444,1.2988,22.3333,1,10.8094-.3369,11.2375-1.6023,17.1666-.8333,6.1395,.7962,10.2041,2.7531,18.3334,6.6667,10.6115,5.1086,17.9108,12.7316,17.9108,12.7316,0,0-7.5385,6.1025-10.2441,6.9351-26.8103,8.2499-79.3984,14.4-91.8333,16.1667-11.8137,1.6785-72.2795,10.2693-106.8333,39.8333-4.2725,3.6555-19.6322,17.4568-31.467,13.0642-2.2112-.8207-12.6418,1.2865-17.3733-4.8558-7.0567-9.1608-9.2152-14.9306-9.2152-14.9306,0,0,8.2881-10.6167,25.8333-19.3889,3.4409-1.7204,11.5162-6.258,27.6667-15.3333,18.267-10.2646,16.191-9.5692,23.1111-13.1111,14.127-7.2305,15.8253-6.5695,30.7778-14.4445,10.7728-5.6737,16.1591-8.5105,17.5556-9.4444,4.7899-3.2033,8.7318-6.4383,15.4444-7.8889Z"/><path class="ah" d="M953.2807,204.8516s3.1661,2.2596,5.8889,4.4445c5.7534,4.6169,8.63,6.9253,8.5111,8.0556-.4637,4.407-26.7448,4.1811-49.9556,6.0555-4.1136,.3322-32.5414,2.7425-62.5555,10.7778-32.7005,8.7545-60.7162,22.4278-71.3333,27.6667-14.6059,7.2071-30.6735,11.4105-44.7778,19.5556-8.1307,4.6954-31.3135,30.6593-35.5972,23.4305-2-3.375-4.3742-25.4893-6.3611-28.5-1.2931-1.9594,12.6931-2.5036,15.7361-3.375,7.706-2.2068,7.0596-3.9662,20.5555-10.8889,10.6913-5.484,19.6448-8.7645,24.8889-10.6667,2.2823-.8279,4.5334-1.6016,30-8.7778,18.9808-5.3486,21.601-6.0095,28.4444-8.2222,10.4775-3.3877,11.293-4.0881,18.5556-6.2222,10.5395-3.0971,18.4148-5.5407,26.4861-6.9028,42.6058-7.1899,37.7878-6.3584,45.8333-8.6667,19.2114-5.5118,45.6805-7.7639,45.6805-7.7639Z"/><path class="aq" d="M966.5441,215.488s11.9987,12.4335,12.3897,13.1422c1.1553,2.0942,.8015,3.3329,.777,4.1912-.2009,7.031-51.9869,9.1132-88.0001,14.1667-39.2119,5.5023-109.5459,21.5184-133.1666,38.1667,0,0-52.1148,25.1718-54.2368,20.5601-2.4815-5.393,22.8129-25.6913,30.8479-27.5046,5.598-1.2633,17.6394-8.0089,49.3889-25.1667,19.6735-10.6318,24.1551-12.8144,34.8333-17.5,6.7047-2.942,16.7607-7.3129,28.5555-10.4445,18.6113-4.9414,22.62-1.7706,45.8889-4.4444,22.1044-2.54,72.7222-5.1667,72.7222-5.1667Z"/><path class="y" d="M906.9742,243.0263c-4.021,.329-10.8458,.9738-21.5833,2.5833-7.5551,1.1325-20.0265,3.029-34.9166,6.5833-12.9345,3.0875-12.5808,3.8185-34.8334,10.25-29.8783,8.6356-28.2396,6.66-41.3333,11.5-19.5334,7.2205-19.9028,10.4057-35.8333,14.5-11.5676,2.973-33.3661,15.679-30.005,17.4845,9.5013,5.104,7.9605,35.2991,7.9605,35.2991,0,0,86.2884-47.4838,185.8778-82.7836,7.4471-2.6396,33.8323-11.7635,33-15.1667-.6157-2.5179-15.973-1.2614-28.3334-.25Z"/><path class="x" d="M860.4752,260.0877s7.4863,4.437,16.5349,6.3659c8.8033,1.8766,15.5493,.9937,15.6041,1.6496,.0714,.8533-11.3524,2.2763-19.3057,3.6512-.0001,0-20.3813,3.5233-42.1528,12.5278-24.7918,10.2537-45.3851,28.7042-68.4722,49.3889,0,0-7.4412,6.6669-27.75,13.75-.87,.3034-6.0992,2.0748-7.75,.0833-.7392-.8918-.3253-2.0125-1.3333-2.75-1.2391-.9066-2.592,.2546-4.3334-.5833-1.2913-.6213-4.8452-1.5927-5.0549-2.0577-.3391-.7519,2.0824-2.8297,3.254-6.663,1.3843-4.5293,1.1795-6.6757,1.4907-6.9432,12.2862-10.5582,68.5601-37.3361,68.5602-37.3361,11.49-5.8094,27.8116-14.8474,32-17.1667,20.5068-11.3554,38.7084-13.9167,38.7084-13.9167Z"/><path class="v" d="M978.5446,228.0877s2.2991,2.3893,4.9584,5.4167c11.824,13.4608,18.9823,22.4884,17.7083,28-2.7004,11.6825-46.3727,8.2131-107.9999,7-28.2222-.5555-33.5494-8.2786-33.5494-8.2786,0,0,32.6605-11.5548,52.7161-16.7214,36.3435-9.3627,66.1666-15.4167,66.1666-15.4167Z"/><path class="v" d="M831.8839,281.8024c1.8924-1.7576,4.1167-2.9031,5.2183-3.4222,15.4861-7.2986,36.2757-8.6756,36.2758-8.6756,16.9312-.3219,33.5072-4.9792,50.3334-6.8889,60.5432-6.8714,77.3749-4.7244,77.3749-4.7244l17.4028,39.8355s-30.7375,2.2782-79.4444,10.9109c-30.3427,5.3779-43.6719,14.9226-69.6667,14.5833-19.4084-.2534-40.7121-8.6342-43.4444-21.1609-1.185-5.4328-.2051-14.7406,5.9503-20.4577Z"/><path class="aa" d="M835.7946,279.046s2.3504,5.6429,2.9232,8.6726c.6314,3.3398,.6115,5.9989,.5,9-.4778,12.8658-1.6326,15.4504,.5768,17.9524,1.73,1.9589,61.2275-4.2065,74.75-5.25,33.2286-2.5641,44.3209-6.1464,44.3209-6.1464,0,0-40.5157,34.8764-96.6477,44.444-38.701,6.5965-58.7024,3.2175-75.2843,23.6191-3.0728,3.7806-20.6571,10.4754-32.8824,13.8809-1.7384,.4843-14.2401,3.9669-20.8333-2.6666-5.0112-5.0417-5.8649-12.4386-4.8398-21.4921,.5155-4.553,.5273-10.7112,3.3333-15.8333,5.0547-9.2269,17.0917-15.219,19.9167-17.3056,52.9167-39.0833,84.1667-48.875,84.1667-48.875Z"/><path class="r" d="M900.8225,320.566c-8.8095,2.4622-30.9936,13.9042-30.9936,13.9042,0,0,67.5221-8.4279,67.1602-12.8548-.0769-.9411-2.9935-1.3767-7.1666-2-5.2531-.7846-12.6109-3.63-28.9999,.9506Z"/><path class="w" d="M899.7221,321.801c-.1011-1.254,3.8763-2.4781,8.4445-3.8889,35.236-10.8824,33.3635-10.6603,40.1112-12.2222,12.0399-2.7869,20.2762-4.6934,32.1111-6.3333,30.538-4.2315,36.1974-6.6022,36.1974-6.6022,0,0,11.3366,26.8855,6.7083,38.8958-6.6351,17.2178-25.4508,23.2933-85.9058,40.0397-98.6935,27.3386-99.173,24.7214-116.1112,34.1111-26.5766,14.7327-39.4797,28.9832-53.7778,23.2222-14.6304-5.8949-23.691-29.9095-16.7778-44.3333,1.2618-2.6326,3.973-6.8594,26-18.2222,12.249-6.3187,16.2281-5.9809,33.4564-15.9722,8.8611-5.1389,18.8238-11.3413,27.4325-12.25,60.0001-6.3333,74.3333-11,88.639-14.0833,3.9521-.8518,8.9669-3.3105,8.9166-3.4722-.0945-.3039-8.3159,3.2061-18.6666,3.7778-7.8436,.4332-16.6302-.8363-16.7778-2.6666Z"/><path class="al" d="M851.9613,396.3377c-.2941-.3328-.9289-3.3115-3.2916-2.6667-10.1448,2.7686-8.8233,.0796-13.6018,.6539-15.8501,1.9047-67.2689,23.736-65.6899,33.8461,.3511,2.2484,2.5743,1.946,6.5,6.5,7.5189,8.7222,5.0532,16.431,8.5,18.8333,11.3809,7.9321,71.0206-53.2782,67.5833-57.1666Z"/><path class="m" d="M864.794,392.6349c-7.5449,.0522-12.9893,4.928-16.4444,7.7778-5.6921,4.6947-13.3132,8.8335-28.5556,17.1111-18.7191,10.1657-26.7323,10.2117-32.5555,20-2.6798,4.5045-5.0281,12.2309-2.9647,13.9388,2.1454,1.7756,8.2253-3.5524,30.1869-20.1611,32.3245-24.4457,38.4459-27.1089,49.3062-29.6306,3.9404-.915,10.3671-4.0891,10.3605-5.9249-.0054-1.5026-4.8964-3.1418-9.3334-3.1111Z"/><path class="ap" d="M1024.382,325.6712s2.5255,9.1177,1.3131,12.7604c-4.3567,13.0897-27.3273,9.1673-64.5394,22.2394-14.7596,5.1849-10.519,5.5817-42,18.5555-29.6774,12.2306-40.3842,14.7372-46.7386,15.9877-20.8727,4.1077-42.1379,3.9814-42.4836,1.6234-.3614-2.4654,22.3515-5.9713,65.8334-18.6667,33.9832-9.9221,50.9749-14.8831,66.3333-22.1667,34.4341-16.33,62.2819-30.3332,62.2819-30.3332Z"/><path class="z" d="M1025.9613,337.671s.5981,2.8112,.4167,3.6667c-4.488,21.1622-42.2338,48.1583-45.0834,50.0833-37.613,25.4093-29.4375,34.0932-62.4166,58.0834-60.2686,43.8414-137.4412,45.7272-143.1667,32.5-1.8561-4.288,2.0367-14.2299,5.6666-23.5,2.1107-5.3904,3.6452-7.7746,4.7917-9.3334,3.6909-5.0182,7.8375-7.5698,12.7083-10.5,16.7791-10.0939,17.7712-10.0738,23.8334-14.0833,8.9242-5.9025,8.5878-7.1456,17.4166-12.9167,6.7087-4.3853,12.8458-7.5522,20-10.8333,25.4831-11.6872,40.1423-13.9401,66.1389-24.7778,6.6143-2.7574,2.4897-1.2877,25.6667-12,59.6022-27.5479,74.0277-26.3889,74.0277-26.3889Z"/><path class="af" d="M1030.3806,361.4364c-4.1144-3.937-31.6588,21.7629-46.8776,37.5263-3.5764,3.7044-5.5089,5.9915-5.0691,6.5546,.9718,1.2444,11.1787-8.9353,30.1941-18.3046,7.8409-3.8635,15.2588-6.6426,18.875-14.4167,.7052-1.5162,4.3886-9.9138,2.8776-11.3596Z"/><path class="p" d="M1026.378,341.3377s-6.4225,7.8355-14.75,19.25c-2.4404,3.3451-6.6688,8.7391-30.8055,28.9167-16.2622,13.5947-29.6014,24.6874-49.2223,38.2222-19.5094,13.4579-27.4072,17.0364-34.1111,19.4444-9.0152,3.2382-12.1415,3.0201-27.2222,6.8889-18.7496,4.8101-20.1781,6.7535-39.1111,12.3333-34.6717,10.2182-47.2394,8.8164-50.2222,17.5555-2.5705,7.5314,3.4982,18.1401,7.5555,18.1111,3.294-.0235,8.0628-4.5534,11.2778-10.2778,8.8319-15.7256,26.3466-19.6405,52.5-25.6111,7.1095-1.623-2.3245,.2807,61.7778-20.5555,17.5991-5.7205,47.4526-15.3367,58.5555-31.6667,.8834-1.2994,3.0948-4.7689,6.8889-9.1111,1.6237-1.8582,6.1672-6.8862,19.7777-16.8889,3.9191-2.8802,5.2843-3.7436,17.4445-12.4444,9.3184-6.6675,10.6478-7.6854,12-10,5.366-9.1854-2.3333-24.1667-2.3333-24.1667Z"/><path class="f" d="M1009.9069,386.5891c.424,.1041,.8592,4.044,1.0231,5.1885,.6276,4.3826-2.8146,8.0591-4,9.8334-18.802,28.1434-37.1845,41.5777-46.052,44.4767-39,12.75-22.1335,2.4682-42.9167,18.3333-31.6944,24.1944-40.7443,40.3183-81.8647,60.44-16.2877,7.9702-24.2594,9.3221-30.0833,5.9166-10.6512-6.2282-15.8181-26.4819-9.2812-40.8774,10.1838-22.4268,40.3234-19.3089,88.1978-36.5392,64.9545-23.3775,119.8369-68.0333,124.9769-66.7719Z"/><path class="n" d="M920.6558,464.8932c-27.7222,15.1944-29.6389,22.9909-33.6201,33.4548-.8925,2.3458,6.0331,4.5132,11.6479-1.3806,13.4167-14.0833,17.8333-10.5833,31.5833-28.2359,2.2458-2.8832-8.6463-4.3671-9.6111-3.8383Z"/><path class="al" d="M920.6558,464.8932s-5.9167,1.7778-6.6111,2.2778c-4.1976,3.0222-7.671,6.7354-24,18.8334-10.4597,7.7495-8.4379,6.9258-19.5,15.1666-10.6673,7.9467-16.0009,11.9201-20.25,14.3334-21.2269,12.0558-42.7272,12.1333-42.625,14.5,.056,1.2956,7.0221,.836,13.625,1.1666,22.2695,1.1153,57.6306-5.3824,72.3333-29.25,2.7778-4.5093,1.6315-6.1594,6.0833-11.25,12.5834-14.3889,20.9445-25.7778,20.9445-25.7778Z"/><path class="ax" d="M813.378,528.5321c.0336,.4664,.088,1.1835,.1667,2.0555,1.1545,12.7974-4.0556,26.4722,14.5,39.6667,2.5903,1.8419,5.6745-2.5562,8.4167-4.8334,42.5833-35.3611,44.1666-41.0278,47.4722-44.5278,6.9452-7.3537,10.8889-9.7222,14.6667-13.8333,1.4534-1.5816,6.3743-10.8593,4.4288-11.8979-8.35-4.458-24.6163,10.722-43.4786,21.1201-9.6096,5.2975-18.7662,8.4342-46.1725,12.25Z"/><path class="aj" d="M784.7302,449.6197s0,10.6818-.8106,13.7597c-5.6689,21.5264,4,36.5,4,36.5l8.875-10.25c.2892-.1881,7.4825,25.8429,11.4167,39.7083,.6351,2.2383,5.1666-.8056,5.1666-.8056,0,0,17.9768,34.3071,12.0278,37.6389-3.9237,2.1974-10.3056-13.3333-32.6004-25.3055-14.2664-7.661-21.8192-15.966-25.4274-28.0278-1.8536-6.1965-.6715-5.673-2.1281-12.4167-4.5572-21.0988-26.3058-26.1746-24.6667-34.8889,1.9799-10.5256,44.1471-15.9124,44.1471-15.9124Z"/><path class="s" d="M996.9613,456.0877c-.6931,.2625-14.5754-.9172-21.8333-2-9.1895-1.371-16.3517-1.3599-21.0834-1.3333-3.9645,.0222-5.9467,.0333-8.75,.3333-8.8654,.9486-8.8405,2.8317-14.3334,2.5833-2.1648-.0979-6.2334-.5742-11.1666,0-1.0471,.1219-2.7703,.3652-3.1666,1.4167-.3574,.9484,.4929,2.2136,1.25,2.9167,1.8722,1.7388,3.6718,.5031,6.3333,2.1666,1.4138,.8837,1.1603,1.3912,2.9167,2.5,1.6814,1.0613,3.2305,1.4274,3.9166,1.5834,3.2405,.7367,5.6803-.0519,8.5-.5,2.2816-.3626,6.9623-1.1065,11.4166,.25,4.7362,1.4423,3.9181,3.6455,9.9167,6.1666,4.76,2.0006,6.8768,1.2864,8.9166,3.75,1.7078,2.0625,.796,3.2538,2.8334,6.1667,1.8638,2.6647,4.3331,4.1075,5.75,4.9167,4.1486,2.3691,6.4338,1.8024,7.5833,4,.6145,1.175,.8003,2.9413,0,4.1666-1.3618,2.085-4.3231,.6812-8.1666,2.4167-.9705,.4382-1.8407,1.0059-6.3334,6.0833-5.7354,6.4818-5.1241,6.3179-6.5833,7.75-6.5914,6.4695-12.0867,4.7513-18,11.8334-.6964,.834-3.1002,3.713-2.3334,4.8333,.7241,1.0578,3.9008,.0009,7.5834-1.1667,13.5648-4.3007,10.0056-2.4963,15.9166-4.75,6.8605-2.6157,14.639-5.5813,23.5-11.6666,5.7776-3.9677,8.6663-5.9516,10.9166-9.5,4.1295-6.5115,3.9445-13.4144,3.75-20.6667-.2269-8.4637-2.2539-13.755-3.4166-16.3333-1.9927-4.4188-4.8013-8.3076-5.8334-7.9167Z"/><path class="o" d="M929.9336,471.5044c.4968-.0589,2.9323-.3478,4,1,.5909,.7459,.7198,1.939-.7778,9.2222-.4548,2.2119-.7002,3.2373-.2222,3.5555,.7026,.4677,2.0975-1.1721,5.5555-2.7778,2.2384-1.0394,3.6222-1.6587,4.8889-1.1111,.3114,.1346,.9725,.494,2.4445,3.6667,.8677,1.8703,1.2164,2.9925,2,5.1111,1.4946,4.0413,1.6075,3.6949,2.1111,5.4445,.5499,1.9108,.7074,3.448,1,6.4445,.3668,3.7567,.5502,5.6349,.4445,7.4445-.1821,3.1163-1.0033,4.8562-2.8889,9.6666-4.7184,12.0373-4.4913,13.6819-7,15.1111-2.5688,1.4635-6.0461,1.5845-8.8889,.2222-2.334-1.1184-4.8243-3.5164-5.2222-6.4445-.283-2.082,.5972-3.6589-.1112-4.1111-.8165-.5213-2.0774,1.5159-4.4443,1.6667-1.9877,.1266-3.5436-1.1541-5.1112-2.4445-1.4497-1.1933-3.9199-3.2266-4-6-.0499-1.7277,.8671-2.3808,.3334-3.5555-.4865-1.0706-1.521-1.129-3.6666-2.2222-2.4106-1.2282-4.6351-2.3617-4.7778-3.8889-.155-1.6589,2.2856-2.2928,2.3334-4.7778,.0034-.1783,.0323-1.6873-.7778-2.1111-1.0156-.5314-2.3429,1.1691-3.3333,.6667-.3345-.1697-.4988-.5237-.7964-2.7925-.5176-3.9453-.2524-4.6407,.1296-5.0964,.5607-.6688,1.3755-.824,1.6667-.8889,4.1036-.9141,11.5294-7.7881,14.4443-10.7778,5.8794-6.0301,6.5465-9.7336,10.6667-10.2222Z"/></g><g id="e"><path class="ar" d="M139.0734,596.165c.082,.2148,22.3223-5.2581,29.0824-6.8829,31.491-7.5685,51.0814-18.6666,63.7778-24.4445,18.0312-8.2056,14.8448-2.3526,75.5556-14.8889,11.8322-2.4432,35.4437-8.2214,82.6666-19.7778,45.66-11.1738,50.5205-12.6661,70.2222-16.8889,16.4468-3.5251,25.5452-5.1612,49.1111-10.4445,26.6644-5.9779,25.3953-6.2102,34.6666-7.7778,20.1752-3.4112,38.561-4.4038,55.7778-5.3333,17.3645-.9375,21.6241-.5731,31.5555-2.6667,17.0666-3.5977,16.7447-7.2577,29.3333-9.1111,16.7988-2.4733,18.7086,3.8473,44.2222,4,15.8932,.0951,18.5291-2.3373,26,.6667,10.3761,4.1722,13.9399,12.3419,22,23.3333,15.6263,21.3093,36.2267,36.9616,38.6667,35.1111,3.6399-2.7605-21.4147-53.3599-46.3057-77.4809-127.7959-123.8428-608.4093,127.1451-606.3323,132.586Z"/><path class="q" d="M700.3942,368.0566c1.2141-.4187,3.1111-1.075,5.4282-1.8856,18.8865-6.6072,22.473-8.3517,25.2222-6.4444,1.9753,1.3704,.6977,2.6691,3.8889,11.3333,2.2987,6.241,4.2668,11.3906,8.1111,12.3333,2.8748,.705,3.9586-1.6392,6.1111-1.2222,6.9513,1.3464,.2275,26.6794,12.6667,41.3334,9.0314,10.6394,21.8592,8.2217,23.8889,17.6666,1.0706,4.9819-1.2806,11.321-5.3334,14-3.0697,2.0291-5.4311,.8449-13.2222,2.6667-4.6607,1.0898-7.6429,2.4085-9.2222,3-14.2759,5.347-58.2128,5.3199-62.6667,5.3333-11.9758,.0361-27.3172,2.9871-58,8.8889-14.546,2.798-37.3898,7.6347-72.8889,14.8889-23.7939,4.8622-34.9968,6.7424-35.8333,5.3334-3.0951-5.2134,33.2625-33.0317,171.8495-127.2255Z"/><path class="az" d="M708.0863,367.1293c10.3794-.9585,12.1667,16.1249,12.1667,16.125,.4565,6.9167,.8281,12.5852,.375,15.75-4.6073,32.1804-7.4942,48.104-12.25,53.1666-10.1198,10.7728-19.4255,3.0418-57.3333,11.1667-23.2766,4.989-24.1744,8.8483-51.6667,14.8333-25.8881,5.6359-38.8322,8.4537-48.7513,3.879-25.1309-11.5906-70.5577-52.0977-55.6097-69.0178,10.2512-11.6037,59.4539-1.6248,92.6945-8.8611,71.5833-15.5833,79.6666-33.2825,120.375-37.0416Z"/><path class="ad" d="M527.5446,407.8377c2.8601,.9465,5.5137,2.4146,5.6667,2.5,17.5527,9.7983,24.9004,34.7231,22,54.8333-.8926,6.189-1.4058,17.153-11.75,24.9167-8.8031,6.607-20.9119,7.8761-24.5834,8.25-36,3.6667-58.9444,14.5-175.8333,32.8333-40.1074,6.2906-48.3253,3.84-70.8333,10.3334-32.3147,9.3224-57.4035,21.354-62.7222,15.6666-6.6318-7.0915,7.2061-50.6457,36.3333-59.3333,52.2026-15.5703,68.6392-15.3719,144.7222-47,36.403-15.1329,107.8759-52.6387,137-43Z"/><path class="u" d="M223.2669,512.7281c-.0274,1.2229-137.3657,89.4435-136.2251,89.865,1.0833,.4004,30.9541,.8794,48.7529-5.2555,13.2645-4.572,15.2111-7.0317,40.75-19.75,28.8763-14.3803,33.0825-14.5698,45.8333-23.75,6.2388-4.4918,18.7426-14.1738,26-30.5833,2.0132-4.5519,5.3333-12.269,2.25-15.5834-2.9842-3.2078-17.8265-.5164-27.3611,5.0572Z"/><path class="k" d="M219.6558,499.2821c-.6149-1.2579,10.1951,1.3213,16.2222,.4722,7.1504-1.0073,7.3842-4.8383,9.125-3.5417,1.6545,1.2324,8.3801,13.4819,6.5417,14.2917-7,3.0833-27.4583,9.0278-27.0833,3.6944,.4117-5.8554-3.7556-12.7689-4.8056-14.9167Z"/><path class="u" d="M204.5034,493.0076c-.5909-.4924,11.4627-1.9789,15.6523-2.3922,10.4325-1.0291,15.8016-1.5587,20.8889,1.8889,.856,.5801,2.9686,1.5583,4.5728,4.3604,1.8338,3.2031-26.1722,10.7636-33.6144,4.6813-2.7361-2.2361-3.4996-5.205-7.4996-8.5384Z"/><path class="g" d="M157.1757,569.3897c.0137,.0018-8.9104,5.2925-8.8961,5.2944,4.0367,.5369,19.2061-4.3875,27.0984-5.8465,6.8353-1.2636,5.8662-2.221,13.1667-3.8333,8.8645-1.9577,10.6548-.6259,16.5-2,6.0341-1.4185,12.0625-4.7121,20.9167-11.5834,9.81-7.613,19.0856-19.6231,25.5582-35.8405,.8113-2.0328,.9456-5.5669-.0859-7.2984-.8915-1.4964-2.9311-1.8186-3.3056-2.0225-3.5445-1.9299-14.6949,6.7766-24.3801,11.7889-46.662,24.1487-62.6821,46.2291-66.7588,48.5669-.2881,.1652-1.7372,.9318-1.7222,1.9445,.0066,.4496,.3,.8276,.6111,1.1111"/><path class="ba" d="M212.1558,493.2821c-7.2301-1.4625-14.4748,.1034-30,9.1111-20.493,11.89-27.6138,16.4145-39.7778,20.8889-20.5024,7.5416-25.1566,1.2596-49.2222,7.6666-14.3593,3.8229-34.2244,7.2876-41.3333,26.2222-3.6345,9.6805-3.2707,23.0549,4.0556,32.5,4.942,6.3714,11.6653,10.2909,14,11.1667,18.9857,7.1214,41.0841-3.5452,92.2778-34.4445,36.2061-21.8531,55.8234-25.9944,60.3333-43.4444,1.0135-3.9214,4.9961-15.4325-1.7778-23.2222-3.6984-4.2531-7.0558-6.141-8.5556-6.4444Z"/></g></svg>