<?xml version="1.0" encoding="UTF-8"?>
<svg width="201px" height="201px" viewBox="0 0 201 201" version="1.1" xmlns="http://www.w3.org/2000/svg" xmlns:xlink="http://www.w3.org/1999/xlink">
    <!-- Generator: Sketch 46.2 (44496) - http://www.bohemiancoding.com/sketch -->
    <title>LTC</title>
    <desc>Created with Sketch.</desc>
    <defs></defs>
    <g id="Page-1" stroke="none" stroke-width="1" fill="none" fill-rule="evenodd">
        <g id="Artboard" transform="translate(-767.000000, -1610.000000)">
            <g id="LTC" transform="translate(767.000000, 1610.000000)">
                <path d="M100.0647,0.7772 C44.8357,0.7772 0.0647,45.5482 0.0647,100.7772 C0.0647,156.0062 44.8357,200.7772 100.0647,200.7772 C155.2937,200.7772 200.0647,156.0062 200.0647,100.7772 C200.0647,45.5482 155.2937,0.7772 100.0647,0.7772" id="Fill-491" fill="#3D3E3C"></path>
                <path d="M100.0647,9.1107 C150.6097,9.1107 191.7317,50.2327 191.7317,100.7777 C191.7317,151.3217 150.6097,192.4437 100.0647,192.4437 C49.5197,192.4437 8.3977,151.3217 8.3977,100.7777 C8.3977,50.2327 49.5197,9.1107 100.0647,9.1107" id="Fill-492" fill="#FFFFFF"></path>
                <path d="M163.0828,63.619 C160.8668,59.866 158.2668,56.28 155.3218,52.889 L52.1768,156.034 C55.5678,158.978 59.1538,161.579 62.9068,163.795 L163.0828,63.619 Z" id="Fill-493" fill="#B6B7BA"></path>
                <path d="M146.8382,44.5628 C143.3772,41.6758 139.7102,39.1648 135.8932,37.0178 L36.3052,136.6048 C38.4522,140.4228 40.9632,144.0888 43.8512,147.5498 L146.8382,44.5628 Z" id="Fill-494" fill="#B6B7BA"></path>
                <path d="M124.3343,31.7654 C119.4593,30.0554 114.4383,28.8924 109.3623,28.2464 L27.5343,110.0754 C28.1813,115.1494 29.3423,120.1714 31.0533,125.0464 L124.3343,31.7654 Z" id="Fill-495" fill="#B6B7BA"></path>
                <path d="M92.7957,28.0032 C76.5687,29.6142 60.7777,36.6292 48.3477,49.0592 C35.9177,61.4892 28.9017,77.2812 27.2907,93.5082 L92.7957,28.0032 Z" id="Fill-496" fill="#B6B7BA"></path>
                <path d="M172.3469,89.6566 C171.5849,84.6786 170.2999,79.7686 168.5089,75.0036 L74.2909,169.2206 C79.0559,171.0116 83.9659,172.2976 88.9439,173.0586 L172.3469,89.6566 Z" id="Fill-497" fill="#B6B7BA"></path>
                <path d="M173.0125,105.8006 L105.0885,173.7246 C122.0975,172.5606 138.7805,165.4976 151.7825,152.4946 C164.7855,139.4916 171.8485,122.8106 173.0125,105.8006" id="Fill-498" fill="#B6B7BA"></path>
                <polygon id="Fill-499" fill="#F8F9F7" points="91.9568 126.346 96.2398 95.56 123.2748 76.102 123.2748 57.435 99.1268 74.81 104.0778 39.223 74.5318 39.223 68.1928 97.067 49.3798 110.603 49.3798 129.285 65.9708 117.345 62.4108 149.831 91.9568 149.831 159.0828 149.831 159.0828 126.346"></polygon>
                <path d="M64.9197,147.5823 L156.8347,147.5823 L156.8347,128.5943 L89.3727,128.5943 L94.1457,94.2973 L121.0277,74.9503 L121.0277,61.8233 L96.1757,79.7033 L101.4947,41.4713 L76.5487,41.4713 L70.3197,98.3073 L51.6287,111.7563 L51.6287,124.8963 L68.7567,112.5693 L64.9197,147.5823 Z M161.3307,152.0793 L59.9027,152.0793 L63.1867,122.1203 L47.1317,133.6733 L47.1317,109.4513 L66.0667,95.8273 L72.5167,36.9743 L106.6617,36.9743 L102.0757,69.9173 L125.5237,53.0483 L125.5237,77.2533 L98.3327,96.8223 L94.5407,124.0983 L161.3307,124.0983 L161.3307,152.0793 Z" id="Fill-500" fill="#3D3E3C"></path>
            </g>
        </g>
    </g>
</svg>