<svg xmlns="http://www.w3.org/2000/svg" viewBox="0 0 1655.78 607"><defs><style>.g{fill:#dfdddd}.k{fill:#cbc8c1}.p{fill:#202537}.q{fill:#cf9c88}.u{fill:#c7c6c4}.v{fill:#353c5b}.ad{fill:#30323d}.af{fill:#1e1e23}.al{fill:#202636}.ar{fill:#848583}.az{fill:#e8d5c8}.ba{fill:#633738}</style></defs><g id="a"><path d="M683.38 350.27c1.67 2.1 3 5.07 3 5.07.86 1.92 3.62 8.05 1.5 11-2.12 2.93-8.4 1.75-9.84 1.5-29.9-5.17-60.29 6.93-90.5 9.83a5708.07 5708.07 0 0 0-69.5 7.17 2183.98 2183.98 0 0 0-37 4.16c-10.6 1.31-30.67 3.8-54.66 7.67-20.3 3.27-21.8 4.04-48.67 8.83-34.42 6.15-40.05 6.33-69.83 11.5-30.43 5.3-46.5 8.09-67 13-23.9 5.74-24.15 9.37-92 28-56.75 15.59-11.65 2.01-72.5 19.17-10.5 2.96-33.25 11.74-57.34 7.5C7.81 482.7.62 470.33.04 468c-2.73-11.01 120.23-39.95 259.67-65.6 190.32-35.03 418.85-58.22 423.67-52.13Z" class="ar"/><path d="M155.14 351.55c.26-1.05 2.7-1.23 7.57-1.6 9.83-.75 28.6-2.18 38.67 10.22 1.48 1.82 5.68 7 4.1 9.45-4.42 6.92-51.65-12.91-50.34-18.07Z" class="u"/><path d="M179.93 361.5c1.37-.75 2.64.23 5.23.34 10.44.41 12.52-.3 16.66 2.55 3.28 2.25 6.08 6.73 5.34 11.11-.65 3.8-3.67 5.99-4 6.23-7.1 5-21.97.24-25.23-8.67-1.48-4.07-.9-9.95 2-11.56Z" class="k"/><path fill="#a1a2a2" d="M187.52 414.62c-.08-.12-31.46-25.9-32.56-25.2-20.52 13.1-34.24 37.8-55.42 45.25-31.7 11.16-87.92 40.58-85.71 43.25 1.14 1.38 41.92-2.4 63.71-10.42 23.1-8.5 43.31-11.44 68.56-26.69 17.04-10.3 41.57-25.97 41.42-26.2Z"/><path d="M180.89 370.05c-.82 1.27.45 2.86.96 4.9 1.7 6.97-90.07 65.96-89.18 65.75.84-.2 21.04-4.02 32.66-7.6 25.5-7.85 30.2-2.1 47.83-10.33 1.7-.8 23.4-11.15 30.6-31.52 2.7-7.68.68-11.67-.33-13.75-4.36-9.02-20.27-10.97-22.54-7.45Z" class="g"/><path d="M503.1 366.07c-3.8 3.29-34.28 14.27-32.72 17.68 2.44 5.36 48.4-5.77 92-15.36 35.2-7.74 52.81-11.61 71.33-14.22 57.89-8.15 72.74 1.1 82.22-11.33 17.51-22.97-8.66-86.58-42.22-92.22-8.37-1.41-15.2 1.12-25.55 5.77-59.93 26.91-80.67 54.06-145.05 109.69Z" class="q"/><path d="M646.16 257.5c3.46-1.44 8.79 6.59 13.88 13 10.34 13 26.06 41 14.34 63.67-6.13 11.85-19.31 12.1-64.22 20-80.18 14.1-91.19 22.6-107.05 11.9-23.43-15.79-33.43-71.73-16.57-71.73 12 0 27.22 2.52 66-1.67 12.34-1.33 16.8-6.6 33.67-13 26.33-10 44-15.5 59.95-22.17Z" class="az"/><path d="M483.49 294.4c1.33.74 3.23 1.9 5.33 3.55 21.78 17.06 18.83 50.01 18.67 51.55-.9 8.65-5 25.67-18.67 32.67-7.6 3.9-17.04 3.48-18.89 3.57-41.29 1.93-227.2 14.43-316.77 51.43-11.52 4.76 4.66-6.13 19.22-13 10.24-4.83 22-17.67 30.33-32 5-8.59-2.4-16.47 4-18.33 28.67-8.34 47.13-10.49 101.33-30.34 31.68-11.6 29.73-12.87 71.67-26.33A564.04 564.04 0 0 1 483.5 294.4Z" class="ad"/><path d="M167.3 351.25c-3-.75-10.88.13-12.16.3-25.45 3.33-39.43 21.95-39.43 21.95-15.3 10.42-22.96 15.63-31.67 20.17-24.11 12.56-32.6 10.14-53.83 23.5-18.15 11.43-22.26 19.7-23.33 22-5.29 11.42-6.66 29.3 2.66 36.5 8.38 6.47 21.7 1.52 32.5-2.5 11.17-4.15 14.64-8.05 36.34-22.83 11.92-8.12 20.94-14.27 32.83-21.17 16.98-9.86 20.38-9.97 37-20.17 19.72-12.09 29.92-19.18 32.92-24.66 1.35-2.46 3.5-8.5-2.67-23.75-.56-1.39-5.36-7.88-11.17-9.34Z" class="ba"/></g><g id="b"><path d="M1458.6 303.34c-.78-5.77.38-11.16 4-10.4 13.15 2.8 36.47 7.34 40.22 2.56 2.53-3.2 30.93-16.17 37.4-14.33 3.92 1.12 12.78 1.22 12.94 4.45.16 3.32-7.45 5.38-6.9 7.66.23.93 1.69 1.42 7.23 2.34 5.34.88 9.4 1.32 10.44 1.44 10.74 1.18 12.69 1.77 17.45 1.33 0 0 2.98-.27 5.66-.89 10.18-2.33 19.5-10.93 23-17.1 8.16-14.35-1.6-39.11-15-50.56-42.65-36.45-161.92 28.01-158 50.66 1.22 7 21.76 24.31 21.56 22.84Z" class="ar"/><path fill="#d5a38e" d="M1412.38 172.34c-1.87 1.29 26.5 51.17 26.66 58.28.1 4.47-.38 8.12-1.33 15.33-.73 5.52-1.25 4.3-1.8 5.56-.41 1 .56 2.61.77 3.6.59 2.76 2.13 5.18 4.2 10.4 2.82 7.12 2.99 9.18 5.72 11.77 1.67 1.58 3.24 2.23 6 3.34 7.44 2.98 10.58 1.87 20.67 4.22 5.79 1.35 5.56 1.9 9.55 2.44a42 42 0 0 0 14-.44c4.14-.86 6.88-2.1 11.56-4.22 4.4-2 7.32-3.75 12.22-6.67 6.85-4.1 10.28-6.14 11.78-8 1.58-1.97 2.68-4.08 5.55-5.56a13.35 13.35 0 0 1 5.56-1.33c9.62-.67 11.5.65 16.44-.22 5.17-.92 8.65-3.33 10.9-4.9 2.77-1.92 6.71-4.74 7.55-9.32.2-1.09-.45-3.78-.45-3.78s-105.8-72.44-112.77-73.9c-3.95-.82-51.85 2.75-52.78 3.4Z"/><path fill="#fff" stroke="#000" stroke-miterlimit="10" d="M1349.6 149.84c1.4-1.6 5.57-1.5 13.89-1.34a58.5 58.5 0 0 1 21.11 4 58.9 58.9 0 0 1 14.22 8.23c5.45 4.23 7.85 2.95 16.22 19.82 5.46 11 6.37 13.63 8.5 17.08.76 1.22 4.16 8.03 7.84 15.7 2.54 5.31 5.91 10.35 6.96 15.34 1.42 6.82.52 3.25-1.07 17.95-.37 3.34-1.65 4.77-2.56 5.33-13.75 8.44-95.76-90.05-85.11-102.11Z"/><path fill="#303a52" d="M1624.38 217.73c3.28 4.67-2.15 8.41-2.56 33.1-.12 7.63.32 11.72-.66 20.23-1.08 9.3-1.88 15.59-6.12 21.78-5.33 7.79-13.81 12.14-14.44 11.44-.25-.27.8-1.25 2.78-4.22a57.9 57.9 0 0 0 6.78-13.89c.35-1.11 2.54-7.93 1.44-8.44-1.18-.55-4.13 6.96-12.11 13.33-4.9 3.9-10.89 6.74-11.78 5.67-.7-.86 2.45-3.41 6.67-10.56 3.5-5.94 5.1-10.55 6.78-15.44 1.23-3.59 2.13-6.24 1.55-6.56-1-.55-4.28 7.21-11.89 13.56-7.57 6.32-15.9 8.28-22.22 9.77-9.4 2.22-16.09 1.79-16.11 1.56-.03-.23 6.55-.38 13.11-4.56.3-.18 4.3-2.76 3.89-3.66-.45-1-5.72 1.22-11.22 1.66-8.2.67-15.57-9.99-22.23-8.6-32.5 6.73-45.67 18.37-7.6-2.75 1.73-.96 3.94-5.82 6.91-7.45 25.97-14.3 81.21-57.1 89.03-45.97Z"/><path fill="#fff" d="M1495.16 254.73c.7.05 1.71.17 2.88.44 3.71.87 6.2 2.64 7.78 3.78 2.7 1.95 4.05 2.93 4.78 4.67 1.04 2.47-.17 3.55 1 5.77 1.26 2.39 3.82 3.34 5 3.78 2.76 1.03 5.18.77 6.11.56 3.68-.83 5.05-1.63 7.44-4.24.82-.89 1.61-2.8 2.87-3.9 3.47-3.06 4.58-2.7 4.43-3.07-.43-1.11-2.84-2.44-6.3-2.57-2.71-.1-4.68.07-9.22.11-2.8.03-3.97-.02-5-.89-1.5-1.26-1.63-3.35-1.66-3.78-.23-3.46 2.45-5.3 2-6.22-.56-1.14-5.7-.4-22.11 5.56Z"/><path fill="#3f5e7e" d="M1403.49 121.62c-1.37-.55 1.27-10.1 1.55-11.12.42-1.5 1.68-5.85 5-12.88a113.5 113.5 0 0 1 7.45-13.67c3.56-5.55 6.5-10.13 11.67-15.11 3.16-3.05 5.51-4.67 5.1-5.45-.37-.73-2.91-.12-13.66 2.67-8.28 2.15-10.06 2.64-10.33 2.11-.59-1.15 6.63-6.1 11.77-9.22a116.57 116.57 0 0 1 22.67-10.67s4.28-1.45 25.56-6.44c-.55-.81-1.38-1.9-2.56-3-7.64-7.12-19.58-4.97-19.67-6.11-.05-.7 4.34-2.52 10.67-2.56 13.43-.09 22.67 7.88 24.78 5.33.48-.58.33-1.38 0-2.88-1.75-8.04-3.37-12.93-3.89-15.12-1.99-8.38 2.68-17.59 4.89-17.5 1.43.06 1.43 3.99 4.44 11.84 2.64 6.86 4.87 12.66 10.11 17.33 2.08 1.85 6.35 3.68 14.9 7.33 5.86 2.52 8.44 3.23 10.33 2 1.25-.81 1.78-2.74 2.77-6.55 1.54-5.86 1.03-7.88 3.12-10.67 1.06-1.42 2.93-3.22 3.88-2.78.6.28.65 1.31.67 1.78 0 0 .2 3.72 1.45 11.56.46 2.94 1.06 6.74 3.44 7.66.9.35 1.42.04 2.78 0 3.34-.1 5.77 1.63 7.55 2.67 4.05 2.36 6.36 2.18 11.78 4 10.07 3.38 21.12 10.4 24.89 12.89a127.88 127.88 0 0 1 24.67 21.11s18.9 21.2 25.1 48.67c3.41 15.07-1.12 21.42-1.71 22-.05.04-.48.46-.4.6.18.3 2.02-.73 3.84-1.16 2.4-.56 4.42.02 5.89.45.93.26 5.92 1.7 8.39 6.1.8 1.43 1.22 2.97 1.1 9.79-.08 5.52-.13 8.28-.66 12-1.17 8.22-3.65 15.9-7.78 26.88-5.98 15.95-6.72 15.71-9.55 24.9-4.55 14.77-4.17 20.4-4 22.22.9 9.75 5.39 16.4 4.22 17.1-1.32.8-6.47-4.69-9.55-10a29.63 29.63 0 0 1-3.56-9.1c-.54-2.85-.45-4.97 0-10.23.99-11.63 1.74-15.73.89-16-1.08-.34-2.54 6.3-8.45 11.34-3.93 3.35-8.04 4.46-10.44 5.1-26.1 7.1-55.33-.66-55.33-.66-17.74-4.71-49.6-13.17-72.9-40.67-18.55-21.9-16.2-37.63-35.77-54-3.3-2.76-12.07-9.6-15.78-20.88-3.22-9.82-2.44-17.78-2.44-17.78.53-5.43 2.1-8.93 1.1-9.45-1.73-.91-8.67 8.71-11.32 12.4-5.56 7.7-7.7 12.21-8.67 11.82Z"/><path fill="#273146" d="M1445.04 70.34c-.34-.37-5.06 3.15-9.16 7.16a70 70 0 0 0-9.67 12 82.45 82.45 0 0 0-7 12.34c-4.7 10.6-2.68 14.57-7.5 35.66 0 0-.75 3.27-4 12.67-2.07 5.98-3.16 8.36-5.5 10.33-3.38 2.86-7.26 3.09-7.17 3.5.1.44 4.5.43 9.17-1.33 3.11-1.17 5.7-2.88 9.67-5.5 3.63-2.4 4.91-3.53 5.33-3.17.62.53-1.3 3.66-4.5 8.84-3.3 5.35-4.96 8.03-7 10.16-3.59 3.77-6.2 4.8-5.83 5.84.45 1.25 5 1.58 8.83 0 3.98-1.65 4.71-4.36 8.83-5.17.34-.06 3.88-.73 4.5.5.8 1.58-3.51 5.65-7.33 8.17-5.34 3.52-9.8 4.05-9.67 5 .14 1.01 5.31 1.11 8.67 1.16 7.02.11 9.7-.54 16.17-.66 5.28-.1 12.6.15 12.66 1 .04.53-2.8.67-7.33 2.33-4.09 1.5-7 3.44-12.83 7.33-5.04 3.36-5.45 4.09-5.34 4.67.24 1.26 2.9 1.78 9.67 2.5 10.37 1.1 16.16 1.15 24 2.17 1.8.23 10.88 1.41 10.83 2.33-.03.62-4.2 1.02-7.5 1-6.3-.03-6.9-1.57-10.66-1-2.67.4-5.11 2-10 5.17-2.82 1.83-6.19 4.01-5.84 4.83.27.63 3.64-1.71 7.17-.83 2.95.73 4.82 3.4 6.67 6.83 4.78 8.9 4.13 13.08 6.33 17.17 4.79 8.9 19.12 9.87 35.67 11 3.22.22 7.26.31 33-1.67 24.07-1.85 31.6-2.8 35.5-3.33 1.1-.15 15.08-2.09 32-7.17 4.12-1.24 12.92-4.02 18.83-11.83 1.29-1.7 3.12-4.55 2.5-5.17-.95-.97-6.24 5-15 8.83-7.85 3.45-14.75 3.54-25.17 3.67-6.33.08-16.18.21-16.66-2.17-.37-1.81 4.99-3.87 13.16-8.16 16.22-8.52 26.59-16.92 26.34-17.34-.27-.44-11.91 9.93-29.34 12-10.33 1.23-18.75-.93-25.5-2.66-12.01-3.1-25.44-9.06-24.83-11.5.9-3.59 31.82 1.85 32.17-.17.29-1.66-20.56-6.33-42.17-16.5 0 0-10.08-4.74-21.5-16.5-1.38-1.42-3.24-3.44-2.83-4 .76-1.04 8.35 4.56 18.83 8.67 10.25 4.01 18.87 4.88 25 5.5 5.07.5 14.3 1.37 26-.5 10.05-1.61 18.96-4.78 18.83-5.34-.1-.4-5.06.98-11.5 1.34-13.78.76-24.53-3.76-29.33-5.84-10.78-4.67-19.19-8.3-22.33-16.83-2.61-7.08-.32-14.11 1-18.17 4.05-12.42 13.08-19.2 12.33-20-1.08-1.15-17.96 15.2-20.83 12.84-1.75-1.44 1.94-9.64 6.5-16 9.3-12.99 20.86-16.37 20-18.67-.86-2.3-13.63-2.27-24 4.5-9.69 6.32-12.92 15.66-15.34 14.67-1.97-.82-1.22-7.68.17-12.34 2.24-7.46 7.04-12.27 10-15.16 6.04-5.91 11.47-8.26 11.17-8.84-.33-.62-6.92 1.51-13.5 5.34-4.96 2.88-13.85 8.04-19.17 17.83-5.97 11-4.35 22.15-6.17 22.17-1.12.01-2.01-4.24-2.66-7.34-1.35-6.4-2.75-13.08-1-21.16.95-4.4 3.69-9.32 9.16-19.17 3.94-7.07 6.59-10.66 6.34-10.83-.4-.29-9.1 7.77-15.67 20.33-3.43 6.56-4.54 11.04-7.67 11.33-2.97.29-6.37-3.37-7.16-7-.66-2.98.84-5.7 3.83-11.16 1.8-3.29 3.8-6.88 7.67-10.34 2.83-2.53 5.46-3.93 5.33-4.16-.14-.25-3.52.94-6.83 3.16-10.08 6.79-13.65 19.22-13.63 20.21 0 .02 0 .09-.04.13-.36.33-2.57-2.6-6.33-4.34-1.78-.82-2.31-.63-2.5-1.16-.55-1.53 3.58-3.62 8.83-9.17 1.52-1.6 4.11-4.53 3.83-4.83Z"/></g><g id="c"><path fill="#333943" d="M1315.63 138.24c89.2 96.86 114 116.2 118.08 112.93 1.68-1.35.64-7.14 0-10.67-1.88-10.47-7.49-17.53-11.67-22.66-13.04-16.05-19.57-24.07-28.5-33-12.14-12.15-10.78-9.24-23.5-22-9.49-9.54-12.33-13.26-19.83-17.84-11.46-7-20.2-7.7-23.17-7.83-4.76-.2-8.71.44-11.4 1.07Z"/><path d="M1453.04 293.73c4.45 3.4 5.34 7.55 5.34 7.55.66 3.11-.34 5.74-.67 6.67-3.59 10.05-2.34 17.81-6.22 28.67-4.26 11.89-11.86 19.38-23.11 30.22-15.22 14.66-29.08 23-42 30.66-11.37 6.75-26.65 15.7-48.22 23.12-19.58 6.72-20.98 4.15-44.45 11.1-15.63 4.64-29.08 10.42-55.33 21.78-28.23 12.23-28.51 13.26-54.67 24.67-17.87 7.8-36.93 16.08-62.67 25.33-18.61 6.7-41.2 14.09-62 17.56-13.3 2.22-19.95 3.33-25.33 3.11-6.4-.26-11.64-1.3-18.89.89-3.49 1.06-4.64 2.02-11.55 6-12 6.9-19.5 11.17-29.11 14.22-6.57 2.08-9.85 3.12-14.45 2.9-3.94-.2-7.34-1.21-22.67-9.56-11.93-6.51-13.7-7.99-19.77-10.67-9.12-4.02-12.92-7.3-17.78-6-.82.22-2.86.87-7.78 6-9.77 10.19-10.36 16.66-19.55 24.44a35.51 35.51 0 0 1-6.23 4.45c-10.05 5.54-23.36 5.86-26.22 2.89-7.94-8.25 35.78-71.62 90.49-126.36 43.48-43.5 138.86-136.5 290.84-168.53 0 0 152.29-32.1 232 28.89Z" class="ar"/><path fill="#27292f" d="M1198.4 125.37c-5.12-2.9-10.76.7-26.12 7.58-16.47 7.38-37.43 13.92-79.35 27-53.26 16.62-74.55 12.08-76.1 21.11-2.28 13.14 41.05 32.8 76.21 41 30.9 7.2 60.81 14.19 84.45-3 33.73-24.52 36.37-84.94 20.92-93.7Z"/><path fill="#303133" d="M877.3 187.95c.32-2.3 2.24-3.86 4.24-5.45 6.36-5.02 13.37-5.97 19-6.66 13.63-1.68 20-2 26.84-2.84 9.74-1.18 15.13-2.75 22.33-4.33 27.45-6.02 34.86-2.02 66.17-7 13.94-2.22 9.08-2.47 40.66-9 29.67-6.13 29.31-4.95 47.67-9.17 14.6-3.35 27.79-7.23 54.17-15 23.36-6.87 23.48-7.34 31.66-9.16 10.06-2.24 26.64-5.84 48.17-5.67 14.36.12 29.57.24 47.67 7 17.78 6.65 37.48 19.39 35.83 23.67-1.69 4.37-36.75-20.26-84.5-16.17-27.08 2.32-51.46 13.25-52.35 10.83-.73-1.97 15.4-9.32 14.85-10.5-.45-.99-12.22 3.3-22.17 7.34-16.75 6.81-21.45 10.18-33.83 15-7.53 2.93-13.91 4.68-26.67 8.16-27.62 7.56-36.1 7.75-60.16 15-7.93 2.4-12.93 4.16-18.84 6.17-61.88 21.1-114.9 38.67-144.66 23.33-3.3-1.7-17.05-8.78-16.08-15.55Z"/><path fill="#2f2e35" d="M905.3 188.09c.07-.18.35-.06 5-1.26 3.27-.83 5.62-1.54 6.33-1.74 8.73-2.54 8.9-3.46 14.16-4.59 7.65-1.62 9.46-.35 12.75-2.83 1.04-.77 1.16-1.12 6.09-6.58.92-1.03 3.26-3.6 4.41-4.84a77.54 77.54 0 0 1 16.92-13.41c4.82-2.82 6.64-3.14 7.42-3.25 4.99-.7 9.06 1.49 10.83 2.41 11.12 5.8 3.53-.84 25.58 10.42a391.2 391.2 0 0 1 29.92 17c17.52 10.98 17.34 12.37 29.83 19.58 13.35 7.71 20.03 11.56 30.34 14.5 13.41 3.83 12.52.33 39.83 5 6.02 1.03 13.05 2.4 13.83.5.53-1.26-1.96-3.36-6.41-7.08-11.75-9.8-17.62-14.7-18.17-15-5.5-3.1-17.13-8.42-24.08-11.25-1.16-.47-4.48-1.8-4.42-3.42.04-1.07 1.57-1.78 2.67-2.33 7.62-3.82 6.91-6.1 14.83-9.58 2.92-1.29 5.09-1.88 6.58-2.34 6.23-1.87 12.08-4.55 33.67-16.83 18.02-10.25 16.04-9.57 20-11.42 9.88-4.6 17.75-6.72 27.25-9.25 10.1-2.68 20.78-5.51 35.08-6.83 10.57-.97 23.37-2.15 38.17.95 7.28 1.52 17.6 4.6 38.45 17.55 22.07 13.71 36.49 26.4 57.33 44.89 24.7 21.92 36.42 35.3 43.55 44 2.92 3.55 10.38 7.8 12 15.56.43 2 .6 4.7 2 9.22a60.83 60.83 0 0 0 3.5 8.66c2.6 5.29 3.83 6.12 5.67 9.67.68 1.3 1.91 3.88 4 14.17 1.1 5.37 2.74 14.02 3 18.33 1.15 19.02-20.42 37.58-27.5 43.67-4.73 4.07-13.1 10.67-44 25.33-20.93 9.93-22.9 9.66-67.67 28.5-27.31 11.5-33.57 14.55-47.5 18.33-4.97 1.36-5.53 1.34-37.16 8.17-33.16 7.16-36.66 8.07-41.67 9.83-8.1 2.85-7.43 3.49-38.33 20.34-39.59 21.59-36.1 18.12-51.67 27.66-6.64 4.08-11.6 6.6-21.5 11.67-13.14 6.72-20.58 9.78-29.17 8.17 0 0-4.8-.9-8.88-3.4-19.38-11.79-5.7-81.92-4.12-89.77 20.81-103.3 35.23-103.22 29-125.67-18.85-68.03-159.33-97.68-157.75-101.41Z"/><path d="M966.84 189.96c.9-.61 4.5.68 4.83.8 1.98.7 3.76 1.66 6.96 4.08 3.57 2.7 4.35 2.1 10.46 5.37 7.66 4.11 7.26 5.48 14.83 9.71 2.89 1.62 2.21 1 11.8 5.53 7.79 3.68 11.69 5.52 15.32 7.67a86.6 86.6 0 0 1 12.23 8.44c4.33 3.61 3.98 4.1 8.5 7.94 3.15 2.69 7.13 6.07 12.72 9.06 7.78 4.17 10.55 3.22 13.5 7.06 2 2.59 2.44 5.24 3.11 9.6 1.12 7.25.47 12.97 0 16.9-1.57 13.12-2.36 19.67-3.56 25.22-1.46 6.76-1.9 7.08-7.33 25.78-5.46 18.84-4.87 18.06-7.67 26.66-4.74 14.6-7.11 21.9-7.88 23.11-.73 1.13-2.25 3.37-2.28 6.45a12.28 12.28 0 0 0 7.16 10.89 11.8 11.8 0 0 0 5.84.83c5.77-.47 8.81-4.22 14.66-8.28 2.98-2.06 3.25-1.82 12.45-6.55a1118.9 1118.9 0 0 0 44.72-24.61c7.31-4.25 11.53-6.83 18.56-9.23 6.95-2.37 12.89-3.27 17.77-4 7.6-1.12 13.31-1.28 21.73-1.5 7.1-.18 7.34.06 20.72 0 14.18-.05 17.78-.33 20.11-.55 9.71-.92 14.57-1.37 18.56-3.84 3.23-2 6.4-6.42 12.72-15.27 4.52-6.33 4.36-6.7 8.28-12 2.3-3.13 5.8-7.82 10.94-13.4 4.75-5.14 8.7-8.64 12-11.55 6.23-5.49 9.35-8.24 14.11-11.22 5.07-3.17 6.26-3.07 13.22-7.44 4.68-2.94 4.1-2.96 9-6 3.34-2.08 4.04-2.34 13-7.45 5.3-3.02 6.67-3.67 6.67-3.67s-7.08 5.2-17.11 13.12a367.65 367.65 0 0 0-16.67 14c-7.34 6.49-11 9.73-15.1 14.22-1.13 1.22-4.87 5.96-12.34 15.44-13.85 17.57-10.3 13.51-12.78 16.45-2.94 3.48-3.97 6.23-3.97 6.23s5.47-3.37 8.97-5.9c8.26-5.99 13.58-10.6 17-13.44 1.04-.87 10.49-8.66 22.44-16.12a192.56 192.56 0 0 1 23.56-12.44c5.95-2.7 10.94-4.64 30.44-11.33a1558.45 1558.45 0 0 1 33.78-11.23l-65.78 25.23s17-.6 35.56-1.23c1.2-.04 3 .67 3 .67s-21.47 17.63-43 29.89c-11.67 6.65-21.99 9.02-31.78 12.22-18.55 6.07-27.73 7.3-46.44 14.56-10.34 4-23.22 12.22-23.22 12.22s14.45 2.34 31.44 1.67c7.85-.32 17.33-.7 29.78-2.23 7.12-.87 13.3-1.89 23.44-2.44 6.12-.33 12.31-.52 14.34-.89 23.87-4.36 43-8.78 43-8.78s-38.36 9.92-57.56 14.78c-39.14 9.9-48.4 12.35-66.11 16-17.81 3.68-28.31 5.82-43.45 7.56-21.76 2.5-24.26.86-41.88 3.55-8.85 1.35-21.05 4.6-45.45 11.11-26.47 7.06-39.82 10.66-45.33 13.67-11.29 6.17-16.31 11.73-27.22 12.44-3.2.22-9.09.16-15.56 3.45-2.33 1.19-7.19 3.74-8.22 8.44l-.03 5.61s2.87-3.39 48.11 7.42c9.53 2.28-34.64-8.53-37.08-1.7-.66 1.84 9.47 2.82 23.66 9.84 3.26 1.61 13.61 9.02 14.56 17.72.06.57 1.68 3.35-.11 4.67-7 5.17-33.33 26.03-37 27.11a56.93 56.93 0 0 1-14.89 2.44c-6.9.18-17.6-.13-19.22-1.91-2.58-2.8-7.77-6.27-6-18.75 1.33-9.44 1.94-34.52 1.66-36.84-.14-1.2-.47-4 1-6.66 2.82-5.1 9.13-4.11 10.17-8.17.5-1.98-.43-4.45-1.67-4.83-1.23-.39-2.68 1.32-2.83 1.16-.25-.27 4.98-4.22 7.67-9.83 1.51-3.16 1.51-5.37 2-10 .29-2.78 1.75-10.35 4.66-25.5 1.49-7.68 2.69-13.12 2.84-13.83 6.45-30.64-69.6-178.9-63.04-183.38Z" class="af"/><path fill="#24252b" d="M954.47 189.23s7.8-.02 9.16.25c5.1 1.02 8.46 4.3 9.78 5.61 9.2 9.2 13.8 13.8 16.22 16.9 8.98 11.44 9.41 8.7 20.89 22.1 9.2 10.77 14.92 17.45 20.16 28.28a83.85 83.85 0 0 1 8.4 31.67c.38 6.73.8 12 .8 12l-85.4-116.8Z"/><path fill="#34373e" d="M930.15 191.3c.68.3.85 1.58 2.31 2.26 51.06 23.54 81.01 125.45 85.18 140.99 1.95 7.24 11.13 9.32 12.04 16.83 1.46 11.96 1.42 22.75 2.64 22.96 1.3.22 3.93-9.55 4.22-10.67 2.96-11.13 3.52-20.43 3.78-28 .48-13.71.72-20.57 0-26.44-2.5-20.48-11.1-35.43-16-43.78-5.08-8.66-9.93-14.66-16.22-22.45-6.33-7.84-5.73-6.16-20.44-22.88-.54-.6-8.86-10.07-20.23-21.78-5.94-6.12-7.46-9.14-10.66-9.11-9.67.07-20.96-.4-26.62 2.07Z"/></g><g id="d"><path d="M1012.04 409.34C979.6 392.95 922.4 438 908.21 449.17c-28.65 22.57-33.4 35.68-32.5 45.33.2 2.06.8 8.63 5.5 11.84 7.54 5.15 18.86-3.02 40.67-13.17 24.59-11.44 48.13-18.7 54.5-20.67 24.88-7.67 30.74-6.47 38.16-14.5 9.3-10.04 14.61-27.58 7.84-39.33-.8-1.37-3.65-5.95-10.34-9.33Z" class="af"/><path fill="#c18d7b" d="M996.84 456.73c-.7-2.75 6.68 3.83 6.68 3.83 3.45 2.95 7.86 6.7 10.75 12.42 2.73 5.42 2.95 10.3 3.1 14 .23 5.18.55 12.5-3.33 18.89-2.53 4.18-4.86 4.68-24 15.11-12.28 6.7-12.2 6.97-15.22 8-5.74 1.96-11.64 2.68-23.44 4.11-5.44.66-8.17.98-9.11.67-10.76-3.62-25-52.57-1.36-58.09 18.94-4.42 58.3-9.64 55.93-18.94Z"/><path fill="#1f2332" d="M986.54 428.23s-8.56 9.6-15.66 19.12c-.79 1.06-1.48 2.12-1.11 2.9 1.34 2.8 15.78-.12 27.27-6.06 5.6-2.9 13.97-9.5 21.5-17.4 7.38-7.75 6.16-24.25 6.28-27.95.11-3.29-17 20.22-38.28 29.39Z"/><path d="M1028.15 382.21c-3.11-1.73-22.1 38.64-37.16 50.24-11.87 9.14-13.83 10.5-13.83 10.5-3.02 2.1-5.96 4.02-5.78 4.33.21.38 4.78-1.77 6.66-2.72 12.53-6.29 13.44-12.73 25.28-21.28 9.3-6.7 14.23-6.7 18-13.72 2.3-4.3 8.19-26.59 6.83-27.35Z" class="af"/><path d="M1010.43 379.17c5.82-3.87 20-17.06 20.23-17 .55.12-.6 18.61-3.84 29.78-2.3 7.94-4.42 10.09-6.83 14-2.13 3.48-4.9 5.25-6.66 6.44-9.53 6.44-6.16 6.95-27.9 25.23-10.79 9.07-13.53 10.55-16.88 11.44-3.65.97-9.92 1.74-13.89 2.22-3.51.43-5.27.64-5.56.34-4.72-5.13 58.2-70.36 61.33-72.45Z" class="p"/><path fill="#2f313a" d="m683.5 350.24 1.27 2.73c2.03 4.34 2.22 4.44 2.62 5.45 1.51 3.86.7 7.64.49 8.58-.72 3.32-2.02 3.83-1.69 4.77 1.54 4.36 33.37 4.38 42.39-12.1.62-1.13 4.03-7.36 1.46-12-2.28-4.14-8.29-6.81-13.57-5.27-29.97 8.76-32.96 7.84-32.96 7.84Z"/><path fill="#3c424f" d="M663.55 236.67c-1.95 1.05-.97 14.39-.5 14.24.87-.28 10.27-1.26 13.76.58 2.1 1.11-10.04-16.55-13.26-14.82Z"/><path fill="#3d4b62" d="M844.66 184.12c-1.4-1.07-20-.18-23.58.55-10.63 2.15-21.55 2.77-32.08 5.33-29.74 7.22-24.6 4.92-37.75 8.67-10.7 3.04-5.98 2.25-40.67 14.33-14.93 5.2-28.2 14.36-42.75 20.5-1.11.47-4.93 2.06-5.08 4.5-.1 1.53 1.3 2.68 6.16 6.92 5.07 4.4 5.64 4.97 6 5.25 10.07 7.78 95.62-19.22 142.4-53.34 3.94-2.88 29.44-11.12 27.35-12.71Z"/><path fill="#3b4a60" d="M808.2 195.83c-.3-.62-11.46 2.1-22 4.9-8.9 2.36-10.73 2.19-20.77 4.66a299.56 299.56 0 0 0-17.67 5 450.88 450.88 0 0 0-25 8.56c-21.58 7.94-15.87 7.14-26.78 10.67 0 0-8.7 2.8-19 9.77-1.77 1.2-4.73 3.32-4.77 6.23-.04 2.39 1.9 4.3 2.67 4.88 5.31 4.05 21.35-4.92 33.39-12 24.5-14.4 28.44-8.17 63.5-24.44 16.45-7.64 36.96-17.12 36.43-18.23Z"/><path fill="#283045" d="M676.35 250.95c.1.85 4.51 13.72 5.82 15.26 2.79 3.3 3.43-2.32 8.08-2.25 4.7.07 9.17-8.86 17.08-13.05 5.66-3 8.9-3.72 13.54-5.47 17.37-6.56 17.83-13.95 35.19-21.17 10.33-4.3 19.04-5.37 31.7-13.94 4.57-3.1 4.87-3.93 4.73-4.23-.76-1.59-17.15 5.02-31.84 10.45-47.79 17.67-85.13 27.22-84.3 34.4Z"/><path fill="#39445f" d="M829.82 184.5c.97-.2 2.84-.56 8-.66 9.19-.19 16.59.67 22.84 1.5 13.68 1.8 11.96 2.16 20 3 5.25.54 12.74 1.3 22.33 1 10.8-.34 11.24-1.6 17.17-.84 6.14.8 10.2 2.76 18.33 6.67a68.9 68.9 0 0 1 17.91 12.73s-7.54 6.1-10.24 6.94c-26.81 8.25-79.4 14.4-91.84 16.16-11.81 1.68-72.28 10.27-106.83 39.84-4.27 3.65-19.63 17.45-31.47 13.06-2.2-.82-12.64 1.29-17.37-4.85-7.06-9.16-9.22-14.93-9.22-14.93s8.3-10.62 25.84-19.4c3.44-1.71 11.51-6.25 27.66-15.33 18.27-10.26 16.2-9.57 23.11-13.1 14.13-7.24 15.83-6.58 30.78-14.45 10.78-5.68 16.16-8.51 17.56-9.45 4.79-3.2 8.73-6.44 15.44-7.89Z"/><path fill="#252c41" d="M953.28 204.85s3.17 2.26 5.89 4.45c5.75 4.61 8.63 6.92 8.51 8.05-.46 4.4-26.74 4.18-49.95 6.06-4.12.33-32.55 2.74-62.56 10.77-32.7 8.76-60.72 22.43-71.33 27.67-14.61 7.2-30.68 11.41-44.78 19.56-8.13 4.7-31.31 30.66-35.6 23.43-2-3.38-4.37-25.5-6.36-28.5-1.3-1.96 12.7-2.5 15.74-3.38 7.7-2.2 7.06-3.96 20.55-10.89a206.69 206.69 0 0 1 24.9-10.66c2.27-.83 4.52-1.6 30-8.78 18.97-5.35 21.6-6.01 28.44-8.22 10.47-3.4 11.29-4.1 18.55-6.23 10.54-3.1 18.42-5.54 26.49-6.9 42.6-7.19 37.78-6.36 45.83-8.66 19.21-5.52 45.68-7.77 45.68-7.77Z"/><path fill="#353d5b" d="M966.54 215.49s12 12.43 12.4 13.14c1.15 2.1.8 3.33.77 4.2-.2 7.02-51.99 9.1-88 14.16-39.21 5.5-109.55 21.52-133.17 38.16 0 0-52.11 25.18-54.23 20.56-2.48-5.39 22.81-25.69 30.85-27.5 5.6-1.26 17.63-8 49.38-25.17 19.68-10.63 24.16-12.81 34.84-17.5 6.7-2.94 16.76-7.3 28.55-10.44 18.61-4.94 22.62-1.77 45.9-4.45 22.1-2.54 72.71-5.16 72.71-5.16Z"/><path fill="#1f293f" d="M906.97 243.03c-4.02.33-10.84.97-21.58 2.58a401.68 401.68 0 0 0-34.92 6.58c-12.93 3.09-12.58 3.82-34.83 10.25-29.88 8.64-28.24 6.66-41.33 11.5-19.54 7.22-19.9 10.4-35.84 14.5-11.56 2.98-33.36 15.68-30 17.49 9.5 5.1 7.96 35.3 7.96 35.3s86.29-47.49 185.88-82.79c7.44-2.64 33.83-11.76 33-15.16-.62-2.52-15.98-1.27-28.34-.25Z"/><path fill="#232635" d="M860.48 260.09s7.48 4.43 16.53 6.36c8.8 1.88 15.55 1 15.6 1.65.08.86-11.35 2.28-19.3 3.65 0 0-20.38 3.53-42.15 12.53-24.8 10.26-45.39 28.7-68.48 49.4 0 0-7.44 6.66-27.75 13.74-.87.3-6.1 2.08-7.75.08-.74-.89-.32-2-1.33-2.75-1.24-.9-2.6.26-4.33-.58-1.3-.62-4.85-1.6-5.06-2.06-.34-.75 2.08-2.83 3.26-6.66 1.38-4.53 1.18-6.68 1.49-6.94 12.28-10.56 68.56-37.34 68.56-37.34 11.49-5.8 27.8-14.85 32-17.17 20.5-11.35 38.7-13.91 38.7-13.91Z"/><path d="M978.54 228.09s2.3 2.39 4.96 5.41c11.83 13.47 18.99 22.5 17.71 28-2.7 11.69-46.37 8.22-108 7-28.22-.55-33.55-8.27-33.55-8.27s32.66-11.56 52.72-16.73c36.34-9.36 66.16-15.41 66.16-15.41Z" class="v"/><path d="M831.88 281.8c1.9-1.76 4.12-2.9 5.22-3.42 15.49-7.3 36.28-8.68 36.28-8.68 16.93-.32 33.5-4.97 50.33-6.88 60.54-6.88 77.38-4.73 77.38-4.73l17.4 39.84s-30.74 2.28-79.45 10.9c-30.34 5.39-43.67 14.93-69.66 14.6-19.41-.26-40.71-8.64-43.45-21.17-1.18-5.43-.2-14.74 5.95-20.46Z" class="v"/><path fill="#1f273b" d="M835.8 279.05s2.34 5.64 2.92 8.67c.63 3.34.6 6 .5 9-.48 12.86-1.63 15.45.57 17.95 1.73 1.96 61.23-4.2 74.75-5.25 33.23-2.56 44.33-6.15 44.33-6.15s-40.52 34.88-96.65 44.45c-38.7 6.6-58.7 3.22-75.29 23.62-3.07 3.78-20.65 10.47-32.88 13.88-1.74.48-14.24 3.97-20.83-2.67-5.01-5.04-5.87-12.44-4.84-21.49.51-4.55.53-10.71 3.33-15.83 5.06-9.23 17.1-15.22 19.92-17.3 52.91-39.1 84.16-48.88 84.16-48.88Z"/><path fill="#252a33" d="M900.82 320.57c-8.8 2.46-31 13.9-31 13.9s67.53-8.43 67.17-12.85c-.08-.95-3-1.38-7.17-2-5.25-.79-12.6-3.63-29 .95Z"/><path fill="#333b5a" d="M899.72 321.8c-.1-1.25 3.88-2.48 8.45-3.89 35.23-10.88 33.36-10.66 40.1-12.22 12.05-2.79 20.28-4.7 32.12-6.33 30.54-4.23 36.2-6.6 36.2-6.6s11.33 26.88 6.7 38.89c-6.63 17.22-25.45 23.3-85.9 40.04-98.7 27.34-99.17 24.72-116.11 34.11-26.58 14.73-39.48 28.98-53.78 23.22-14.63-5.9-23.7-29.9-16.78-44.33 1.26-2.63 3.97-6.86 26-18.22 12.25-6.32 16.23-5.98 33.46-15.97 8.86-5.14 18.82-11.35 27.43-12.25 60-6.34 74.33-11 88.64-14.09 3.95-.85 8.97-3.3 8.92-3.47-.1-.3-8.32 3.2-18.67 3.78-7.84.43-16.63-.84-16.78-2.67Z"/><path d="M851.96 396.34c-.3-.34-.93-3.31-3.29-2.67-10.15 2.77-8.82.08-13.6.65-15.85 1.91-67.27 23.74-65.7 33.85.36 2.25 2.58 1.95 6.5 6.5 7.53 8.72 5.06 16.43 8.5 18.83 11.39 7.94 71.03-53.27 67.6-57.16Z" class="al"/><path fill="#222631" d="M864.8 392.63c-7.55.06-13 4.93-16.45 7.78-5.7 4.7-13.31 8.84-28.56 17.11-18.72 10.17-26.73 10.22-32.55 20-2.68 4.5-5.03 12.23-2.97 13.94 2.15 1.78 8.23-3.55 30.2-20.16 32.32-24.44 38.44-27.1 49.3-29.63 3.94-.91 10.36-4.09 10.36-5.92 0-1.5-4.9-3.15-9.34-3.12Z"/><path fill="#222430" d="M1024.38 325.67s2.53 9.12 1.32 12.76c-4.36 13.1-27.33 9.17-64.54 22.24-14.76 5.19-10.52 5.58-42 18.56-29.68 12.23-40.39 14.73-46.74 15.98-20.88 4.11-42.14 3.99-42.49 1.63-.36-2.47 22.36-5.97 65.84-18.67 33.98-9.92 50.97-14.88 66.33-22.17a3352.2 3352.2 0 0 0 62.28-30.33Z"/><path fill="#343b59" d="M1025.96 337.67s.6 2.81.42 3.67c-4.49 21.16-42.24 48.16-45.09 50.08-37.6 25.41-29.43 34.1-62.41 58.08-60.27 43.85-137.44 45.73-143.17 32.5-1.85-4.28 2.04-14.23 5.67-23.5 2.1-5.39 3.64-7.77 4.79-9.33 3.69-5.02 7.84-7.57 12.7-10.5 16.79-10.1 17.78-10.07 23.84-14.08 8.93-5.9 8.59-7.15 17.42-12.92 6.7-4.38 12.84-7.55 20-10.83 25.48-11.69 40.14-13.94 66.14-24.78 6.61-2.76 2.49-1.29 25.66-12 59.6-27.55 74.03-26.39 74.03-26.39Z"/><path d="M1030.38 361.44c-4.11-3.94-31.66 21.76-46.88 37.52-3.57 3.7-5.5 6-5.07 6.56.98 1.24 11.18-8.94 30.2-18.3 7.84-3.87 15.26-6.65 18.87-14.42.7-1.52 4.4-9.92 2.88-11.36Z" class="af"/><path d="M1026.38 341.34s-6.42 7.83-14.75 19.25c-2.44 3.34-6.67 8.74-30.8 28.91-16.27 13.6-29.6 24.7-49.23 38.23-19.5 13.45-27.4 17.03-34.11 19.44-9.02 3.24-12.14 3.02-27.22 6.89-18.75 4.81-20.18 6.75-39.11 12.33-34.68 10.22-47.24 8.82-50.23 17.56-2.57 7.53 3.5 18.14 7.56 18.11 3.3-.02 8.06-4.55 11.28-10.28 8.83-15.72 26.34-19.64 52.5-25.6 7.1-1.63-2.33.27 61.77-20.56 17.6-5.73 47.46-15.34 58.56-31.67.88-1.3 3.1-4.77 6.89-9.11 1.62-1.86 6.17-6.89 19.78-16.9 3.92-2.87 5.28-3.73 17.44-12.44 9.32-6.66 10.65-7.68 12-10 5.37-9.18-2.33-24.16-2.33-24.16Z" class="p"/><path fill="#2e354a" d="M1009.9 386.59c.43.1.87 4.04 1.03 5.19.63 4.38-2.81 8.06-4 9.83-18.8 28.14-37.18 41.58-46.05 44.48-39 12.75-22.14 2.47-42.92 18.33-31.7 24.2-40.74 40.32-81.86 60.44-16.3 7.97-24.26 9.32-30.09 5.92-10.65-6.23-15.81-26.48-9.28-40.88 10.19-22.43 40.33-19.3 88.2-36.54 64.95-23.38 119.84-68.03 124.98-66.77Z"/><path fill="#262b38" d="M920.66 464.9c-27.73 15.19-29.64 22.98-33.62 33.45-.9 2.34 6.03 4.51 11.64-1.38 13.42-14.09 17.84-10.59 31.59-28.24 2.24-2.88-8.65-4.37-9.61-3.84Z"/><path d="M920.66 464.9s-5.92 1.77-6.62 2.27c-4.2 3.02-7.67 6.74-24 18.83-10.45 7.75-8.43 6.93-19.5 15.17-10.66 7.95-16 11.92-20.25 14.33-21.22 12.06-42.72 12.14-42.62 14.5.06 1.3 7.02.84 13.62 1.17 22.27 1.12 57.64-5.38 72.34-29.25 2.78-4.5 1.63-6.16 6.08-11.25a432.33 432.33 0 0 0 20.95-25.78Z" class="al"/><path fill="#2c354c" d="m813.38 528.53.16 2.06c1.16 12.8-4.05 26.47 14.5 39.66 2.6 1.85 5.68-2.55 8.42-4.83 42.58-35.36 44.17-41.03 47.47-44.53 6.95-7.35 10.9-9.72 14.67-13.83 1.45-1.58 6.37-10.86 4.43-11.9-8.35-4.46-24.62 10.72-43.48 21.12-9.6 5.3-18.77 8.44-46.17 12.25Z"/><path fill="#202632" d="M784.73 449.62s0 10.68-.81 13.76c-5.67 21.53 4 36.5 4 36.5l8.87-10.25c.3-.19 7.49 25.84 11.42 39.7.64 2.25 5.17-.8 5.17-.8s17.97 34.3 12.03 37.64c-3.93 2.2-10.31-13.33-32.6-25.3-14.27-7.67-21.82-15.97-25.43-28.03-1.86-6.2-.67-5.68-2.13-12.42-4.56-21.1-26.3-26.17-24.67-34.89 1.98-10.52 44.15-15.91 44.15-15.91Z"/><path fill="#e9d2c4" d="M996.96 456.09c-.7.26-14.57-.92-21.83-2a130.36 130.36 0 0 0-21.09-1.34c-3.96.03-5.94.04-8.75.34-8.86.95-8.84 2.83-14.33 2.58-2.16-.1-6.23-.57-11.17 0-1.04.12-2.77.37-3.16 1.42-.36.95.5 2.21 1.25 2.91 1.87 1.74 3.67.5 6.33 2.17 1.42.88 1.16 1.4 2.92 2.5a12.22 12.22 0 0 0 3.91 1.58c3.25.74 5.68-.05 8.5-.5 2.29-.36 6.97-1.1 11.42.25 4.74 1.45 3.92 3.65 9.92 6.17 4.76 2 6.87 1.29 8.91 3.75 1.71 2.06.8 3.25 2.84 6.17a16.86 16.86 0 0 0 5.75 4.91c4.15 2.37 6.43 1.8 7.58 4 .62 1.18.8 2.95 0 4.17-1.36 2.09-4.32.68-8.17 2.42-.97.44-1.84 1-6.33 6.08-5.73 6.48-5.12 6.32-6.58 7.75-6.6 6.47-12.09 4.75-18 11.83-.7.84-3.1 3.72-2.34 4.84.73 1.06 3.9 0 7.59-1.17 13.56-4.3 10-2.5 15.91-4.75 6.87-2.61 14.64-5.58 23.5-11.67 5.78-3.96 8.67-5.95 10.92-9.5 4.13-6.5 3.95-13.41 3.75-20.66-.23-8.47-2.25-13.76-3.42-16.34-1.99-4.41-4.8-8.3-5.83-7.91Z"/><path fill="#d8c4b8" d="M929.93 471.5c.5-.05 2.94-.34 4 1 .6.75.72 1.94-.77 9.23-.46 2.2-.7 3.23-.23 3.55.7.47 2.1-1.17 5.56-2.78 2.24-1.04 3.62-1.65 4.89-1.1.3.13.97.49 2.44 3.66.87 1.87 1.22 3 2 5.11 1.5 4.04 1.61 3.7 2.11 5.45.55 1.9.71 3.44 1 6.44.37 3.76.55 5.63.45 7.44-.18 3.12-1 4.86-2.9 9.67-4.7 12.04-4.48 13.68-7 15.11a9.84 9.84 0 0 1-8.88.22c-2.33-1.11-4.82-3.51-5.22-6.44-.28-2.08.6-3.66-.11-4.11-.82-.52-2.08 1.51-4.45 1.67-1.99.12-3.54-1.16-5.1-2.45-1.46-1.2-3.93-3.23-4-6-.06-1.73.86-2.38.32-3.55-.48-1.08-1.52-1.13-3.66-2.23-2.41-1.22-4.64-2.36-4.78-3.89-.15-1.65 2.29-2.29 2.33-4.77 0-.18.04-1.7-.77-2.11-1.02-.54-2.35 1.16-3.34.66-.33-.17-.5-.52-.8-2.79-.51-3.95-.25-4.64.14-5.1.56-.67 1.37-.82 1.66-.89 4.1-.91 11.53-7.78 14.45-10.77 5.88-6.03 6.54-9.74 10.66-10.23Z"/></g><g id="e"><path d="M139.07 596.16c.09.22 22.33-5.25 29.09-6.88 31.49-7.57 51.08-18.66 63.77-24.44 18.03-8.2 14.85-2.35 75.56-14.9 11.83-2.43 35.44-8.21 82.67-19.77 45.66-11.17 50.52-12.67 70.22-16.89 16.44-3.52 25.54-5.16 49.1-10.44 26.67-5.98 25.4-6.21 34.68-7.78 20.17-3.41 38.56-4.4 55.77-5.33 17.37-.94 21.63-.58 31.56-2.67 17.07-3.6 16.74-7.26 29.33-9.11 16.8-2.47 18.71 3.85 44.22 4 15.9.1 18.53-2.34 26 .67 10.38 4.17 13.94 12.34 22 23.33 15.63 21.3 36.23 36.96 38.67 35.11 3.64-2.76-21.41-53.36-46.3-77.48C617.6 339.74 137 590.72 139.07 596.16Z" class="ar"/><path d="m700.4 368.06 5.42-1.89c18.89-6.6 22.48-8.35 25.22-6.44 1.98 1.37.7 2.67 3.9 11.33 2.3 6.24 4.26 11.4 8.1 12.33 2.88.7 3.96-1.64 6.12-1.22 6.95 1.35.22 26.68 12.66 41.33 9.03 10.64 21.86 8.23 23.9 17.67 1.06 4.98-1.29 11.32-5.34 14-3.07 2.03-5.43.85-13.22 2.67-4.67 1.09-7.65 2.4-9.23 3-14.27 5.34-58.2 5.32-62.66 5.33-11.98.04-27.32 2.99-58 8.89-14.55 2.8-37.4 7.63-72.9 14.89-23.79 4.86-34.99 6.74-35.83 5.33-3.1-5.21 33.27-33.03 171.85-127.22Z" class="q"/><path d="M708.09 367.13c10.38-.96 12.16 16.12 12.16 16.12.46 6.92.83 12.59.38 15.75-4.6 32.18-7.5 48.1-12.25 53.17-10.12 10.77-19.43 3.04-57.34 11.17-23.27 4.99-24.17 8.85-51.66 14.83-25.89 5.64-38.83 8.45-48.75 3.88-25.13-11.6-70.56-52.1-55.61-69.02 10.25-11.6 59.45-1.62 92.7-8.86 71.57-15.58 79.66-33.28 120.37-37.04Z" class="az"/><path d="M527.54 407.84a35.9 35.9 0 0 1 5.67 2.5c17.55 9.8 24.9 34.72 22 54.83-.9 6.19-1.4 17.15-11.75 24.92-8.8 6.6-20.91 7.87-24.58 8.25-36 3.66-58.95 14.5-175.84 32.83-40.1 6.3-48.32 3.84-70.83 10.33-32.31 9.33-57.4 21.36-62.72 15.67-6.63-7.1 7.2-50.64 36.33-59.33 52.2-15.57 68.64-15.37 144.72-47 36.4-15.14 107.88-52.64 137-43Z" class="ad"/><path d="M223.27 512.73c-.03 1.22-137.37 89.44-136.23 89.86 1.09.4 30.96.88 48.75-5.25 13.27-4.57 15.22-7.03 40.75-19.75 28.88-14.38 33.09-14.57 45.84-23.75 6.24-4.5 18.74-14.18 26-30.59 2.01-4.55 5.33-12.26 2.25-15.58-2.99-3.2-17.83-.52-27.36 5.06Z" class="u"/><path d="M219.66 499.28c-.62-1.26 10.2 1.32 16.22.47 7.15-1 7.38-4.83 9.12-3.54 1.66 1.24 8.38 13.48 6.54 14.3-7 3.08-27.45 9.02-27.08 3.69.41-5.86-3.75-12.77-4.8-14.92Z" class="k"/><path d="M204.5 493c-.59-.48 11.47-1.97 15.66-2.38 10.43-1.03 15.8-1.56 20.88 1.88.86.58 2.97 1.56 4.58 4.36 1.83 3.2-26.17 10.77-33.62 4.69-2.73-2.24-3.5-5.2-7.5-8.54Z" class="u"/><path d="m157.18 569.39-8.9 5.3c4.04.53 19.2-4.4 27.1-5.85 6.83-1.27 5.86-2.22 13.16-3.84 8.87-1.95 10.66-.62 16.5-2 6.04-1.41 12.07-4.7 20.92-11.58 9.81-7.61 19.09-19.62 25.56-35.84.81-2.03.95-5.57-.09-7.3-.89-1.5-2.93-1.82-3.3-2.02-3.55-1.93-14.7 6.78-24.38 11.79-46.66 24.15-62.68 46.23-66.76 48.57-.29.16-1.74.93-1.72 1.94 0 .45.3.83.6 1.11" class="g"/><path d="M212.16 493.28c-7.23-1.46-14.48.1-30 9.11-20.5 11.9-27.62 16.42-39.78 20.9-20.5 7.53-25.16 1.25-49.22 7.66-14.36 3.82-34.23 7.29-41.34 26.22-3.63 9.68-3.27 23.06 4.06 32.5 4.94 6.37 11.66 10.3 14 11.17 18.98 7.12 41.08-3.55 92.28-34.45 36.2-21.85 55.82-26 60.33-43.44 1.01-3.92 5-15.43-1.78-23.22-3.7-4.26-7.05-6.14-8.55-6.45Z" class="ba"/></g></svg>